<svg width="219" height="219" viewBox="0 0 219 219" fill="none" xmlns="http://www.w3.org/2000/svg">
<g clip-path="url(#clip0_2_8569)">
<rect width="219" height="219" rx="109.5" fill="#FF49B8"/>
<g opacity="0.3">
<path d="M236.329 17.2069C238.207 16.2912 240.108 15.3157 241.668 13.9032C242.46 13.1856 243.142 12.3933 243.694 11.4762C244.255 10.5442 244.634 9.52042 245.035 8.5134C245.713 6.80897 246.67 4.63618 248.658 4.16488C249.068 4.06778 249.337 4.08171 249.677 4.14103C250.038 4.20422 250.13 4.23922 250.477 4.40588C250.839 4.57965 250.933 4.64594 251.248 4.88305C251.524 5.09059 251.785 5.31672 252.039 5.55074C253.114 6.54443 254.055 7.68774 255.311 8.46709C256.829 9.4086 258.65 9.412 260.139 8.38562C261.963 7.12879 262.654 4.95445 262.965 2.86359C263.324 0.442535 263.567 -2.00036 263.862 -4.42994C264.165 -6.92998 264.469 -9.42987 264.772 -11.9299C265.054 -14.2497 265.324 -16.5775 265.326 -18.9176C265.328 -20.0838 265.289 -21.2776 265.058 -22.4238C264.828 -23.5679 264.425 -24.6327 263.856 -25.6509C263.295 -26.6567 262.565 -27.5286 261.834 -28.4125C261.11 -29.2873 260.458 -30.2393 259.691 -31.0752C257.199 -33.7907 252.895 -34.879 249.492 -33.2979C249.027 -33.0821 248.599 -32.8077 248.151 -32.5606C247.805 -32.3695 247.378 -32.1542 246.972 -32.2667C246.743 -32.3302 246.576 -32.4869 246.395 -32.7612C246.218 -33.0273 246.073 -33.4148 245.958 -33.7814C245.679 -34.6724 245.501 -35.5795 245.14 -36.4458C244.749 -37.3815 244.241 -38.2859 243.595 -39.0696C242.356 -40.5716 240.629 -41.689 238.655 -41.8473C236.779 -41.9978 234.816 -41.4242 233.558 -39.9638C232.961 -39.2695 232.607 -38.4076 232.206 -37.5945C232.03 -37.2375 231.863 -36.907 231.624 -36.6002C231.411 -36.3253 231.188 -36.1185 230.901 -36.0073C230.107 -35.7006 229.241 -36.1947 228.614 -36.6547C227.75 -37.2886 227.004 -38.063 226.292 -38.8589C224.901 -40.4114 223.548 -42.0141 221.669 -42.9934C219.931 -43.8985 217.921 -44.0238 216.165 -43.1037C214.577 -42.2715 213.407 -40.8723 212.225 -39.561C211.094 -38.3058 209.885 -37.0379 208.251 -36.5391C206.782 -36.0908 205.118 -36.3146 203.566 -36.5948C201.85 -36.9048 200.146 -37.3129 198.392 -37.3338C196.652 -37.3547 194.899 -36.857 193.56 -35.7127C192.12 -34.4833 191.26 -32.7922 190.718 -31.0055C190.153 -29.1418 189.999 -27.1974 189.964 -25.2594C189.922 -22.9182 190.075 -20.5765 190.364 -18.2538C190.946 -13.5715 192.034 -8.93473 193.334 -4.40314C194.655 0.201546 196.356 4.72988 198.862 8.83075C200.959 12.2632 203.672 15.3618 206.956 17.7043C210.164 19.9924 213.899 21.5555 217.847 21.8811C222.196 22.24 226.513 21.2506 230.566 19.7267C232.529 18.9883 234.443 18.1236 236.329 17.2069C236.705 17.0241 236.943 16.6343 236.789 16.2132C236.656 15.8506 236.174 15.5689 235.795 15.7529C232.042 17.5773 228.122 19.2575 223.994 20.0066C220.078 20.7173 216.079 20.5001 212.378 18.9726C208.957 17.5608 205.927 15.2546 203.477 12.495C200.581 9.2325 198.477 5.36086 196.884 1.31822C195.186 -2.98941 193.977 -7.50954 193.004 -12.0318C192.047 -16.4813 191.409 -21.0259 191.512 -25.5863C191.585 -28.7965 192.128 -32.9167 194.999 -34.8645C196.286 -35.7375 197.84 -35.8887 199.357 -35.7397C201.022 -35.5761 202.645 -35.1422 204.299 -34.905C205.967 -34.6659 207.727 -34.6222 209.313 -35.2739C210.99 -35.9632 212.263 -37.2905 213.454 -38.6131C214.509 -39.7857 215.635 -41.1824 217.041 -41.8203C218.597 -42.5258 220.275 -42.1496 221.687 -41.1912C223.385 -40.0382 224.599 -38.357 226.012 -36.8985C227.334 -35.5346 229.334 -33.7952 231.39 -34.5373C233.148 -35.1722 233.533 -37.1481 234.427 -38.5462C235.294 -39.9006 236.964 -40.4748 238.531 -40.3087C240.312 -40.1201 241.765 -39.038 242.769 -37.5937C243.296 -36.8345 243.689 -35.9999 243.98 -35.1236C244.255 -34.2942 244.388 -33.4187 244.735 -32.6133C245.087 -31.7976 245.639 -31.0639 246.519 -30.7946C247.636 -30.4524 248.63 -31.0543 249.563 -31.5987C250.977 -32.4234 252.673 -32.642 254.294 -32.3471C255.888 -32.0571 257.441 -31.2733 258.532 -30.0629C259.289 -29.2232 259.939 -28.2752 260.662 -27.4043C261.365 -26.5576 262.057 -25.7142 262.596 -24.75C263.694 -22.7855 263.815 -20.53 263.778 -18.3279C263.741 -16.0667 263.443 -13.8177 263.171 -11.5759C262.876 -9.14319 262.58 -6.71067 262.285 -4.278C262 -1.93097 261.778 0.43433 261.412 2.7702C261.135 4.54403 260.523 6.6657 258.697 7.42739C258.508 7.50607 258.313 7.57283 258.112 7.60644C258.003 7.62456 257.893 7.63462 257.783 7.64004C257.74 7.64206 257.476 7.63756 257.585 7.64469C257.435 7.63493 257.285 7.61216 257.138 7.58119C257.053 7.56338 256.969 7.54231 256.886 7.518C256.801 7.49306 256.884 7.51691 256.899 7.52187C256.852 7.50592 256.806 7.48873 256.76 7.47092C256.126 7.22435 255.762 6.94712 255.229 6.48682C254.167 5.56839 253.281 4.44893 252.141 3.61909C250.801 2.64413 249.138 2.20428 247.56 2.91083C245.584 3.7955 244.496 5.71212 243.721 7.63354C243.33 8.60153 242.976 9.58919 242.472 10.5062C242.017 11.3358 241.39 12.0937 240.681 12.7199C239.234 13.9981 237.521 14.9113 235.795 15.7527C235.419 15.9359 235.18 16.325 235.335 16.7464C235.468 17.1087 235.951 17.3913 236.329 17.2069Z" fill="white"/>
<path d="M240.906 36.6859C243.932 35.2105 246.99 33.6331 249.502 31.3564C250.727 30.2461 251.794 29.007 252.649 27.5887C253.565 26.0684 254.182 24.3971 254.836 22.7541C256.003 19.8197 257.647 16.2568 261.024 15.405C263.359 14.816 265.394 16.2466 267.02 17.7486C268.739 19.3377 270.248 21.1908 272.254 22.4407C274.581 23.8906 277.346 23.9356 279.641 22.3536C282.513 20.3754 283.567 16.9408 284.055 13.6549C284.641 9.70441 285.037 5.71831 285.518 1.75388C286.013 -2.32545 286.509 -6.40464 287.004 -10.484C287.458 -14.2269 287.898 -17.9833 287.902 -21.7593C287.907 -25.5316 287.458 -29.1637 285.593 -32.5021C284.676 -34.1432 283.485 -35.5661 282.293 -37.0083C281.112 -38.4355 280.05 -39.9906 278.797 -41.3531C274.865 -45.628 268.065 -47.288 262.721 -44.8052C262.003 -44.4719 261.338 -44.0497 260.649 -43.6636C259.974 -43.2846 259.148 -42.8882 258.355 -43.1003C257.156 -43.4207 256.658 -44.8282 256.327 -45.885C255.871 -47.3388 255.581 -48.8191 254.992 -50.2324C254.37 -51.7211 253.56 -53.1512 252.531 -54.3976C250.585 -56.7567 247.878 -58.4848 244.783 -58.7331C241.902 -58.9643 238.86 -58.0714 236.931 -55.83C235.983 -54.7287 235.426 -53.3596 234.791 -52.0699C234.251 -50.9741 233.595 -49.6942 232.385 -49.2263C230.916 -48.6585 229.34 -49.5091 228.174 -50.3648C226.729 -51.4242 225.489 -52.7244 224.298 -54.0542C222.089 -56.5205 219.933 -59.0853 216.947 -60.641C214.243 -62.0495 211.138 -62.2637 208.398 -60.8363C203.346 -58.2038 201.05 -51.8106 195.427 -50.0943C192.866 -49.3126 190.109 -49.6964 187.528 -50.1627C184.772 -50.6605 182.028 -51.3289 179.213 -51.3627C176.449 -51.3959 173.698 -50.6244 171.571 -48.8071C169.329 -46.8918 167.975 -44.2213 167.131 -41.438C166.221 -38.4378 165.964 -35.3088 165.908 -32.1885C165.839 -28.3684 166.088 -24.5472 166.559 -20.7572C167.505 -13.1597 169.269 -5.63784 171.378 1.71516C173.521 9.18494 176.272 16.5401 180.337 23.1932C183.739 28.7622 188.129 33.7788 193.458 37.5796C198.626 41.2664 204.644 43.766 211.003 44.2906C218.011 44.8686 224.975 43.2518 231.502 40.7976C234.706 39.5928 237.828 38.1817 240.906 36.6859C241.794 36.2544 241.269 34.7959 240.372 35.2319C234.203 38.2302 227.771 40.9702 220.988 42.2011C214.515 43.3759 207.903 42.9938 201.788 40.4702C196.124 38.1331 191.126 34.3076 187.072 29.7412C182.319 24.3872 178.867 18.0217 176.252 11.3878C173.466 4.31743 171.49 -3.10155 169.894 -10.5238C168.332 -17.7842 167.29 -25.1996 167.458 -32.6409C167.526 -35.6388 167.826 -38.68 168.776 -41.5405C169.638 -44.135 171.044 -46.6535 173.352 -48.2187C177.984 -51.3607 183.893 -49.0863 188.897 -48.3684C191.535 -47.9901 194.314 -47.917 196.824 -48.948C199.476 -50.038 201.49 -52.158 203.371 -54.249C205.149 -56.2239 206.956 -58.5062 209.434 -59.6301C212.174 -60.8724 215.085 -60.1573 217.494 -58.5218C220.267 -56.6399 222.245 -53.8976 224.552 -51.5171C226.566 -49.4394 229.685 -46.6047 232.846 -47.7465C235.587 -48.7363 236.17 -51.9554 237.594 -54.1401C239.121 -56.483 242.051 -57.4725 244.754 -57.1861C247.778 -56.8659 250.277 -55.0113 251.981 -52.5588C252.865 -51.286 253.531 -49.8812 254.018 -48.4121C254.468 -47.0588 254.683 -45.6304 255.251 -44.3161C255.763 -43.1303 256.562 -42.0325 257.847 -41.6427C259.505 -41.1395 261.005 -42.0858 262.384 -42.8901C264.822 -44.3123 267.714 -44.6969 270.474 -44.1948C273.202 -43.6986 275.841 -42.3493 277.701 -40.2706C278.932 -38.8953 279.998 -37.3543 281.177 -35.9325C282.324 -34.5513 283.455 -33.1752 284.333 -31.6013C286.17 -28.3074 286.413 -24.5748 286.352 -20.8783C286.29 -17.1459 285.805 -13.4349 285.355 -9.73406C284.873 -5.76468 284.391 -1.7953 283.909 2.17407C283.444 6.00375 283.082 9.86316 282.485 13.6749C282.002 16.7587 280.896 20.3314 277.741 21.6471C275.453 22.6016 273.337 21.5284 271.603 20.0303C269.869 18.5317 268.423 16.7049 266.563 15.3511C264.51 13.857 261.983 13.1961 259.569 14.2773C256.472 15.6641 254.791 18.7275 253.58 21.7298C252.942 23.3092 252.365 24.9207 251.543 26.4173C250.755 27.8518 249.683 29.1362 248.461 30.2218C246.075 32.3413 243.222 33.8419 240.372 35.2318C239.485 35.6645 240.009 37.1231 240.906 36.6859Z" fill="white"/>
<path d="M245.483 56.1649C249.657 54.1297 253.87 51.9504 257.336 48.8096C258.994 47.3066 260.446 45.6208 261.603 43.7011C262.874 41.5923 263.73 39.2739 264.637 36.9948C266.29 32.8401 268.627 27.8642 273.39 26.645C276.739 25.7878 279.66 27.7839 282.001 29.9462C284.365 32.1307 286.441 34.693 289.197 36.4141C292.333 38.3728 296.042 38.4586 299.144 36.3214C303.062 33.6218 304.48 28.9268 305.145 24.4461C305.958 18.9664 306.507 13.4368 307.175 7.93752C307.862 2.27888 308.55 -3.37961 309.236 -9.03824C309.863 -14.2045 310.473 -19.3894 310.479 -24.6012C310.485 -29.7747 309.889 -34.7727 307.33 -39.3534C306.059 -41.6298 304.406 -43.6035 302.752 -45.6041C301.114 -47.5839 299.641 -49.7412 297.902 -51.631C292.535 -57.4668 283.233 -59.6963 275.95 -56.3125C274.1 -55.4531 271.921 -53.3802 269.738 -53.9339C267.952 -54.3869 267.189 -56.4151 266.696 -57.9886C266.064 -60.0053 265.662 -62.0588 264.844 -64.0191C263.992 -66.0609 262.879 -68.0167 261.469 -69.7258C258.816 -72.942 255.128 -75.2808 250.911 -75.6192C247.025 -75.931 242.906 -74.7192 240.303 -71.6964C239.005 -70.1881 238.246 -68.3117 237.375 -66.5453C236.589 -64.9482 235.63 -63.1261 233.87 -62.4456C231.726 -61.6168 229.44 -62.8236 227.734 -64.075C225.71 -65.5597 223.974 -67.3859 222.304 -69.2497C219.277 -72.6299 216.319 -76.1566 212.226 -78.289C208.555 -80.2013 204.356 -80.5031 200.632 -78.5692C193.598 -74.9165 190.442 -66.0424 182.603 -63.6496C178.997 -62.5489 175.126 -63.074 171.49 -63.7309C167.694 -64.4165 163.91 -65.3453 160.033 -65.3918C156.247 -65.4372 152.498 -64.3921 149.583 -61.9016C146.538 -59.3004 144.691 -55.6503 143.545 -51.8706C142.29 -47.734 141.928 -43.4205 141.851 -39.1179C141.757 -33.8189 142.101 -28.5184 142.755 -23.261C144.063 -12.7482 146.504 -2.34146 149.422 7.83296C152.387 18.1678 156.187 28.3498 161.812 37.555C166.52 45.2607 172.587 52.1952 179.959 57.4543C187.089 62.54 195.388 65.9761 204.159 66.6996C213.826 67.4969 223.438 65.2525 232.439 61.8681C236.883 60.1973 241.214 58.24 245.483 56.1649C246.371 55.7334 245.846 54.2749 244.949 54.7109C236.366 58.883 227.42 62.683 217.982 64.3958C208.952 66.0345 199.727 65.4877 191.197 61.9679C183.292 58.7057 176.325 53.3605 170.666 46.9874C164.056 39.542 159.256 30.6826 155.62 21.4573C151.745 11.6242 149.003 1.30639 146.783 -9.01579C144.617 -19.0869 143.171 -29.3733 143.404 -39.6955C143.576 -47.2923 144.86 -56.9308 151.704 -61.573C158.218 -65.9918 166.453 -62.842 173.495 -61.8319C177.104 -61.3143 180.902 -61.2116 184.334 -62.6223C187.962 -64.113 190.716 -67.0256 193.289 -69.885C195.795 -72.6686 198.335 -75.8563 201.827 -77.4401C205.727 -79.2083 209.876 -78.1773 213.302 -75.8523C217.148 -73.2415 219.892 -69.4382 223.092 -66.1357C225.796 -63.3459 230.037 -59.415 234.304 -60.9555C238.02 -62.2973 238.824 -66.7746 240.762 -69.734C242.947 -73.0713 247.123 -74.4719 250.978 -74.0634C255.246 -73.6114 258.789 -70.9848 261.193 -67.524C262.433 -65.7378 263.373 -63.7626 264.057 -61.7007C264.68 -59.8233 264.979 -57.8419 265.766 -56.0187C266.437 -54.465 267.486 -52.998 269.176 -52.4906C271.377 -51.8297 273.379 -53.1158 275.206 -54.1814C278.659 -56.1959 282.743 -56.7541 286.655 -56.0424C290.515 -55.34 294.244 -53.4244 296.871 -50.4781C298.576 -48.5664 300.056 -46.4331 301.693 -44.4606C303.283 -42.5446 304.853 -40.6361 306.07 -38.4526C308.647 -33.8307 309.012 -28.6181 308.926 -23.4285C308.84 -18.2247 308.166 -13.0516 307.54 -7.89198C306.871 -2.38591 306.202 3.12017 305.534 8.62625C304.889 13.9386 304.387 19.2923 303.559 24.5795C302.871 28.9725 301.269 33.9972 296.786 35.8667C293.513 37.2317 290.461 35.7194 287.977 33.5739C283.406 29.6236 278.585 22.5064 271.578 25.6438C267.36 27.5322 265.087 31.7431 263.439 35.826C262.555 38.017 261.754 40.2524 260.614 42.3282C259.493 44.3669 257.976 46.1804 256.241 47.7236C252.913 50.6821 248.926 52.7717 244.949 54.7108C244.062 55.1435 244.586 56.6021 245.483 56.1649Z" fill="white"/>
<path d="M250.06 75.6442C255.382 73.0489 260.751 70.2678 265.17 66.2631C267.261 64.3676 269.099 62.235 270.558 59.814C272.183 57.1166 273.279 54.1512 274.438 51.236C276.576 45.8628 279.606 39.4695 285.756 37.8854C290.119 36.7614 293.926 39.3212 296.982 42.1442C299.991 44.9244 302.634 48.1947 306.139 50.3878C310.084 52.8562 314.739 52.9815 318.646 50.2894C323.611 46.8685 325.393 40.9128 326.235 35.2374C327.275 28.2282 327.978 21.1554 328.832 14.1213C329.711 6.88338 330.59 -0.354401 331.468 -7.59233C332.268 -14.1819 333.047 -20.7952 333.055 -27.4428C333.062 -34.0175 332.32 -40.3813 329.067 -46.2044C327.441 -49.1161 325.327 -51.6408 323.211 -54.1999C321.117 -56.732 319.232 -59.4927 317.008 -61.9088C310.2 -69.3033 298.404 -72.1056 289.179 -67.8197C286.752 -66.6922 283.985 -64.0546 281.12 -64.7672C278.748 -65.3573 277.72 -67.9992 277.065 -70.0919C276.256 -72.6714 275.742 -75.298 274.695 -77.8055C273.613 -80.4002 272.197 -82.8818 270.406 -85.0535C267.045 -89.1269 262.378 -92.0763 257.039 -92.5047C252.147 -92.8971 246.95 -91.3663 243.676 -87.5622C242.027 -85.6468 241.065 -83.2632 239.96 -81.0203C238.926 -78.922 237.665 -76.5573 235.354 -75.6641C232.536 -74.5747 229.539 -76.1376 227.294 -77.7846C224.689 -79.6947 222.458 -82.0468 220.311 -84.4443C216.465 -88.7385 212.704 -93.227 207.504 -95.9361C202.868 -98.3513 197.572 -98.7433 192.866 -96.3012C183.853 -91.625 179.832 -80.2728 169.779 -77.2039C165.127 -75.7842 160.143 -76.4506 155.452 -77.2979C150.616 -78.1714 145.792 -79.3606 140.853 -79.4198C136.044 -79.4774 131.297 -78.1588 127.594 -74.9951C123.746 -71.7079 121.406 -67.0781 119.958 -62.3022C118.359 -57.029 117.893 -51.5308 117.795 -46.0461C117.674 -39.2682 118.114 -32.4882 118.951 -25.7636C120.621 -12.3355 123.738 0.956184 127.466 13.952C131.252 27.152 136.103 40.161 143.286 51.9183C149.299 61.7606 157.043 70.6132 166.46 77.3304C175.551 83.8148 186.133 88.1877 197.315 89.11C209.64 90.1266 221.899 87.2547 233.375 82.9399C239.06 80.802 244.599 78.2982 250.06 75.6442C250.948 75.2127 250.423 73.7543 249.526 74.1902C238.527 79.5362 227.068 84.3959 214.975 86.5906C203.389 88.6932 191.55 87.9817 180.607 83.4657C170.46 79.2783 161.523 72.4138 154.261 64.2339C145.794 54.6969 139.646 43.3437 134.989 31.5271C130.024 18.9314 126.515 5.7145 123.672 -7.50761C120.901 -20.3896 119.052 -33.5468 119.351 -46.75C119.572 -56.545 121.234 -68.943 130.056 -74.9271C138.453 -80.6227 149.014 -76.5974 158.094 -75.2952C162.673 -74.6384 167.489 -74.5063 171.845 -76.2962C176.448 -78.1877 179.942 -81.893 183.207 -85.5206C186.44 -89.113 189.714 -93.206 194.22 -95.2494C199.279 -97.5438 204.668 -96.197 209.109 -93.1823C214.029 -89.8426 217.539 -84.978 221.632 -80.7537C225.025 -77.2524 230.391 -72.2251 235.76 -74.164C240.451 -75.8577 241.477 -81.5938 243.929 -85.3271C246.773 -89.6588 252.195 -91.4704 257.201 -90.9402C262.712 -90.3563 267.3 -86.9577 270.404 -82.4887C272.002 -80.1889 273.214 -77.6435 274.095 -74.9889C274.892 -72.5875 275.275 -70.0532 276.281 -67.721C277.112 -65.7978 278.41 -63.9652 280.504 -63.3383C283.245 -62.5176 285.754 -64.1468 288.026 -65.4724C292.495 -68.079 297.771 -68.8109 302.835 -67.8895C307.832 -66.9804 312.642 -64.4972 316.04 -60.6852C318.22 -58.2398 320.114 -55.5114 322.208 -52.9882C324.242 -50.5376 326.25 -48.0962 327.807 -45.3035C331.124 -39.3541 331.61 -32.6608 331.499 -25.9782C331.389 -19.3031 330.527 -12.6681 329.723 -6.04958C328.868 0.993202 328.013 8.03613 327.157 15.0789C326.332 21.8739 325.69 28.7218 324.631 35.4846C323.738 41.1866 321.64 47.6638 315.83 50.0868C311.573 51.8622 307.583 49.911 304.351 47.1178C298.572 42.1245 292.449 33.0423 283.586 37.0106C278.248 39.4008 275.381 44.7593 273.298 49.9225C272.167 52.725 271.142 55.5844 269.683 58.2396C268.231 60.8825 266.269 63.2252 264.02 65.2259C259.75 69.023 254.629 71.702 249.526 74.1902C248.639 74.6228 249.163 76.0813 250.06 75.6442Z" fill="white"/>
<path d="M254.637 95.1233C261.108 91.9682 267.632 88.5848 273.004 83.7164C275.528 81.4285 277.752 78.8489 279.513 75.9265C281.493 72.6406 282.827 69.028 284.24 65.4769C286.862 58.8858 290.586 51.0735 298.122 49.1255C303.5 47.7355 308.193 50.8582 311.963 54.3419C315.618 57.7187 318.83 61.6922 323.082 64.3611C327.832 67.3422 333.44 67.502 338.149 64.2572C344.161 60.115 346.306 52.8987 347.326 46.0285C348.593 37.4899 349.448 28.8738 350.489 20.3049C351.56 11.4877 352.631 2.67059 353.701 -6.14664C354.673 -14.1596 355.622 -22.2013 355.631 -30.2847C355.641 -38.2605 354.752 -45.9903 350.805 -53.0557C348.823 -56.6027 346.249 -59.6782 343.671 -62.7957C341.12 -65.8803 338.825 -69.2445 336.114 -72.1868C327.866 -81.1396 313.576 -84.5154 302.409 -79.3271C299.407 -77.9326 296.047 -74.7277 292.504 -75.6009C289.546 -76.3298 288.253 -79.5831 287.434 -82.1956C286.45 -85.3379 285.823 -88.5377 284.548 -91.5924C283.235 -94.74 281.517 -97.7473 279.344 -100.382C275.276 -105.312 269.628 -108.872 263.168 -109.391C257.271 -109.864 250.996 -108.014 247.049 -103.429C245.049 -101.106 243.886 -98.2154 242.546 -95.4959C241.265 -92.8965 239.7 -89.9892 236.84 -88.8836C233.347 -87.5335 229.639 -89.4526 226.854 -91.495C223.67 -93.8304 220.944 -96.7085 218.318 -99.64C213.653 -104.848 209.09 -110.299 202.783 -113.584C197.182 -116.503 190.79 -116.985 185.1 -114.034C174.109 -108.335 169.224 -94.5046 156.956 -90.7596C151.259 -89.0208 145.161 -89.8285 139.415 -90.8665C133.54 -91.9277 127.676 -93.3772 121.675 -93.4492C115.843 -93.5191 110.098 -91.9269 105.607 -88.09C100.956 -84.1169 98.1227 -78.5075 96.3724 -72.7352C94.4289 -66.3255 93.8586 -59.6428 93.7392 -52.9758C93.5914 -44.7189 94.1282 -36.4596 95.1475 -28.2678C97.1809 -11.9244 100.974 4.25205 105.511 20.0696C110.119 36.1347 116.019 51.9705 124.762 66.2799C132.081 78.2589 141.501 89.0294 152.963 97.2049C164.014 105.088 176.879 110.398 190.471 111.519C205.455 112.755 220.362 109.255 234.312 104.01C241.237 101.407 247.985 98.3566 254.637 95.1233C255.525 94.6918 255.001 93.2332 254.103 93.6694C240.69 100.189 226.717 106.109 211.969 108.785C197.827 111.352 183.373 110.476 170.016 104.964C157.627 99.8508 146.722 91.467 137.855 81.4803C127.532 69.8518 120.035 56.0048 114.357 41.5968C108.304 26.2383 104.028 10.1226 100.561 -5.9995C97.1855 -21.6924 94.9333 -37.7204 95.2968 -53.8046C95.5678 -65.7977 97.6081 -80.9552 108.408 -88.2813C118.687 -95.2536 131.575 -90.3529 142.692 -88.7586C148.241 -87.9625 154.076 -87.801 159.355 -89.9702C164.934 -92.2625 169.168 -96.7605 173.125 -101.156C177.086 -105.557 181.094 -110.556 186.613 -113.059C192.832 -115.879 199.459 -114.217 204.916 -110.512C210.91 -106.444 215.185 -100.518 220.172 -95.3722C224.255 -91.1597 230.745 -85.0358 237.217 -87.3727C242.882 -89.4182 244.131 -96.4134 247.096 -100.921C250.599 -106.247 257.267 -108.469 263.424 -107.817C270.18 -107.102 275.812 -102.931 279.616 -97.4534C281.571 -94.6401 283.056 -91.5245 284.134 -88.2771C285.105 -85.3517 285.571 -82.2644 286.797 -79.4234C287.787 -77.1306 289.334 -74.9328 291.833 -74.1859C295.115 -73.2054 298.13 -75.1778 300.848 -76.7633C306.332 -79.9621 312.8 -80.8678 319.016 -79.7368C325.149 -78.621 331.041 -75.5704 335.21 -70.8924C337.866 -67.9132 340.173 -64.5897 342.724 -61.5159C345.202 -58.5305 347.648 -55.5564 349.545 -52.1543C353.601 -44.8777 354.209 -36.7032 354.073 -28.528C353.938 -20.3817 352.888 -12.2845 351.908 -4.20709C350.866 4.37254 349.824 12.952 348.782 21.5317C347.777 29.8093 346.994 38.1514 345.704 46.3899C344.606 53.4008 342.012 61.3304 334.875 64.3072C329.634 66.4928 324.707 64.1028 320.725 60.6621C313.739 54.6261 306.314 43.5788 295.596 48.378C289.137 51.2699 285.676 57.7761 283.158 64.0196C281.78 67.4336 280.532 70.9169 278.755 74.1514C276.97 77.3983 274.564 80.2705 271.8 82.7286C266.588 87.3642 260.333 90.6326 254.103 93.67C253.216 94.1019 253.74 95.5604 254.637 95.1233Z" fill="white"/>
<path d="M259.214 114.602C266.833 110.887 274.513 106.902 280.838 101.17C283.795 98.4891 286.404 95.4628 288.467 92.0389C290.802 88.1644 292.375 83.905 294.041 79.7175C297.148 71.9092 301.566 62.6769 310.488 60.3655C316.88 58.7095 322.459 62.3949 326.944 66.5394C331.244 70.5122 335.024 75.1918 340.025 78.3345C345.583 81.8264 352.138 82.0238 357.652 78.225C364.71 73.3615 367.219 64.8845 368.416 56.8197C369.911 46.7517 370.919 36.5925 372.146 26.4886C373.408 16.0921 374.672 5.69576 375.933 -4.70076C377.078 -14.1369 378.197 -23.6072 378.208 -33.1265C378.219 -42.5034 377.183 -51.5992 372.542 -59.907C370.206 -64.0893 367.17 -67.7156 364.13 -71.3915C361.122 -75.0284 358.417 -78.9965 355.22 -82.4647C345.532 -92.9758 328.748 -96.9252 315.638 -90.8345C312.063 -89.1734 308.109 -85.4006 303.887 -86.4345C300.344 -87.3022 298.785 -91.1672 297.803 -94.2991C296.642 -98.0043 295.903 -101.777 294.4 -105.379C292.856 -109.079 290.836 -112.613 288.281 -115.71C283.506 -121.498 276.878 -125.668 269.296 -126.277C262.394 -126.83 255.042 -124.661 250.421 -119.295C248.071 -116.565 246.705 -113.167 245.13 -109.971C243.603 -106.87 241.734 -103.42 238.324 -102.102C234.157 -100.491 229.738 -102.767 226.414 -105.205C222.65 -107.965 219.428 -111.369 216.324 -114.835C210.841 -120.957 205.476 -127.369 198.062 -131.232C191.494 -134.653 184.007 -135.225 177.334 -131.766C164.364 -125.044 158.615 -108.735 144.132 -104.314C137.39 -102.256 130.178 -103.205 123.377 -104.434C116.462 -105.683 109.558 -107.393 102.495 -107.477C95.6404 -107.559 88.8973 -105.694 83.6178 -101.183C78.1639 -96.5244 74.8381 -89.9354 72.7856 -83.1668C70.4974 -75.6206 69.8231 -67.7534 69.6825 -59.9042C69.5082 -50.1685 70.1412 -40.4298 71.3431 -30.7705C73.7392 -11.5118 78.2082 7.54951 83.5548 26.1885C88.9849 45.1187 95.9345 63.7815 106.236 80.6429C114.86 94.7587 125.958 107.447 139.464 117.081C152.476 126.363 167.623 132.609 183.627 133.929C201.269 135.384 218.824 131.257 235.248 125.082C243.414 122.011 251.37 118.415 259.214 114.602C260.102 114.171 259.578 112.712 258.68 113.148C242.852 120.842 226.366 127.822 208.963 130.98C192.264 134.01 175.197 132.969 159.426 126.461C144.795 120.423 131.92 110.52 121.45 98.7264C109.269 85.0063 100.425 68.6656 93.7248 51.6663C86.5831 33.5451 81.5407 14.5305 77.4496 -4.49167C73.47 -22.9953 70.8143 -41.8945 71.243 -60.8593C71.5638 -75.0508 73.9819 -92.9676 86.7607 -101.636C98.9216 -109.885 114.136 -104.109 127.29 -102.222C133.81 -101.287 140.664 -101.096 146.866 -103.645C153.42 -106.338 158.395 -111.628 163.042 -116.792C167.731 -122.002 172.473 -127.906 179.006 -130.869C186.385 -134.215 194.251 -132.237 200.724 -127.843C207.791 -123.046 212.832 -116.059 218.712 -109.991C223.484 -105.067 231.099 -97.8468 238.674 -100.582C245.317 -102.981 246.779 -111.235 250.263 -116.515C254.432 -122.833 262.334 -125.47 269.647 -124.695C277.646 -123.848 284.323 -118.905 288.828 -112.419C291.139 -109.092 292.898 -105.406 294.172 -101.566C295.317 -98.1167 295.867 -94.4763 297.312 -91.1266C298.462 -88.4644 300.257 -85.9008 303.161 -85.0344C306.984 -83.8942 310.506 -86.2096 313.669 -88.0552C320.168 -91.8463 327.828 -92.9256 335.196 -91.585C342.465 -90.2625 349.439 -86.6444 354.38 -81.1007C357.511 -77.5877 360.231 -73.669 363.239 -70.0447C366.161 -66.5245 369.045 -63.0177 371.281 -59.0062C376.078 -50.4022 376.807 -40.7467 376.647 -31.0788C376.488 -21.4612 375.249 -11.9021 374.091 -2.36597C372.863 7.75038 371.635 17.8667 370.406 27.9831C369.221 37.7433 368.299 47.5797 366.777 57.2938C365.474 65.6134 362.384 74.9958 353.919 78.5261C347.694 81.1221 341.83 78.293 337.099 74.2048C328.907 67.1259 320.179 54.1135 307.605 59.7435C300.026 63.137 295.971 70.7913 293.017 78.1149C291.392 82.1405 289.921 86.2475 287.825 90.0614C285.709 93.9125 282.857 97.3141 279.579 100.229C273.425 105.704 266.036 109.561 258.68 113.148C257.793 113.581 258.317 115.04 259.214 114.602Z" fill="white"/>
<path d="M263.791 134.082C272.558 129.807 281.393 125.219 288.672 118.623C292.062 115.55 295.057 112.077 297.422 108.152C300.111 103.689 301.924 98.7821 303.842 93.9586C307.433 84.9329 312.546 74.2804 322.854 71.6059C330.261 69.6842 336.725 73.9321 341.925 78.7375C346.87 83.3064 351.218 88.6916 356.968 92.3082C363.332 96.311 370.837 96.5458 377.154 92.1931C385.259 86.6084 388.132 76.8709 389.506 67.6112C391.227 56.0137 392.389 44.3112 393.802 32.6726C395.257 20.6968 396.712 8.7213 398.165 -3.25467C399.482 -14.1141 400.771 -25.0129 400.784 -35.9679C400.796 -46.7459 399.613 -57.2078 394.279 -66.7577C391.588 -71.5754 388.091 -75.7526 384.589 -79.9868C381.125 -84.1756 378.011 -88.75 374.326 -92.7421C363.19 -104.807 343.925 -109.337 328.867 -102.341C324.718 -100.414 320.17 -96.0729 315.27 -97.2675C311.142 -98.2739 309.316 -102.751 308.172 -106.402C306.835 -110.67 305.983 -115.016 304.252 -119.165C302.478 -123.418 300.154 -127.477 297.218 -131.037C291.736 -137.682 284.127 -142.463 275.424 -143.162C267.517 -143.796 259.087 -141.308 253.794 -135.16C251.093 -132.024 249.524 -128.118 247.715 -124.446C245.94 -120.844 243.768 -116.851 239.809 -115.321C234.967 -113.449 229.837 -116.08 225.974 -118.914C221.63 -122.1 217.913 -126.03 214.331 -130.029C208.029 -137.065 201.861 -144.439 193.34 -148.878C185.807 -152.803 177.223 -153.465 169.567 -149.498C154.618 -141.753 148.006 -122.965 131.308 -117.868C123.521 -115.491 115.195 -116.582 107.339 -118.001C99.3842 -119.438 91.4402 -121.408 83.3154 -121.505C75.4378 -121.6 67.6969 -119.46 61.6293 -114.277C55.3726 -108.932 51.5536 -101.363 49.199 -93.5983C46.5662 -84.9158 45.7876 -75.8638 45.6259 -66.8324C45.4252 -55.6178 46.1544 -44.3996 47.5388 -33.273C50.2977 -11.0991 55.4427 10.8472 61.5987 32.3076C67.8507 54.1028 75.8498 75.5925 87.7109 95.006C97.6406 111.258 110.415 125.865 125.965 136.957C140.938 147.638 158.368 154.82 176.783 156.339C197.084 158.014 217.286 153.259 236.184 146.153C245.591 142.616 254.756 138.473 263.791 134.082C264.679 133.65 264.154 132.192 263.257 132.628C245.014 141.495 226.014 149.534 205.957 153.175C186.701 156.669 167.02 155.463 148.836 147.959C131.963 140.996 117.119 129.573 105.045 115.973C91.0071 100.161 80.8141 81.3267 73.0931 61.736C64.8626 40.8522 59.0536 18.9386 54.3388 -2.98347C49.7547 -24.298 46.6955 -46.068 47.1893 -67.9137C47.5597 -84.3034 50.3558 -104.98 65.113 -114.99C79.156 -124.515 96.6967 -117.864 111.888 -115.685C119.379 -114.611 127.251 -114.391 134.376 -117.319C141.905 -120.412 147.621 -126.496 152.96 -132.428C158.377 -138.446 163.852 -145.256 171.399 -148.678C179.938 -152.551 189.042 -150.256 196.531 -145.173C204.672 -139.647 210.479 -131.599 217.252 -124.609C222.713 -118.975 231.453 -110.657 240.131 -113.791C247.747 -116.54 249.434 -126.054 253.43 -132.108C258.257 -139.421 267.406 -142.468 275.87 -141.572C285.113 -140.593 292.835 -134.878 298.04 -127.384C300.708 -123.543 302.739 -119.287 304.211 -114.854C305.529 -110.881 306.162 -106.688 307.828 -102.829C309.137 -99.7973 311.181 -96.8681 314.49 -95.882C318.853 -94.5819 322.882 -97.2407 326.49 -99.346C334.004 -103.729 342.856 -104.982 351.377 -103.432C359.782 -101.903 367.838 -97.7174 373.55 -91.3078C377.156 -87.261 380.29 -82.7472 383.755 -78.5723C387.121 -74.5173 390.443 -70.4779 393.019 -65.8571C398.556 -55.926 399.405 -44.789 399.221 -33.6286C399.037 -22.5398 397.611 -11.5185 396.276 -0.523544C394.861 11.1295 393.446 22.7826 392.031 34.4356C390.666 45.6785 389.603 57.0089 387.85 68.1989C386.343 77.8272 382.756 88.6622 372.964 92.7462C365.755 95.7527 358.954 92.4845 353.473 87.7487C344.074 79.6272 334.044 64.6496 319.614 71.1103C310.915 75.0055 306.267 83.8075 302.876 92.2115C301.005 96.8486 299.31 101.58 296.896 105.973C294.448 110.428 291.151 114.359 287.359 117.732C280.262 124.045 271.739 128.492 263.257 132.628C262.37 133.06 262.894 134.519 263.791 134.082Z" fill="white"/>
<path d="M267.15 148.376C276.76 143.69 286.443 138.661 294.42 131.431C298.129 128.069 301.405 124.268 303.993 119.975C306.943 115.081 308.93 109.699 311.035 104.409C314.969 94.52 320.607 82.75 331.928 79.854C340.096 77.7645 347.176 82.3822 352.919 87.6882C358.337 92.6945 363.101 98.5977 369.401 102.562C376.357 106.94 384.558 107.202 391.465 102.443C400.339 96.3286 403.479 85.6659 404.983 75.5296C406.871 62.8099 408.145 49.9749 409.695 37.2099C411.29 24.0753 412.886 10.9407 414.48 -2.19421C415.924 -14.0982 417.337 -26.0452 417.351 -38.0538C417.364 -49.8599 416.074 -61.3243 410.23 -71.7858C407.278 -77.0697 403.444 -81.6513 399.603 -86.2951C395.804 -90.8891 392.388 -95.907 388.346 -100.285C376.152 -113.492 355.06 -118.445 338.575 -110.786C334.006 -108.663 329.02 -103.905 323.623 -105.218C319.066 -106.326 317.045 -111.252 315.781 -115.284C314.315 -119.965 313.381 -124.732 311.482 -129.282C309.538 -133.942 306.993 -138.386 303.776 -142.286C297.776 -149.56 289.448 -154.789 279.922 -155.553C271.276 -156.247 262.055 -153.525 256.269 -146.804C253.311 -143.368 251.594 -139.091 249.612 -135.068C247.656 -131.099 245.262 -126.708 240.899 -125.022C235.563 -122.959 229.911 -125.852 225.652 -128.975C220.882 -132.474 216.801 -136.79 212.868 -141.18C205.966 -148.887 199.209 -156.967 189.876 -161.829C181.635 -166.123 172.246 -166.851 163.869 -162.512C147.468 -154.015 140.221 -133.409 121.898 -127.816C113.345 -125.205 104.201 -126.399 95.5704 -127.958C86.8529 -129.533 78.1458 -131.694 69.2417 -131.801C60.6136 -131.904 52.1403 -129.564 45.4945 -123.887C38.6486 -118.038 34.4676 -109.751 31.8914 -101.255C29.0057 -91.7382 28.1508 -81.817 27.9736 -71.9179C27.7533 -59.618 28.5531 -47.3143 30.0716 -35.111C33.0966 -10.7977 38.7379 13.2656 45.4877 36.7966C52.3424 60.6942 61.112 84.2583 74.1171 105.545C85.0047 123.365 99.0102 139.379 116.06 151.541C132.472 163.248 151.577 171.118 171.761 172.783C194.013 174.618 216.158 169.403 236.872 161.615C247.188 157.736 257.24 153.192 267.15 148.376C268.037 147.944 267.513 146.486 266.616 146.922C246.6 156.65 225.756 165.468 203.751 169.461C182.619 173.297 161.02 171.97 141.064 163.734C122.546 156.092 106.257 143.555 93.0057 128.628C77.6059 111.282 66.4235 90.6177 57.9531 69.1252C48.9235 46.2141 42.552 22.1733 37.3793 -1.87685C32.3515 -25.254 28.9964 -49.1307 29.538 -73.0907C29.945 -91.0934 33.0183 -113.795 49.2274 -124.79C64.6516 -135.252 83.8997 -127.958 100.585 -125.565C108.789 -124.389 117.408 -124.146 125.211 -127.353C133.456 -130.741 139.715 -137.406 145.561 -143.902C151.512 -150.514 157.526 -157.988 165.816 -161.748C175.206 -166.006 185.22 -163.48 193.454 -157.891C202.383 -151.83 208.751 -143.003 216.181 -135.337C222.146 -129.18 231.713 -120.058 241.2 -123.484C249.53 -126.491 251.382 -136.93 255.754 -143.551C261.064 -151.594 271.128 -154.943 280.437 -153.957C290.593 -152.881 299.08 -146.599 304.8 -138.365C307.729 -134.148 309.961 -129.474 311.577 -124.606C313.023 -120.248 313.717 -115.649 315.544 -111.417C316.97 -108.114 319.197 -104.916 322.803 -103.843C327.562 -102.425 331.963 -105.336 335.899 -107.632C344.157 -112.45 353.884 -113.83 363.251 -112.126C372.489 -110.445 381.338 -105.843 387.616 -98.7985C391.572 -94.3598 395.009 -89.4096 398.809 -84.8306C402.501 -80.3831 406.144 -75.9528 408.97 -70.8849C415.05 -59.9798 415.988 -47.7558 415.785 -35.5002C415.584 -23.3317 414.02 -11.2375 412.555 0.828094C411.003 13.6088 409.451 26.3895 407.899 39.1704C406.401 51.5013 405.236 63.9283 403.314 76.201C401.656 86.7897 397.705 98.6909 386.938 103.181C379.008 106.489 371.519 102.898 365.488 97.6874C355.204 88.8008 344.217 72.3811 328.426 79.4514C318.904 83.7146 313.821 93.3592 310.11 102.556C308.058 107.641 306.199 112.83 303.551 117.649C300.86 122.547 297.237 126.867 293.068 130.575C285.279 137.503 275.925 142.383 266.616 146.922C265.729 147.354 266.253 148.813 267.15 148.376Z" fill="white"/>
<path d="M270.509 162.67C280.961 157.573 291.492 152.103 300.169 144.238C304.196 140.589 307.755 136.46 310.564 131.799C313.774 126.472 315.937 120.616 318.228 114.859C322.516 104.08 328.665 91.2601 341.003 88.1024C349.917 85.8209 357.644 90.8469 363.913 96.6393C369.804 102.083 374.985 108.504 381.834 112.816C389.383 117.569 398.28 117.858 405.777 112.693C415.419 106.05 418.826 94.4619 420.46 83.4487C422.514 69.6067 423.901 55.6392 425.588 41.7478C427.323 27.4543 429.061 13.1608 430.795 -1.13304C432.365 -14.0813 433.903 -27.0767 433.918 -40.139C433.933 -52.9731 432.535 -65.4401 426.182 -76.8132C422.97 -82.5633 418.796 -87.5491 414.617 -92.6028C410.482 -97.6021 406.766 -103.063 402.367 -107.827C389.114 -122.177 366.194 -127.551 348.284 -119.23C343.293 -116.911 337.871 -111.737 331.976 -113.168C326.99 -114.378 324.774 -119.752 323.391 -124.166C321.795 -129.26 320.778 -134.447 318.712 -139.399C316.599 -144.464 313.832 -149.294 310.335 -153.534C303.816 -161.437 294.768 -167.114 284.419 -167.945C275.036 -168.698 265.024 -165.741 258.744 -158.446C255.529 -154.712 253.663 -150.063 251.509 -145.691C249.372 -141.354 246.755 -136.564 241.989 -134.722C236.158 -132.468 229.984 -135.622 225.33 -139.036C220.134 -142.846 215.689 -147.548 211.406 -152.331C203.903 -160.708 196.557 -169.494 186.412 -174.779C177.461 -179.442 167.269 -180.236 158.17 -175.524C140.317 -166.277 132.436 -143.852 112.488 -137.763C103.167 -134.918 93.2063 -136.215 83.8016 -137.914C74.3212 -139.626 64.8508 -141.979 55.1675 -142.095C45.7887 -142.207 36.5832 -139.666 29.3591 -133.495C21.9238 -127.143 17.3813 -118.137 14.5832 -108.91C11.4446 -98.5594 10.5132 -87.7689 10.3205 -77.0024C10.0809 -63.6171 10.9513 -50.2278 12.6036 -36.9477C15.8947 -10.4951 22.0323 15.6852 29.376 41.2866C36.8341 67.2869 46.3739 92.9254 60.5234 116.085C72.3691 135.473 87.6049 152.894 106.155 166.126C124.006 178.86 144.786 187.417 166.74 189.228C190.942 191.224 215.03 185.549 237.559 177.078C248.786 172.856 259.725 167.911 270.509 162.67C271.396 162.238 270.872 160.78 269.975 161.216C248.187 171.806 225.499 181.401 201.545 185.749C178.537 189.924 155.021 188.476 133.293 179.51C113.13 171.189 95.3955 157.536 80.9672 141.284C64.2047 122.403 52.033 99.9085 42.8131 76.5146C32.9845 51.5761 26.0503 25.408 20.4201 -0.770309C14.9487 -26.2102 11.2975 -52.1936 11.8869 -78.2676C12.3304 -97.8834 15.6812 -122.61 33.3419 -134.589C50.1472 -145.988 71.1027 -138.053 89.2832 -135.445C98.1991 -134.166 107.566 -133.902 116.046 -137.387C125.007 -141.069 131.809 -148.316 138.163 -155.376C144.648 -162.581 151.2 -170.72 160.234 -174.817C170.476 -179.461 181.398 -176.704 190.378 -170.608C200.095 -164.013 207.025 -154.407 215.109 -146.064C221.581 -139.386 231.974 -129.459 242.269 -133.177C251.314 -136.443 253.331 -147.805 258.078 -154.994C263.872 -163.767 274.85 -167.417 285.004 -166.342C296.072 -165.169 305.327 -158.321 311.56 -149.347C314.751 -144.753 317.183 -139.66 318.943 -134.357C320.517 -129.615 321.273 -124.609 323.261 -120.004C324.803 -116.43 327.213 -112.965 331.116 -111.803C336.272 -110.269 341.045 -113.431 345.307 -115.918C354.311 -121.17 364.913 -122.678 375.124 -120.82C385.197 -118.988 394.84 -113.969 401.684 -106.289C405.988 -101.458 409.729 -96.0714 413.864 -91.0884C417.881 -86.2486 421.846 -81.4272 424.921 -75.9122C431.545 -64.0332 432.572 -50.7221 432.351 -37.3712C432.132 -24.1229 430.429 -10.9559 428.834 2.18011C427.145 16.0885 425.456 29.997 423.767 43.9054C422.138 57.3244 420.87 70.8479 418.778 84.2034C416.97 95.7525 412.655 108.72 400.914 113.616C392.261 117.225 384.085 113.312 377.504 107.626C366.334 97.9745 354.392 80.1126 337.239 87.7927C326.895 92.424 321.376 102.911 317.346 112.9C315.113 118.435 313.089 124.081 310.208 129.325C307.273 134.667 303.323 139.375 298.777 143.419C290.297 150.962 280.11 156.274 269.975 161.216C269.088 161.648 269.612 163.107 270.509 162.67Z" fill="white"/>
<path d="M273.867 176.964C285.162 171.457 296.541 165.544 305.918 157.046C310.262 153.109 314.104 148.652 317.135 143.623C320.605 137.864 322.944 131.533 325.42 125.309C330.062 113.641 336.723 99.77 350.077 96.3506C359.737 93.8772 368.11 99.3111 374.906 105.59C381.271 111.471 386.869 118.41 394.267 123.07C402.408 128.198 412.002 128.515 420.088 122.943C430.498 115.77 434.172 103.257 435.936 91.3672C438.157 76.4029 439.656 61.3029 441.479 46.2853C443.356 30.8327 445.234 15.3804 447.109 -0.0724487C448.806 -14.0652 450.469 -28.1088 450.485 -42.2247C450.501 -56.0871 448.995 -69.5564 442.133 -81.8412C438.66 -88.0574 434.148 -93.4475 429.63 -98.911C425.16 -104.315 421.143 -110.22 416.387 -115.369C402.076 -130.862 377.328 -136.659 357.991 -127.675C352.562 -125.153 346.74 -119.594 340.329 -121.118C334.915 -122.405 332.496 -128.271 331 -133.048C329.274 -138.555 328.175 -144.163 325.942 -149.517C323.659 -154.987 320.67 -160.203 316.893 -164.782C309.855 -173.314 300.088 -179.44 288.916 -180.336C278.795 -181.148 267.992 -177.958 261.219 -170.09C257.747 -166.057 255.732 -161.035 253.406 -156.313C251.088 -151.609 248.248 -146.421 243.078 -144.423C236.752 -141.977 230.057 -145.393 225.007 -149.097C219.386 -153.22 214.577 -158.307 209.943 -163.482C201.839 -172.53 193.904 -182.021 182.947 -187.73C173.288 -192.762 162.291 -193.622 152.471 -188.537C133.165 -178.539 124.651 -154.295 103.077 -147.71C92.9898 -144.631 82.2112 -146.032 72.0324 -147.871C61.7891 -149.721 51.5555 -152.264 41.093 -152.39C30.9637 -152.511 21.0258 -149.769 13.2233 -143.104C5.1989 -136.249 0.294363 -126.524 -2.7253 -116.566C-6.11682 -105.381 -7.12462 -93.7213 -7.33293 -82.0873C-7.59204 -67.6169 -6.651 -53.142 -4.86479 -38.7851C-1.30739 -10.1931 5.3262 18.1042 13.2639 45.776C21.325 73.8787 31.6349 101.592 46.9287 126.624C59.7323 147.58 76.1988 166.408 96.2491 180.711C115.539 194.471 137.994 203.715 161.717 205.672C187.87 207.829 213.901 201.693 238.246 192.539C250.383 187.976 262.209 182.631 273.867 176.964C274.755 176.533 274.231 175.074 273.334 175.51C249.773 186.962 225.241 197.335 199.339 202.035C174.455 206.551 149.02 204.983 125.522 195.285C103.712 186.286 84.5336 171.518 68.9282 153.94C50.8031 133.524 37.642 109.199 27.6727 83.904C17.0451 56.9381 9.54834 28.6428 3.46039 0.336441C-2.45457 -27.1659 -6.40196 -55.2562 -5.76479 -83.4444C-5.28497 -104.673 -1.65679 -131.424 17.4558 -144.389C35.6421 -156.725 58.3051 -148.147 77.9804 -145.325C87.6086 -143.944 97.7227 -143.659 106.881 -147.422C116.557 -151.398 123.902 -159.227 130.764 -166.85C137.782 -174.649 144.873 -183.452 154.652 -187.886C165.744 -192.917 177.576 -189.927 187.301 -183.326C197.806 -176.195 205.297 -165.811 214.038 -156.792C221.015 -149.592 232.233 -138.86 243.338 -142.87C253.097 -146.393 255.278 -158.68 260.402 -166.437C266.679 -175.94 278.571 -179.892 289.57 -178.727C301.551 -177.457 311.572 -170.043 318.319 -160.329C321.772 -155.358 324.405 -149.847 326.309 -144.108C328.011 -138.982 328.828 -133.571 330.977 -128.592C332.637 -124.747 335.229 -121.013 339.429 -119.764C344.982 -118.112 350.126 -121.526 354.716 -124.204C364.464 -129.891 375.94 -131.526 386.998 -129.514C397.904 -127.53 408.341 -122.096 415.75 -113.78C420.404 -108.558 424.448 -102.734 428.919 -97.347C433.261 -92.1148 437.548 -86.9025 440.872 -80.9403C448.038 -68.0873 449.155 -53.6891 448.916 -39.243C448.679 -24.9151 446.838 -10.6753 445.113 3.53125C443.287 18.5675 441.461 33.6035 439.636 48.6397C437.874 63.1467 436.503 77.7666 434.242 92.2051C432.283 104.715 427.603 118.748 414.889 124.05C405.514 127.96 396.65 123.726 389.52 117.565C377.464 107.148 364.565 87.8438 346.051 96.1335C334.885 101.133 328.93 112.462 324.58 123.244C322.166 129.227 319.978 135.332 316.864 141.001C313.685 146.786 309.409 151.882 304.486 156.262C295.314 164.42 284.295 170.165 273.333 175.51C272.446 175.943 272.97 177.401 273.867 176.964Z" fill="white"/>
<path d="M277.226 191.258C289.364 185.34 301.59 178.986 311.666 169.853C316.328 165.628 320.454 160.843 323.706 155.447C327.437 149.256 329.951 142.45 332.612 135.759C337.608 123.201 344.78 108.28 359.151 104.599C369.558 101.933 378.577 107.775 385.9 114.541C392.738 120.86 398.752 128.316 406.7 133.324C415.433 138.827 425.723 139.171 434.4 133.192C445.578 125.491 449.518 112.053 451.413 99.286C453.8 83.1995 455.412 66.9669 457.372 50.8231C459.389 34.2116 461.408 17.6003 463.423 0.988632C465.248 -14.0487 467.035 -29.1405 467.052 -44.31C467.069 -59.2005 465.456 -73.6723 458.084 -86.8687C454.351 -93.5512 449.501 -99.3454 444.644 -105.219C439.839 -111.028 435.521 -117.377 430.408 -122.911C415.038 -139.547 388.463 -145.766 367.699 -136.119C361.849 -133.401 355.591 -127.427 348.682 -129.068C342.839 -130.456 340.225 -136.772 338.609 -141.93C336.754 -147.85 335.572 -153.879 333.172 -159.633C330.72 -165.51 327.509 -171.112 323.452 -176.03C315.895 -185.191 305.409 -191.765 293.413 -192.727C282.555 -193.599 270.961 -190.174 263.694 -181.732C259.965 -177.401 257.802 -172.007 255.303 -166.935C252.804 -161.863 249.741 -156.277 244.168 -154.123C237.347 -151.486 230.13 -155.163 224.684 -159.157C218.637 -163.592 213.465 -169.066 208.48 -174.632C199.776 -184.351 191.252 -194.548 179.482 -200.68C169.115 -206.081 157.313 -207.007 146.772 -201.549C126.014 -190.801 116.866 -164.738 93.6673 -157.657C82.8128 -154.344 71.2167 -155.848 60.2637 -157.827C49.2574 -159.815 38.2608 -162.55 27.0188 -162.684C16.1387 -162.815 5.46871 -159.872 -2.91207 -152.713C-11.5258 -145.355 -16.7921 -134.91 -20.0334 -124.221C-23.6777 -112.203 -24.762 -99.6736 -24.9858 -87.172C-25.2643 -71.6163 -24.2528 -56.0557 -22.3326 -40.6222C-18.5089 -9.8911 -11.3793 20.5233 -2.84764 50.2657C5.81672 80.4709 16.897 110.258 33.3349 137.163C47.0964 159.687 64.7936 179.923 86.344 195.296C107.073 210.083 131.203 220.014 156.695 222.117C184.799 224.435 212.773 217.839 238.934 208.002C251.981 203.096 264.694 197.35 277.226 191.258C278.114 190.827 277.589 189.368 276.692 189.804C251.36 202.117 224.983 213.268 197.133 218.322C170.373 223.179 143.02 221.489 117.75 211.061C94.2961 201.382 73.6721 185.499 56.8897 166.596C37.402 144.645 23.2515 118.49 12.5327 91.2932C1.10609 62.3 -6.95316 31.8774 -13.4988 1.44307C-19.8573 -28.1221 -24.1007 -58.3191 -23.4158 -88.6212C-22.8994 -111.463 -18.994 -140.239 1.57057 -154.189C21.1379 -167.462 45.5085 -158.241 66.6785 -155.205C77.0189 -153.722 87.8805 -153.415 97.7161 -157.456C108.108 -161.727 115.997 -170.137 123.365 -178.324C130.918 -186.716 138.548 -196.184 149.07 -200.955C161.013 -206.372 173.754 -203.151 184.225 -196.043C195.518 -188.378 203.57 -177.215 212.967 -167.519C220.449 -159.798 232.494 -148.261 244.408 -152.563C254.88 -156.344 257.227 -169.556 262.727 -177.88C269.487 -188.113 282.294 -192.366 294.137 -191.111C307.031 -189.746 317.818 -181.764 325.08 -171.31C328.794 -165.962 331.627 -160.033 333.676 -153.86C335.505 -148.348 336.384 -142.532 338.694 -137.18C340.47 -133.064 343.245 -129.061 347.743 -127.724C353.692 -125.955 359.208 -129.621 364.124 -132.489C374.618 -138.611 386.969 -140.374 398.872 -138.208C410.612 -136.072 421.842 -130.221 429.818 -121.27C434.82 -115.656 439.167 -109.396 443.974 -103.605C448.642 -97.98 453.25 -92.377 456.824 -85.9675C464.533 -72.1406 465.739 -56.6554 465.481 -41.1141C465.226 -25.7065 463.248 -10.3938 461.393 4.88338C459.43 21.0473 457.467 37.2111 455.504 53.3748C453.611 68.9698 452.136 84.6863 449.706 100.208C447.596 113.677 442.553 128.777 428.865 134.486C418.768 138.697 409.216 134.14 401.535 127.503C388.594 116.322 374.74 95.5755 354.864 104.475C342.876 109.842 336.485 122.014 331.815 133.589C329.22 140.021 326.868 146.583 323.52 152.677C320.098 158.905 315.495 164.39 310.195 169.105C300.331 177.879 288.481 184.057 276.692 189.805C275.805 190.237 276.329 191.696 277.226 191.258Z" fill="white"/>
<path d="M280.584 205.553C293.565 199.223 306.639 192.427 317.415 182.661C322.395 178.148 326.803 173.035 330.277 167.271C334.268 160.648 336.957 153.368 339.804 146.21C345.155 132.761 352.838 116.79 368.226 112.847C379.378 109.99 389.044 116.24 396.893 123.492C404.205 130.248 410.635 138.225 419.133 143.578C428.46 149.455 439.443 149.828 448.711 143.443C460.657 135.211 464.865 120.848 466.889 107.205C469.443 89.9962 471.167 72.6312 473.264 55.361C475.422 37.5906 477.582 19.8205 479.738 2.04973C481.689 -14.0321 483.601 -30.172 483.619 -46.3953C483.637 -62.3138 481.916 -77.7882 474.035 -91.8962C470.042 -99.0449 464.853 -105.243 459.657 -111.526C454.517 -117.741 449.898 -124.533 444.428 -130.453C428 -148.232 399.597 -154.873 377.407 -144.563C371.136 -141.65 364.442 -135.259 357.035 -137.018C350.763 -138.507 347.953 -145.273 346.218 -150.812C344.234 -157.145 342.97 -163.594 340.401 -169.75C337.781 -176.032 334.347 -182.02 330.01 -187.278C321.934 -197.068 310.729 -204.09 297.91 -205.118C286.314 -206.049 273.93 -202.39 266.169 -193.375C262.183 -188.745 259.871 -182.979 257.199 -177.558C254.519 -172.118 251.234 -166.134 245.257 -163.823C237.942 -160.995 230.203 -164.934 224.361 -169.218C217.889 -173.965 212.354 -179.825 207.017 -185.783C197.712 -196.172 188.6 -207.076 176.018 -213.63C164.941 -219.401 152.336 -220.393 141.073 -214.562C118.863 -203.064 109.08 -175.181 84.2568 -167.604C72.6353 -164.056 60.2218 -165.665 48.4948 -167.783C36.7256 -169.909 24.9657 -172.835 12.9445 -172.979C1.31373 -173.118 -10.0886 -169.975 -19.0477 -162.322C-28.2505 -154.46 -33.8786 -143.297 -37.3417 -131.877C-41.2389 -119.024 -42.3996 -105.626 -42.639 -92.2566C-42.937 -75.6156 -41.8549 -58.9694 -39.8006 -42.4592C-35.7109 -9.58876 -28.0848 22.9426 -18.9594 54.7554C-9.69192 87.0632 2.15859 118.925 19.7407 147.703C34.4599 171.795 53.3875 193.438 76.4381 209.881C98.6063 225.694 124.411 236.313 151.673 238.562C181.727 241.041 211.644 233.984 239.62 223.464C253.578 218.216 267.178 212.069 280.584 205.553C281.472 205.121 280.948 203.663 280.051 204.099C252.946 217.273 224.725 229.201 194.927 234.609C166.29 239.807 137.02 237.996 109.978 226.837C84.8791 216.479 62.8102 199.481 44.8508 179.252C24.0005 155.766 8.86064 127.781 -2.60764 98.6826C-14.8333 67.662 -23.4552 35.1122 -30.4583 2.54965C-37.2606 -29.078 -41.7999 -61.3818 -41.0672 -93.7981C-40.5144 -118.253 -36.3316 -149.054 -14.3152 -163.988C6.63334 -178.198 32.7111 -168.335 55.376 -165.085C66.4287 -163.499 78.0378 -163.171 88.5509 -167.491C99.6585 -172.055 108.091 -181.047 115.966 -189.798C124.054 -198.783 132.222 -208.916 143.487 -214.025C156.282 -219.827 169.932 -216.374 181.148 -208.761C193.229 -200.561 201.844 -188.619 211.895 -178.246C219.883 -170.004 232.754 -157.662 245.477 -162.256C256.664 -166.295 259.175 -180.431 265.051 -189.323C272.294 -200.286 286.016 -204.84 298.704 -203.496C312.511 -202.034 324.064 -193.486 331.84 -182.292C335.816 -176.567 338.849 -170.22 341.043 -163.611C342.999 -157.715 343.939 -151.493 346.41 -145.767C348.304 -141.38 351.261 -137.109 356.056 -135.684C362.402 -133.798 368.29 -137.716 373.533 -140.775C384.772 -147.331 397.997 -149.221 410.746 -146.902C423.319 -144.614 435.344 -138.347 443.885 -128.76C449.236 -122.755 453.887 -116.058 459.029 -109.863C464.023 -103.846 468.952 -97.8516 472.775 -90.995C481.028 -76.1942 482.322 -59.6219 482.046 -42.9854C481.773 -26.4981 479.657 -10.1124 477.672 6.23514C475.572 23.5267 473.472 40.8182 471.373 58.1098C469.347 74.7928 467.77 91.6056 465.17 108.21C462.91 122.64 457.502 138.805 442.84 144.92C432.021 149.433 421.781 144.554 413.551 137.442C399.725 125.495 384.914 103.307 363.676 112.816C350.866 118.552 344.04 131.566 339.05 143.933C336.274 150.814 333.758 157.834 330.176 164.353C326.51 171.024 321.581 176.898 315.904 181.949C305.349 191.338 292.666 197.947 280.051 204.099C279.164 204.531 279.688 205.99 280.584 205.553Z" fill="white"/>
<path d="M283.943 219.847C297.767 213.106 311.687 205.868 323.164 195.469C328.462 190.669 333.153 185.227 336.848 179.094C341.1 172.04 343.964 164.284 346.997 156.66C352.701 142.322 360.896 125.3 377.3 121.096C389.199 118.046 399.511 124.704 407.886 132.443C415.671 139.636 422.519 148.131 431.566 153.832C441.485 160.084 453.164 160.485 463.022 153.693C475.737 144.932 480.211 129.644 482.366 115.124C485.086 96.7927 486.923 78.2952 489.156 59.8987C491.455 40.9693 493.756 22.0403 496.052 3.11072C498.13 -14.0154 500.166 -31.2037 500.186 -48.4807C500.205 -65.4273 498.376 -81.9042 489.986 -96.9238C485.732 -104.539 480.205 -111.141 474.67 -117.834C469.195 -124.455 464.276 -131.69 458.448 -137.996C440.961 -156.917 410.732 -163.98 387.115 -153.008C380.423 -149.899 373.293 -143.092 365.388 -144.968C358.686 -146.558 355.681 -153.775 353.827 -159.694C351.713 -166.44 350.367 -173.309 347.631 -179.867C344.841 -186.555 341.185 -192.929 336.568 -198.526C327.973 -208.945 316.048 -216.415 302.407 -217.51C290.073 -218.499 276.898 -214.607 268.643 -205.019C264.4 -200.09 261.939 -193.952 259.096 -188.18C256.235 -182.373 252.726 -175.99 246.346 -173.524C238.536 -170.504 230.275 -174.704 224.038 -179.279C217.14 -184.338 211.241 -190.584 205.554 -196.933C195.648 -207.993 185.947 -219.603 172.553 -226.581C160.768 -232.72 147.358 -233.778 135.374 -227.575C111.711 -215.326 101.295 -185.625 74.8462 -177.551C62.4578 -173.77 49.2267 -175.482 36.7255 -177.74C24.1934 -180.004 11.6703 -183.12 -1.13013 -183.274C-13.5114 -183.422 -25.6461 -180.078 -35.1834 -171.931C-44.9756 -163.566 -50.9655 -151.684 -54.6502 -139.532C-58.8003 -125.846 -60.0375 -111.578 -60.2922 -97.3414C-60.6096 -79.6151 -59.4568 -61.8834 -57.2687 -44.2963C-52.9129 -9.28638 -44.7908 25.3621 -35.0714 59.2453C-25.2008 93.6555 -12.5801 127.592 6.14621 158.242C21.8238 183.902 41.982 206.953 66.5328 224.466C90.14 241.306 117.619 252.612 146.65 255.006C178.656 257.646 210.515 250.129 240.307 238.927C255.176 233.336 269.662 226.788 283.943 219.847C284.831 219.415 284.307 217.957 283.41 218.393C254.533 232.429 224.467 245.135 192.721 250.897C162.208 256.434 131.02 254.503 102.207 242.612C75.4625 231.576 51.9485 213.463 32.8119 191.907C10.5993 166.887 -5.52991 137.072 -17.7476 106.072C-30.7723 73.0242 -39.9567 38.3471 -47.4177 3.65634C-54.6635 -30.034 -59.499 -64.4444 -58.7184 -98.9749C-58.1291 -125.043 -53.6689 -157.869 -30.2008 -173.788C-7.8712 -188.934 19.9141 -178.429 44.0737 -174.964C55.8388 -173.277 68.1953 -172.927 79.386 -177.525C91.2093 -182.384 100.185 -191.957 108.568 -201.272C117.189 -210.851 125.895 -221.648 137.905 -227.094C151.551 -233.282 166.11 -229.598 178.071 -221.478C190.94 -212.743 200.117 -200.023 210.824 -188.974C219.317 -180.21 233.014 -167.063 246.546 -171.949C258.447 -176.246 261.123 -191.306 267.375 -200.766C275.101 -212.459 289.738 -217.315 303.27 -215.881C317.99 -214.322 330.31 -205.208 338.599 -193.274C342.838 -187.172 346.071 -180.406 348.409 -173.363C350.493 -167.082 351.494 -160.454 354.127 -154.355C356.137 -149.697 359.277 -145.158 364.369 -143.645C371.111 -141.642 377.371 -145.811 382.941 -149.061C394.925 -156.052 409.025 -158.07 422.619 -155.597C436.026 -153.157 448.844 -146.474 457.952 -136.251C463.652 -129.854 468.606 -122.72 474.083 -116.121C479.403 -109.712 484.654 -103.327 488.726 -96.0229C497.522 -80.2482 498.905 -62.5888 498.611 -44.857C498.32 -27.29 496.066 -9.83153 493.951 7.5867C491.714 26.0059 489.477 44.4251 487.241 62.8444C485.083 80.6154 483.403 98.5247 480.633 116.212C478.223 131.602 472.451 148.834 456.815 155.355C445.274 160.168 434.346 154.967 425.566 147.381C410.855 134.669 395.087 111.038 372.489 121.157C358.856 127.261 351.594 141.117 346.285 154.277C343.328 161.606 340.648 169.085 336.832 176.029C332.923 183.144 327.667 189.406 321.612 194.792C310.366 204.797 296.851 211.839 283.409 218.393C282.523 218.826 283.047 220.284 283.943 219.847Z" fill="white"/>
<path d="M287.302 234.141C301.969 226.99 316.736 219.309 328.913 208.276C334.529 203.188 339.502 197.418 343.42 190.918C347.931 183.432 350.971 175.202 354.19 167.11C360.248 151.882 368.954 133.81 386.375 129.344C399.02 126.102 409.978 133.169 418.88 141.394C427.139 149.025 434.403 158.037 443.999 164.086C454.511 170.713 466.886 171.141 477.334 163.943C490.817 154.653 495.558 138.439 497.843 123.043C500.73 103.589 502.679 83.9592 505.049 64.4364C507.489 44.3482 509.93 24.2602 512.367 4.17172C514.572 -13.9989 516.733 -32.2354 516.754 -50.566C516.774 -68.5407 514.838 -86.0201 505.938 -101.951C501.424 -110.032 495.559 -117.039 489.685 -124.142C483.874 -131.167 478.654 -138.847 472.469 -145.538C453.924 -165.601 421.867 -173.087 396.824 -161.452C389.71 -158.147 382.145 -150.925 373.742 -152.918C366.611 -154.609 363.41 -162.276 361.437 -168.576C359.194 -175.735 357.765 -183.025 354.861 -189.984C351.902 -197.078 348.025 -203.837 343.127 -209.775C334.014 -220.823 321.369 -228.74 306.905 -229.901C293.833 -230.95 279.867 -226.823 271.119 -216.662C266.618 -211.434 264.009 -204.924 260.994 -198.803C257.951 -192.628 254.22 -185.846 247.437 -183.224C239.132 -180.014 230.349 -184.475 223.716 -189.34C216.393 -194.711 210.13 -201.343 204.092 -208.084C193.586 -219.815 183.295 -232.13 169.089 -239.531C156.595 -246.04 142.381 -247.163 129.676 -240.587C104.561 -227.588 93.5105 -196.068 65.4365 -187.498C52.2811 -183.483 38.2327 -185.299 24.9572 -187.697C11.6621 -190.098 -1.62411 -193.406 -15.2038 -193.568C-28.3358 -193.726 -41.2028 -190.181 -51.3184 -181.54C-61.6997 -172.671 -68.0514 -160.07 -71.9579 -147.188C-76.361 -132.667 -77.6745 -117.53 -77.9449 -102.426C-78.2816 -83.6145 -77.0584 -64.7971 -74.7363 -46.1334C-70.1147 -8.9841 -61.4964 27.7812 -51.183 63.735C-40.7094 100.248 -27.3183 136.258 -7.4477 168.782C9.18778 196.01 30.5765 220.468 56.6275 239.051C81.6736 256.917 110.828 268.91 141.628 271.451C175.585 274.252 209.387 266.274 240.995 254.389C256.773 248.456 272.147 241.507 287.302 234.141C288.19 233.71 287.666 232.251 286.768 232.687C256.12 247.584 224.21 261.068 190.515 267.183C158.126 273.061 125.02 271.009 94.4356 258.388C66.0459 246.672 41.0871 227.444 20.7735 204.563C-2.80196 178.008 -19.9205 146.363 -32.8877 113.461C-46.7114 78.386 -56.4583 41.5817 -64.3769 4.76306C-72.0663 -30.99 -77.1979 -67.5072 -76.3696 -104.152C-75.7439 -131.833 -71.0063 -166.684 -46.0864 -183.587C-22.3758 -199.671 7.11706 -188.523 32.7714 -184.844C45.2487 -183.054 58.3527 -182.682 70.2208 -187.559C82.7598 -192.712 92.2785 -202.867 101.169 -212.746C110.324 -222.918 119.569 -234.379 132.323 -240.163C146.82 -246.737 162.287 -242.821 174.994 -234.195C188.651 -224.925 198.389 -211.426 209.752 -199.701C218.751 -190.415 233.274 -176.463 247.615 -181.642C260.23 -186.197 263.071 -202.182 269.699 -212.209C277.908 -224.632 293.459 -229.789 307.837 -228.266C323.469 -226.61 336.556 -216.929 345.359 -204.255C349.859 -197.777 353.293 -190.592 355.775 -183.114C357.987 -176.449 359.049 -169.415 361.843 -162.942C363.968 -158.019 367.294 -153.197 372.682 -151.605C379.828 -149.495 386.445 -153.902 392.35 -157.346C405.078 -164.772 420.053 -166.917 434.493 -164.29C448.734 -161.699 462.345 -154.599 472.019 -143.741C478.068 -136.952 483.325 -129.382 489.138 -122.379C494.783 -115.577 500.355 -108.801 504.677 -101.05C514.016 -84.3016 515.488 -65.5551 515.176 -46.7279C514.868 -28.0814 512.475 -9.55002 510.23 8.93874C507.856 28.4856 505.483 48.0327 503.109 67.5796C500.819 86.4386 499.037 105.444 496.097 124.214C493.537 140.565 487.401 158.863 470.79 165.79C458.527 170.905 446.912 165.381 437.582 157.32C421.985 143.843 405.261 118.77 381.301 129.498C366.847 135.97 359.149 150.669 353.52 164.621C350.382 172.4 347.538 180.336 343.488 187.705C339.335 195.263 333.753 201.914 327.321 207.636C315.383 218.256 301.037 225.73 286.768 232.688C285.881 233.12 286.405 234.578 287.302 234.141Z" fill="white"/>
</g>
</g>
<defs>
<clipPath id="clip0_2_8569">
<rect width="219" height="219" rx="109.5" fill="white"/>
</clipPath>
</defs>
</svg>
