<svg width="600" height="579" viewBox="0 0 600 579" fill="none" xmlns="http://www.w3.org/2000/svg">
<g clip-path="url(#clip0_259_1640)">
<g opacity="0.1">
<path fill-rule="evenodd" clip-rule="evenodd" d="M555.07 380.129C556.675 379.675 558.281 380.459 558.657 381.88L562.802 397.545L567.98 389.528C568.788 388.275 570.469 387.756 571.729 388.37C572.989 388.983 573.355 390.498 572.546 391.751L564.547 404.137L568.901 420.587L582.637 399.335C583.443 398.086 585.121 397.569 586.379 398.182C587.638 398.795 588.004 400.304 587.196 401.554L570.641 427.166L576.175 448.073C579.085 447.704 581.884 448.178 584.247 449.338L596.402 437.796L598.065 405.969C598.139 404.533 599.444 403.284 600.979 403.186C602.514 403.083 603.697 404.163 603.622 405.599L602.231 432.26L614.015 421.071C613.994 420.922 613.985 420.77 613.993 420.615L614.823 404.721C614.897 403.288 616.196 402.039 617.732 401.942C619.264 401.84 620.445 402.919 620.37 404.352L619.782 415.594L634.055 402.042C635.164 400.987 636.882 400.88 637.891 401.799C638.9 402.716 638.818 404.314 637.709 405.366L625.153 417.287L634.376 416.673C635.907 416.57 637.089 417.649 637.014 419.083C636.951 420.282 636.028 421.349 634.829 421.724C634.596 421.797 634.354 421.844 634.105 421.861L619.297 422.847L606.753 434.759L632.922 433.018C634.457 432.916 635.641 433.998 635.565 435.433C635.503 436.635 634.577 437.704 633.376 438.08C633.144 438.153 632.9 438.2 632.651 438.217L600.887 440.329L588.184 452.392C589.307 453.724 590.14 455.318 590.576 457.13C591.228 459.838 590.904 462.639 589.825 465.202L608.935 468.794L638.124 451.574C639.488 450.766 641.165 451.081 641.867 452.273C642.569 453.464 642.031 455.083 640.666 455.888L616.409 470.198L633.716 473.451L646.348 466C647.713 465.192 649.389 465.506 650.091 466.697C650.793 467.888 650.256 469.508 648.89 470.313L641.19 474.856L656.11 477.662C657.538 477.93 658.326 479.259 657.871 480.63C657.566 481.55 656.777 482.254 655.86 482.538C655.41 482.677 654.929 482.715 654.459 482.626L637.14 479.369L642.95 489.229C643.652 490.421 643.113 492.04 641.747 492.845C641.525 492.976 641.294 493.076 641.062 493.149C639.862 493.525 638.592 493.144 638.004 492.147L629.994 478.555C629.887 478.373 629.813 478.18 629.762 477.982L614.191 475.055L626.738 496.35C627.44 497.542 626.902 499.16 625.536 499.965C625.314 500.096 625.084 500.197 624.851 500.27C623.652 500.646 622.381 500.264 621.793 499.266L606.697 473.647L586.73 469.894C585.548 471.137 584.15 472.216 582.579 473.065L587.93 493.281L615.351 506.624C616.611 507.237 616.977 508.747 616.169 509.995C615.766 510.62 615.144 511.062 614.468 511.27C613.791 511.479 613.058 511.455 612.429 511.148L589.737 500.106L593.954 516.043L607.427 522.6C608.688 523.214 609.054 524.727 608.245 525.981C607.436 527.234 605.756 527.754 604.496 527.139L595.766 522.891L600.157 539.477C600.533 540.898 599.537 542.417 597.932 542.871C596.328 543.325 594.722 542.542 594.346 541.121L590.199 525.455L585.022 533.471C584.618 534.098 583.996 534.54 583.318 534.75C582.64 534.96 581.905 534.937 581.274 534.63C580.012 534.016 579.646 532.502 580.456 531.249L588.454 518.861L584.1 502.411L570.366 523.665C569.56 524.914 567.882 525.431 566.624 524.817C565.365 524.205 564.998 522.695 565.806 521.446L582.359 495.831L576.827 474.925C573.916 475.295 571.116 474.823 568.753 473.663L556.598 485.206L554.938 517.031C554.875 518.234 553.949 519.303 552.749 519.679C552.516 519.752 552.271 519.799 552.022 519.816C550.487 519.918 549.304 518.837 549.379 517.402L550.77 490.739L538.985 501.929C539.006 502.077 539.015 502.229 539.007 502.386L538.177 518.28C538.114 519.48 537.19 520.549 535.992 520.924C535.759 520.997 535.516 521.043 535.268 521.059C533.736 521.162 532.555 520.084 532.63 518.651L533.216 507.406L518.947 520.958C518.582 521.304 518.151 521.548 517.702 521.687C516.785 521.971 515.79 521.818 515.113 521.203C514.104 520.285 514.184 518.686 515.294 517.633L527.844 505.714L518.624 506.328C517.092 506.431 515.911 505.352 515.986 503.919C516.06 502.486 517.363 501.238 518.895 501.141L533.701 500.153L546.248 488.24L520.079 489.982C518.545 490.084 517.361 489.004 517.436 487.568C517.51 486.132 518.814 484.882 520.35 484.783L552.114 482.669L564.815 470.608C563.692 469.276 562.86 467.681 562.424 465.87C561.772 463.161 562.094 460.36 563.174 457.797L544.063 454.205L514.877 471.426C514.655 471.559 514.424 471.66 514.191 471.732C512.992 472.108 511.721 471.726 511.134 470.728C510.432 469.537 510.969 467.919 512.335 467.114L536.592 452.8L519.283 449.547L506.655 456.999C506.433 457.132 506.202 457.233 505.969 457.305C504.769 457.681 503.498 457.3 502.91 456.301C502.208 455.111 502.746 453.491 504.112 452.685L511.81 448.143L496.89 445.339C495.462 445.071 494.674 443.742 495.129 442.371C495.584 441 497.112 440.106 498.54 440.375L515.862 443.63L510.053 433.771C509.351 432.579 509.889 430.96 511.254 430.154C512.618 429.346 514.297 429.661 514.998 430.853L523.007 444.445C523.113 444.624 523.188 444.817 523.239 445.017L538.809 447.943L526.263 426.649C525.562 425.459 526.099 423.84 527.465 423.035C528.827 422.228 530.504 422.542 531.206 423.734L546.303 449.352L566.27 453.104C567.452 451.862 568.85 450.782 570.422 449.934L565.071 429.718L537.651 416.375C536.392 415.764 536.026 414.254 536.834 413.004C537.64 411.755 539.316 411.239 540.575 411.852L563.264 422.893L559.046 406.956L545.574 400.4C544.313 399.786 543.947 398.273 544.757 397.019C545.565 395.766 547.245 395.247 548.505 395.861L557.234 400.109L552.845 383.524C552.469 382.103 553.466 380.582 555.07 380.129ZM580.42 453.624C578.673 453.005 576.636 452.941 574.591 453.576C569.796 455.064 566.752 459.831 567.804 464.2C568.045 465.201 568.482 466.095 569.068 466.862C570.056 466.451 571.189 466.569 571.934 467.247C572.542 467.8 572.75 468.598 572.581 469.376C574.327 469.994 576.363 470.059 578.408 469.424C583.203 467.936 586.248 463.17 585.196 458.801C584.955 457.799 584.516 456.904 583.929 456.137C583.839 456.174 583.749 456.211 583.657 456.24C582.739 456.523 581.744 456.369 581.068 455.754C580.46 455.201 580.251 454.402 580.42 453.624Z" fill="white"/>
<path d="M568.914 483.242C569.657 482.523 570.711 482.19 571.673 482.373C572.634 482.555 573.351 483.222 573.553 484.119L575.075 490.896C575.226 491.57 575.068 492.306 574.639 492.934L566.424 504.988C566.01 505.596 565.388 506.039 564.706 506.252C564.229 506.401 563.721 506.438 563.232 506.342C562.048 506.108 561.269 505.146 561.319 503.982L561.879 491.088C561.909 490.395 562.234 489.708 562.779 489.18L568.914 483.242Z" fill="white"/>
<path d="M591.728 477.566C592.48 476.851 593.54 476.529 594.499 476.721L601.755 478.169C602.476 478.313 603.069 478.734 603.396 479.334L609.689 490.845C610.229 491.833 609.958 493.117 609.022 493.993C608.652 494.34 608.214 494.589 607.754 494.733C607.051 494.953 606.297 494.925 605.659 494.621L593.946 489.038C593.317 488.739 592.872 488.202 592.709 487.545L590.871 480.167C590.65 479.274 590.976 478.28 591.728 477.566Z" fill="white"/>
<path d="M544.372 463.827C545.003 463.453 545.747 463.309 546.431 463.435L554.129 464.827C555.061 464.995 555.765 465.631 555.972 466.49C556.179 467.347 555.855 468.296 555.126 468.97L549.619 474.065C549.271 474.387 548.85 474.627 548.402 474.765C548.149 474.843 547.885 474.888 547.622 474.897L533.625 475.394C532.423 475.437 531.427 474.734 531.181 473.671C530.936 472.608 531.501 471.442 532.567 470.811L544.372 463.827Z" fill="white"/>
<path d="M619.373 447.607C620.575 447.564 621.573 448.267 621.819 449.33C622.064 450.393 621.498 451.559 620.433 452.19L608.627 459.174C608.41 459.302 608.181 459.403 607.945 459.476C607.493 459.615 607.018 459.649 606.568 459.567L598.869 458.173C597.937 458.005 597.233 457.369 597.026 456.512C596.82 455.654 597.144 454.705 597.872 454.031L603.379 448.937C603.926 448.43 604.647 448.13 605.377 448.104L619.373 447.607Z" fill="white"/>
<path d="M543.978 429.007C544.913 428.131 546.286 427.877 547.342 428.381L559.055 433.963C559.685 434.263 560.129 434.801 560.293 435.456L562.129 442.833C562.35 443.726 562.024 444.72 561.272 445.434C560.902 445.786 560.457 446.044 559.985 446.191C559.501 446.342 558.988 446.378 558.501 446.28L551.246 444.83C550.525 444.686 549.934 444.266 549.606 443.666L543.311 432.155C542.771 431.167 543.043 429.883 543.978 429.007Z" fill="white"/>
<path d="M586.579 418.013C587.284 416.978 588.585 416.425 589.77 416.659C590.954 416.894 591.733 417.856 591.684 419.02L591.121 431.915C591.091 432.607 590.767 433.293 590.222 433.821L584.087 439.759C583.714 440.121 583.262 440.384 582.783 440.534C582.308 440.683 581.807 440.719 581.329 440.628C580.368 440.446 579.648 439.779 579.447 438.882L577.928 432.105C577.777 431.432 577.934 430.697 578.362 430.069L586.579 418.013Z" fill="white"/>
</g>
<g opacity="0.1">
<path fill-rule="evenodd" clip-rule="evenodd" d="M-13.5156 67.0781C-12.5412 66.8026 -11.5655 67.279 -11.3372 68.1417L-8.81957 77.6563L-5.67453 72.7872C-5.18372 72.0262 -4.16302 71.7106 -3.39793 72.0838C-2.63226 72.4562 -2.40994 73.3758 -2.90122 74.137L-7.75959 81.6602L-5.11533 91.6512L3.22733 78.7434C3.71679 77.9847 4.73591 77.6707 5.49987 78.0433C6.26477 78.4154 6.48721 79.3321 5.99659 80.0908L-4.0586 95.647L-0.69767 108.345C1.07003 108.121 2.76996 108.409 4.20533 109.113L11.5878 102.103L12.5975 82.7725C12.6425 81.9004 13.4351 81.1418 14.3677 81.082C15.2997 81.0199 16.0187 81.676 15.973 82.5481L15.1281 98.741L22.285 91.9448C22.2723 91.8547 22.267 91.7623 22.272 91.6683L22.7761 82.0147C22.8209 81.1442 23.6101 80.3855 24.543 80.3266C25.473 80.2646 26.1907 80.9199 26.1451 81.7903L25.788 88.6182L34.4569 80.3876C35.1302 79.747 36.174 79.6819 36.7863 80.2396C37.3991 80.7971 37.3494 81.7673 36.6759 82.4066L29.0499 89.6468L34.6517 89.2736C35.5818 89.2115 36.2995 89.8668 36.2538 90.7373C36.2154 91.4655 35.6548 92.1136 34.9268 92.3416C34.7856 92.3858 34.638 92.4145 34.4869 92.4245L25.4934 93.0238L17.8747 100.258L33.7687 99.2012C34.7009 99.1392 35.4197 99.796 35.3741 100.668C35.3361 101.398 34.7737 102.047 34.0446 102.276C33.9031 102.32 33.7552 102.349 33.6039 102.359L14.3117 103.642L6.59637 110.968C7.27862 111.777 7.78422 112.746 8.04918 113.846C8.44525 115.491 8.24858 117.192 7.59304 118.748L19.2001 120.93L36.9283 110.471C37.7562 109.981 38.7751 110.172 39.2017 110.896C39.628 111.619 39.301 112.602 38.472 113.091L23.7394 121.783L34.2508 123.759L41.923 119.233C42.7518 118.743 43.7699 118.933 44.1964 119.657C44.6229 120.38 44.2964 121.364 43.4667 121.853L38.7902 124.612L47.8519 126.316C48.7193 126.479 49.1982 127.286 48.9216 128.119C48.7363 128.677 48.2572 129.105 47.7001 129.278C47.4267 129.362 47.1349 129.385 46.8496 129.331L36.3301 127.353L39.8591 133.342C40.2854 134.065 39.9582 135.049 39.1286 135.538C38.9936 135.617 38.8536 135.678 38.7122 135.723C37.9838 135.951 37.2121 135.719 36.8553 135.114L31.9904 126.859C31.9252 126.748 31.8801 126.631 31.8492 126.511L22.3922 124.733L30.0125 137.667C30.439 138.39 30.1123 139.373 29.2828 139.862C29.1477 139.942 29.0079 140.003 28.8665 140.048C28.1381 140.276 27.3662 140.044 27.0095 139.438L17.8406 123.878L5.71333 121.598C4.99556 122.353 4.14659 123.008 3.19243 123.524L6.44217 135.802L23.0966 143.907C23.8616 144.279 24.084 145.196 23.5934 145.954C23.3484 146.334 22.9711 146.602 22.5602 146.728C22.149 146.855 21.7037 146.841 21.3216 146.654L7.53948 139.948L10.101 149.627L18.2837 153.61C19.0499 153.983 19.2722 154.902 18.7804 155.663C18.2894 156.425 17.269 156.74 16.5038 156.367L11.2015 153.786L13.8685 163.86C14.0968 164.723 13.4915 165.646 12.5172 165.922C11.5428 166.197 10.5672 165.722 10.3388 164.859L7.8203 155.344L4.67607 160.213C4.43063 160.593 4.05308 160.862 3.64126 160.989C3.22918 161.117 2.78263 161.103 2.39948 160.916C1.63335 160.543 1.41103 159.624 1.90277 158.863L6.76032 151.339L4.11606 141.348L-4.22579 154.256C-4.71524 155.015 -5.73437 155.329 -6.49833 154.957C-7.26324 154.585 -7.48566 153.667 -6.99505 152.909L3.05852 137.351L-0.301598 124.654C-2.06957 124.879 -3.76981 124.592 -5.20542 123.887L-12.5879 130.898L-13.596 150.227C-13.6342 150.958 -14.1964 151.607 -14.9254 151.836C-15.067 151.88 -15.2155 151.909 -15.3669 151.919C-16.2991 151.981 -17.0178 151.325 -16.9723 150.453L-16.1274 134.259L-23.2851 141.055C-23.2725 141.145 -23.2671 141.237 -23.2721 141.332L-23.7761 150.986C-23.8143 151.715 -24.3755 152.364 -25.1031 152.592C-25.2444 152.636 -25.392 152.664 -25.543 152.674C-26.4733 152.736 -27.1906 152.081 -27.1452 151.211L-26.7889 144.382L-35.4554 152.612C-35.6772 152.823 -35.9388 152.971 -36.2118 153.055C-36.7687 153.228 -37.3732 153.135 -37.7839 152.761C-38.3969 152.204 -38.3483 151.233 -37.6744 150.593L-30.0516 143.354L-35.6518 143.727C-36.5822 143.789 -37.2996 143.134 -37.2539 142.263C-37.209 141.393 -36.4177 140.635 -35.487 140.576L-26.4943 139.976L-18.8739 132.741L-34.7679 133.799C-35.6999 133.861 -36.4189 133.205 -36.3733 132.333C-36.3285 131.46 -35.5361 130.702 -34.6032 130.641L-15.3109 129.357L-7.59727 122.032C-8.27932 121.223 -8.78436 120.254 -9.04926 119.154C-9.44532 117.509 -9.24971 115.807 -8.59394 114.251L-20.2009 112.069L-37.9276 122.529C-38.0623 122.609 -38.2029 122.671 -38.3439 122.715C-39.0722 122.943 -39.8441 122.711 -40.2009 122.105C-40.6274 121.381 -40.3008 120.399 -39.4713 119.909L-24.7387 111.216L-35.2517 109.24L-42.9215 113.766C-43.0563 113.847 -43.1964 113.908 -43.3379 113.952C-44.0664 114.181 -44.8387 113.949 -45.1957 113.343C-45.6221 112.619 -45.2955 111.636 -44.466 111.146L-39.7903 108.387L-48.852 106.685C-49.7194 106.521 -50.1981 105.714 -49.9217 104.882C-49.6456 104.049 -48.7173 103.506 -47.8497 103.669L-37.3294 105.646L-40.8575 99.6582C-41.284 98.9345 -40.9572 97.9511 -40.1279 97.4619C-39.2995 96.971 -38.28 97.1623 -37.8537 97.8864L-32.9897 106.141C-32.9255 106.25 -32.8796 106.367 -32.8484 106.489L-23.3922 108.266L-31.0117 95.3331C-31.438 94.61 -31.1115 93.6268 -30.2821 93.1376C-29.4546 92.6476 -28.4361 92.8384 -28.0096 93.5621L-18.8407 109.122L-6.71341 111.401C-5.99546 110.646 -5.14608 109.991 -4.1917 109.475L-7.44144 97.1968L-24.0951 89.0931C-24.86 88.7215 -25.0824 87.8043 -24.5918 87.0456C-24.1024 86.2869 -23.0844 85.9732 -22.3193 86.3455L-8.53875 93.0514L-11.101 83.3718L-19.283 79.3899C-20.0492 79.0173 -20.2716 78.0981 -19.7797 77.3367C-19.2889 76.5758 -18.2682 76.2605 -17.5031 76.6333L-12.2016 79.2134L-14.867 69.1403C-15.0953 68.2775 -14.49 67.3538 -13.5156 67.0781ZM1.88085 111.716C0.82003 111.34 -0.417526 111.301 -1.65944 111.687C-4.57174 112.591 -6.42073 115.486 -5.78167 118.14C-5.63521 118.748 -5.36982 119.291 -5.01387 119.757C-4.41369 119.507 -3.72556 119.578 -3.27295 119.991C-2.90393 120.326 -2.7774 120.811 -2.88012 121.284C-1.81954 121.659 -0.58297 121.698 0.65855 121.313C3.57085 120.409 5.42044 117.515 4.78159 114.861C4.63499 114.252 4.36868 113.709 4.01217 113.243C3.95739 113.265 3.90262 113.288 3.8466 113.305C3.28958 113.477 2.6851 113.384 2.27449 113.01C1.90536 112.674 1.77792 112.189 1.88085 111.716Z" fill="white"/>
<path d="M-5.10721 129.705C-4.65604 129.268 -4.01592 129.066 -3.43202 129.178C-2.84817 129.288 -2.41229 129.693 -2.29007 130.238L-1.36564 134.354C-1.27398 134.763 -1.36982 135.21 -1.63022 135.592L-6.62008 142.913C-6.87147 143.283 -7.24893 143.551 -7.66301 143.681C-7.95311 143.771 -8.26165 143.794 -8.55823 143.735C-9.27745 143.593 -9.75079 143.009 -9.72047 142.302L-9.3804 134.47C-9.36211 134.05 -9.16472 133.632 -8.83337 133.312L-5.10721 129.705Z" fill="white"/>
<path d="M8.74879 126.258C9.2058 125.824 9.84943 125.628 10.4321 125.745L14.8392 126.624C15.2771 126.712 15.6368 126.967 15.8359 127.332L19.6578 134.323C19.986 134.923 19.8208 135.703 19.2528 136.235C19.0279 136.446 18.7622 136.597 18.4826 136.685C18.0555 136.818 17.5978 136.801 17.21 136.616L10.0961 133.225C9.71402 133.044 9.44388 132.718 9.34452 132.319L8.22855 127.838C8.09408 127.295 8.29224 126.691 8.74879 126.258Z" fill="white"/>
<path d="M-20.0135 117.913C-19.6301 117.686 -19.1782 117.599 -18.7628 117.675L-14.087 118.521C-13.5211 118.623 -13.0935 119.009 -12.9678 119.531C-12.8423 120.051 -13.0388 120.627 -13.4815 121.037L-16.8262 124.131C-17.0382 124.327 -17.2934 124.473 -17.5656 124.557C-17.7195 124.604 -17.8795 124.631 -18.0396 124.637L-26.5405 124.939C-27.2705 124.965 -27.8756 124.538 -28.025 123.892C-28.1738 123.247 -27.8305 122.538 -27.1833 122.155L-20.0135 117.913Z" fill="white"/>
<path d="M25.5396 108.062C26.2697 108.036 26.8755 108.463 27.0249 109.109C27.1738 109.754 26.8303 110.462 26.1832 110.845L19.0126 115.088C18.8812 115.165 18.7418 115.227 18.5986 115.27C18.3238 115.355 18.0352 115.376 17.7619 115.326L13.0861 114.479C12.5202 114.377 12.0922 113.991 11.9669 113.47C11.8416 112.949 12.0381 112.373 12.4806 111.963L15.8253 108.869C16.1578 108.562 16.5955 108.379 17.0387 108.364L25.5396 108.062Z" fill="white"/>
<path d="M-20.2529 96.7651C-19.6845 96.2331 -18.8509 96.0784 -18.2092 96.3845L-11.0954 99.7753C-10.7128 99.9574 -10.4429 100.284 -10.3438 100.682L-9.22863 105.162C-9.09417 105.705 -9.29198 106.309 -9.74888 106.742C-9.97359 106.956 -10.2442 107.112 -10.5305 107.202C-10.8248 107.294 -11.136 107.315 -11.4322 107.256L-15.8385 106.376C-16.2759 106.288 -16.6352 106.033 -16.8343 105.668L-20.6579 98.6768C-20.9857 98.0769 -20.8208 97.2968 -20.2529 96.7651Z" fill="white"/>
<path d="M5.62162 90.0876C6.04963 89.4591 6.84016 89.1234 7.55977 89.2655C8.27892 89.4077 8.75216 89.9921 8.72201 90.699L8.38032 98.5312C8.36188 98.9512 8.1653 99.3682 7.83409 99.6891L4.10794 103.295C3.88127 103.515 3.60698 103.675 3.3158 103.766C3.02761 103.856 2.72319 103.878 2.43275 103.823C1.8491 103.713 1.41209 103.308 1.28999 102.763L0.36718 98.6467C0.275558 98.2379 0.371055 97.7916 0.630955 97.4099L5.62162 90.0876Z" fill="white"/>
</g>
</g>
<defs>
<clipPath id="clip0_259_1640">
<rect width="600" height="579" rx="48" fill="white"/>
</clipPath>
</defs>
</svg>
