<svg width="296" height="534" viewBox="0 0 296 534" fill="none" xmlns="http://www.w3.org/2000/svg">
<g clip-path="url(#clip0_259_2345)">
<g opacity="0.1">
<path d="M44.2521 335.708C45.5082 335.55 46.8187 336.409 47.1711 337.624C47.5228 338.839 46.7861 339.957 45.5285 340.117C45.115 340.169 44.6955 340.112 44.3068 339.967C43.5133 339.673 42.8459 339.017 42.6095 338.202C42.4388 337.613 42.5161 337.029 42.8263 336.558C43.1365 336.088 43.6427 335.785 44.2521 335.708Z" fill="white"/>
<path d="M46.38 330.747C46.8682 330.545 47.4932 330.773 47.7814 331.258L50.0939 335.154C50.3846 335.644 50.2239 336.211 49.7345 336.422C49.4881 336.528 49.2044 336.523 48.9474 336.429C48.6943 336.337 48.4657 336.159 48.3215 335.916L46.5285 332.896L43.4894 334.154C42.9962 334.357 42.3657 334.124 42.0812 333.631C41.7968 333.139 41.966 332.574 42.4592 332.37L46.38 330.747Z" fill="white"/>
<path d="M69.7013 331.321C70.0253 330.189 71.3189 329.65 72.5841 330.12C73.8489 330.589 74.6152 331.893 74.2912 333.025C73.9672 334.157 72.6741 334.696 71.4093 334.226C70.1441 333.756 69.3774 332.453 69.7013 331.321Z" fill="white"/>
<path fill-rule="evenodd" clip-rule="evenodd" d="M52.7726 289.906C53.2611 289.696 53.8919 289.922 54.1818 290.409L58.2072 297.179L65.0373 294.354C65.5292 294.151 66.1587 294.383 66.4425 294.874C66.7259 295.364 66.5567 295.927 66.0646 296.131L58.6115 299.212L55.8771 308.114C56.4161 308.483 56.8746 308.941 57.2316 309.454L65.6105 308.25C65.6055 308.077 65.6471 307.907 65.7433 307.758L70.2072 300.861C70.4922 300.421 71.1367 300.332 71.6457 300.662C72.1556 300.992 72.3374 301.616 72.0529 302.056L68.0988 308.167L75.1203 312.826C75.6256 313.161 75.7996 313.787 75.508 314.223C75.2646 314.586 74.7754 314.703 74.3263 314.538C74.2363 314.505 74.1481 314.46 74.0636 314.404L67.341 309.943C67.244 309.997 67.1343 310.036 67.0129 310.053L58.0236 311.345C58.1307 311.954 58.1078 312.579 57.9308 313.182C57.7843 313.682 57.544 314.124 57.2336 314.501L63.1086 320.654L71.3029 321.576C71.8868 321.641 72.367 322.138 72.3752 322.684C72.3833 323.231 71.9161 323.62 71.3322 323.554L63.2297 322.643L63.2365 330.213C63.2367 330.758 62.7641 331.142 62.1799 331.069C62.0878 331.057 61.9978 331.034 61.9123 331.003C61.4578 330.835 61.122 330.408 61.1213 329.949L61.1134 321.405C61.1134 321.372 61.1151 321.34 61.1183 321.309L55.6906 315.624C54.9424 315.929 54.0818 316.03 53.1984 315.883L50.4592 324.804C50.4403 324.866 50.4133 324.922 50.383 324.976L54.5402 331.966C54.8301 332.454 54.6689 333.02 54.1808 333.23C53.9346 333.336 53.6512 333.331 53.3947 333.238C53.1422 333.146 52.9146 332.968 52.7707 332.727L48.7453 325.957L41.9152 328.782C41.4234 328.984 40.7942 328.752 40.5109 328.262C40.2274 327.772 40.3959 327.209 40.8879 327.006L48.3351 323.925L51.0695 315.022C50.5301 314.652 50.0711 314.194 49.714 313.681L41.3381 314.884C41.3435 315.058 41.3028 315.228 41.2062 315.378L36.7424 322.275C36.5022 322.645 36.0079 322.766 35.5539 322.599C35.4684 322.568 35.3844 322.526 35.3039 322.474C34.7943 322.144 34.6118 321.52 34.8966 321.08L38.8508 314.969L31.8293 310.31C31.3236 309.974 31.1499 309.349 31.4416 308.913C31.7329 308.477 32.3785 308.396 32.8849 308.731L39.6066 313.192C39.7032 313.138 39.8129 313.1 39.9338 313.083L48.922 311.79C48.8152 311.181 48.8389 310.556 49.0158 309.954C49.1624 309.454 49.4013 309.011 49.7121 308.633L43.8381 302.479L35.6466 301.559C35.5495 301.549 35.4549 301.526 35.3654 301.493C34.9163 301.327 34.582 300.907 34.5754 300.452C34.5672 299.905 35.0338 299.515 35.6174 299.581L43.7209 300.492L43.714 292.923C43.7136 292.378 44.186 291.995 44.7697 292.067C45.3513 292.139 45.8273 292.641 45.8283 293.186L45.8361 301.73C45.8361 301.763 45.8346 301.796 45.8312 301.828L51.256 307.51C52.0039 307.205 52.8652 307.104 53.7482 307.251L56.4894 298.332C56.5087 298.269 56.5344 298.21 56.5656 298.155L52.4133 291.17C52.1233 290.682 52.2843 290.116 52.7726 289.906ZM54.1281 309.338C53.528 309.12 52.9199 309.121 52.3976 309.297C52.3616 309.48 52.2676 309.65 52.1134 309.778C51.9162 309.942 51.6588 310.007 51.4006 309.983C51.2382 310.185 51.1101 310.419 51.0324 310.684C50.6715 311.914 51.4731 313.311 52.8185 313.798C53.4195 314.016 54.0283 314.014 54.5509 313.838C54.5873 313.655 54.6814 313.486 54.8351 313.358C55.0316 313.194 55.2883 313.128 55.5461 313.151C55.7079 312.949 55.8367 312.716 55.9142 312.452C56.2751 311.221 55.4735 309.825 54.1281 309.338Z" fill="white"/>
<path d="M67.3078 326.128L71.9425 326.649C72.5284 326.715 73.0055 327.21 73.0138 327.756C73.022 328.301 72.5554 328.69 71.9728 328.625L68.3791 328.22L68.383 331.578C68.3831 332.122 67.9108 332.505 67.3273 332.432C67.235 332.421 67.1457 332.398 67.0607 332.367C66.6066 332.2 66.2715 331.773 66.2707 331.314L66.2668 326.984C66.2661 326.445 66.7304 326.063 67.3078 326.128Z" fill="white"/>
<path d="M52.3342 320.43C53.4099 318.654 55.9571 318.288 57.8918 319.632L58.0168 325.876C58.0431 327.187 56.1929 327.452 55.5226 326.233L52.3342 320.43Z" fill="white"/>
<path d="M44.9855 315.319C47.2616 315.5 49.1249 317.463 49.0519 319.602L43.3967 322.203C42.2083 322.749 40.8554 321.323 41.5724 320.281L44.9855 315.319Z" fill="white"/>
<path d="M28.049 312.851C28.3402 312.416 28.9838 312.333 29.4904 312.67L33.508 315.335C34.0084 315.667 34.1844 316.285 33.9025 316.72L31.6408 320.215C31.4015 320.586 30.9073 320.707 30.4533 320.541C30.3677 320.509 30.2838 320.467 30.2033 320.415C29.6946 320.085 29.5126 319.462 29.797 319.022L31.55 316.312L28.4367 314.247C27.9316 313.911 27.7581 313.287 28.049 312.851Z" fill="white"/>
<path d="M24.674 315.544C25.5876 314.798 27.0904 314.983 28.0236 315.955C28.476 316.426 28.7283 317.011 28.7355 317.599C28.7425 318.188 28.503 318.711 28.0607 319.072C27.6184 319.433 27.0263 319.589 26.3937 319.511C26.1825 319.486 25.9748 319.435 25.7756 319.361C25.3778 319.213 25.0123 318.974 24.7111 318.66C23.7778 317.687 23.7609 316.289 24.674 315.544Z" fill="white"/>
<path d="M67.9748 315.179C69.1664 315.926 68.679 317.579 67.3175 317.407L60.839 316.588C59.662 314.676 60.3333 312.401 62.3039 311.624L67.9748 315.179Z" fill="white"/>
<path d="M38.9748 307.958C37.7832 307.21 38.2706 305.558 39.632 305.73L46.1105 306.549C47.2875 308.461 46.6162 310.736 44.6457 311.513L38.9748 307.958Z" fill="white"/>
<path d="M75.3097 302.921C75.5943 302.481 76.237 302.391 76.7463 302.72C77.2555 303.05 77.4375 303.674 77.1535 304.114L75.3996 306.824L78.5129 308.889C79.0182 309.225 79.1919 309.85 78.9006 310.286C78.658 310.648 78.1694 310.765 77.7209 310.6C77.6312 310.567 77.5435 310.522 77.4591 310.466L73.4425 307.801C72.9418 307.469 72.7661 306.851 73.048 306.416L75.3097 302.921Z" fill="white"/>
<path d="M78.8849 304.063C79.7982 303.318 81.3011 303.503 82.2345 304.475C83.1687 305.448 83.1847 306.846 82.2716 307.592C81.6587 308.093 80.7808 308.174 79.9875 307.88C79.5984 307.735 79.2295 307.501 78.922 307.18C77.9889 306.207 77.9721 304.808 78.8849 304.063Z" fill="white"/>
<path d="M63.5539 300.934C64.7423 300.388 66.0954 301.813 65.3781 302.856L61.965 307.817C59.6888 307.636 57.8244 305.673 57.8976 303.534L63.5539 300.934Z" fill="white"/>
<path d="M48.9338 297.26C48.908 295.949 50.7566 295.684 51.4269 296.903L54.6164 302.707C53.5403 304.483 50.9933 304.848 49.0588 303.504L48.9338 297.26Z" fill="white"/>
<path d="M39.6232 290.704C40.2043 290.776 40.6787 291.277 40.6799 291.822L40.6838 296.152C40.6843 296.692 40.2203 297.073 39.6427 297.008L35.007 296.487C34.9099 296.476 34.8159 296.453 34.7267 296.421C34.2782 296.255 33.9437 295.835 33.9367 295.381C33.9287 294.835 34.3948 294.445 34.9777 294.51L38.5715 294.916L38.5675 291.559C38.5669 291.015 39.0399 290.631 39.6232 290.704Z" fill="white"/>
<path d="M32.6545 290.112C32.9784 288.98 34.2722 288.441 35.5373 288.911C36.8026 289.381 37.5682 290.684 37.2443 291.816C36.9204 292.948 35.6276 293.487 34.3625 293.017C33.0974 292.548 32.3306 291.244 32.6545 290.112Z" fill="white"/>
<path d="M57.216 286.715C57.7049 286.504 58.3379 286.732 58.6291 287.221L60.422 290.24L63.4611 288.982C63.9536 288.779 64.5844 289.012 64.8693 289.505C65.1536 289.997 64.9846 290.563 64.4914 290.767L60.5705 292.389C60.3266 292.49 60.0482 292.483 59.7951 292.391C59.5419 292.299 59.3133 292.121 59.1691 291.879L56.8566 287.984C56.5658 287.494 56.7268 286.926 57.216 286.715Z" fill="white"/>
<path d="M61.4162 283.019C62.0255 282.942 62.6663 283.099 63.216 283.461C63.7674 283.822 64.1648 284.346 64.3351 284.935C64.6866 286.151 63.9501 287.269 62.6925 287.428C62.2792 287.48 61.8599 287.422 61.4709 287.278C60.6772 286.983 60.0101 286.328 59.7736 285.512C59.4217 284.297 60.1586 283.179 61.4162 283.019Z" fill="white"/>
</g>
<path opacity="0.1" d="M-2.00781 93.4208C-1.37515 92.8103 -0.539646 92.951 -0.228516 93.7206L3.62891 103.267C3.95307 104.068 3.68229 105.234 3.02344 105.869C2.69407 106.188 2.32985 106.312 2.00781 106.258C1.68581 106.203 1.40588 105.969 1.24414 105.568L-1.31055 99.249L-3.4082 103.716L-2.23242 106.525C-1.90671 107.303 -2.18129 108.436 -2.8457 109.055C-3.50968 109.674 -4.31299 109.545 -4.6377 108.768L-5.17578 107.481L-7.52246 112.48C-7.55367 112.547 -7.59277 112.611 -7.63574 112.675C-7.09155 113.954 -7.5215 115.417 -8.72168 116.112C-10.0643 116.89 -11.8583 116.412 -12.7295 115.045C-13.6007 113.677 -13.2183 111.938 -11.876 111.16C-11.2749 110.812 -10.5835 110.718 -9.9248 110.84L-8.60449 108.029L-8.81055 108.222C-9.14256 108.531 -9.50965 108.654 -9.83398 108.602C-10.1582 108.551 -10.44 108.324 -10.6025 107.935C-10.9282 107.158 -10.6538 106.025 -9.98926 105.406L-5.94922 101.641C-5.79011 101.492 -5.62246 101.387 -5.45605 101.323L-4.99121 100.334L-8.52734 103.747C-9.18554 104.383 -9.98261 104.248 -10.3066 103.446C-10.6306 102.645 -10.359 101.48 -9.7002 100.845L-2.00781 93.4208ZM25.9902 93.5507C26.7666 93.4085 27.3495 93.9813 27.291 94.8251C27.2327 95.6686 26.5552 96.4658 25.7783 96.6054L19.4922 97.7353L22.8828 101.916L26.0781 101.341C26.8533 101.199 27.4367 101.773 27.3779 102.618C27.3194 103.463 26.6425 104.261 25.8662 104.4L25.0205 104.553L29.0645 109.539C29.2721 109.795 29.378 110.15 29.3887 110.535C30.1227 111.059 30.6255 111.889 30.6748 112.824C30.7579 114.397 29.5299 115.664 27.9316 115.654C26.3334 115.644 24.971 114.36 24.8877 112.787C24.8453 111.981 25.1471 111.257 25.666 110.742L22.5469 106.895L22.4307 108.584C22.3722 109.429 21.6949 110.226 20.9189 110.366C20.793 110.389 20.6716 110.393 20.5576 110.38C19.9706 110.313 19.5701 109.797 19.6191 109.09L19.9756 103.951C19.9801 103.885 19.9882 103.82 20 103.755L17.7295 100.954L17.3555 106.34C17.297 107.183 16.6202 107.981 15.8438 108.121C15.7168 108.144 15.5955 108.148 15.4814 108.135C14.8939 108.068 14.4937 107.553 14.543 106.847L15.1787 97.6728C14.9629 97.0514 15.0907 96.1963 15.5381 95.5546C16.0695 94.7931 16.8588 94.6094 17.3506 95.1054L25.9902 93.5507ZM7.84473 86.3945C8.20999 86.3965 8.56519 86.5478 8.8291 86.8105L12.7549 90.7333C13.0778 91.0561 13.2216 91.5091 13.1367 91.9355L10.1953 106.701C10.0802 107.28 9.57281 107.685 8.96582 107.681C8.72824 107.678 8.49928 107.614 8.29785 107.502C7.98564 107.328 7.73996 107.038 7.63281 106.685L3.13281 91.874C3.00252 91.4457 3.09922 90.9947 3.38867 90.6757L6.9043 86.7988C7.13985 86.5389 7.48008 86.3921 7.84473 86.3945ZM5.87109 91.9521L8.61328 100.976L10.4053 91.9794L8.0127 89.5898L5.87109 91.9521ZM-4.68457 82.122C-4.37818 81.8187 -3.92624 81.6978 -3.48535 81.8007L1.87305 83.0517C2.23152 83.1354 2.54886 83.3593 2.74805 83.6718C2.94659 83.9833 3.01045 84.3546 2.92285 84.6972L1.61816 89.8066C1.51074 90.2273 1.19016 90.5535 0.766602 90.6728L-13.8936 94.8075C-14.2431 94.9064 -14.6146 94.8525 -14.9268 94.6786C-15.1282 94.5664 -15.3049 94.4046 -15.4346 94.2011C-15.7656 93.6824 -15.7057 93.0282 -15.29 92.6171L-4.68457 82.122ZM19.1885 81.2617C19.6123 81.1649 20.069 81.2891 20.4014 81.5917L31.9209 92.038C32.372 92.4471 32.4982 93.0909 32.2266 93.5976C31.9546 94.1044 31.3542 94.3445 30.7725 94.1786L15.9199 89.9443C15.8162 89.9142 15.7168 89.8729 15.624 89.8212C15.3335 89.6594 15.1054 89.3968 14.9922 89.082L13.1826 84.04C13.0613 83.7022 13.0849 83.3375 13.248 83.0331C13.4115 82.7285 13.7002 82.511 14.0449 82.4325L19.1885 81.2617ZM-9.70801 90.8847L-0.776367 88.3652L0.0185547 85.2519L-3.24609 84.4902L-9.70801 90.8847ZM16.0977 84.6191L17.2002 87.6904L26.249 90.2704L19.2314 83.9062L16.0977 84.6191ZM-18.998 74.1572C-18.5578 73.3601 -17.6781 72.9551 -17.0332 73.2558L-12.7188 75.2538L-11.0303 74.331C-10.3058 73.9359 -9.60559 74.361 -9.46582 75.2812C-9.39621 75.7401 -9.4793 76.2353 -9.66992 76.6659L-9.50488 76.7431C-9.19493 76.8865 -8.98168 77.1759 -8.91211 77.5478C-8.84271 77.9196 -8.92311 78.3432 -9.13477 78.7255L-14.3779 88.2118C-14.7463 88.8785 -15.4238 89.2698 -16.0127 89.204C-16.127 89.1913 -16.2381 89.1618 -16.3428 89.1132C-16.9877 88.8147 -17.1534 87.9264 -16.7129 87.1298L-12.2666 79.0859L-12.7305 78.871L-18.9668 82.2812L-20.293 84.7255C-20.6594 85.4006 -21.3322 85.7963 -21.918 85.7284C-22.0317 85.7153 -22.1426 85.6842 -22.2471 85.6347C-22.6826 85.4282 -22.8978 84.9472 -22.8545 84.4072L-27.96 87.2001C-28.1967 87.3295 -28.4307 87.3714 -28.6436 87.3368C-29.0823 87.2656 -29.431 86.8709 -29.5254 86.2509C-29.6651 85.3306 -29.1903 84.2625 -28.4658 83.8661L-21.4404 80.0224L-23.5615 79.0175C-24.2029 78.7136 -24.3682 77.8139 -23.9307 77.0077C-23.4935 76.201 -22.6173 75.7905 -21.9766 76.0986L-18.0752 77.9472C-18.0033 77.9813 -17.9368 78.0239 -17.876 78.0732L-16.3057 77.2148L-18.6279 76.1396C-19.2725 75.8411 -19.4385 74.9537 -18.998 74.1572ZM30.4209 72.2743C30.8611 71.4774 31.7418 71.0722 32.3857 71.373C33.0307 71.6714 33.1963 72.5588 32.7559 73.3554L28.3105 81.4003L28.7734 81.6142L35.0117 78.2021L36.3369 75.7597C36.7742 74.9538 37.6494 74.5434 38.291 74.8505C38.7262 75.0566 38.9412 75.5375 38.8984 76.0771L44.0039 73.2851C44.7286 72.8905 45.4284 73.3146 45.5684 74.2353C45.7079 75.1554 45.2343 76.2227 44.5098 76.6191L37.4814 80.4618L39.6055 81.4687C40.2469 81.7726 40.4122 82.6722 39.9746 83.4784C39.6082 84.1534 38.9353 84.549 38.3496 84.4814C38.236 84.4682 38.1255 84.437 38.0215 84.3876L34.1191 82.539C34.0454 82.5041 33.979 82.4597 33.918 82.4101L32.3477 83.2695L34.6709 84.3456C35.3159 84.6441 35.4825 85.5324 35.042 86.329C34.6732 86.9959 33.9963 87.3869 33.4072 87.3212C33.293 87.3085 33.1818 87.2789 33.0771 87.2304L28.7607 85.2314L27.0752 86.1542C26.8385 86.2832 26.6036 86.3255 26.3906 86.2909C25.9521 86.2196 25.6042 85.8247 25.5098 85.205C25.4401 84.7464 25.5226 84.2508 25.7129 83.8202L25.5479 83.7441C25.2383 83.6007 25.0256 83.3112 24.9561 82.9394C24.8865 82.5675 24.9663 82.1432 25.1777 81.7607L30.4209 72.2743ZM7.75 75.0849C10.6387 75.1045 13.112 77.4317 13.2617 80.2753C13.4113 83.1198 11.1828 85.4196 8.29395 85.4013C7.36141 85.3953 6.45325 85.1518 5.64355 84.7001C5.23753 84.4736 4.8563 84.1944 4.50879 83.8671C3.46812 82.8867 2.85469 81.5883 2.78223 80.2109C2.63209 77.3668 4.8605 75.0672 7.75 75.0849ZM-29.8252 78.2949C-28.2042 78.5062 -26.9928 79.9236 -27.1201 81.4609C-27.2477 82.9983 -28.6659 84.0736 -30.2871 83.8622C-31.908 83.6507 -33.1186 82.2334 -32.9912 80.6962C-32.8636 79.159 -31.4462 78.0837 -29.8252 78.2949ZM7.88574 77.6679C6.44392 77.6591 5.3315 78.8069 5.40625 80.2265L5.43262 80.4824C5.52256 81.0737 5.81381 81.6232 6.26855 82.0517C6.78804 82.5409 7.4591 82.8126 8.15723 82.8173C9.5994 82.8264 10.7122 81.6783 10.6377 80.2587C10.5871 79.3065 10.0143 78.4694 9.20801 78.0195C8.81218 77.7987 8.36028 77.6711 7.88574 77.6679ZM43.5205 77.9716C44.2477 76.6145 45.9925 76.1589 47.418 76.954C48.8437 77.7493 49.4097 79.495 48.6826 80.8525C47.9554 82.2095 46.2106 82.6652 44.7852 81.87C43.3595 81.0747 42.7934 79.329 43.5205 77.9716ZM-16.1826 66.8876C-15.9108 66.3811 -15.3104 66.1419 -14.7285 66.3075L0.124023 70.5409C0.554119 70.6635 0.901756 70.988 1.05078 71.4033L2.86133 76.4452C2.98257 76.7831 2.95824 77.1477 2.79492 77.4521C2.63161 77.7563 2.34369 77.9739 1.99902 78.0527L-3.14551 79.2236C-3.46634 79.2968 -3.80678 79.2429 -4.09766 79.081C-4.19044 79.0293 -4.27787 78.9667 -4.3584 78.8935L-15.877 68.4472C-16.3281 68.0381 -16.4544 67.3944 -16.1826 66.8876ZM29.9375 65.6777C30.5122 65.5152 31.1485 65.7651 31.4795 66.2851C31.81 66.8034 31.7502 67.4571 31.335 67.8681L20.7285 78.3642C20.4221 78.6675 19.9705 78.7885 19.5293 78.6855L14.1709 77.4345C14.0421 77.404 13.9182 77.3557 13.8037 77.2919C13.5991 77.1778 13.4232 77.0133 13.2959 76.8134C13.0973 76.5016 13.0346 76.1303 13.1221 75.788L14.4258 70.6786C14.5332 70.258 14.8534 69.9318 15.2773 69.8124L29.9375 65.6777ZM-3.1875 76.58L-0.0537109 75.8661L-1.15625 72.7949L-10.2051 70.2148L-3.1875 76.58ZM16.8203 72.12L16.0254 75.2333L19.291 75.995L25.7529 69.6005L16.8203 72.12ZM7.07715 52.8056C7.6835 52.8093 8.23467 53.2189 8.41113 53.7997L12.9102 68.6113C13.04 69.0393 12.9449 69.4911 12.6553 69.8105L9.13965 73.6874C8.90407 73.9473 8.56309 74.0929 8.19824 74.0908C7.96442 74.0894 7.73399 74.0271 7.5293 73.913C7.41492 73.8493 7.30853 73.7697 7.21387 73.6757L3.28809 69.7538C2.96467 69.4309 2.82149 68.9779 2.90625 68.5517L5.84766 53.7841C5.96285 53.2058 6.47033 52.8016 7.07715 52.8056ZM5.63867 68.5068L8.03027 70.8964L10.1719 68.5331L7.43066 59.5097L5.63867 68.5068ZM24.7646 44.373C26.107 43.5949 27.9021 44.073 28.7734 45.4404C29.6447 46.8077 29.2621 48.547 27.9199 49.3251C27.3184 49.6738 26.6261 49.7683 25.9668 49.6454L24.6475 52.454L24.8535 52.2636C25.5175 51.644 26.3202 51.7719 26.6455 52.5497C26.9713 53.3267 26.6967 54.4585 26.0322 55.0781L21.9922 58.8447C21.8363 58.9899 21.6679 59.0958 21.498 59.1611L21.0371 60.1435L24.5713 56.7372C25.2299 56.1015 26.0274 56.2358 26.3506 57.037C26.6747 57.838 26.403 59.0027 25.7441 59.6376L18.0508 67.0575C17.7215 67.3755 17.3569 67.5004 17.0352 67.4462C16.7132 67.3919 16.4332 67.1583 16.2715 66.7577L12.4131 57.2167C12.0889 56.4161 12.3605 55.2514 13.0195 54.6161C13.6778 53.9803 14.4756 54.1147 14.7988 54.9159L17.3535 61.2333L19.4502 56.7675L18.2754 53.9599C17.9498 53.182 18.2243 52.0493 18.8887 51.4306C19.5533 50.8111 20.3559 50.94 20.6807 51.7177L21.2188 53.0029L23.5664 48.0048C23.5975 47.9385 23.6359 47.8737 23.6787 47.8105C23.135 46.531 23.5649 45.0683 24.7646 44.373ZM-14.624 47.0673C-14.3621 45.5479 -12.8541 44.5928 -11.2559 44.9335C-9.65793 45.2743 -8.57434 46.7816 -8.83594 48.3007C-8.93578 48.8798 -9.21833 49.3762 -9.61621 49.7509L-6.50391 53.5898L-6.38672 51.9023C-6.32836 51.0574 -5.65101 50.2598 -4.875 50.12C-4.09958 49.9774 -3.51653 50.5515 -3.5752 51.3964L-3.93066 56.5341C-3.93521 56.5999 -3.94523 56.6655 -3.95703 56.7304L-1.68652 59.5312L-1.31152 54.1454C-1.25302 53.3019 -0.576145 52.505 0.200195 52.3652C0.977409 52.2223 1.55973 52.7958 1.50098 53.6396L0.863281 62.8144C1.0786 63.4356 0.952961 64.2893 0.505859 64.9306C0.132401 65.4658 -0.368767 65.7167 -0.804688 65.6464C-0.989681 65.6166 -1.16198 65.5281 -1.30859 65.3798L-9.94629 66.9345C-10.0723 66.9573 -10.1937 66.9611 -10.3076 66.9482C-10.8952 66.8816 -11.2963 66.3665 -11.2471 65.6601C-11.1885 64.8164 -10.5112 64.0194 -9.73438 63.8798L-3.4502 62.749L-6.83984 58.5683L-10.0342 59.1445C-10.161 59.1682 -10.2817 59.1711 -10.3955 59.1581C-10.9827 59.0913 -11.3831 58.5757 -11.334 57.8681C-11.2757 57.0235 -10.5987 56.2245 -9.82227 56.0849L-8.97754 55.9325L-13.0205 50.9472C-13.2301 50.6888 -13.3376 50.3294 -13.3467 49.9404C-14.2799 49.2952 -14.8167 48.1853 -14.624 47.0673Z" fill="white"/>
<path opacity="0.1" d="M268.476 235.057C269.242 234.846 270.015 235.24 270.201 235.938L272.269 243.681L274.792 239.671C275.181 239.051 276.002 238.806 276.623 239.125C277.245 239.442 277.433 240.202 277.044 240.821L273.156 247.004L275.302 255.037L281.938 244.487C282.326 243.869 283.146 243.626 283.767 243.944C284.388 244.261 284.576 245.019 284.188 245.636L276.188 258.355L278.854 268.332C280.314 268.177 281.719 268.465 282.897 269.104L288.997 263.244L289.607 247.549C289.635 246.839 290.263 246.232 291.011 246.197C291.758 246.16 292.342 246.707 292.314 247.418L291.805 260.546L297.567 255.009C297.565 254.97 297.566 254.931 297.567 254.891L297.873 247.022C297.9 246.313 298.526 245.706 299.274 245.672C300.021 245.636 300.604 246.181 300.576 246.89L300.364 252.323L307.146 245.808C307.684 245.291 308.526 245.253 309.025 245.72C309.526 246.188 309.495 246.986 308.958 247.502L302.871 253.349L307.485 253.124C308.231 253.087 308.814 253.632 308.786 254.341C308.763 254.935 308.32 255.456 307.737 255.631C307.624 255.665 307.506 255.686 307.385 255.692L300.059 256.05L293.982 261.889L306.771 261.263C307.518 261.227 308.102 261.773 308.074 262.483C308.051 263.077 307.606 263.6 307.023 263.775C306.91 263.809 306.792 263.83 306.671 263.836L291.166 264.594L284.806 270.705C285.312 271.349 285.692 272.105 285.902 272.953C286.197 274.14 286.122 275.357 285.751 276.493L294.936 278.415L309.14 270.105C309.799 269.717 310.62 269.888 310.97 270.485C311.319 271.081 311.067 271.878 310.406 272.264L298.588 279.179L306.893 280.917L313.276 277.182C313.937 276.795 314.757 276.965 315.106 277.562C315.456 278.158 315.204 278.956 314.543 279.342L310.546 281.68L318.16 283.274C318.862 283.421 319.256 284.092 319.041 284.773C318.897 285.23 318.515 285.575 318.067 285.709C317.847 285.774 317.612 285.788 317.381 285.74L309.029 283.992L311.765 288.658C312.115 289.254 311.862 290.051 311.201 290.438C311.094 290.501 310.982 290.549 310.869 290.583C310.287 290.758 309.664 290.558 309.371 290.058L305.381 283.253C305.376 283.244 305.372 283.234 305.367 283.225L297.673 281.616L303.867 292.182C304.217 292.779 303.965 293.576 303.305 293.962C303.197 294.025 303.085 294.073 302.972 294.107C302.389 294.282 301.767 294.082 301.475 293.583L294.01 280.85L284.451 278.85C283.796 279.652 282.966 280.335 282.003 280.835L284.574 290.46L298.125 297.387C298.746 297.705 298.935 298.462 298.547 299.08C298.353 299.389 298.05 299.604 297.72 299.703C297.389 299.801 297.029 299.782 296.719 299.624L285.489 293.883L287.576 301.698L294.229 305.097C294.851 305.415 295.04 306.174 294.65 306.794C294.262 307.413 293.441 307.658 292.819 307.339L288.492 305.128L290.675 313.296C290.861 313.994 290.391 314.731 289.625 314.943C288.859 315.154 288.086 314.761 287.899 314.063L285.83 306.319L283.31 310.331C283.115 310.64 282.813 310.856 282.481 310.955C282.15 311.053 281.79 311.035 281.479 310.876C280.856 310.558 280.667 309.798 281.057 309.179L284.942 302.997L282.797 294.962L276.162 305.513C275.774 306.131 274.955 306.374 274.334 306.056C273.713 305.739 273.524 304.981 273.912 304.364L281.911 291.644L279.246 281.669C277.785 281.823 276.38 281.534 275.201 280.894L269.103 286.754L268.494 302.451C268.471 303.046 268.026 303.568 267.443 303.743C267.33 303.777 267.211 303.797 267.09 303.803C266.342 303.84 265.758 303.294 265.786 302.584L266.295 289.452L260.532 294.988C260.535 295.028 260.536 295.069 260.534 295.11L260.229 302.978C260.205 303.572 259.761 304.093 259.179 304.268C259.066 304.302 258.948 304.324 258.827 304.33C258.081 304.366 257.498 303.82 257.525 303.111L257.735 297.675L250.954 304.192C250.777 304.362 250.567 304.481 250.348 304.546C249.9 304.68 249.41 304.594 249.075 304.281C248.575 303.813 248.605 303.016 249.143 302.5L255.228 296.651L250.616 296.878C249.87 296.914 249.287 296.368 249.314 295.659C249.342 294.95 249.969 294.342 250.716 294.308L258.04 293.949L264.117 288.11L251.33 288.737C250.583 288.774 249.999 288.228 250.026 287.517C250.053 286.807 250.682 286.2 251.43 286.165L266.933 285.405L273.293 279.294C272.787 278.65 272.407 277.895 272.197 277.048C271.903 275.86 271.978 274.642 272.35 273.506L263.164 271.585L248.961 279.895C248.854 279.959 248.742 280.007 248.629 280.041C248.046 280.216 247.424 280.016 247.131 279.516C246.781 278.92 247.033 278.122 247.694 277.736L259.513 270.821L251.206 269.083L244.824 272.818C244.717 272.882 244.605 272.929 244.492 272.963C243.91 273.139 243.287 272.938 242.994 272.438C242.644 271.842 242.897 271.044 243.558 270.658L247.554 268.319L239.939 266.726C239.238 266.579 238.844 265.909 239.059 265.228C239.273 264.547 240.017 264.113 240.719 264.26L249.07 266.007L246.336 261.342C245.986 260.746 246.238 259.949 246.898 259.562C247.558 259.174 248.379 259.345 248.729 259.942L252.72 266.748C252.725 266.756 252.728 266.765 252.732 266.773L260.427 268.383L254.233 257.818C253.884 257.222 254.136 256.424 254.797 256.038C255.456 255.651 256.276 255.821 256.626 256.418L264.09 269.149L273.648 271.149C274.304 270.348 275.133 269.664 276.096 269.165L273.525 259.54L259.975 252.614C259.353 252.297 259.165 251.538 259.554 250.921C259.941 250.303 260.76 250.059 261.382 250.377L272.61 256.116L270.523 248.302L263.872 244.903C263.25 244.585 263.061 243.826 263.45 243.207C263.839 242.588 264.66 242.344 265.281 242.662L269.606 244.872L267.426 236.704C267.239 236.006 267.709 235.269 268.476 235.057ZM275.245 285.637C275.602 285.288 276.113 285.133 276.582 285.232C277.051 285.33 277.405 285.667 277.509 286.113L278.292 289.478C278.37 289.813 278.298 290.175 278.093 290.482L274.167 296.369C273.969 296.666 273.67 296.879 273.34 296.978C273.108 297.048 272.86 297.061 272.622 297.009C272.044 296.883 271.659 296.4 271.676 295.825L271.868 289.453C271.879 289.111 272.033 288.774 272.295 288.518L275.245 285.637ZM286.527 282.775C286.889 282.429 287.402 282.279 287.87 282.382L291.41 283.164C291.762 283.241 292.053 283.455 292.216 283.754L295.349 289.501C295.618 289.994 295.493 290.625 295.044 291.049C294.866 291.218 294.655 291.337 294.432 291.404C294.091 291.506 293.724 291.486 293.411 291.33L287.678 288.464C287.37 288.311 287.15 288.041 287.066 287.715L286.127 284.052C286.014 283.609 286.166 283.121 286.527 282.775ZM263.22 276.086C263.527 275.904 263.891 275.838 264.228 275.907L268.014 276.671C268.472 276.764 268.821 277.088 268.928 277.52C269.034 277.951 268.881 278.423 268.527 278.754L265.856 281.257C265.687 281.416 265.482 281.532 265.263 281.597C265.139 281.634 265.01 281.655 264.881 281.657L258.016 281.783C257.426 281.794 256.933 281.433 256.806 280.899C256.679 280.365 256.949 279.786 257.468 279.479L263.22 276.086ZM281.146 271.218C280.241 270.815 279.156 270.728 278.071 271.052C275.737 271.75 274.277 274.089 274.816 276.265C274.935 276.741 275.139 277.171 275.41 277.545C275.836 277.443 276.289 277.535 276.604 277.831C276.875 278.083 276.988 278.432 276.952 278.781C277.858 279.185 278.944 279.272 280.029 278.948C282.364 278.25 283.823 275.912 283.283 273.735C283.165 273.258 282.96 272.828 282.688 272.454C282.262 272.555 281.812 272.465 281.496 272.17C281.225 271.917 281.11 271.568 281.146 271.218ZM300.085 268.218C300.675 268.207 301.168 268.567 301.295 269.102C301.422 269.637 301.151 270.216 300.632 270.522L294.881 273.916C294.775 273.978 294.663 274.027 294.548 274.061C294.327 274.127 294.093 274.139 293.872 274.094L290.086 273.33C289.628 273.237 289.278 272.912 289.172 272.481C289.066 272.05 289.219 271.577 289.572 271.246L292.244 268.744C292.51 268.495 292.862 268.351 293.22 268.344L300.085 268.218ZM263.056 258.951C263.506 258.526 264.171 258.413 264.688 258.671L270.422 261.537C270.73 261.691 270.951 261.959 271.034 262.285L271.974 265.948C272.087 266.391 271.934 266.88 271.572 267.226C271.395 267.397 271.179 267.519 270.951 267.587C270.716 267.658 270.467 267.671 270.229 267.619L266.69 266.837C266.339 266.759 266.048 266.545 265.885 266.246L262.751 260.501C262.482 260.008 262.606 259.375 263.056 258.951ZM283.933 253.632C284.269 253.127 284.9 252.865 285.479 252.992C286.056 253.118 286.442 253.601 286.425 254.176L286.231 260.548C286.221 260.89 286.068 261.227 285.806 261.483L282.855 264.364C282.676 264.539 282.457 264.665 282.225 264.735C281.995 264.804 281.751 264.818 281.518 264.769C281.049 264.67 280.694 264.334 280.591 263.888L279.809 260.522C279.731 260.188 279.803 259.826 280.008 259.519L283.933 253.632Z" fill="white"/>
</g>
<defs>
<clipPath id="clip0_259_2345">
<rect width="296" height="534" fill="white"/>
</clipPath>
</defs>
</svg>
