<svg width="36" height="36" viewBox="0 0 36 36" fill="none" xmlns="http://www.w3.org/2000/svg">
<circle cx="18" cy="18" r="18" fill="white"/>
<path fill-rule="evenodd" clip-rule="evenodd" d="M26.8438 5.53574C25.5175 8.93756 22.498 9.64539 18.1241 9.64539C17.6547 9.64539 17.1897 9.63801 16.7409 9.63137C16.307 9.62546 15.8965 9.61882 15.4943 9.61882C15.137 9.61882 14.7769 9.62325 14.4219 9.63875C15.0345 8.13453 16.0125 7.11228 17.4045 6.49229C19.3449 5.62873 21.8677 5.61988 24.0937 5.61324C25.0636 5.60955 25.9921 5.60585 26.8438 5.53574Z" fill="#008F32"/>
<path fill-rule="evenodd" clip-rule="evenodd" d="M28.2083 6.62664C26.2465 10.9002 21.8741 11.3282 18.1261 11.3282C17.3031 11.3282 16.5148 11.3083 15.7849 11.3039L14.8408 14.9958C19.6753 11.0544 26.0686 14.9618 25.3851 20.9093C24.9246 24.9149 22.0689 27.5344 19.0479 28.2872C15.7568 29.108 12.1107 27.8798 10.4758 24.5259C10.3023 24.1717 10.0005 23.4616 9.88534 23.0822L13.3558 22.1906C13.4171 22.3907 13.5212 22.5841 13.6304 22.7604C15.9539 26.5077 20.6621 24.6337 21.1935 20.7462C21.7345 16.7915 16.1857 14.6851 13.657 19.3069L10.5791 17.9954L10.526 17.9717L12.0103 12.0132C12.1018 11.5895 12.4103 10.4064 12.4635 10.2123C14.1411 4.04334 19.5683 3.94591 23.9215 3.92968C22.1213 3.18052 20.1477 2.76572 18.0759 2.76572C9.6617 2.76572 2.8418 9.58562 2.8418 17.9998C2.8418 26.414 9.6617 33.2339 18.0759 33.2339C26.4901 33.2339 33.3099 26.414 33.3099 17.9998C33.3099 13.4768 31.3378 9.4166 28.2083 6.62664Z" fill="#EB2316"/>
</svg>
