<svg width="48" height="48" viewBox="0 0 48 48" fill="none" xmlns="http://www.w3.org/2000/svg">
<circle cx="24" cy="24" r="24" fill="#760509"/>
<path d="M35.8502 28.7601V24.5401H31.4802V22.0701H35.8502V17.8501H38.4302V22.0701H42.8002V24.5401H38.4302V28.7601H35.8502Z" fill="#FFF7AE"/>
<path d="M24.435 30.3002C23.315 30.3002 22.3583 30.1169 21.565 29.7502C20.7717 29.3835 20.165 28.8835 19.745 28.2502C19.3317 27.6169 19.125 26.9002 19.125 26.1002C19.125 25.5469 19.2217 25.0469 19.415 24.6002C19.6083 24.1469 19.8883 23.7535 20.255 23.4202C20.6283 23.0869 21.0683 22.8135 21.575 22.6002C21.095 22.3802 20.6517 22.0202 20.245 21.5202C19.8383 21.0202 19.635 20.3769 19.635 19.5902C19.635 18.8369 19.845 18.1702 20.265 17.5902C20.685 17.0035 21.2617 16.5435 21.995 16.2102C22.735 15.8702 23.5783 15.7002 24.525 15.7002C25.485 15.7002 26.335 15.8702 27.075 16.2102C27.815 16.5502 28.395 17.0135 28.815 17.6002C29.235 18.1802 29.445 18.8435 29.445 19.5902C29.445 20.1235 29.3483 20.5902 29.155 20.9902C28.9683 21.3835 28.725 21.7135 28.425 21.9802C28.125 22.2469 27.8183 22.4535 27.505 22.6002C28.2117 22.9135 28.7883 23.3702 29.235 23.9702C29.6883 24.5702 29.915 25.2802 29.915 26.1002C29.915 26.9002 29.6817 27.6169 29.215 28.2502C28.7483 28.8835 28.1017 29.3835 27.275 29.7502C26.4483 30.1169 25.5017 30.3002 24.435 30.3002ZM24.525 27.4802C24.865 27.4802 25.1883 27.4135 25.495 27.2802C25.8017 27.1402 26.0517 26.9369 26.245 26.6702C26.445 26.4035 26.545 26.0769 26.545 25.6902C26.545 25.3035 26.4517 24.9802 26.265 24.7202C26.0783 24.4535 25.8317 24.2535 25.525 24.1202C25.2183 23.9869 24.885 23.9202 24.525 23.9202C23.965 23.9202 23.485 24.0735 23.085 24.3802C22.6917 24.6869 22.495 25.1235 22.495 25.6902C22.495 26.0769 22.5883 26.4035 22.775 26.6702C22.9683 26.9369 23.2183 27.1402 23.525 27.2802C23.8317 27.4135 24.165 27.4802 24.525 27.4802ZM24.545 21.2002C24.885 21.2002 25.1883 21.1369 25.455 21.0102C25.7217 20.8769 25.9283 20.6969 26.075 20.4702C26.2283 20.2369 26.305 19.9702 26.305 19.6702C26.305 19.2302 26.1383 18.8635 25.805 18.5702C25.4783 18.2769 25.0583 18.1302 24.545 18.1302C24.1983 18.1302 23.8917 18.2002 23.625 18.3402C23.3583 18.4735 23.1483 18.6569 22.995 18.8902C22.8483 19.1169 22.775 19.3769 22.775 19.6702C22.775 20.1169 22.9417 20.4835 23.275 20.7702C23.615 21.0569 24.0383 21.2002 24.545 21.2002Z" fill="#FFF7AE"/>
<path d="M13.03 30.0002V20.0102L10.01 21.0602L9.04999 18.1802L16.15 15.7002H16.39V30.0002H13.03Z" fill="#FFF7AE"/>
</svg>
