<svg width="16" height="16" viewBox="0 0 16 16" fill="none" xmlns="http://www.w3.org/2000/svg">
<ellipse cx="7.99956" cy="7.99751" rx="7.99956" ry="7.99751" transform="matrix(1 -0.000605693 0.000487101 1 0 0.00969177)" fill="#FBDBFF"/>
<ellipse cx="2.66037" cy="2.65999" rx="2.66037" ry="2.65999" transform="matrix(1 -0.000606978 0.000486064 1 5.33887 3.55486)" fill="#5D279E"/>
<mask id="mask0_359_1084" style="mask-type:alpha" maskUnits="userSpaceOnUse" x="0" y="0" width="17" height="17">
<ellipse cx="7.99922" cy="7.99794" rx="7.99922" ry="7.99794" transform="matrix(1 -0.000585546 0.000512676 1 0 0.00999886)" fill="#73BEE2"/>
</mask>
<g mask="url(#mask0_359_1084)">
<ellipse cx="4.64709" cy="4.64558" rx="4.64709" ry="4.64558" transform="matrix(1 -0.000586813 0.000511672 1 3.35938 9.90015)" fill="#5D279E"/>
</g>
<path d="M8.00024 0.504846C12.1419 0.502576 15.5007 3.85708 15.5029 7.99737C15.5049 12.1379 12.1494 15.4972 8.00755 15.5C3.86553 15.5025 0.505912 12.1471 0.503895 8.00646C0.502115 3.86602 3.85838 0.507355 8.00024 0.504846Z" stroke="url(#paint0_linear_359_1084)"/>
<defs>
<linearGradient id="paint0_linear_359_1084" x1="7.99956" y1="0.0048465" x2="8.00925" y2="15.9999" gradientUnits="userSpaceOnUse">
<stop stop-color="#FBDBFF"/>
<stop offset="1" stop-color="white"/>
</linearGradient>
</defs>
</svg>
