<svg width="296" height="941" viewBox="0 0 296 941" fill="none" xmlns="http://www.w3.org/2000/svg">
<g clip-path="url(#clip0_78_9375)">
<g opacity="0.1">
<path d="M-3.17892 546.414C-1.66147 546.017 0.117131 547.009 0.609169 548.525L6.70975 567.336C7.2222 568.915 6.35625 570.53 4.77616 570.942C3.986 571.15 3.1669 571.017 2.48124 570.635C1.79564 570.253 1.24367 569.621 0.988075 568.831L-2.84786 557.006L-8.38009 567.09L-5.89962 574.739C-5.38607 576.321 -6.25283 577.939 -7.83517 578.352C-9.41686 578.766 -11.1167 577.818 -11.6281 576.236L-12.2863 574.209L-18.2453 585.073C-18.1662 585.183 -18.0884 585.296 -18.0149 585.411C-16.006 588.566 -16.8876 592.578 -19.9846 594.373C-23.0823 596.168 -27.2215 595.065 -29.2317 591.91C-31.2417 588.756 -30.3597 584.743 -27.2629 582.948C-26.2003 582.333 -25.0149 582.057 -23.8352 582.089L-17.6193 570.759L-20.4934 571.511C-21.2842 571.718 -22.1046 571.584 -22.7912 571.201C-23.4777 570.818 -24.0303 570.186 -24.2863 569.395C-24.7997 567.813 -23.9335 566.196 -22.3508 565.783L-13.6408 563.506L-8.41915 553.988L-19.7746 556.957C-21.3537 557.371 -23.0503 556.426 -23.5627 554.846C-24.0753 553.266 -23.2096 551.651 -21.6291 551.238L-3.17892 546.414Z" fill="white"/>
<path d="M37.3807 547.414C37.7302 545.823 39.3454 544.888 40.9871 545.325L60.5457 550.532C62.1877 550.964 63.2359 552.613 62.8865 554.204C62.5373 555.795 60.9223 556.73 59.2801 556.293L46.6209 552.923L52.7762 562.661L60.7459 564.783C62.3861 565.215 63.4368 566.864 63.0867 568.455C62.7372 570.046 61.1224 570.982 59.4803 570.544L57.4109 569.993L63.8455 580.172C63.8578 580.172 63.8702 580.172 63.8826 580.172C67.5702 580.195 70.7155 583.156 70.907 586.786C71.0989 590.416 68.2654 593.338 64.5779 593.315C60.8907 593.292 57.7468 590.332 57.5545 586.702C57.4782 585.256 57.882 583.922 58.6287 582.842L51.9607 572.293L51.2459 575.547C50.8964 577.138 49.2809 578.073 47.6394 577.636C47.3733 577.564 47.1223 577.461 46.8904 577.332C45.6952 576.665 45.0076 575.296 45.3006 573.964L47.2908 564.906L41.7557 556.149L39.2439 567.575C38.8944 569.167 37.2792 570.101 35.6375 569.664C35.3691 569.594 35.1184 569.491 34.8865 569.361C33.691 568.695 33.0032 567.324 33.2967 565.991L37.3807 547.414Z" fill="white"/>
<path fill-rule="evenodd" clip-rule="evenodd" d="M18.2351 525.81C19.0779 525.815 19.8977 526.164 20.5066 526.77L29.5642 535.82C30.3094 536.565 30.641 537.61 30.4451 538.594L23.658 572.661C23.3925 573.996 22.2224 574.928 20.8221 574.919C20.2735 574.914 19.7441 574.767 19.2791 574.508C18.5589 574.106 17.9931 573.438 17.7459 572.624L7.36503 538.452C7.06434 537.464 7.28606 536.424 7.9539 535.687L16.0642 526.743C16.6078 526.143 17.3936 525.805 18.2351 525.81ZM13.6824 538.632L20.0076 559.452L24.1414 538.696L18.6238 533.182L13.6824 538.632Z" fill="white"/>
<path fill-rule="evenodd" clip-rule="evenodd" d="M-10.6711 515.953C-9.96425 515.253 -8.92263 514.975 -7.90548 515.212L4.4578 518.098C5.28467 518.291 6.01585 518.808 6.47538 519.528C6.93369 520.247 7.08084 521.104 6.8787 521.894L3.86991 533.682C3.62228 534.653 2.88335 535.405 1.90604 535.681L-31.9182 545.221C-32.7248 545.449 -33.5827 545.325 -34.3029 544.924C-34.7679 544.665 -35.1748 544.29 -35.4738 543.82C-36.2374 542.624 -36.0995 541.116 -35.1408 540.168L-10.6711 515.953ZM-22.2619 536.17L-1.65548 530.357L0.177528 523.176L-7.35372 521.418L-22.2619 536.17Z" fill="white"/>
<path fill-rule="evenodd" clip-rule="evenodd" d="M44.407 513.97C45.3849 513.746 46.4389 514.032 47.2058 514.73L73.781 538.832C74.8221 539.776 75.1125 541.26 74.4851 542.43C73.8577 543.599 72.4739 544.151 71.1316 543.769L36.865 534C36.6258 533.931 36.3975 533.836 36.1834 533.717C35.5129 533.343 34.9866 532.738 34.7254 532.012L30.5496 520.379C30.2697 519.599 30.3251 518.757 30.7019 518.055C31.0791 517.352 31.7444 516.851 32.5398 516.67L44.407 513.97ZM37.2752 521.714L39.8191 528.801L60.6961 534.753L44.5047 520.069L37.2752 521.714Z" fill="white"/>
<path d="M-40.8996 496.906C-39.775 495.746 -37.8523 495.755 -36.6047 496.934L-22.0344 510.648C-21.4345 511.213 -21.0746 511.975 -21.0324 512.768C-20.9903 513.56 -21.2702 514.318 -21.8108 514.875L-35.2033 528.685C-36.1443 529.656 -37.647 529.806 -38.843 529.139C-39.075 529.009 -39.2958 528.849 -39.4983 528.658C-40.7462 527.484 -40.8457 525.592 -39.7209 524.433L-31.4582 515.91L-42.299 515.807L-48.0022 521.689C-48.9429 522.659 -50.4432 522.809 -51.6379 522.143C-51.8699 522.013 -52.0912 521.853 -52.2942 521.662C-53.5411 520.489 -53.6405 518.598 -52.5168 517.439L-50.8557 515.725L-62.6535 515.612C-63.4925 518.509 -66.4306 520.4 -69.7385 519.969C-73.4787 519.481 -76.2731 516.21 -75.9787 512.663C-75.6843 509.116 -72.4132 506.636 -68.6731 507.124C-66.7774 507.371 -65.1258 508.334 -63.9953 509.685L-50.9611 509.809L-53.2326 507.67C-54.4796 506.496 -54.58 504.606 -53.4563 503.447C-52.3335 502.287 -50.4091 502.294 -49.1652 503.475L-42.3498 509.891L-31.2609 509.996L-40.677 501.133C-41.9246 499.959 -42.0245 498.066 -40.8996 496.906Z" fill="white"/>
<path d="M72.49 494.55C73.6147 493.389 75.5396 493.399 76.7849 494.577C78.0332 495.752 78.1334 497.644 77.0086 498.804L68.7449 507.325L79.5867 507.429L85.2908 501.547C86.4136 500.388 88.3348 500.394 89.5808 501.574C90.8273 502.747 90.9282 504.638 89.8045 505.797L88.1424 507.51L100.042 507.624C100.161 507.199 100.327 506.781 100.543 506.379C102.22 503.247 106.247 502.195 109.536 504.03C112.825 505.865 114.131 509.892 112.454 513.023C110.776 516.155 106.75 517.207 103.461 515.372C102.606 514.895 101.887 514.269 101.318 513.551L88.2469 513.427L90.5203 515.566C91.767 516.74 91.8666 518.63 90.743 519.789C89.8021 520.759 88.3019 520.908 87.1072 520.242C86.8752 520.113 86.6543 519.952 86.4519 519.762L79.6375 513.345L68.5467 513.239L77.9637 522.103C79.2117 523.278 79.3112 525.17 78.1863 526.33C77.2444 527.301 75.7431 527.45 74.5467 526.783C74.3145 526.654 74.0939 526.494 73.8914 526.303L59.3211 512.589C58.7218 512.025 58.3613 511.262 58.3191 510.47C58.277 509.677 58.5574 508.918 59.0974 508.361L72.49 494.55Z" fill="white"/>
<path fill-rule="evenodd" clip-rule="evenodd" d="M18.0164 499.718C24.6814 499.763 30.388 505.132 30.7332 511.693C31.0783 518.256 25.937 523.561 19.2723 523.519C17.1207 523.505 15.0261 522.942 13.158 521.9C12.2213 521.378 11.3416 520.735 10.5398 519.98C8.1385 517.718 6.72356 514.722 6.55643 511.544C6.21004 504.982 11.35 499.677 18.0164 499.718ZM18.3308 505.677C15.0042 505.656 12.4377 508.305 12.6101 511.58C12.6938 513.166 13.4005 514.661 14.5994 515.791C15.7981 516.92 17.3468 517.546 18.9578 517.557C22.2847 517.577 24.8501 514.93 24.6785 511.655C24.5619 509.458 23.2403 507.526 21.3797 506.488C20.4666 505.979 19.4255 505.684 18.3308 505.677Z" fill="white"/>
<path fill-rule="evenodd" clip-rule="evenodd" d="M-37.1984 480.806C-36.5714 479.637 -35.1874 479.085 -33.8449 479.467L0.421669 489.235C1.41414 489.518 2.21736 490.265 2.56132 491.224L6.7371 502.856C7.01698 503.636 6.96259 504.477 6.58573 505.18C6.20885 505.882 5.54262 506.383 4.74686 506.564L-7.12032 509.266C-7.86064 509.435 -8.64639 509.311 -9.31759 508.937C-9.53155 508.818 -9.73342 508.675 -9.91915 508.506L-36.4934 484.404C-37.5345 483.46 -37.8259 481.975 -37.1984 480.806ZM-7.21798 503.167L0.0124893 501.521L-2.53243 494.435L-23.4084 488.482L-7.21798 503.167Z" fill="white"/>
<path fill-rule="evenodd" clip-rule="evenodd" d="M69.2068 478.014C70.5327 477.639 71.9989 478.216 72.7625 479.416C73.5251 480.612 73.3872 482.12 72.4285 483.068L47.9588 507.283C47.2519 507.983 46.211 508.262 45.1932 508.024L32.8299 505.138C32.5328 505.067 32.2483 504.957 31.9842 504.81C31.5118 504.546 31.1061 504.168 30.8123 503.707C30.3537 502.987 30.2072 502.131 30.409 501.341L33.4178 489.553C33.6655 488.582 34.4045 487.83 35.3826 487.555L69.2068 478.014ZM38.9432 492.878L37.1101 500.06L44.6424 501.818L59.5506 487.065L38.9432 492.878Z" fill="white"/>
<path fill-rule="evenodd" clip-rule="evenodd" d="M16.4646 448.317C17.8637 448.326 19.1348 449.271 19.5418 450.611L29.9226 484.784C30.222 485.771 30.0009 486.812 29.3328 487.549L21.2225 496.493C20.6789 497.093 19.8934 497.431 19.0516 497.426C18.5119 497.423 17.9801 497.279 17.5076 497.016C17.2435 496.868 16.9986 496.684 16.7801 496.467L7.72343 487.418C6.97709 486.673 6.64575 485.628 6.84159 484.644L13.6277 450.576C13.8932 449.241 15.0642 448.308 16.4646 448.317ZM13.1453 484.541L18.6639 490.054L23.6043 484.603L17.2801 463.784L13.1453 484.541Z" fill="white"/>
<path d="M-33.6037 435.078C-32.9994 431.573 -29.5204 429.368 -25.8332 430.154C-22.146 430.94 -19.6469 434.419 -20.2512 437.925C-20.4138 438.868 -20.7867 439.715 -21.3137 440.437L-14.675 450.94L-13.9592 447.689C-13.6097 446.098 -11.9942 445.162 -10.3527 445.6C-8.71177 446.03 -7.66282 447.681 -8.0129 449.272L-10.0031 458.33L-4.46798 467.087L-1.95626 455.661C-1.60677 454.07 0.00850105 453.135 1.65018 453.572C3.29411 454.004 4.34105 455.653 3.991 457.244L-0.0920029 475.821C-0.25928 476.586 -0.734417 477.235 -1.41036 477.627C-2.08697 478.019 -2.90984 478.12 -3.69845 477.91L-23.258 472.703C-23.5248 472.632 -23.7759 472.529 -24.008 472.399C-25.2034 471.733 -25.891 470.363 -25.5979 469.031C-25.2484 467.44 -23.6338 466.505 -21.9914 466.942L-9.33419 470.311L-15.4914 460.572L-23.4572 458.451C-23.7261 458.381 -23.9771 458.278 -24.2092 458.148C-25.4045 457.482 -26.0925 456.112 -25.799 454.779C-25.4498 453.189 -23.8346 452.253 -22.1926 452.69L-20.1252 453.24L-26.5949 443.006C-27.0629 443.001 -27.5407 442.951 -28.0217 442.849C-31.7087 442.062 -34.2079 438.583 -33.6037 435.078Z" fill="white"/>
<path d="M57.2713 428.862C60.3683 427.067 64.5081 428.171 66.5183 431.325C68.5285 434.48 67.6466 438.492 64.5496 440.287C63.487 440.903 62.3018 441.178 61.1219 441.145L54.906 452.475L57.7801 451.725C59.3616 451.31 61.0601 452.257 61.573 453.839C62.087 455.42 61.2205 457.038 59.6375 457.452L50.9256 459.728L45.7049 469.247L57.0613 466.278C58.641 465.864 60.3388 466.811 60.8494 468.391C61.362 469.97 60.496 471.586 58.9158 471.998L40.4656 476.821C39.6758 477.028 38.8557 476.895 38.1707 476.514C37.485 476.131 36.9331 475.5 36.6775 474.71L30.5769 455.899C30.0641 454.32 30.93 452.705 32.5105 452.292C34.0895 451.878 35.7878 452.824 36.2986 454.403L40.1346 466.229L45.6658 456.144L43.1863 448.496C42.6731 446.914 43.5398 445.297 45.1219 444.884C46.7049 444.47 48.4043 445.417 48.9158 446.999L49.5721 449.024L55.532 438.161C55.4532 438.052 55.3758 437.94 55.3025 437.825C53.2933 434.67 54.1745 430.657 57.2713 428.862Z" fill="white"/>
</g>
<g opacity="0.1">
<path fill-rule="evenodd" clip-rule="evenodd" d="M303.092 242.108C304.525 241.712 305.97 242.45 306.318 243.754L310.183 258.227L314.898 250.73C315.624 249.572 317.158 249.115 318.32 249.71C319.482 250.304 319.835 251.724 319.108 252.881L311.842 264.438L315.853 279.451L328.256 259.733C328.98 258.578 330.512 258.123 331.673 258.717C332.834 259.31 333.187 260.727 332.461 261.882L317.509 285.653L322.491 304.3C325.22 304.011 327.847 304.552 330.05 305.747L341.451 294.793L342.59 265.457C342.64 264.129 343.815 262.994 345.214 262.929C346.61 262.861 347.702 263.881 347.65 265.209L346.698 289.752L357.469 279.402C357.465 279.328 357.465 279.254 357.467 279.18L358.039 264.472C358.089 263.146 359.259 262.011 360.658 261.947C362.053 261.879 363.143 262.899 363.092 264.225L362.697 274.38L375.373 262.202C376.376 261.236 377.95 261.163 378.884 262.037C379.82 262.911 379.763 264.403 378.759 265.367L367.381 276.297L376.005 275.875C377.399 275.807 378.49 276.826 378.438 278.153C378.395 279.262 377.565 280.234 376.477 280.562C376.266 280.625 376.045 280.665 375.818 280.676L362.125 281.347L350.767 292.259L374.669 291.09C376.066 291.021 377.158 292.042 377.106 293.37C377.063 294.481 376.232 295.456 375.142 295.783C374.931 295.847 374.71 295.886 374.483 295.897L345.506 297.315L333.617 308.737C334.564 309.941 335.272 311.354 335.665 312.938C336.216 315.158 336.076 317.434 335.382 319.557L352.548 323.148L379.098 307.614C380.331 306.89 381.864 307.21 382.518 308.325C383.172 309.44 382.7 310.929 381.466 311.652L359.374 324.576L374.898 327.823L386.83 320.844C388.064 320.119 389.597 320.438 390.251 321.554C390.904 322.669 390.432 324.159 389.197 324.881L381.726 329.252L395.958 332.23C397.269 332.504 398.007 333.758 397.605 335.03C397.336 335.884 396.622 336.53 395.785 336.78C395.374 336.902 394.933 336.929 394.502 336.838L378.891 333.572L384.005 342.292C384.659 343.407 384.187 344.898 382.951 345.62C382.75 345.737 382.541 345.827 382.33 345.891C381.241 346.218 380.078 345.843 379.531 344.909L372.073 332.189C372.064 332.173 372.056 332.156 372.048 332.14L357.664 329.131L369.244 348.881C369.897 349.996 369.426 351.485 368.191 352.207C367.99 352.324 367.781 352.414 367.57 352.478C366.481 352.805 365.318 352.431 364.771 351.497L350.817 327.698L332.953 323.961C331.728 325.459 330.178 326.738 328.379 327.671L333.183 345.66L358.51 358.608C359.672 359.201 360.025 360.619 359.299 361.773C358.936 362.35 358.371 362.753 357.754 362.937C357.135 363.121 356.462 363.085 355.882 362.788L334.893 352.06L338.795 366.665L351.227 373.02C352.39 373.614 352.743 375.033 352.015 376.191C351.289 377.348 349.755 377.805 348.593 377.21L340.508 373.077L344.586 388.345C344.934 389.649 344.055 391.028 342.623 391.423C341.19 391.818 339.746 391.081 339.398 389.777L335.531 375.303L330.818 382.801C330.455 383.38 329.89 383.783 329.27 383.968C328.651 384.152 327.978 384.118 327.396 383.821C326.233 383.226 325.881 381.807 326.609 380.65L333.873 369.094L329.861 354.076L317.459 373.797C316.734 374.952 315.203 375.407 314.043 374.813C312.881 374.219 312.528 372.802 313.255 371.648L328.205 347.875L323.224 329.229C320.494 329.518 317.867 328.978 315.664 327.782L304.264 338.737L303.127 368.072C303.083 369.185 302.252 370.16 301.163 370.488C300.951 370.551 300.73 370.59 300.504 370.601C299.106 370.67 298.015 369.649 298.066 368.322L299.017 343.778L288.245 354.127C288.249 354.201 288.252 354.276 288.249 354.352L287.677 369.059C287.634 370.17 286.804 371.143 285.717 371.47C285.505 371.533 285.285 371.573 285.058 371.584C283.663 371.653 282.573 370.633 282.625 369.307L283.018 359.149L270.343 371.328C270.013 371.646 269.62 371.867 269.21 371.989C268.372 372.239 267.458 372.078 266.832 371.492C265.897 370.619 265.953 369.128 266.958 368.163L278.333 357.233L269.712 357.655C268.316 357.724 267.228 356.705 267.279 355.379C267.33 354.053 268.502 352.919 269.898 352.855L283.589 352.183L294.947 341.271L271.047 342.441C269.649 342.509 268.557 341.488 268.609 340.16C268.66 338.832 269.835 337.699 271.233 337.633L300.211 336.213L312.096 324.793C311.15 323.589 310.442 322.176 310.05 320.593C309.499 318.372 309.638 316.095 310.333 313.972L293.167 310.381L266.618 325.915C266.417 326.034 266.208 326.123 265.997 326.187C264.908 326.514 263.745 326.139 263.198 325.205C262.544 324.09 263.016 322.602 264.251 321.879L286.342 308.953L270.816 305.705L258.885 312.686C258.685 312.805 258.476 312.895 258.264 312.958C257.176 313.285 256.013 312.91 255.466 311.976C254.812 310.861 255.283 309.371 256.518 308.649L263.989 304.277L249.757 301.3C248.445 301.025 247.707 299.772 248.109 298.499C248.51 297.227 249.901 296.417 251.213 296.693L266.824 299.958L261.711 291.238C261.057 290.122 261.529 288.633 262.763 287.91C263.997 287.185 265.531 287.505 266.184 288.62L273.643 301.341C273.652 301.357 273.659 301.374 273.668 301.39L288.05 304.399L276.472 284.65C275.819 283.535 276.29 282.046 277.525 281.323C278.758 280.599 280.291 280.918 280.945 282.033L294.897 305.83L312.762 309.568C313.987 308.07 315.536 306.791 317.336 305.858L312.531 287.868L287.204 274.922C286.043 274.329 285.69 272.911 286.417 271.757C287.142 270.603 288.672 270.148 289.834 270.741L310.821 281.469L306.92 266.865L294.488 260.511C293.325 259.917 292.972 258.497 293.7 257.34C294.426 256.183 295.961 255.726 297.123 256.321L305.207 260.452L301.13 245.186C300.781 243.882 301.66 242.503 303.092 242.108ZM326.776 309.697C325.083 308.943 323.054 308.781 321.027 309.387C316.664 310.691 313.936 315.062 314.945 319.13C315.166 320.02 315.547 320.822 316.053 321.52C316.85 321.329 317.696 321.503 318.287 322.056C318.792 322.528 319.005 323.18 318.938 323.832C320.631 324.587 322.66 324.75 324.687 324.144C329.05 322.84 331.779 318.469 330.77 314.401C330.549 313.511 330.168 312.708 329.661 312.01C328.865 312.201 328.019 312.027 327.428 311.475C326.923 311.002 326.709 310.35 326.776 309.697Z" fill="white"/>
<path d="M315.745 336.647C316.412 335.994 317.368 335.704 318.245 335.89C319.122 336.074 319.784 336.703 319.977 337.536L321.44 343.825C321.585 344.451 321.451 345.128 321.068 345.701L313.731 356.705C313.362 357.26 312.801 357.659 312.183 357.844C311.751 357.974 311.289 358 310.843 357.903C309.763 357.666 309.043 356.763 309.075 355.688L309.434 343.779C309.454 343.139 309.741 342.51 310.231 342.031L315.745 336.647Z" fill="white"/>
<path d="M336.833 331.296C337.509 330.649 338.469 330.369 339.343 330.563L345.959 332.024C346.616 332.168 347.16 332.567 347.466 333.127L353.322 343.866C353.825 344.788 353.593 345.97 352.753 346.763C352.42 347.077 352.023 347.3 351.606 347.425C350.969 347.616 350.284 347.578 349.7 347.286L338.983 341.931C338.407 341.644 337.997 341.14 337.841 340.53L336.084 333.685C335.872 332.856 336.157 331.943 336.833 331.296Z" fill="white"/>
<path d="M293.268 318.793C293.843 318.454 294.524 318.332 295.153 318.46L302.229 319.889C303.086 320.062 303.739 320.668 303.938 321.475C304.137 322.281 303.851 323.163 303.19 323.782L298.197 328.461C297.88 328.757 297.497 328.974 297.088 329.096C296.856 329.165 296.615 329.203 296.374 329.207L283.542 329.443C282.44 329.463 281.517 328.789 281.28 327.79C281.043 326.792 281.549 325.71 282.519 325.137L293.268 318.793Z" fill="white"/>
<path d="M362.175 304.088C363.276 304.068 364.198 304.742 364.435 305.741C364.672 306.74 364.167 307.822 363.197 308.395L352.446 314.738C352.249 314.854 352.04 314.945 351.824 315.009C351.41 315.132 350.975 315.156 350.561 315.072L343.485 313.642C342.629 313.469 341.976 312.863 341.777 312.057C341.578 311.25 341.864 310.367 342.525 309.748L347.519 305.071C348.016 304.606 348.673 304.337 349.342 304.324L362.175 304.088Z" fill="white"/>
<path d="M292.963 286.767C293.804 285.974 295.049 285.761 296.015 286.244L306.731 291.6C307.308 291.887 307.719 292.391 307.875 292.999L309.631 299.846C309.842 300.675 309.557 301.588 308.881 302.235C308.548 302.553 308.146 302.783 307.719 302.911C307.281 303.043 306.815 303.066 306.371 302.968L299.757 301.506C299.1 301.361 298.556 300.963 298.251 300.403L292.392 289.663C291.89 288.742 292.122 287.56 292.963 286.767Z" fill="white"/>
<path d="M331.984 276.826C332.613 275.882 333.792 275.393 334.873 275.629C335.953 275.866 336.673 276.769 336.641 277.844L336.28 289.753C336.26 290.392 335.973 291.021 335.483 291.5L329.969 296.885C329.634 297.213 329.226 297.448 328.792 297.578C328.362 297.707 327.907 297.734 327.47 297.642C326.594 297.457 325.931 296.828 325.738 295.995L324.275 289.705C324.13 289.081 324.265 288.403 324.647 287.829L331.984 276.826Z" fill="white"/>
</g>
<g opacity="0.1">
<path fill-rule="evenodd" clip-rule="evenodd" d="M-38.3417 138.797C-37.0954 138.454 -35.8391 139.095 -35.536 140.23L-32.1718 152.825L-28.0692 146.3C-27.4372 145.293 -26.1015 144.895 -25.0907 145.413C-24.0792 145.929 -23.7723 147.165 -24.4052 148.172L-30.7284 158.23L-27.2382 171.294L-16.4442 154.135C-15.8135 153.131 -14.4811 152.734 -13.4716 153.251C-12.4607 153.768 -12.1537 155.001 -12.786 156.005L-25.7968 176.692L-21.4618 192.918C-19.0866 192.667 -16.8004 193.137 -14.8837 194.177L-4.96179 184.645L-3.97156 159.117C-3.92762 157.961 -2.90492 156.973 -1.68835 156.917C-0.472498 156.857 0.477755 157.745 0.432739 158.901L-0.396362 180.258L8.97766 171.25C8.97394 171.187 8.97315 171.123 8.97571 171.058L9.47278 158.259C9.51671 157.105 10.5355 156.117 11.7531 156.062C12.9666 156.003 13.9151 156.89 13.8702 158.043L13.5265 166.881L24.5577 156.284C25.4312 155.443 26.7996 155.381 27.6124 156.141C28.4262 156.901 28.3777 158.198 27.504 159.038L17.6017 168.55L25.1075 168.183C26.3213 168.123 27.2696 169.01 27.2247 170.164C27.1869 171.129 26.4656 171.976 25.5187 172.261C25.335 172.316 25.1425 172.35 24.9454 172.36L13.0275 172.944L3.14563 182.439L23.9445 181.422C25.1608 181.363 26.1106 182.251 26.0656 183.407C26.0282 184.374 25.3048 185.221 24.3566 185.506C24.1727 185.562 23.9806 185.596 23.7833 185.606L-1.43347 186.839L-11.7811 196.781C-10.9574 197.829 -10.3388 199.057 -9.99695 200.435C-9.51778 202.367 -9.63967 204.347 -10.244 206.194L4.69543 209.32L27.7999 195.803C28.8728 195.173 30.2062 195.45 30.7755 196.42C31.3446 197.391 30.934 198.687 29.8595 199.316L10.6349 210.562L24.1456 213.388L34.5275 207.315C35.6017 206.685 36.9351 206.961 37.504 207.932C38.0732 208.902 37.6633 210.2 36.588 210.829L30.087 214.631L42.4708 217.223C43.6123 217.462 44.254 218.553 43.9044 219.661C43.6702 220.403 43.049 220.965 42.3204 221.182C41.9628 221.289 41.5797 221.313 41.2042 221.234L27.6193 218.391L32.0685 225.98C32.6377 226.95 32.2276 228.247 31.1525 228.875C30.9773 228.977 30.7954 229.056 30.6115 229.111C29.664 229.396 28.652 229.07 28.1759 228.257L21.6857 217.188C21.6775 217.174 21.671 217.159 21.6632 217.145L9.14758 214.527L19.2238 231.713C19.7926 232.684 19.3825 233.979 18.3077 234.608C18.1326 234.71 17.9507 234.788 17.7667 234.843C16.8194 235.128 15.8072 234.802 15.3312 233.99L3.1886 213.281L-12.3573 210.028C-13.4228 211.331 -14.7718 212.443 -16.3378 213.255L-12.1561 228.911L9.88391 240.178C10.8946 240.695 11.2018 241.928 10.5695 242.932C10.2539 243.435 9.76244 243.785 9.22473 243.945C8.68653 244.105 8.10083 244.074 7.59583 243.816L-10.6688 234.479L-7.27429 247.189L3.54602 252.719C4.55804 253.236 4.86508 254.472 4.23157 255.479C3.59907 256.486 2.26379 256.883 1.25305 256.366L-5.78406 252.769L-2.23425 266.056C-1.93136 267.191 -2.69609 268.39 -3.94226 268.734C-5.18866 269.078 -6.44577 268.436 -6.7489 267.301L-10.1141 254.707L-14.2147 261.231C-14.5309 261.735 -15.0224 262.086 -15.5614 262.247C-16.1003 262.407 -16.6862 262.377 -17.1923 262.119C-18.2044 261.602 -18.5114 260.366 -17.8778 259.359L-11.5575 249.302L-15.0477 236.235L-25.8407 253.396C-26.4715 254.4 -27.804 254.797 -28.8134 254.28C-29.8242 253.763 -30.1311 252.53 -29.4989 251.526L-16.4891 230.838L-20.8231 214.612C-23.1987 214.863 -25.4853 214.395 -27.4022 213.354L-37.3231 222.885L-38.3124 248.415C-38.35 249.383 -39.0732 250.23 -40.0214 250.515C-40.2055 250.57 -40.3981 250.605 -40.5956 250.615C-41.8118 250.674 -42.7607 249.786 -42.7157 248.63L-41.8885 227.272L-51.2626 236.278C-51.2587 236.342 -51.2571 236.408 -51.2596 236.474L-51.7567 249.273C-51.7944 250.239 -52.5164 251.086 -53.4628 251.371C-53.6465 251.426 -53.8389 251.461 -54.036 251.47C-55.2503 251.53 -56.1981 250.643 -56.1532 249.489L-55.8114 240.648L-66.8417 251.248C-67.1295 251.524 -67.4708 251.716 -67.828 251.823C-68.5566 252.04 -69.3521 251.9 -69.8973 251.39C-70.7107 250.63 -70.662 249.333 -69.788 248.494L-59.8886 238.981L-67.3905 239.349C-68.6049 239.409 -69.5527 238.522 -69.5077 237.368C-69.4636 236.214 -68.4432 235.227 -67.2284 235.171L-55.3153 234.587L-45.4296 225.09L-66.2294 226.109C-67.4452 226.169 -68.3955 225.28 -68.3505 224.125C-68.3065 222.969 -67.2842 221.981 -66.0673 221.924L-40.8495 220.69L-30.5048 210.75C-31.3283 209.703 -31.9461 208.474 -32.288 207.096C-32.7673 205.164 -32.6466 203.183 -32.0419 201.335L-46.9794 198.21L-70.0829 211.728C-70.2575 211.832 -70.4405 211.909 -70.6239 211.964C-71.5712 212.249 -72.5833 211.924 -73.0594 211.111C-73.6285 210.141 -73.2183 208.844 -72.1434 208.215L-52.9188 196.967L-66.4296 194.141L-76.8124 200.215C-76.987 200.319 -77.1685 200.397 -77.3524 200.453C-78.2999 200.737 -79.3117 200.411 -79.788 199.598C-80.3571 198.628 -79.9472 197.331 -78.8719 196.703L-72.371 192.898L-84.7557 190.308C-85.8973 190.069 -86.5389 188.978 -86.1893 187.871C-85.8403 186.763 -84.6308 186.058 -83.4891 186.297L-69.9042 189.139L-74.3534 181.551C-74.9226 180.581 -74.5119 179.284 -73.4374 178.656C-72.3638 178.025 -71.0297 178.303 -70.4608 179.274L-63.9696 190.343C-63.9618 190.357 -63.9556 190.371 -63.9481 190.384L-51.4325 193.003L-61.5077 175.818C-62.0765 174.848 -61.6665 173.552 -60.5917 172.923C-59.5194 172.293 -58.1855 172.57 -57.6161 173.541L-45.4735 194.25L-29.9286 197.502C-28.8629 196.199 -27.5134 195.086 -25.9471 194.274L-30.1288 178.619L-52.1688 167.353C-53.1793 166.837 -53.4864 165.604 -52.8544 164.599C-52.2237 163.594 -50.8917 163.199 -49.8807 163.715L-31.6161 173.051L-35.0106 160.342L-45.83 154.812C-46.842 154.295 -47.1489 153.06 -46.5155 152.053C-45.8835 151.047 -44.5486 150.648 -43.538 151.166L-36.5018 154.761L-40.0497 141.476C-40.3528 140.341 -39.5881 139.141 -38.3417 138.797ZM-17.7323 197.616C-19.2053 196.959 -20.9709 196.818 -22.7352 197.345C-26.532 198.48 -28.9063 202.283 -28.0282 205.824C-27.8361 206.598 -27.5038 207.297 -27.0624 207.904C-26.3698 207.738 -25.6338 207.889 -25.12 208.37C-24.6802 208.78 -24.4946 209.348 -24.5526 209.916C-23.0796 210.572 -21.3141 210.713 -19.5497 210.186C-15.7529 209.051 -13.3786 205.248 -14.2567 201.708C-14.4488 200.933 -14.7803 200.234 -15.2216 199.627C-15.9145 199.793 -16.65 199.642 -17.1639 199.162C-17.6038 198.751 -17.7905 198.183 -17.7323 197.616Z" fill="white"/>
<path d="M-27.3319 221.067C-26.751 220.499 -25.9203 220.247 -25.1571 220.409C-24.3938 220.569 -23.8178 221.115 -23.6493 221.84L-22.3759 227.314C-22.2494 227.858 -22.3659 228.448 -22.6991 228.947L-29.0839 238.522C-29.4054 239.005 -29.8929 239.352 -30.4305 239.513C-30.8073 239.626 -31.2099 239.649 -31.5975 239.564C-32.5373 239.358 -33.1642 238.573 -33.1366 237.637L-32.8231 227.273C-32.8063 226.717 -32.5564 226.169 -32.1298 225.752L-27.3319 221.067Z" fill="white"/>
<path d="M-8.98035 216.411C-8.39205 215.848 -7.5569 215.604 -6.79578 215.772L-1.03894 217.044C-0.466968 217.17 0.00616905 217.517 0.271606 218.004L5.36829 227.35C5.80579 228.152 5.60343 229.181 4.87219 229.871C4.5826 230.144 4.23807 230.338 3.87512 230.447C3.32091 230.613 2.7243 230.58 2.21594 230.326L-7.10925 225.666C-7.61029 225.416 -7.96838 224.977 -8.10437 224.447L-9.63269 218.489C-9.81679 217.768 -9.56808 216.973 -8.98035 216.411Z" fill="white"/>
<path d="M-46.8915 205.531C-46.3912 205.235 -45.7982 205.129 -45.2509 205.241L-39.0936 206.484C-38.3482 206.634 -37.7799 207.162 -37.6063 207.864C-37.4329 208.565 -37.6822 209.333 -38.2577 209.873L-42.6024 213.943C-42.8778 214.2 -43.2109 214.39 -43.5673 214.496C-43.7689 214.555 -43.9789 214.589 -44.1893 214.592L-55.3563 214.798C-56.3153 214.816 -57.1177 214.229 -57.3241 213.36C-57.5299 212.491 -57.0903 211.549 -56.246 211.05L-46.8915 205.531Z" fill="white"/>
<path d="M13.0714 192.734C14.0305 192.716 14.8336 193.303 15.0402 194.172C15.2459 195.042 14.8053 195.984 13.9611 196.482L4.60657 202.001C4.43499 202.103 4.25223 202.182 4.06458 202.238C3.70482 202.344 3.32587 202.365 2.96594 202.292L-3.19128 201.047C-3.93672 200.897 -4.50561 200.369 -4.67859 199.667C-4.85137 198.966 -4.60218 198.198 -4.02722 197.66L0.318481 193.588C0.750366 193.184 1.3224 192.951 1.90442 192.94L13.0714 192.734Z" fill="white"/>
<path d="M-47.1581 177.661C-46.4263 176.97 -45.3421 176.785 -44.5009 177.206L-35.1757 181.867C-34.6741 182.117 -34.3163 182.555 -34.1805 183.084L-32.6532 189.042C-32.4691 189.763 -32.7165 190.558 -33.3046 191.121C-33.5938 191.398 -33.9438 191.598 -34.3153 191.709C-34.6973 191.824 -35.1031 191.845 -35.4901 191.759L-41.246 190.487C-41.8174 190.36 -42.29 190.014 -42.5555 189.527L-47.6532 180.181C-48.0906 179.379 -47.8892 178.351 -47.1581 177.661Z" fill="white"/>
<path d="M-13.2001 169.01C-12.6526 168.188 -11.6272 167.763 -10.6864 167.968C-9.74647 168.174 -9.11978 168.959 -9.14734 169.895L-9.46179 180.259C-9.47877 180.815 -9.7287 181.362 -10.1552 181.779L-14.953 186.465C-15.2449 186.751 -15.6002 186.955 -15.9784 187.069C-16.3525 187.181 -16.7483 187.204 -17.1278 187.124C-17.8909 186.963 -18.4673 186.415 -18.6356 185.691L-19.9091 180.217C-20.0354 179.674 -19.9174 179.085 -19.5848 178.585L-13.2001 169.01Z" fill="white"/>
</g>
</g>
<defs>
<clipPath id="clip0_78_9375">
<rect width="296" height="941" fill="white" transform="translate(0 0.00146484)"/>
</clipPath>
</defs>
</svg>
