<svg width="144" height="46" viewBox="0 0 144 46" fill="none" xmlns="http://www.w3.org/2000/svg">
<path d="M141.81 11.3865C142.118 11.3977 142.421 11.47 142.701 11.5992C142.961 11.7208 143.196 11.8905 143.394 12.0997C143.59 12.3151 143.745 12.5654 143.851 12.8379C143.952 13.1316 144.002 13.4405 144 13.7513C143.986 14.0622 143.914 14.3677 143.79 14.6521C143.673 14.9243 143.505 15.1708 143.295 15.3778C143.082 15.5763 142.834 15.7332 142.565 15.8407C142.273 15.9541 141.962 16.0053 141.649 15.9909C141.347 15.9823 141.048 15.9143 140.771 15.7907C140.5 15.6714 140.255 15.4968 140.054 15.2777C139.854 15.0552 139.699 14.7961 139.596 14.5145C139.484 14.2239 139.433 13.9127 139.447 13.6011C139.448 13.2925 139.52 12.9882 139.658 12.7128C139.779 12.4439 139.951 12.2016 140.165 11.9996C140.381 11.7984 140.633 11.6412 140.907 11.5367C141.194 11.4221 141.502 11.3709 141.81 11.3865V11.3865ZM141.81 11.7869C141.569 11.7774 141.329 11.82 141.105 11.912C140.891 12.0071 140.694 12.1383 140.524 12.2999C140.357 12.4697 140.223 12.6691 140.128 12.8879C140.035 13.123 139.985 13.373 139.979 13.6261C139.966 13.8814 140.004 14.1368 140.091 14.3769C140.176 14.6 140.297 14.8071 140.449 14.9899C140.605 15.1682 140.794 15.3129 141.006 15.4153C141.231 15.522 141.476 15.5775 141.724 15.578C141.96 15.5925 142.197 15.554 142.416 15.4654C142.633 15.3749 142.83 15.2432 142.998 15.0775C143.16 14.907 143.29 14.7076 143.381 14.4895C143.476 14.2549 143.526 14.0045 143.53 13.7513C143.545 13.4959 143.507 13.2401 143.418 13.0006C143.343 12.7719 143.225 12.5597 143.072 12.375C142.911 12.206 142.723 12.0663 142.515 11.9621C142.285 11.8457 142.031 11.7857 141.773 11.7869H141.81Z" fill="white"/>
<path d="M141.823 13.9516H141.316V14.915H140.834V12.4126H141.638C142.442 12.4126 142.739 12.6378 142.739 13.1633C142.741 13.3034 142.7 13.4408 142.623 13.5571C142.545 13.6734 142.435 13.763 142.306 13.8139L142.85 14.8774H142.306L141.823 13.9516ZM141.316 12.8255V13.5762H141.712C142.083 13.5762 142.244 13.4386 142.244 13.2008C142.244 12.9631 142.009 12.8255 141.687 12.8255H141.316Z" fill="white"/>
<path d="M16.0571 33.1327H9.48831C11.098 24.4595 12.0656 15.6768 12.383 6.85793H16.0942C16.1437 16.0166 15.8963 24.2243 16.0571 33.1327ZM35.8502 34.0836C34.1431 34.0836 32.7699 32.6948 32.7699 25.0876C32.7699 17.4804 33.8833 15.7538 35.677 15.7538C37.4708 15.7538 38.7573 17.1426 38.7573 24.7498C38.7573 32.357 37.6811 34.0836 35.8873 34.0836H35.8502ZM56.4845 15.7538C58.872 15.7538 60.4184 17.1426 60.4184 24.7498C60.4184 32.357 59.1813 34.0836 57.4247 34.0836C55.668 34.0836 54.1836 32.7824 54.1836 22.9356C54.1836 20.3331 54.097 18.1811 54.1836 16.3669C54.8841 15.9621 55.6776 15.7506 56.4845 15.7538ZM76.5621 35.0345C76.2748 35.0487 75.9871 35.0192 75.7085 34.9469V19.2196C75.7085 17.1426 76.4755 15.7538 78.1084 15.7538C79.7414 15.7538 81.4362 17.005 81.4362 25.7007C81.399 33.3954 79.8156 35.0345 76.5621 35.0345ZM98.6067 34.509C97.1593 34.509 96.6521 33.2578 96.6521 31.0557V23.2734C99.9798 22.7604 101.427 24.7498 101.427 29.2415C101.427 33.2203 100.24 34.509 98.6067 34.509ZM100.574 18.9568C99.2069 18.9233 97.8552 19.251 96.6521 19.9077V11.4372H89.7245C89.8977 12.6884 89.9843 15.7538 89.9843 19.7326V28.7786C89.9843 35.2597 92.545 38.788 98.3592 38.788C103.567 38.788 108.182 35.4974 108.182 28.2406C108.182 22.4101 104.903 18.9568 100.574 18.9568ZM78.3064 10.9243C72.7396 10.9243 69.0284 15.1533 69.0284 21.6344V45.2316H75.9559C75.7468 42.7895 75.6601 40.3382 75.6962 37.8872C76.6531 38.4559 77.7549 38.7258 78.8631 38.6629C83.2175 38.6629 88.1782 36.073 88.1782 25.7007C88.1905 13.339 83.8732 10.9243 78.3559 10.9243H78.3064ZM57.2762 8.58456C60.6039 7.33338 64.6244 7.54607 66.7645 6.50759V0.00146484C64.7364 0.840104 62.6129 1.4201 60.4431 1.72809C53.2558 3.29206 47.3673 6.8329 47.3673 22.3851C47.3673 35.8728 52.229 38.8131 57.2639 38.8131C62.0513 38.8131 67.0862 35.7852 67.0862 24.7248C67.0862 13.314 63.1647 11.3246 59.3174 11.3246C57.4598 11.3855 55.6787 12.0875 54.2702 13.314C54.6908 10.8367 55.4206 9.27271 57.3381 8.58456H57.2762ZM132.824 3.65491C132.824 1.75311 131.958 0.551987 130.35 0.551987C129.87 0.515972 129.393 0.651573 129.002 0.935134C128.61 1.21869 128.33 1.6322 128.21 2.10345C127.931 1.64284 127.542 1.25982 127.08 0.988953C126.618 0.718087 126.096 0.567911 125.562 0.551987C125.23 0.562931 124.903 0.641645 124.601 0.783423C124.299 0.925202 124.028 1.12713 123.805 1.37711C123.583 1.6271 123.412 1.92 123.303 2.23829C123.195 2.55658 123.151 2.89372 123.175 3.22951C123.175 6.0822 126.886 8.58455 127.789 10.0484C129.039 9.09754 132.886 6.08219 132.886 3.65491H132.824ZM137.772 38.1499C137.547 35.3868 137.461 32.614 137.512 29.8421V11.4372H130.511C130.777 14.1938 130.893 16.9631 130.857 19.7326V31.281C130.115 31.985 129.141 32.3861 128.123 32.407C125.723 32.407 125.303 31.1558 125.303 28.5158V11.4372H118.288C118.601 14.1904 118.716 16.9626 118.635 19.7326V31.6563C118.635 36.073 120.342 38.6629 124.61 38.6629C127.604 38.6629 129.744 36.073 130.857 34.4214V38.1749L137.772 38.1499ZM116.037 11.4372H109.109C109.283 12.6884 109.369 15.7538 109.369 19.7326V38.1499H116.371C116.069 35.3919 115.957 32.6159 116.037 29.8421V11.4372ZM35.7018 10.9243C30.9143 10.9243 26.0526 13.9396 26.0526 25.0876C26.065 36.4984 30.9267 38.788 35.8873 38.788C40.848 38.788 45.5241 35.7226 45.5241 24.6622C45.5241 13.2515 40.6748 10.9243 35.7141 10.9243H35.7018ZM26.0526 33.1327H22.8981C22.8981 22.4101 22.8115 9.97337 23.1579 1.75312H12.7294C9.99105 1.83642 7.25028 1.72353 4.52767 1.41529V6.77035H7.17499C6.58899 15.6317 5.39022 24.4407 3.58749 33.1327H0C0.265106 35.8893 0.376619 38.6588 0.334009 41.428V45.1816H5.80184C5.593 42.8272 5.5104 40.4632 5.55443 38.0999H20.7827V45.1816H26.3372C26.1764 43.9304 26.0898 40.865 26.0898 36.8862L26.0526 33.1327Z" fill="white"/>
</svg>
