<svg width="1139" height="382" viewBox="0 0 1139 382" fill="none" xmlns="http://www.w3.org/2000/svg">
<g clip-path="url(#clip0_194_31963)">
<g opacity="0.1">
<path fill-rule="evenodd" clip-rule="evenodd" d="M530.223 83.0664C531.112 82.8205 532.009 83.2788 532.226 84.0898L534.627 93.0924L537.556 88.4283C538.007 87.7087 538.96 87.4242 539.682 87.7942C540.404 88.1635 540.622 89.0473 540.171 89.767L535.657 96.9541L538.149 106.293L545.853 94.0278C546.304 93.3098 547.255 93.0271 547.976 93.3967C548.697 93.7658 548.916 94.6466 548.465 95.3646L539.178 110.15L542.272 121.747C543.967 121.567 545.599 121.903 546.968 122.647L554.05 115.833L554.757 97.5882C554.788 96.7623 555.518 96.0567 556.387 96.0163C557.255 95.9737 557.933 96.6086 557.901 97.4346L557.309 112.698L564 106.261C563.998 106.216 563.997 106.169 563.999 106.123L564.354 96.976C564.385 96.1511 565.112 95.4455 565.981 95.4059C566.848 95.3633 567.524 95.997 567.492 96.8217L567.247 103.138L575.122 95.5638C575.745 94.9628 576.722 94.9182 577.302 95.4618C577.883 96.0053 577.849 96.9325 577.225 97.5324L570.156 104.331L575.514 104.068C576.381 104.026 577.057 104.659 577.025 105.484C576.998 106.174 576.483 106.78 575.807 106.983C575.676 107.023 575.539 107.047 575.398 107.054L566.892 107.471L559.837 114.258L574.684 113.531C575.552 113.488 576.23 114.123 576.198 114.949C576.172 115.64 575.655 116.246 574.978 116.45C574.847 116.489 574.709 116.514 574.568 116.521L556.568 117.403L549.184 124.506C549.772 125.255 550.212 126.134 550.456 127.119C550.798 128.5 550.711 129.916 550.279 131.236L560.943 133.47L577.436 123.809C578.202 123.358 579.154 123.557 579.56 124.25C579.966 124.944 579.673 125.871 578.906 126.32L565.183 134.358L574.827 136.378L582.238 132.036C583.005 131.586 583.957 131.784 584.363 132.478C584.769 133.171 584.477 134.099 583.709 134.548L579.068 137.266L587.909 139.119C588.723 139.289 589.181 140.069 588.932 140.86C588.765 141.391 588.321 141.792 587.801 141.948C587.546 142.024 587.272 142.041 587.004 141.985L577.307 139.953L580.483 145.377C580.889 146.071 580.597 146.997 579.829 147.446C579.704 147.519 579.574 147.575 579.443 147.615C578.767 147.818 578.045 147.585 577.705 147.005L573.071 139.093C573.065 139.083 573.061 139.073 573.055 139.063L564.122 137.191L571.314 149.474C571.72 150.168 571.427 151.094 570.66 151.544C570.535 151.616 570.405 151.672 570.274 151.712C569.598 151.915 568.876 151.682 568.536 151.102L559.869 136.3L548.771 133.976C548.01 134.907 547.047 135.703 545.929 136.283L548.914 147.471L564.647 155.524C565.369 155.894 565.588 156.775 565.137 157.493C564.911 157.852 564.56 158.102 564.176 158.216C563.792 158.331 563.374 158.309 563.014 158.125L549.976 151.451L552.399 160.535L560.123 164.488C560.845 164.857 561.064 165.74 560.612 166.46C560.161 167.18 559.208 167.464 558.487 167.094L553.463 164.523L555.997 174.02C556.214 174.831 555.667 175.688 554.777 175.934C553.888 176.179 552.991 175.721 552.774 174.91L550.373 165.908L547.445 170.572C547.219 170.932 546.868 171.182 546.484 171.297C546.099 171.412 545.681 171.39 545.32 171.205C544.597 170.836 544.378 169.953 544.83 169.233L549.342 162.046L546.851 152.706L539.147 164.972C538.696 165.69 537.745 165.973 537.024 165.603C536.302 165.234 536.084 164.353 536.535 163.635L545.821 148.849L542.727 137.252C541.032 137.432 539.4 137.096 538.032 136.352L530.951 143.165L530.244 161.411C530.217 162.103 529.701 162.709 529.024 162.913C528.892 162.952 528.755 162.977 528.614 162.984C527.746 163.026 527.068 162.391 527.1 161.565L527.691 146.3L521 152.737C521.002 152.783 521.003 152.83 521.001 152.877L520.647 162.025C520.62 162.715 520.105 163.321 519.429 163.524C519.298 163.564 519.16 163.588 519.02 163.595C518.153 163.637 517.476 163.004 517.508 162.179L517.753 155.86L509.879 163.436C509.674 163.633 509.43 163.771 509.175 163.847C508.655 164.002 508.087 163.903 507.698 163.538C507.117 162.995 507.152 162.068 507.776 161.468L514.842 154.669L509.487 154.932C508.62 154.974 507.943 154.341 507.975 153.516C508.007 152.691 508.736 151.985 509.603 151.946L518.107 151.529L525.163 144.741L510.316 145.469C509.448 145.511 508.77 144.876 508.802 144.05C508.834 143.225 509.563 142.519 510.432 142.479L528.432 141.596L535.816 134.493C535.228 133.744 534.788 132.865 534.544 131.88C534.202 130.499 534.288 129.083 534.72 127.763L524.057 125.53L507.565 135.191C507.44 135.265 507.31 135.321 507.179 135.36C506.503 135.564 505.781 135.33 505.441 134.75C505.035 134.056 505.327 133.13 506.095 132.68L519.817 124.641L510.173 122.621L502.762 126.962C502.637 127.037 502.508 127.092 502.376 127.132C501.7 127.335 500.977 127.103 500.637 126.521C500.231 125.828 500.524 124.901 501.292 124.451L505.932 121.733L497.091 119.882C496.277 119.711 495.819 118.931 496.068 118.14C496.317 117.348 497.181 116.844 497.996 117.015L507.693 119.046L504.517 113.623C504.111 112.93 504.404 112.002 505.171 111.553C505.937 111.102 506.89 111.301 507.296 111.995L511.929 119.906C511.934 119.916 511.938 119.927 511.944 119.937L520.878 121.808L513.687 109.526C513.281 108.833 513.573 107.906 514.34 107.456C515.106 107.006 516.058 107.204 516.464 107.898L525.132 122.699L536.229 125.024C536.989 124.092 537.952 123.297 539.07 122.716L536.086 111.528L520.353 103.476C519.631 103.107 519.412 102.225 519.863 101.507C520.314 100.789 521.264 100.506 521.986 100.875L535.023 107.548L532.6 98.4641L524.878 94.5125C524.155 94.143 523.936 93.2601 524.388 92.5403C524.839 91.8208 525.792 91.5364 526.514 91.9062L531.536 94.476L529.003 84.9802C528.787 84.1692 529.333 83.3122 530.223 83.0664ZM544.934 125.104C543.883 124.635 542.623 124.534 541.363 124.911C538.653 125.722 536.958 128.44 537.585 130.97C537.722 131.524 537.959 132.023 538.274 132.457C538.768 132.339 539.293 132.447 539.66 132.791C539.974 133.084 540.107 133.49 540.066 133.895C541.117 134.364 542.377 134.466 543.637 134.089C546.347 133.278 548.042 130.559 547.415 128.029C547.278 127.475 547.041 126.976 546.726 126.542C546.232 126.661 545.706 126.553 545.34 126.21C545.025 125.916 544.893 125.51 544.934 125.104Z" fill="white"/>
<path d="M538.082 141.866C538.497 141.46 539.089 141.28 539.634 141.395C540.179 141.509 540.59 141.9 540.71 142.418L541.619 146.331C541.709 146.719 541.627 147.141 541.389 147.497L536.831 154.341C536.602 154.687 536.253 154.934 535.87 155.049C535.601 155.13 535.314 155.146 535.037 155.085C534.366 154.939 533.918 154.377 533.938 153.708L534.162 146.301C534.174 145.903 534.352 145.512 534.657 145.214L538.082 141.866Z" fill="white"/>
<path d="M551.181 138.538C551.601 138.135 552.198 137.961 552.741 138.081L556.85 138.99C557.259 139.08 557.596 139.329 557.786 139.677L561.424 146.356C561.736 146.93 561.592 147.664 561.07 148.158C560.863 148.353 560.617 148.492 560.358 148.569C559.963 148.688 559.537 148.665 559.174 148.483L552.517 145.152C552.16 144.973 551.904 144.66 551.807 144.281L550.716 140.023C550.585 139.508 550.762 138.94 551.181 138.538Z" fill="white"/>
<path d="M524.12 130.762C524.477 130.55 524.9 130.474 525.291 130.554L529.686 131.443C530.218 131.55 530.624 131.927 530.748 132.429C530.872 132.93 530.694 133.479 530.283 133.865L527.181 136.774C526.984 136.958 526.747 137.093 526.492 137.169C526.349 137.212 526.199 137.235 526.049 137.238L518.077 137.385C517.393 137.398 516.821 136.978 516.673 136.357C516.526 135.736 516.84 135.063 517.442 134.706L524.12 130.762Z" fill="white"/>
<path d="M566.923 121.616C567.607 121.603 568.18 122.022 568.327 122.643C568.474 123.265 568.16 123.937 567.558 124.294L560.88 128.239C560.758 128.312 560.627 128.368 560.494 128.408C560.237 128.484 559.966 128.498 559.709 128.446L555.314 127.558C554.782 127.45 554.376 127.073 554.252 126.571C554.129 126.07 554.306 125.52 554.717 125.135L557.819 122.226C558.127 121.937 558.536 121.77 558.952 121.763L566.923 121.616Z" fill="white"/>
<path d="M523.93 110.843C524.452 110.349 525.225 110.216 525.826 110.517L532.483 113.848C532.841 114.027 533.096 114.34 533.193 114.719L534.283 118.977C534.415 119.492 534.238 120.06 533.818 120.462C533.612 120.661 533.362 120.804 533.097 120.883C532.824 120.965 532.535 120.98 532.258 120.919L528.15 120.01C527.742 119.919 527.404 119.672 527.214 119.323L523.576 112.644C523.264 112.071 523.408 111.336 523.93 110.843Z" fill="white"/>
<path d="M548.169 104.659C548.56 104.072 549.292 103.768 549.963 103.915C550.634 104.062 551.082 104.623 551.062 105.292L550.838 112.699C550.826 113.097 550.647 113.488 550.343 113.786L546.918 117.135C546.71 117.339 546.456 117.486 546.186 117.567C545.919 117.647 545.637 117.663 545.366 117.606C544.821 117.491 544.41 117.1 544.29 116.582L543.381 112.67C543.291 112.281 543.374 111.86 543.611 111.503L548.169 104.659Z" fill="white"/>
</g>
<g opacity="0.1">
<path d="M6.82011 369.412C8.3375 369.016 10.1161 370.007 10.6082 371.524L16.7088 390.334C17.2214 391.914 16.3554 393.53 14.7752 393.942C13.9851 394.149 13.1659 394.015 12.4803 393.633C11.7948 393.251 11.2427 392.62 10.9871 391.83L7.15117 380.004L1.61797 390.09L4.09941 397.739C4.61279 399.32 3.74602 400.938 2.16386 401.351C0.582085 401.765 -1.11861 400.817 -1.63008 399.236L-2.28731 397.209L-8.2463 408.073C-8.16724 408.182 -8.09032 408.295 -8.0168 408.41C-6.00787 411.565 -6.88866 415.577 -9.98555 417.372C-13.0833 419.167 -17.2234 418.064 -19.2336 414.909C-21.2436 411.755 -20.3609 407.743 -17.2639 405.948C-16.2012 405.332 -15.016 405.056 -13.8361 405.088L-7.6213 393.758L-10.4943 394.51C-11.2852 394.717 -12.1056 394.583 -12.7922 394.2C-13.4788 393.818 -14.0322 393.186 -14.2883 392.395C-14.8016 390.812 -13.9352 389.196 -12.3527 388.782L-3.64278 386.505L1.57988 376.987L-9.77559 379.956C-11.3545 380.37 -13.0513 379.424 -13.5637 377.844C-14.0761 376.265 -13.2103 374.65 -11.6301 374.238L6.82011 369.412Z" fill="white"/>
<path d="M47.3797 370.412C47.7293 368.821 49.3445 367.886 50.9861 368.323L70.5447 373.531C72.1867 373.963 73.2349 375.611 72.8855 377.202C72.5364 378.793 70.9213 379.73 69.2791 379.292L56.6199 375.921L62.7762 385.66L70.7449 387.782C72.3851 388.214 73.435 389.863 73.0848 391.454C72.7353 393.046 71.1205 393.981 69.4783 393.543L67.4109 392.992L73.8445 403.171C73.8569 403.171 73.8693 403.171 73.8816 403.171C77.5691 403.194 80.7144 406.155 80.9061 409.784C81.0981 413.414 78.2644 416.338 74.577 416.315C70.8896 416.291 67.7446 413.33 67.5525 409.7C67.4764 408.255 67.8811 406.921 68.6277 405.841L61.9598 395.292L61.2449 398.546C60.8954 400.137 59.28 401.072 57.6385 400.635C57.3721 400.564 57.1206 400.461 56.8885 400.331C55.6933 399.665 55.0067 398.295 55.2996 396.963L57.2898 387.905L51.7547 379.148L49.243 390.573C48.8934 392.165 47.2782 393.1 45.6365 392.662C45.3682 392.592 45.1175 392.489 44.8855 392.36C43.6902 391.693 43.0024 390.323 43.2957 388.99L47.3797 370.412Z" fill="white"/>
<path fill-rule="evenodd" clip-rule="evenodd" d="M28.2342 348.81C29.0769 348.815 29.8968 349.163 30.5057 349.769L39.5633 358.819C40.3084 359.563 40.64 360.608 40.4441 361.592L33.657 395.659C33.3916 396.994 32.2214 397.926 30.8211 397.917C30.2726 397.912 29.7431 397.765 29.2781 397.506C28.5581 397.105 27.9921 396.437 27.7449 395.623L17.3641 361.45C17.0635 360.463 17.2854 359.423 17.9529 358.687L26.0633 349.741C26.6068 349.142 27.3927 348.804 28.2342 348.81ZM23.6814 361.631L30.0066 382.45L34.1404 361.695L28.6228 356.18L23.6814 361.631Z" fill="white"/>
<path fill-rule="evenodd" clip-rule="evenodd" d="M-0.672073 338.951C0.0347519 338.252 1.07644 337.973 2.09355 338.21L14.4568 341.096C15.2839 341.289 16.0158 341.806 16.4754 342.527C16.9337 343.245 17.0799 344.102 16.8777 344.893L13.8689 356.68C13.6213 357.651 12.8824 358.404 11.9051 358.679L-21.9191 368.22C-22.7255 368.448 -23.5828 368.323 -24.3029 367.922C-24.7679 367.663 -25.1757 367.288 -25.4748 366.819C-26.2383 365.622 -26.1005 364.115 -25.1418 363.166L-0.672073 338.951ZM-12.2629 359.168L8.34355 353.356L10.1775 346.174L2.64531 344.416L-12.2629 359.168Z" fill="white"/>
<path fill-rule="evenodd" clip-rule="evenodd" d="M54.4061 336.968C55.3839 336.745 56.438 337.03 57.2049 337.729L83.7801 361.83C84.8212 362.774 85.1115 364.259 84.4842 365.428C83.8568 366.597 82.4729 367.15 81.1307 366.767L46.8641 356.998C46.6248 356.929 46.3965 356.834 46.1824 356.715C45.512 356.342 44.9856 355.737 44.7244 355.01L40.5486 343.377C40.2687 342.598 40.3241 341.755 40.701 341.053C41.0782 340.35 41.7435 339.849 42.5389 339.668L54.4061 336.968ZM47.2742 344.712L49.8182 351.799L70.6951 357.751L54.5037 343.068L47.2742 344.712Z" fill="white"/>
<path d="M-30.9006 319.905C-29.776 318.744 -27.8533 318.753 -26.6057 319.932L-12.0344 333.648C-11.4348 334.212 -11.0756 334.973 -11.0334 335.766C-10.9913 336.559 -11.2711 337.317 -11.8117 337.873L-25.2043 351.685C-26.1451 352.655 -27.6471 352.805 -28.843 352.138C-29.075 352.009 -29.2958 351.848 -29.4982 351.657C-30.7465 350.483 -30.8468 348.591 -29.7219 347.431L-21.4592 338.908L-32.3 338.805L-38.0031 344.688C-38.944 345.658 -40.4441 345.807 -41.6389 345.141C-41.8708 345.012 -42.0912 344.851 -42.2941 344.66C-43.5412 343.487 -43.6414 341.596 -42.5178 340.438L-40.8566 338.723L-52.6545 338.611C-53.4935 341.507 -56.4315 343.398 -59.7395 342.967C-63.4797 342.479 -66.2731 339.208 -65.9787 335.661C-65.6842 332.115 -62.4141 329.635 -58.674 330.122C-56.7784 330.369 -55.1268 331.332 -53.9963 332.683L-40.9621 332.807L-43.2336 330.668C-44.4804 329.495 -44.5799 327.604 -43.4563 326.446C-42.3334 325.286 -40.409 325.292 -39.1652 326.473L-32.3498 332.889L-21.2609 332.994L-30.677 324.131C-31.9246 322.957 -32.0255 321.064 -30.9006 319.905Z" fill="white"/>
<path d="M82.4891 317.548C83.6137 316.388 85.5387 316.397 86.784 317.575C88.0322 318.75 88.1324 320.642 87.0076 321.802L78.7439 330.323L89.5867 330.427L95.2889 324.545C96.4117 323.387 98.3338 323.393 99.5799 324.573C100.826 325.746 100.927 327.636 99.8035 328.795L98.1414 330.508L110.041 330.622C110.16 330.197 110.326 329.78 110.542 329.377C112.219 326.245 116.246 325.195 119.535 327.03C122.824 328.864 124.131 332.89 122.454 336.022C120.777 339.153 116.75 340.205 113.461 338.37C112.607 337.894 111.887 337.268 111.318 336.55L98.2469 336.426L100.518 338.565C101.765 339.738 101.866 341.629 100.742 342.787C99.8012 343.757 98.3009 343.907 97.1062 343.24C96.8743 343.111 96.6533 342.951 96.451 342.76L89.6355 336.344L78.5467 336.239L87.9627 345.102C89.2108 346.276 89.3102 348.169 88.1853 349.328C87.2435 350.299 85.7421 350.449 84.5457 349.781C84.3136 349.652 84.0929 349.492 83.8904 349.301L69.3201 335.587C68.7209 335.023 68.3603 334.261 68.3182 333.468C68.2761 332.675 68.5565 331.917 69.0965 331.361L82.4891 317.548Z" fill="white"/>
<path fill-rule="evenodd" clip-rule="evenodd" d="M28.0154 322.716C34.6804 322.761 40.3869 328.131 40.7322 334.692C41.0774 341.254 35.9361 346.559 29.2713 346.517C27.1198 346.503 25.0251 345.942 23.157 344.9C22.2202 344.377 21.3407 343.734 20.5389 342.979C18.1375 340.717 16.7225 337.721 16.5555 334.542C16.2091 327.981 21.349 322.675 28.0154 322.716ZM28.3299 328.675C25.0032 328.654 22.4367 331.303 22.6092 334.578C22.6928 336.164 23.3995 337.661 24.5984 338.79C25.7971 339.919 27.346 340.545 28.9568 340.556C32.2838 340.577 34.8492 337.928 34.6775 334.654C34.5609 332.457 33.2401 330.525 31.3797 329.487C30.4665 328.977 29.4246 328.683 28.3299 328.675Z" fill="white"/>
<path fill-rule="evenodd" clip-rule="evenodd" d="M-27.1994 303.804C-26.5724 302.636 -25.1883 302.083 -23.8459 302.465L10.4207 312.235C11.4132 312.517 12.2165 313.265 12.5603 314.223L16.7361 325.855C17.0161 326.634 16.9616 327.476 16.5848 328.178C16.208 328.88 15.5424 329.381 14.7469 329.563L2.87871 332.265C2.13852 332.434 1.35352 332.309 0.682419 331.936C0.468323 331.817 0.265709 331.673 0.0798798 331.504L-26.4943 307.403C-27.5355 306.459 -27.8268 304.973 -27.1994 303.804ZM2.78105 326.165L10.0115 324.52L7.46758 317.433L-13.4094 311.482L2.78105 326.165Z" fill="white"/>
<path fill-rule="evenodd" clip-rule="evenodd" d="M79.2059 301.012C80.5318 300.637 81.9979 301.215 82.7615 302.414C83.5243 303.61 83.3863 305.118 82.4275 306.067L57.9578 330.282C57.2509 330.982 56.2098 331.26 55.1922 331.023L42.8289 328.137C42.5319 328.067 42.2472 327.956 41.9832 327.809C41.5108 327.546 41.1052 327.167 40.8113 326.705C40.3527 325.986 40.2072 325.129 40.409 324.339L43.4168 312.552C43.6644 311.581 44.4042 310.828 45.3826 310.553L79.2059 301.012ZM48.9422 315.876L47.1092 323.058L54.6414 324.817L69.5496 310.064L48.9422 315.876Z" fill="white"/>
<path fill-rule="evenodd" clip-rule="evenodd" d="M26.4637 271.317C27.8628 271.325 29.1339 272.27 29.5408 273.611L39.9217 307.782C40.2211 308.77 40 309.81 39.3318 310.547L31.2215 319.492C30.678 320.092 29.8922 320.429 29.0506 320.424C28.511 320.421 27.979 320.277 27.5066 320.014C27.2426 319.867 26.9976 319.682 26.7791 319.465L17.7225 310.416C16.9761 309.671 16.6457 308.626 16.8416 307.643L23.6277 273.574C23.8932 272.24 25.0634 271.307 26.4637 271.317ZM23.1453 307.539L28.6629 313.052L33.6043 307.602L27.2801 286.782L23.1453 307.539Z" fill="white"/>
<path d="M-23.6047 258.076C-23.0004 254.571 -19.5213 252.367 -15.8342 253.153C-12.147 253.939 -9.64703 257.418 -10.2512 260.923C-10.4139 261.867 -10.7874 262.715 -11.3147 263.437L-4.67501 273.94L-3.95919 270.688C-3.60973 269.096 -1.99523 268.162 -0.353714 268.599C1.28726 269.03 2.33621 270.68 1.98613 272.271L-0.00508118 281.328L5.53105 290.085L8.04277 278.659C8.39226 277.068 10.0076 276.133 11.6492 276.571C13.2931 277.002 14.34 278.651 13.99 280.242L9.90703 298.82C9.73975 299.584 9.26463 300.233 8.58867 300.625C7.91203 301.017 7.08923 301.118 6.30058 300.908L-13.259 295.701C-13.5257 295.631 -13.7769 295.528 -14.009 295.399C-15.2045 294.732 -15.892 293.362 -15.5988 292.03C-15.2493 290.438 -13.6347 289.503 -11.9924 289.941L0.664841 293.31L-5.49239 283.571L-13.4582 281.449C-13.7271 281.38 -13.9781 281.276 -14.2102 281.147C-15.4054 280.48 -16.0932 279.111 -15.8 277.779C-15.4509 276.188 -13.8357 275.251 -12.1936 275.689L-10.1262 276.239L-16.5959 266.004C-17.0639 266 -17.5417 265.949 -18.0227 265.847C-21.7097 265.061 -24.2089 261.582 -23.6047 258.076Z" fill="white"/>
<path d="M67.2713 251.861C70.3683 250.066 74.5083 251.169 76.5184 254.323C78.5285 257.478 77.6457 261.491 74.5486 263.286C73.4861 263.902 72.3008 264.176 71.1209 264.144L64.9041 275.474L67.7791 274.723C69.3609 274.308 71.0603 275.256 71.573 276.838C72.0868 278.419 71.2202 280.037 69.6375 280.45L60.9246 282.727L55.7029 292.246L67.0603 289.278C68.6401 288.864 70.3378 289.81 70.8484 291.389C71.3611 292.968 70.4951 294.584 68.9148 294.996L50.4646 299.82C49.6748 300.027 48.8548 299.894 48.1697 299.512C47.4841 299.13 46.9322 298.498 46.6766 297.708L40.576 278.898C40.0633 277.319 40.9293 275.704 42.5096 275.291C44.0887 274.877 45.787 275.823 46.2977 277.403L50.1336 289.229L55.6658 279.143L53.1863 271.494C52.6731 269.912 53.5395 268.295 55.1219 267.882C56.7048 267.468 58.4034 268.416 58.9148 269.997L59.5721 272.024L65.5311 261.16C65.4521 261.051 65.375 260.939 65.3016 260.823C63.2923 257.669 64.1745 253.655 67.2713 251.861Z" fill="white"/>
</g>
<g opacity="0.1">
<path fill-rule="evenodd" clip-rule="evenodd" d="M1104.09 149.107C1105.53 148.711 1106.97 149.448 1107.32 150.752L1111.18 165.227L1115.9 157.728C1116.62 156.571 1118.16 156.113 1119.32 156.708C1120.48 157.302 1120.84 158.723 1120.11 159.88L1112.84 171.436L1116.85 186.45L1129.26 166.731C1129.98 165.576 1131.51 165.122 1132.67 165.716C1133.83 166.31 1134.19 167.726 1133.46 168.88L1118.51 192.653L1123.49 211.298C1126.22 211.009 1128.85 211.55 1131.05 212.745L1142.45 201.79L1143.59 172.455C1143.64 171.127 1144.82 169.993 1146.21 169.928C1147.61 169.859 1148.7 170.88 1148.65 172.208L1147.7 196.749L1158.47 186.4C1158.47 186.327 1158.46 186.252 1158.47 186.178L1159.04 171.471C1159.09 170.145 1160.26 169.01 1161.66 168.947C1163.05 168.878 1164.14 169.897 1164.09 171.223L1163.7 181.378L1176.37 169.2C1177.38 168.234 1178.95 168.162 1179.88 169.036C1180.82 169.91 1180.76 171.401 1179.76 172.366L1168.38 183.296L1177.01 182.874C1178.4 182.806 1179.49 183.825 1179.44 185.151C1179.39 186.26 1178.57 187.234 1177.48 187.561C1177.27 187.624 1177.04 187.663 1176.82 187.674L1163.13 188.345L1151.77 199.257L1175.67 198.088C1177.07 198.019 1178.16 199.041 1178.11 200.368C1178.06 201.48 1177.23 202.454 1176.14 202.782C1175.93 202.845 1175.71 202.885 1175.48 202.896L1146.51 204.314L1134.62 215.735C1135.56 216.939 1136.27 218.352 1136.67 219.936C1137.22 222.156 1137.08 224.432 1136.38 226.555L1153.55 230.147L1180.1 214.614C1181.33 213.889 1182.86 214.208 1183.52 215.324C1184.17 216.438 1183.7 217.928 1182.47 218.651L1160.37 231.575L1175.9 234.823L1187.83 227.842C1189.06 227.118 1190.6 227.436 1191.25 228.552C1191.9 229.667 1191.43 231.158 1190.2 231.88L1182.73 236.25L1196.96 239.229C1198.27 239.503 1199.01 240.757 1198.61 242.03C1198.34 242.883 1197.62 243.528 1196.79 243.778C1196.37 243.9 1195.93 243.928 1195.5 243.837L1179.89 240.571L1185 249.291C1185.66 250.406 1185.19 251.896 1183.95 252.618C1183.75 252.736 1183.54 252.825 1183.33 252.889C1182.24 253.216 1181.08 252.842 1180.53 251.908L1173.07 239.188C1173.06 239.172 1173.06 239.155 1173.05 239.139L1158.67 236.13L1170.24 255.879C1170.9 256.994 1170.43 258.484 1169.19 259.206C1168.99 259.323 1168.78 259.413 1168.57 259.477C1167.48 259.804 1166.32 259.429 1165.77 258.495L1151.82 234.698L1133.95 230.96C1132.73 232.458 1131.18 233.737 1129.38 234.67L1134.18 252.658L1159.51 265.607C1160.67 266.2 1161.03 267.618 1160.3 268.772C1159.94 269.349 1159.37 269.751 1158.75 269.935C1158.13 270.119 1157.46 270.084 1156.88 269.787L1135.89 259.058L1139.79 273.662L1152.23 280.018C1153.39 280.612 1153.74 282.032 1153.02 283.189C1152.29 284.346 1150.76 284.803 1149.59 284.208L1141.51 280.075L1145.59 295.344C1145.93 296.648 1145.05 298.026 1143.62 298.421C1142.19 298.816 1140.75 298.08 1140.4 296.776L1136.53 282.302L1131.82 289.8C1131.46 290.379 1130.89 290.782 1130.27 290.966C1129.65 291.151 1128.98 291.116 1128.4 290.819C1127.23 290.225 1126.88 288.805 1127.61 287.648L1134.87 276.092L1130.86 261.075L1118.46 280.796C1117.73 281.951 1116.2 282.406 1115.04 281.812C1113.88 281.218 1113.53 279.801 1114.26 278.647L1129.2 254.873L1124.22 236.228C1121.49 236.517 1118.87 235.977 1116.67 234.782L1105.26 245.735L1104.13 275.072C1104.08 276.184 1103.25 277.158 1102.16 277.486C1101.95 277.549 1101.73 277.589 1101.5 277.6C1100.11 277.668 1099.01 276.648 1099.07 275.32L1100.02 250.776L1089.25 261.125C1089.25 261.199 1089.25 261.274 1089.25 261.35L1088.68 276.058C1088.63 277.169 1087.8 278.142 1086.72 278.469C1086.51 278.533 1086.28 278.571 1086.06 278.582C1084.66 278.651 1083.57 277.632 1083.63 276.306L1084.02 266.147L1071.34 278.326C1071.01 278.644 1070.62 278.865 1070.21 278.988C1069.37 279.237 1068.46 279.077 1067.83 278.491C1066.9 277.618 1066.95 276.127 1067.96 275.162L1079.33 264.231L1070.71 264.654C1069.32 264.722 1068.23 263.703 1068.28 262.377C1068.33 261.051 1069.5 259.917 1070.9 259.853L1084.59 259.182L1095.95 248.269L1072.05 249.439C1070.65 249.507 1069.56 248.486 1069.61 247.158C1069.66 245.831 1070.83 244.697 1072.23 244.631L1101.21 243.212L1113.1 231.791C1112.15 230.587 1111.44 229.175 1111.05 227.591C1110.5 225.37 1110.64 223.094 1111.33 220.971L1094.17 217.38L1067.62 232.913C1067.42 233.032 1067.21 233.122 1067 233.186C1065.91 233.513 1064.75 233.138 1064.2 232.204C1063.54 231.089 1064.02 229.6 1065.25 228.877L1087.34 215.951L1071.82 212.703L1059.89 219.684C1059.69 219.803 1059.48 219.893 1059.26 219.956C1058.18 220.284 1057.01 219.909 1056.46 218.975C1055.81 217.86 1056.28 216.369 1057.52 215.647L1064.99 211.276L1050.76 208.299C1049.45 208.024 1048.71 206.771 1049.11 205.498C1049.51 204.226 1050.9 203.416 1052.21 203.691L1067.82 206.956L1062.71 198.237C1062.06 197.121 1062.53 195.631 1063.76 194.908C1065 194.183 1066.53 194.504 1067.18 195.619L1074.64 208.339C1074.65 208.355 1074.66 208.372 1074.67 208.388L1089.05 211.397L1077.47 191.649C1076.82 190.534 1077.29 189.044 1078.52 188.322C1079.76 187.597 1081.29 187.916 1081.94 189.032L1095.9 212.829L1113.76 216.567C1114.99 215.069 1116.54 213.79 1118.34 212.857L1113.53 194.867L1088.2 181.921C1087.04 181.328 1086.69 179.911 1087.42 178.756C1088.14 177.602 1089.67 177.147 1090.83 177.741L1111.82 188.469L1107.92 173.864L1095.49 167.51C1094.33 166.916 1093.97 165.496 1094.7 164.339C1095.43 163.182 1096.96 162.725 1098.12 163.32L1106.21 167.451L1102.13 152.184C1101.78 150.88 1102.66 149.502 1104.09 149.107ZM1127.78 216.696C1126.08 215.941 1124.05 215.78 1122.03 216.386C1117.66 217.69 1114.94 222.06 1115.94 226.128C1116.17 227.018 1116.55 227.821 1117.05 228.519C1117.85 228.328 1118.7 228.502 1119.29 229.055C1119.79 229.527 1120.01 230.178 1119.94 230.83C1121.63 231.585 1123.66 231.748 1125.69 231.142C1130.05 229.838 1132.78 225.467 1131.77 221.399C1131.55 220.509 1131.17 219.706 1130.66 219.008C1129.87 219.199 1129.02 219.026 1128.43 218.474C1127.92 218.001 1127.71 217.348 1127.78 216.696Z" fill="white"/>
<path d="M1116.75 243.646C1117.41 242.993 1118.37 242.703 1119.24 242.889C1120.12 243.073 1120.78 243.701 1120.98 244.534L1122.44 250.825C1122.58 251.45 1122.45 252.127 1122.07 252.7L1114.73 263.704C1114.36 264.259 1113.8 264.657 1113.18 264.842C1112.75 264.972 1112.29 264.998 1111.84 264.901C1110.76 264.665 1110.04 263.762 1110.07 262.687L1110.43 250.777C1110.45 250.137 1110.74 249.508 1111.23 249.03L1116.75 243.646Z" fill="white"/>
<path d="M1137.83 238.295C1138.51 237.648 1139.47 237.367 1140.34 237.561L1146.96 239.023C1147.62 239.168 1148.16 239.567 1148.46 240.126L1154.32 250.866C1154.83 251.788 1154.59 252.969 1153.75 253.762C1153.42 254.076 1153.02 254.299 1152.61 254.424C1151.97 254.615 1151.28 254.577 1150.7 254.285L1139.98 248.929C1139.41 248.642 1139 248.139 1138.84 247.53L1137.08 240.683C1136.87 239.854 1137.16 238.942 1137.83 238.295Z" fill="white"/>
<path d="M1094.27 225.792C1094.84 225.453 1095.52 225.33 1096.15 225.458L1103.23 226.888C1104.09 227.061 1104.74 227.666 1104.94 228.473C1105.14 229.279 1104.85 230.162 1104.19 230.782L1099.2 235.459C1098.88 235.755 1098.5 235.973 1098.09 236.094C1097.86 236.163 1097.62 236.201 1097.37 236.205L1084.54 236.442C1083.44 236.462 1082.52 235.788 1082.28 234.789C1082.04 233.791 1082.55 232.708 1083.52 232.135L1094.27 225.792Z" fill="white"/>
<path d="M1163.17 211.087C1164.28 211.067 1165.2 211.74 1165.44 212.74C1165.67 213.739 1165.17 214.82 1164.2 215.393L1153.45 221.737C1153.25 221.853 1153.04 221.944 1152.82 222.008C1152.41 222.131 1151.98 222.154 1151.56 222.07L1144.49 220.641C1143.63 220.468 1142.98 219.861 1142.78 219.055C1142.58 218.249 1142.86 217.366 1143.52 216.746L1148.52 212.069C1149.02 211.604 1149.67 211.336 1150.34 211.324L1163.17 211.087Z" fill="white"/>
<path d="M1093.96 193.766C1094.8 192.973 1096.05 192.759 1097.01 193.242L1107.73 198.599C1108.31 198.886 1108.72 199.39 1108.87 199.998L1110.63 206.844C1110.84 207.673 1110.56 208.586 1109.88 209.233C1109.55 209.552 1109.15 209.782 1108.72 209.909C1108.28 210.041 1107.81 210.065 1107.37 209.967L1100.76 208.505C1100.1 208.36 1099.56 207.962 1099.25 207.402L1093.39 196.662C1092.89 195.741 1093.12 194.559 1093.96 193.766Z" fill="white"/>
<path d="M1132.98 183.824C1133.61 182.88 1134.79 182.392 1135.87 182.628C1136.95 182.865 1137.67 183.767 1137.64 184.842L1137.28 196.751C1137.26 197.39 1136.97 198.019 1136.48 198.498L1130.97 203.883C1130.63 204.211 1130.23 204.447 1129.79 204.577C1129.36 204.706 1128.91 204.732 1128.47 204.64C1127.59 204.455 1126.93 203.827 1126.74 202.994L1125.28 196.703C1125.13 196.079 1125.26 195.402 1125.65 194.828L1132.98 183.824Z" fill="white"/>
</g>
</g>
<defs>
<clipPath id="clip0_194_31963">
<rect width="1139" height="382" fill="white"/>
</clipPath>
</defs>
</svg>
