<svg width="475" height="49" viewBox="0 0 475 49" fill="none" xmlns="http://www.w3.org/2000/svg">
<path d="M442.027 13.6114H443.507C454.159 13.6706 464.22 16.886 464.22 29.7676C464.22 42.6491 443.211 47.4822 432.479 47.5414L425.2 45.9632V2.84059L432.479 1.26245L442.027 13.6114ZM441.849 26.4338V32.9633H443.881C446.663 32.9633 447.945 31.7205 447.945 29.6887C447.945 27.6568 446.663 26.4732 443.881 26.414H441.849V26.4338Z" fill="#760509"/>
<path d="M335.63 29.8312L333.08 18.9685L330.608 29.8312L312.17 47.4784L307.362 46.0081V44.3474L323.723 2.30323L329.685 0.858887L358.875 44.3474L348.83 47.4784L341.691 46.0081L335.61 29.8312H335.63Z" fill="#760509"/>
<path d="M393.598 29.8465L391.053 18.9376L388.568 29.8465L370.932 47.5611L365.33 46.1013V44.4245L381.683 2.22907L388.39 0.769287L416.836 44.4443L407.564 47.5808L399.654 46.121L393.578 29.8859L393.598 29.8465Z" fill="#760509"/>
<path d="M285.187 28.9785L262.817 47.5414L258.013 46.1802V2.54469L262.817 1.26245L275.777 10.5143L274.712 19.6872L286.686 2.54469L292.308 1.26245L289.329 47.5414L283.865 46.1802V38.6446L285.167 28.9785H285.187Z" fill="#760509"/>
<path d="M214.723 1.26245C221.253 1.26245 251.494 7.93009 251.297 14.4794C251.237 17.9907 249.344 21.2654 245.891 22.4687C251.099 24.4808 253.881 27.8738 253.565 33.6537C253.249 41.1894 222.456 47.5611 214.723 47.5611L211.961 46.4169V2.4066L214.723 1.26245ZM229.104 18.7403H232.319C235.278 18.7403 235.456 14.1637 232.319 14.1637H229.104V18.7403ZM229.104 34.3442H233.385C235.574 34.3442 236.521 32.9633 236.521 31.5824C236.521 30.2016 235.634 28.8207 233.385 28.8207H229.104V34.3442Z" fill="#760509"/>
<path d="M189.484 13.4536H190.983C201.813 13.5127 212.012 16.7677 212.012 29.8465C212.012 42.9253 199.485 47.4033 188.596 47.4624C181.534 47.4624 179.462 46.2986 172.4 46.2986L184.256 1.26245L189.484 2.50524V13.4536ZM189.286 26.4732V33.1014H191.358C194.179 33.1014 195.481 31.8389 195.481 29.7873C195.481 27.7357 194.179 26.5324 191.358 26.4732H189.286Z" fill="#760509"/>
<path d="M166.206 21.5613H148.945C146.637 13.8284 135.196 14.7556 135.196 24.4808C135.255 34.2653 146.894 35.0544 149.004 27.1242H166.206C163.504 56.4184 117.402 55.8266 117.284 24.4808C117.422 -6.92412 163.227 -7.77237 166.206 21.5613Z" fill="#760509"/>
<path d="M112.796 24.915C112.658 56.8723 62.789 57.1879 62.6509 24.915C62.789 -7.49604 112.658 -7.43685 112.796 24.915ZM94.7266 24.8361C94.6674 14.0456 80.5628 14.0456 80.5036 24.8361C80.5628 35.5477 94.6674 35.4885 94.7266 24.8361Z" fill="#760509"/>
<path d="M37.8751 29.8666L35.3304 18.9183L32.8448 29.8666L26.7492 46.1609L18.3259 47.5418L9.52782 44.4841L37.4806 0.730225L47.8371 2.1111L64.2695 44.4841V46.1609L54.9387 47.5418L37.8751 29.8666Z" fill="#760509"/>
<path d="M36.9089 47.1467L30.5174 30.0831L27.44 16.8267L24.4021 30.1423L18.0501 47.1467H0.394712V45.7659L17.7345 1.12427H37.2245L54.584 45.9039L54.5643 47.1467H36.9089Z" fill="url(#paint0_linear_77_8058)"/>
<path d="M36.9481 1.51905L54.1498 45.9042V46.7524H37.1651L30.892 29.9847L28.1894 18.4051L27.4201 15.0713L26.6507 18.4051L24.0073 29.9847L17.7342 46.7524H0.788998V45.9042L17.9907 1.51905H36.9481ZM37.4807 0.72998H17.4581L-7.05719e-05 45.7661V47.5612H18.3063L24.7767 30.2412L27.4201 18.6024L30.1226 30.2412L36.593 47.5612H54.8994V45.7661L37.4807 0.72998Z" fill="#FFF7AE"/>
<path d="M82.1011 47.956C70.3243 47.956 57.6005 40.5387 57.5413 24.2839C57.6005 7.87126 70.3637 0.414551 82.18 0.414551C93.9963 0.414551 106.799 7.89098 106.858 24.3036C106.799 40.5782 93.9766 47.9757 82.1011 47.9757V47.956ZM82.1011 15.7422C78.5108 15.7422 74.6444 18.3856 74.6049 24.2247C74.6444 30.0046 78.5108 32.6283 82.0814 32.6283C85.6716 32.6283 89.5578 30.0046 89.5973 24.2247C89.5578 18.4053 85.6914 15.7422 82.1011 15.7422Z" fill="url(#paint1_linear_77_8058)"/>
<path d="M82.1803 0V0.789069C93.8388 0.789069 106.405 8.14714 106.464 24.2639C106.424 31.4444 103.801 37.4808 98.8297 41.7023C94.4109 45.4701 88.4534 47.5414 82.1014 47.5414C70.5021 47.5414 57.9954 40.2623 57.9362 24.2639C57.9954 8.12741 70.5613 0.769343 82.1803 0.769343V0ZM82.0817 33.0028C85.9876 33.0028 89.9527 29.9846 89.9921 24.2047C89.9527 18.3853 85.9876 15.3277 82.1014 15.3277C78.2153 15.3277 74.2502 18.3656 74.2107 24.2047C74.2502 30.2411 78.3139 33.0028 82.0817 33.0028ZM82.1803 0C69.6933 0 57.2063 8.08796 57.1471 24.2836C57.2063 40.3806 69.6341 48.3502 82.1014 48.3502C94.5687 48.3502 107.194 40.282 107.253 24.2836C107.194 8.08796 94.6871 0 82.1803 0ZM82.0817 32.2138C78.5506 32.2138 75.0195 29.5506 74.9998 24.2047C75.0393 18.8193 78.5704 16.1167 82.1014 16.1167C85.6325 16.1167 89.1833 18.8193 89.203 24.2047C89.1636 29.5309 85.6128 32.2138 82.0817 32.2138Z" fill="#FFF7AE"/>
<path d="M136.438 48.1527C124.898 48.1527 112.45 40.7355 112.391 24.4807C112.45 8.08776 124.937 0.611328 136.497 0.611328C147.288 0.611328 158.828 6.96333 160.485 21.1666H143.954C142.889 18.0103 140.186 15.9982 136.97 15.9982C133.38 15.9982 129.514 18.6416 129.514 24.4807C129.553 30.2606 133.42 32.904 136.97 32.904C140.285 32.904 143.027 30.7932 144.013 27.5186H160.465C158.926 41.7021 146.972 48.1527 136.418 48.1527H136.438Z" fill="url(#paint2_linear_77_8058)"/>
<path d="M136.478 0.216797V1.00587C150.937 1.00587 158.631 10.7903 160.012 20.7721H144.211C143.027 17.6158 140.246 15.6036 136.951 15.6036C134.88 15.6036 132.966 16.4124 131.546 17.8525C129.948 19.4701 129.12 21.7584 129.12 24.4807C129.159 30.5368 133.223 33.2985 136.971 33.2985C140.364 33.2985 143.185 31.2075 144.309 27.9131H160.031C158.315 41.5443 146.716 47.7582 136.438 47.7582C125.095 47.7582 112.845 40.4791 112.786 24.4807C112.845 8.34421 125.115 1.00587 136.498 1.00587V0.216797M136.478 0.216797C124.247 0.216797 112.056 8.28503 111.977 24.4807C112.036 40.5777 124.227 48.5473 136.419 48.5473C147.978 48.5473 159.578 41.3668 160.899 27.1241H143.698C142.751 30.7143 139.851 32.5095 136.951 32.5095C133.44 32.5095 129.909 29.8463 129.889 24.4807C129.889 19.0756 133.42 16.3927 136.951 16.3927C139.792 16.3927 142.613 18.1287 143.658 21.5611H160.919C159.459 7.33815 147.959 0.216797 136.478 0.216797Z" fill="#FFF7AE"/>
<path d="M166.601 47.1468V1.65698H183.862V13.2168H185.854C200.531 13.3155 207.672 18.839 207.672 30.1424C207.672 41.4458 200.531 47.0482 185.854 47.1271H166.621L166.601 47.1468ZM183.665 33.9891H186.249C190.392 33.9891 191.003 31.543 191.003 30.0832C191.003 27.5582 189.405 26.2562 186.249 26.1773H183.665V33.9694V33.9891Z" fill="url(#paint3_linear_77_8058)"/>
<path d="M183.467 2.05152V13.6114H185.834C200.254 13.6903 207.257 19.1151 207.257 30.1424C207.257 41.1696 200.254 46.6537 185.834 46.7326H166.995V2.05152H183.467ZM183.27 34.3836H186.248C189.523 34.3836 191.397 32.8252 191.397 30.0832C191.397 28.1697 190.509 25.8814 186.248 25.7828H183.27V34.3639M184.256 1.26245H166.206V47.5414H185.834C197.335 47.4822 208.046 43.9708 208.046 30.1621C208.046 16.3534 197.275 12.9012 185.834 12.842H184.236V1.26245H184.256ZM184.059 33.5946V26.5916H186.248C189.227 26.6508 190.608 27.8541 190.608 30.1029C190.608 32.3518 189.227 33.6143 186.248 33.6143H184.059V33.5946Z" fill="#FFF7AE"/>
<path d="M215.117 47.1468V1.65698H243.938C247.094 1.65698 250.073 2.91949 252.302 5.22752C254.551 7.55528 255.794 10.7313 255.695 13.9467C255.616 17.7737 253.545 20.8511 250.27 21.9755L249.245 22.3306L250.251 22.7251C255.893 24.8951 258.358 28.5051 258.063 34.1075C257.747 41.7812 251.868 47.1468 243.78 47.1468H215.078H215.117ZM232.378 35.2516H237.271C239.835 35.2516 240.979 33.5946 240.979 31.9572C240.979 30.4383 240.013 28.6432 237.271 28.6432H232.378V35.2516ZM232.378 18.8587H236.146C237.981 18.8587 238.947 17.4186 238.947 15.9983C238.947 15.2684 238.711 14.5977 238.257 14.1046C237.744 13.5325 237.014 13.2366 236.146 13.2366H232.378V18.8587Z" fill="url(#paint4_linear_77_8058)"/>
<path d="M243.939 2.05152C246.996 2.05152 249.876 3.27458 252.027 5.5037C254.197 7.75255 255.4 10.8299 255.321 13.9467C255.262 17.5962 253.289 20.5355 250.172 21.6204L248.121 22.3306L250.133 23.0999C255.577 25.2107 257.984 28.7023 257.688 34.1075C257.373 41.5642 251.672 46.772 243.801 46.772H215.493V2.05152H243.919M231.984 19.2532H236.147C238.218 19.2532 239.342 17.5765 239.342 15.9983C239.342 15.1698 239.066 14.4202 238.553 13.8481C238.139 13.3944 237.389 12.8618 236.147 12.8618H231.984V19.273M231.984 35.6461H237.271C240.092 35.6461 241.374 33.7918 241.374 31.9572C241.374 30.241 240.309 28.2486 237.271 28.2486H231.984V35.6461ZM243.939 1.26245H214.723V47.5414H243.82C251.948 47.5414 258.162 42.0573 258.497 34.1272C258.832 28.0514 255.913 24.4808 250.429 22.3503C254.059 21.0878 256.051 17.6554 256.11 13.9467C256.307 7.08184 250.823 1.26245 243.939 1.26245ZM232.773 18.4642V13.6311H236.147C239.461 13.6311 239.244 18.4642 236.147 18.4642H232.773ZM232.773 34.8571V29.0377H237.271C239.658 29.0377 240.585 30.4975 240.585 31.9572C240.585 33.417 239.599 34.8571 237.271 34.8571H232.773Z" fill="#FFF7AE"/>
<path d="M289.744 47.1468V39.552L291.342 27.7357L277.691 47.1468H263.231V1.65698H280.354V9.72521L279.052 20.9497L292.525 1.65698H307.005V47.1468H289.744Z" fill="url(#paint5_linear_77_8058)"/>
<path d="M306.609 2.05152V46.7523H290.138V39.5915L291.518 29.3928L291.952 26.1773L290.098 28.8207L277.512 46.7326H263.645V2.05152H279.978V9.62658L278.854 19.3519L278.499 22.449L280.294 19.8845L292.761 2.05152H306.629M307.398 1.26245H292.327L279.643 19.4505L280.767 9.72522V1.26245H262.855V47.5414H277.927L290.749 29.2941L289.368 39.552V47.5611H307.418V1.26245H307.398Z" fill="#FFF7AE"/>
<path d="M349.055 47.1467L342.664 30.0831L339.587 16.8267L336.568 30.1423L330.197 47.1467H312.541V45.7659L329.881 1.12427H349.371L366.73 45.9039L366.711 47.1467H349.055Z" fill="url(#paint6_linear_77_8058)"/>
<path d="M349.094 1.51905L366.296 45.9042V46.7524H349.311L343.038 29.9847L340.336 18.4051L339.566 15.0713L338.797 18.4051L336.154 29.9847L329.88 46.7524H312.896V45.9042L330.157 1.51905H349.114M349.647 0.72998H329.624L312.166 45.7464V47.5415H330.472L336.943 30.2214L339.586 18.5827L342.289 30.2214L348.759 47.5415H367.065V45.7464L349.647 0.72998Z" fill="#FFF7AE"/>
<path d="M407.841 47.1467L401.469 30.0831L398.372 16.8267L395.354 30.1423L388.982 47.1467H371.346V45.7659L388.666 1.12427H408.156L425.516 45.9039L425.496 47.1467H407.841Z" fill="url(#paint7_linear_77_8058)"/>
<path d="M407.9 1.51905L425.101 45.9042V46.7524H408.117L401.844 29.9847L399.141 18.4051L398.372 15.0713L397.602 18.4051L394.959 29.9847L388.686 46.7524H371.701V45.9042L388.942 1.51905H407.9ZM408.432 0.72998H388.41L370.952 45.7464V47.5415H389.258L395.728 30.2214L398.372 18.5827L401.074 30.2214L407.545 47.5415H425.851V45.7464L408.432 0.72998Z" fill="#FFF7AE"/>
<path d="M432.874 47.1468V1.65698H450.135V13.2168H452.127C466.804 13.3155 473.945 18.839 473.945 30.1424C473.945 41.4458 466.804 47.0482 452.127 47.1271H432.894L432.874 47.1468ZM449.938 33.9891H452.522C456.665 33.9891 457.276 31.543 457.276 30.0832C457.276 27.5582 455.678 26.2562 452.522 26.1773H449.938V33.9694V33.9891Z" fill="url(#paint8_linear_77_8058)"/>
<path d="M449.741 2.05152V13.6114H452.108C466.528 13.6903 473.531 19.1151 473.531 30.1424C473.531 41.1696 466.528 46.6537 452.108 46.7326H433.269V2.05152H449.741ZM449.543 34.3836H452.522C455.797 34.3836 457.671 32.8252 457.671 30.0832C457.671 28.1697 456.783 25.8814 452.522 25.7828H449.543V34.3639M450.53 1.26245H432.48V47.5414H452.108C463.608 47.4822 474.32 43.9708 474.32 30.1621C474.32 16.3534 463.549 12.9012 452.108 12.842H450.51V1.26245H450.53ZM450.332 33.5946V26.5916H452.522C455.501 26.6508 456.882 27.8541 456.882 30.1029C456.882 32.3518 455.501 33.6143 452.522 33.6143H450.332V33.5946Z" fill="#FFF7AE"/>
<defs>
<linearGradient id="paint0_linear_77_8058" x1="27.4894" y1="1.12427" x2="27.4894" y2="47.1467" gradientUnits="userSpaceOnUse">
<stop stop-color="#FF5C2A"/>
<stop offset="0.519231" stop-color="#FB0A00"/>
<stop offset="0.519331" stop-color="#EB0900"/>
<stop offset="1" stop-color="#BA0700"/>
</linearGradient>
<linearGradient id="paint1_linear_77_8058" x1="82.1997" y1="0.414551" x2="82.1997" y2="47.9757" gradientUnits="userSpaceOnUse">
<stop stop-color="#FF5C2A"/>
<stop offset="0.519231" stop-color="#FB0A00"/>
<stop offset="0.519331" stop-color="#EB0900"/>
<stop offset="1" stop-color="#BA0700"/>
</linearGradient>
<linearGradient id="paint2_linear_77_8058" x1="136.438" y1="0.611328" x2="136.438" y2="48.1527" gradientUnits="userSpaceOnUse">
<stop stop-color="#FF5C2A"/>
<stop offset="0.519231" stop-color="#FB0A00"/>
<stop offset="0.519331" stop-color="#EB0900"/>
<stop offset="1" stop-color="#BA0700"/>
</linearGradient>
<linearGradient id="paint3_linear_77_8058" x1="187.137" y1="1.65698" x2="187.137" y2="47.1468" gradientUnits="userSpaceOnUse">
<stop stop-color="#FF5C2A"/>
<stop offset="0.519231" stop-color="#FB0A00"/>
<stop offset="0.519331" stop-color="#EB0900"/>
<stop offset="1" stop-color="#BA0700"/>
</linearGradient>
<linearGradient id="paint4_linear_77_8058" x1="236.582" y1="1.65698" x2="236.582" y2="47.1468" gradientUnits="userSpaceOnUse">
<stop stop-color="#FF5C2A"/>
<stop offset="0.519231" stop-color="#FB0A00"/>
<stop offset="0.519331" stop-color="#EB0900"/>
<stop offset="1" stop-color="#BA0700"/>
</linearGradient>
<linearGradient id="paint5_linear_77_8058" x1="285.118" y1="1.65698" x2="285.118" y2="47.1468" gradientUnits="userSpaceOnUse">
<stop stop-color="#FF5C2A"/>
<stop offset="0.519231" stop-color="#FB0A00"/>
<stop offset="0.519331" stop-color="#EB0900"/>
<stop offset="1" stop-color="#BA0700"/>
</linearGradient>
<linearGradient id="paint6_linear_77_8058" x1="339.636" y1="1.12427" x2="339.636" y2="47.1467" gradientUnits="userSpaceOnUse">
<stop stop-color="#FF5C2A"/>
<stop offset="0.519231" stop-color="#FB0A00"/>
<stop offset="0.519331" stop-color="#EB0900"/>
<stop offset="1" stop-color="#BA0700"/>
</linearGradient>
<linearGradient id="paint7_linear_77_8058" x1="398.431" y1="1.12427" x2="398.431" y2="47.1467" gradientUnits="userSpaceOnUse">
<stop stop-color="#FF5C2A"/>
<stop offset="0.519231" stop-color="#FB0A00"/>
<stop offset="0.519331" stop-color="#EB0900"/>
<stop offset="1" stop-color="#BA0700"/>
</linearGradient>
<linearGradient id="paint8_linear_77_8058" x1="453.41" y1="1.65698" x2="453.41" y2="47.1468" gradientUnits="userSpaceOnUse">
<stop stop-color="#FF5C2A"/>
<stop offset="0.519231" stop-color="#FB0A00"/>
<stop offset="0.519331" stop-color="#EB0900"/>
<stop offset="1" stop-color="#BA0700"/>
</linearGradient>
</defs>
</svg>
