<svg width="607" height="116" viewBox="0 0 607 116" fill="none" xmlns="http://www.w3.org/2000/svg">
<path d="M591.951 59.0201C591.951 82.6916 578.767 102.592 554.505 100.173C527.768 97.5136 516.951 82.6698 516.951 59.0201C516.951 35.3703 527.768 20.7228 554.505 18.5431C581.243 16.3634 591.951 35.3703 591.951 59.0201ZM562.433 59.5868C562.433 54.2029 561.434 42.4326 554.505 42.4326C547.577 42.4326 546.469 54.2029 546.469 59.5868C546.469 64.9707 547.816 76.5231 554.505 76.5231C561.195 76.5231 562.433 64.7527 562.433 59.5868Z" fill="#760509"/>
<path d="M139.896 18.528C166.99 20.7082 177.951 35.3591 177.951 59.0141C177.951 82.6692 166.99 97.5381 139.896 100.176C115.333 102.574 101.951 82.6692 101.951 59.0141C101.951 35.3591 114.057 16.4568 139.896 18.528ZM139.896 76.5429C146.697 76.5429 148.04 64.7698 148.04 59.6028C148.04 54.2177 147.027 42.4447 139.896 42.4447C132.765 42.4447 131.863 54.2177 131.863 59.6028C131.863 64.9879 133.227 76.5429 139.896 76.5429Z" fill="#760509"/>
<path d="M224.397 18.528C251.134 20.7082 261.951 35.3591 261.951 59.0141C261.951 82.6692 251.134 97.5381 224.397 100.176C200.157 102.574 186.951 82.6692 186.951 59.0141C186.951 35.3591 198.897 16.4568 224.397 18.528ZM224.397 76.5429C231.108 76.5429 232.433 64.7698 232.433 59.6028C232.433 54.2177 231.434 42.4447 224.397 42.4447C217.36 42.4447 216.469 54.2177 216.469 59.6028C216.469 64.9879 217.816 76.5429 224.397 76.5429Z" fill="#760509"/>
<path d="M302.898 19.5261C329.279 21.6797 339.951 36.1519 339.951 59.5185C339.951 82.8851 329.279 97.5727 302.898 100.179C278.981 102.548 265.951 82.8851 265.951 59.5185C265.951 36.1519 277.738 17.4802 302.898 19.5261ZM302.898 76.8335C309.52 76.8335 310.827 65.204 310.827 60.1C310.827 54.7806 309.841 43.1511 302.898 43.1511C295.954 43.1511 295.075 54.7806 295.075 60.1C295.075 65.4194 296.404 76.8335 302.898 76.8335Z" fill="#760509"/>
<path d="M506.951 59.2755C506.951 83.3127 493.516 103.521 468.793 101.064C441.546 98.3636 430.523 83.2905 430.523 59.2755C430.523 35.2604 441.568 20.3865 468.793 18.1731C496.017 15.9598 506.951 35.2604 506.951 59.2755ZM476.894 59.8509C476.894 54.3839 475.875 42.4317 468.815 42.4317C461.754 42.4317 460.625 54.3839 460.625 59.8509C460.625 65.318 461.998 77.0488 468.815 77.0488C475.632 77.0488 476.894 65.0966 476.894 59.8509Z" fill="#760509"/>
<path d="M423.951 59.0201C423.951 82.6916 410.591 102.592 386.006 100.173C358.912 97.5136 347.951 82.6698 347.951 59.0201C347.951 35.3703 358.912 20.7228 386.006 18.5431C413.1 16.3634 423.951 35.3703 423.951 59.0201ZM394.04 59.5868C394.04 54.2029 393.027 42.4326 386.006 42.4326C378.985 42.4326 377.863 54.2029 377.863 59.5868C377.863 64.9707 379.227 76.5231 386.006 76.5231C392.785 76.5231 394.04 64.7527 394.04 59.5868Z" fill="#760509"/>
<path d="M49.2474 72.9955C49.5844 75.4216 50.8199 77.3759 53.2909 77.3759C55.5372 77.4882 57.7836 76.0955 58.0082 72.7484C58.7945 59.7195 36.8026 67.3347 30.9621 69.626L21.9767 65.1333V19.8018H64.6575L79.2139 24.4293V44.7813L51.6061 46.2414C68.5437 43.0066 83.7066 46.3762 83.8189 68.076C83.8189 89.4164 56.4807 102.782 38.2852 102.782C20.0897 102.782 23.7513 96.425 21.1904 76.9266L49.2474 72.9955Z" fill="#760509"/>
<path d="M34.9386 101.636C14.2721 101.636 3.44463 93.7065 0.951172 76.6791L28.8509 72.8827C29.3901 75.6458 31.0524 77.2182 33.4335 77.2182H33.7031C35.882 77.2182 38.5327 75.8929 38.8023 72.119C38.9371 69.8052 38.3755 67.9632 37.14 66.6379C35.59 64.9756 32.9842 64.1444 29.3676 64.1444C22.314 64.1444 13.3511 67.3118 10.4533 68.4125L1.69247 64.1444V19.5542H64.2535V42.0178H31.1872V48.4424L31.7937 48.33C34.5118 47.8134 37.2748 47.5663 39.9929 47.5663C53.7855 47.5663 68.5441 54.2604 68.6564 73.0175C68.6564 97.9072 47.5406 101.636 34.961 101.636H34.9386Z" fill="url(#paint0_linear_385_7519)"/>
<path d="M64.7842 19.0239V42.5483H31.7178V47.8042C34.4624 47.2841 37.251 47.0356 39.9932 47.0356C46.9643 47.0357 54.2245 48.7259 59.7705 52.8315C65.3391 56.954 69.1303 63.477 69.1875 73.0142V73.0171C69.1875 85.6462 63.8121 92.977 56.7959 97.1177C49.8233 101.233 41.2858 102.167 34.9609 102.167H34.9385C24.5475 102.166 16.5453 100.175 10.8164 95.9712C5.07221 91.7559 1.6875 85.372 0.425781 76.7563L0.348633 76.2251L29.2764 72.2896L29.3721 72.7808C29.6262 74.0829 30.1355 75.0565 30.8164 75.7007C31.4908 76.3387 32.3678 76.687 33.4336 76.687H33.7031C34.6919 76.687 35.7727 76.3858 36.6299 75.6753C37.4756 74.9742 38.1468 73.8395 38.2725 72.0815C38.3998 69.8741 37.8622 68.1905 36.752 66.9995C35.3489 65.4949 32.9226 64.6753 29.3672 64.6753C22.4227 64.6754 13.5438 67.8063 10.6416 68.9087L10.4268 68.9897L1.45996 64.6216L1.16211 64.4761V19.0239H64.7842ZM2.22363 63.813L10.4824 67.8354C13.5886 66.6677 22.3753 63.6139 29.3672 63.6138C33.045 63.6138 35.8314 64.456 37.5283 66.2759C38.888 67.7344 39.4728 69.7331 39.332 72.1499V72.1567C39.1881 74.1725 38.3994 75.5876 37.3076 76.4927C36.2273 77.3882 34.8932 77.7485 33.7031 77.7485H33.4336C32.1183 77.7485 30.9737 77.3111 30.0869 76.4722C29.3071 75.7345 28.7537 74.7132 28.4395 73.4741L1.55762 77.1313C2.84791 85.2699 6.10006 91.1929 11.4443 95.1147C16.9191 99.1322 24.6634 101.105 34.9385 101.105H34.9609C41.2155 101.105 49.5257 100.175 56.2559 96.2036C62.9419 92.2578 68.125 85.2794 68.126 73.021L68.1104 72.1655C67.8415 63.4156 64.2604 57.4757 59.1387 53.6841C53.8293 49.7538 46.8143 48.0972 39.9932 48.0972C37.3069 48.0972 34.5766 48.3409 31.8926 48.8511L31.8906 48.8521L30.6562 49.0806V41.4868H63.7227V20.0845H2.22363V63.813Z" fill="#FFF7AE"/>
<path d="M128.119 101.188C104.487 101.188 89.7959 85.1261 89.7959 59.2705C89.7959 33.4149 103.746 18.0498 128.119 18.0498C152.492 18.0498 166.329 33.0779 166.329 59.2705C166.329 85.463 151.683 101.188 128.119 101.188ZM128.119 41.659C119.92 41.659 119.291 55.5864 119.291 59.8545C119.291 66.5262 121.155 77.8029 128.119 77.8029C135.082 77.8029 136.835 66.5262 136.835 59.8545C136.835 55.5864 136.206 41.659 128.119 41.659Z" fill="url(#paint1_linear_385_7519)"/>
<path d="M165.799 59.2705C165.799 46.2632 162.363 36.1027 155.975 29.1982C149.591 22.2998 140.194 18.5802 128.119 18.5801C116.048 18.5801 106.62 22.382 100.207 29.3242C93.7885 36.2724 90.3262 46.4343 90.3262 59.2705C90.3262 72.1 93.9708 82.4396 100.487 89.5664C106.999 96.6877 116.429 100.657 128.119 100.657C139.778 100.657 149.18 96.7702 155.67 89.6924C162.165 82.609 165.799 72.2703 165.799 59.2705ZM136.304 59.8545C136.304 57.7338 136.147 53.246 135 49.3047C134.427 47.3334 133.617 45.5415 132.492 44.251C131.381 42.976 129.965 42.1896 128.119 42.1895C126.243 42.1895 124.804 42.9777 123.678 44.2529C122.538 45.5435 121.719 47.335 121.139 49.3057C119.979 53.2461 119.821 57.7337 119.821 59.8545C119.821 63.1551 120.284 67.5746 121.592 71.1484C122.911 74.7547 124.994 77.2725 128.119 77.2725C131.242 77.2723 133.297 74.7577 134.589 71.1514C135.869 67.5775 136.304 63.1577 136.304 59.8545ZM137.365 59.8545C137.365 63.2228 136.925 67.7774 135.588 71.5098C134.263 75.2094 131.96 78.3338 128.119 78.334C124.281 78.334 121.948 75.2126 120.595 71.5127C119.229 67.7803 118.76 63.2255 118.76 59.8545C118.76 57.7072 118.917 53.0969 120.121 49.0068C120.723 46.9623 121.599 45.0049 122.883 43.5508C124.181 42.0812 125.896 41.1279 128.119 41.1279C130.317 41.128 132.011 42.0833 133.292 43.5527C134.559 45.0069 135.424 46.964 136.019 49.0078C137.208 53.0971 137.365 57.7071 137.365 59.8545ZM166.86 59.2705C166.86 72.463 163.171 83.0831 156.452 90.4102C149.728 97.7426 140.024 101.718 128.119 101.718C116.178 101.718 106.446 97.6564 99.7041 90.2832C92.9671 82.9154 89.2656 72.2965 89.2656 59.2705C89.2656 46.2512 92.7782 35.8027 99.4277 28.6045C106.083 21.4003 115.818 17.5195 128.119 17.5195C140.417 17.5196 150.125 21.3139 156.754 28.4775C163.377 35.6352 166.86 46.0854 166.86 59.2705Z" fill="#FFF7AE"/>
<path d="M213.615 101.188C189.983 101.188 175.292 85.1261 175.292 59.2705C175.292 33.4149 189.264 18.0498 213.615 18.0498C237.965 18.0498 251.825 33.0779 251.825 59.2705C251.825 85.463 237.179 101.188 213.615 101.188ZM213.615 41.659C205.416 41.659 204.787 55.5864 204.787 59.8545C204.787 66.5262 206.651 77.8029 213.615 77.8029C220.579 77.8029 222.331 66.5262 222.331 59.8545C222.331 55.5864 221.702 41.659 213.615 41.659Z" fill="url(#paint2_linear_385_7519)"/>
<path d="M251.295 59.2705C251.295 46.2634 247.854 36.1028 241.462 29.1982C235.076 22.2998 225.678 18.5802 213.615 18.5801C201.555 18.5801 192.128 22.382 185.712 29.3242C179.29 36.2725 175.822 46.4345 175.822 59.2705C175.822 72.1 179.467 82.4396 185.983 89.5664C192.495 96.6877 201.925 100.657 213.615 100.657C225.274 100.657 234.676 96.7702 241.166 89.6924C247.661 82.609 251.295 72.2703 251.295 59.2705ZM221.8 59.8545C221.8 57.7338 221.643 53.246 220.496 49.3047C219.923 47.3334 219.113 45.5415 217.988 44.251C216.877 42.976 215.461 42.1896 213.615 42.1895C211.739 42.1895 210.3 42.9777 209.174 44.2529C208.034 45.5435 207.215 47.335 206.635 49.3057C205.475 53.2461 205.317 57.7337 205.317 59.8545C205.317 63.1551 205.78 67.5746 207.088 71.1484C208.407 74.7547 210.49 77.2725 213.615 77.2725C216.738 77.2723 218.793 74.7577 220.085 71.1514C221.365 67.5775 221.8 63.1577 221.8 59.8545ZM222.861 59.8545C222.861 63.2228 222.421 67.7774 221.084 71.5098C219.759 75.2094 217.456 78.3338 213.615 78.334C209.777 78.334 207.445 75.2126 206.091 71.5127C204.725 67.7803 204.256 63.2255 204.256 59.8545C204.256 57.7072 204.413 53.0969 205.617 49.0068C206.219 46.9623 207.095 45.0049 208.379 43.5508C209.677 42.0812 211.392 41.1279 213.615 41.1279C215.813 41.128 217.507 42.0833 218.788 43.5527C220.056 45.0069 220.92 46.964 221.515 49.0078C222.704 53.0971 222.861 57.7071 222.861 59.8545ZM252.356 59.2705C252.356 72.463 248.667 83.0831 241.948 90.4102C235.224 97.7426 225.52 101.718 213.615 101.718C201.674 101.718 191.942 97.6564 185.2 90.2832C178.463 82.9154 174.762 72.2965 174.762 59.2705C174.762 46.2509 178.28 35.8026 184.933 28.6045C191.59 21.4005 201.325 17.5195 213.615 17.5195C225.902 17.5196 235.61 21.314 242.241 28.4775C248.867 35.6351 252.356 46.0852 252.356 59.2705Z" fill="#FFF7AE"/>
<path d="M294.642 101.188C271.011 101.188 256.319 85.1261 256.319 59.2705C256.319 33.4149 270.269 18.0498 294.642 18.0498C319.015 18.0498 332.853 33.0779 332.853 59.2705C332.853 85.463 318.206 101.188 294.642 101.188ZM294.642 41.659C286.443 41.659 285.814 55.5864 285.814 59.8545C285.814 66.5262 287.678 77.8029 294.642 77.8029C301.606 77.8029 303.358 66.5262 303.358 59.8545C303.358 55.5864 302.729 41.659 294.642 41.659Z" fill="url(#paint3_linear_385_7519)"/>
<path d="M332.322 59.2705C332.322 46.2632 328.887 36.1027 322.498 29.1982C316.115 22.2998 306.717 18.5802 294.643 18.5801C282.571 18.5801 273.144 22.382 266.73 29.3242C260.312 36.2724 256.85 46.4343 256.85 59.2705C256.85 72.1 260.494 82.4396 267.011 89.5664C273.522 96.6877 282.952 100.657 294.643 100.657C306.302 100.657 315.703 96.7702 322.193 89.6924C328.689 82.609 332.322 72.2703 332.322 59.2705ZM302.827 59.8545C302.827 57.7338 302.67 53.246 301.523 49.3047C300.95 47.3334 300.14 45.5415 299.016 44.251C297.904 42.976 296.488 42.1896 294.643 42.1895C292.766 42.1895 291.327 42.9777 290.201 44.2529C289.061 45.5435 288.242 47.335 287.662 49.3057C286.502 53.2461 286.345 57.7337 286.345 59.8545C286.345 63.1551 286.808 67.5746 288.115 71.1484C289.435 74.7547 291.517 77.2725 294.643 77.2725C297.765 77.2723 299.821 74.7577 301.112 71.1514C302.392 67.5775 302.827 63.1577 302.827 59.8545ZM303.889 59.8545C303.889 63.2228 303.448 67.7774 302.111 71.5098C300.786 75.2094 298.483 78.3338 294.643 78.334C290.804 78.334 288.472 75.2126 287.118 71.5127C285.753 67.7803 285.283 63.2255 285.283 59.8545C285.283 57.7072 285.44 53.0969 286.645 49.0068C287.246 46.9623 288.122 45.0049 289.406 43.5508C290.704 42.0812 292.419 41.1279 294.643 41.1279C296.84 41.128 298.535 42.0833 299.815 43.5527C301.083 45.0069 301.947 46.964 302.542 49.0078C303.732 53.0971 303.889 57.7071 303.889 59.8545ZM333.384 59.2705C333.384 72.463 329.694 83.0831 322.976 90.4102C316.252 97.7426 306.547 101.718 294.643 101.718C282.701 101.718 272.97 97.6564 266.228 90.2832C259.491 82.9154 255.789 72.2965 255.789 59.2705C255.789 46.2512 259.302 35.8027 265.951 28.6045C272.606 21.4003 282.341 17.5195 294.643 17.5195C306.94 17.5196 316.649 21.3139 323.277 28.4775C329.9 35.6352 333.384 46.0854 333.384 59.2705Z" fill="#FFF7AE"/>
<path d="M394.38 101.188C370.749 101.188 356.058 85.1261 356.058 59.2705C356.058 33.4149 370.007 18.0498 394.38 18.0498C418.753 18.0498 432.591 33.0779 432.591 59.2705C432.591 85.463 417.945 101.188 394.38 101.188ZM394.38 41.659C386.181 41.659 385.552 55.5864 385.552 59.8545C385.552 66.5262 387.417 77.8029 394.38 77.8029C401.344 77.8029 403.096 66.5262 403.096 59.8545C403.096 55.5864 402.467 41.659 394.38 41.659Z" fill="url(#paint4_linear_385_7519)"/>
<path d="M432.061 59.2705C432.061 46.2632 428.625 36.1027 422.236 29.1982C415.853 22.2998 406.456 18.5802 394.381 18.5801C382.309 18.5801 372.882 22.382 366.469 29.3242C360.05 36.2724 356.588 46.4343 356.588 59.2705C356.588 72.1 360.233 82.4396 366.749 89.5664C373.261 96.6877 382.691 100.657 394.381 100.657C406.04 100.657 415.441 96.7702 421.932 89.6924C428.427 82.609 432.061 72.2703 432.061 59.2705ZM402.565 59.8545C402.565 57.7338 402.408 53.246 401.262 49.3047C400.688 47.3334 399.879 45.5415 398.754 44.251C397.643 42.976 396.226 42.1896 394.381 42.1895C392.504 42.1895 391.066 42.9777 389.939 44.2529C388.8 45.5435 387.981 47.335 387.4 49.3057C386.24 53.2461 386.083 57.7337 386.083 59.8545C386.083 63.1551 386.546 67.5746 387.854 71.1484C389.173 74.7547 391.256 77.2725 394.381 77.2725C397.503 77.2723 399.559 74.7577 400.851 71.1514C402.131 67.5775 402.565 63.1577 402.565 59.8545ZM403.627 59.8545C403.627 63.2228 403.186 67.7774 401.85 71.5098C400.524 75.2094 398.221 78.3338 394.381 78.334C390.543 78.334 388.21 75.2126 386.856 71.5127C385.491 67.7803 385.021 63.2255 385.021 59.8545C385.021 57.7072 385.179 53.0969 386.383 49.0068C386.985 46.9623 387.86 45.0049 389.145 43.5508C390.442 42.0812 392.158 41.1279 394.381 41.1279C396.578 41.128 398.273 42.0833 399.554 43.5527C400.821 45.0069 401.686 46.964 402.28 49.0078C403.47 53.0971 403.627 57.7071 403.627 59.8545ZM433.122 59.2705C433.122 72.463 429.433 83.0831 422.714 90.4102C415.99 97.7426 406.286 101.718 394.381 101.718C382.439 101.718 372.708 97.6564 365.966 90.2832C359.229 82.9154 355.527 72.2965 355.527 59.2705C355.527 46.2512 359.04 35.8027 365.689 28.6045C372.345 21.4003 382.08 17.5195 394.381 17.5195C406.679 17.5196 416.387 21.3139 423.016 28.4775C429.639 35.6352 433.122 46.0854 433.122 59.2705Z" fill="#FFF7AE"/>
<path d="M479.878 101.188C456.246 101.188 441.555 85.1261 441.555 59.2705C441.555 33.4149 455.527 18.0498 479.878 18.0498C504.228 18.0498 518.088 33.0779 518.088 59.2705C518.088 85.463 503.442 101.188 479.878 101.188ZM479.878 41.659C471.678 41.659 471.049 55.5864 471.049 59.8545C471.049 66.5262 472.914 77.8029 479.878 77.8029C486.841 77.8029 488.593 66.5262 488.593 59.8545C488.593 55.5864 487.964 41.659 479.878 41.659Z" fill="url(#paint5_linear_385_7519)"/>
<path d="M517.558 59.2705C517.558 46.2634 514.116 36.1028 507.725 29.1982C501.338 22.2998 491.941 18.5801 479.878 18.5801C467.818 18.5801 458.391 22.382 451.975 29.3242C445.553 36.2725 442.085 46.4345 442.085 59.2705C442.085 72.1 445.73 82.4396 452.246 89.5664C458.758 96.6877 468.188 100.657 479.878 100.657C491.537 100.657 500.938 96.7702 507.429 89.6924C513.924 82.609 517.558 72.2703 517.558 59.2705ZM488.062 59.8545C488.062 57.7338 487.905 53.246 486.759 49.3047C486.185 47.3334 485.376 45.5415 484.251 44.251C483.14 42.976 481.723 42.1896 479.878 42.1895C478.001 42.1895 476.563 42.9777 475.437 44.2529C474.297 45.5435 473.478 47.335 472.897 49.3057C471.737 53.2461 471.58 57.7337 471.58 59.8545C471.58 63.1551 472.043 67.5746 473.351 71.1484C474.67 74.7547 476.753 77.2725 479.878 77.2725C483.001 77.2723 485.056 74.7577 486.348 71.1514C487.628 67.5775 488.062 63.1577 488.062 59.8545ZM489.124 59.8545C489.124 63.2228 488.684 67.7774 487.347 71.5098C486.021 75.2094 483.719 78.3338 479.878 78.334C476.04 78.334 473.707 75.2126 472.354 71.5127C470.988 67.7803 470.519 63.2255 470.519 59.8545C470.519 57.7072 470.676 53.0969 471.88 49.0068C472.482 46.9623 473.357 45.0049 474.642 43.5508C475.939 42.0812 477.655 41.1279 479.878 41.1279C482.075 41.128 483.77 42.0833 485.051 43.5527C486.318 45.0069 487.183 46.964 487.777 49.0078C488.967 53.0971 489.124 57.7071 489.124 59.8545ZM518.619 59.2705C518.619 72.4631 514.93 83.0831 508.211 90.4102C501.487 97.7426 491.783 101.718 479.878 101.718C467.937 101.718 458.205 97.6564 451.463 90.2832C444.726 82.9154 441.024 72.2965 441.024 59.2705C441.024 46.251 444.543 35.8026 451.195 28.6045C457.853 21.4005 467.588 17.5195 479.878 17.5195C492.165 17.5196 501.873 21.314 508.504 28.4775C515.13 35.6351 518.619 46.0852 518.619 59.2705Z" fill="#FFF7AE"/>
<path d="M567.642 101.188C544.011 101.188 529.319 85.1261 529.319 59.2705C529.319 33.4149 543.269 18.0498 567.642 18.0498C592.015 18.0498 605.853 33.0779 605.853 59.2705C605.853 85.463 591.206 101.188 567.642 101.188ZM567.642 41.659C559.443 41.659 558.814 55.5864 558.814 59.8545C558.814 66.5262 560.678 77.8029 567.642 77.8029C574.606 77.8029 576.358 66.5262 576.358 59.8545C576.358 55.5864 575.729 41.659 567.642 41.659Z" fill="url(#paint6_linear_385_7519)"/>
<path d="M605.322 59.2705C605.322 46.2632 601.887 36.1027 595.498 29.1982C589.115 22.2998 579.717 18.5802 567.643 18.5801C555.571 18.5801 546.144 22.382 539.73 29.3242C533.312 36.2724 529.85 46.4343 529.85 59.2705C529.85 72.1 533.494 82.4396 540.011 89.5664C546.522 96.6877 555.952 100.657 567.643 100.657C579.302 100.657 588.703 96.7702 595.193 89.6924C601.689 82.609 605.322 72.2703 605.322 59.2705ZM575.827 59.8545C575.827 57.7338 575.67 53.246 574.523 49.3047C573.95 47.3334 573.14 45.5415 572.016 44.251C570.904 42.976 569.488 42.1896 567.643 42.1895C565.766 42.1895 564.327 42.9777 563.201 44.2529C562.061 45.5435 561.242 47.335 560.662 49.3057C559.502 53.2461 559.345 57.7337 559.345 59.8545C559.345 63.1551 559.808 67.5746 561.115 71.1484C562.435 74.7547 564.517 77.2725 567.643 77.2725C570.765 77.2723 572.821 74.7577 574.112 71.1514C575.392 67.5775 575.827 63.1577 575.827 59.8545ZM576.889 59.8545C576.889 63.2228 576.448 67.7774 575.111 71.5098C573.786 75.2094 571.483 78.3338 567.643 78.334C563.804 78.334 561.472 75.2126 560.118 71.5127C558.753 67.7803 558.283 63.2255 558.283 59.8545C558.283 57.7072 558.44 53.0969 559.645 49.0068C560.246 46.9623 561.122 45.0049 562.406 43.5508C563.704 42.0812 565.419 41.1279 567.643 41.1279C569.84 41.128 571.535 42.0833 572.815 43.5527C574.083 45.0069 574.947 46.964 575.542 49.0078C576.732 53.0971 576.889 57.7071 576.889 59.8545ZM606.384 59.2705C606.384 72.463 602.694 83.0831 595.976 90.4102C589.252 97.7426 579.547 101.718 567.643 101.718C555.701 101.718 545.97 97.6564 539.228 90.2832C532.491 82.9154 528.789 72.2965 528.789 59.2705C528.789 46.2512 532.302 35.8027 538.951 28.6045C545.606 21.4003 555.341 17.5195 567.643 17.5195C579.94 17.5196 589.649 21.3139 596.277 28.4775C602.9 35.6352 606.384 46.0854 606.384 59.2705Z" fill="#FFF7AE"/>
<defs>
<linearGradient id="paint0_linear_385_7519" x1="34.8038" y1="19.5542" x2="34.8038" y2="101.636" gradientUnits="userSpaceOnUse">
<stop stop-color="#FF5C2A"/>
<stop offset="0.519231" stop-color="#FB0A00"/>
<stop offset="0.519331" stop-color="#EB0900"/>
<stop offset="1" stop-color="#BA0700"/>
</linearGradient>
<linearGradient id="paint1_linear_385_7519" x1="128.063" y1="18.0498" x2="128.063" y2="101.188" gradientUnits="userSpaceOnUse">
<stop stop-color="#FF5C2A"/>
<stop offset="0.519231" stop-color="#FB0A00"/>
<stop offset="0.519331" stop-color="#EB0900"/>
<stop offset="1" stop-color="#BA0700"/>
</linearGradient>
<linearGradient id="paint2_linear_385_7519" x1="213.559" y1="18.0498" x2="213.559" y2="101.188" gradientUnits="userSpaceOnUse">
<stop stop-color="#FF5C2A"/>
<stop offset="0.519231" stop-color="#FB0A00"/>
<stop offset="0.519331" stop-color="#EB0900"/>
<stop offset="1" stop-color="#BA0700"/>
</linearGradient>
<linearGradient id="paint3_linear_385_7519" x1="294.586" y1="18.0498" x2="294.586" y2="101.188" gradientUnits="userSpaceOnUse">
<stop stop-color="#FF5C2A"/>
<stop offset="0.519231" stop-color="#FB0A00"/>
<stop offset="0.519331" stop-color="#EB0900"/>
<stop offset="1" stop-color="#BA0700"/>
</linearGradient>
<linearGradient id="paint4_linear_385_7519" x1="394.324" y1="18.0498" x2="394.324" y2="101.188" gradientUnits="userSpaceOnUse">
<stop stop-color="#FF5C2A"/>
<stop offset="0.519231" stop-color="#FB0A00"/>
<stop offset="0.519331" stop-color="#EB0900"/>
<stop offset="1" stop-color="#BA0700"/>
</linearGradient>
<linearGradient id="paint5_linear_385_7519" x1="479.821" y1="18.0498" x2="479.821" y2="101.188" gradientUnits="userSpaceOnUse">
<stop stop-color="#FF5C2A"/>
<stop offset="0.519231" stop-color="#FB0A00"/>
<stop offset="0.519331" stop-color="#EB0900"/>
<stop offset="1" stop-color="#BA0700"/>
</linearGradient>
<linearGradient id="paint6_linear_385_7519" x1="567.586" y1="18.0498" x2="567.586" y2="101.188" gradientUnits="userSpaceOnUse">
<stop stop-color="#FF5C2A"/>
<stop offset="0.519231" stop-color="#FB0A00"/>
<stop offset="0.519331" stop-color="#EB0900"/>
<stop offset="1" stop-color="#BA0700"/>
</linearGradient>
</defs>
</svg>
