<svg width="341" height="152" viewBox="0 0 341 152" fill="none" xmlns="http://www.w3.org/2000/svg">
<path d="M330.936 38.9265H18.8268V43.3129H330.936V38.9265Z" fill="url(#paint0_linear_2_9126)"/>
<path d="M338.339 44.7723H6.49448V49.1588H338.339V44.7723Z" fill="url(#paint1_linear_2_9126)"/>
<path d="M333.53 49.1426H13.2322V53.529H333.53V49.1426Z" fill="url(#paint2_linear_2_9126)"/>
<path d="M336.555 54.0966H10.4754V58.483H336.555V54.0966Z" fill="url(#paint3_linear_2_9126)"/>
<path d="M340.52 59.9829H0V64.3693H340.52V59.9829Z" fill="url(#paint4_linear_2_9126)"/>
<path d="M333.06 65.8287H14.1483V70.2152H333.06V65.8287Z" fill="url(#paint5_linear_2_9126)"/>
<path d="M326.42 68.3018H23.5537V72.6882H326.42V68.3018Z" fill="url(#paint6_linear_2_9126)"/>
<path d="M237.532 150.209C237.199 150.209 236.924 149.933 236.924 149.601V128.552H220.781C220.448 128.552 220.172 128.276 220.172 127.944V118.344C220.172 118.012 220.448 117.736 220.781 117.736H267.288C267.62 117.736 267.896 118.012 267.896 118.344V127.944C267.896 128.276 267.62 128.552 267.288 128.552H251.145V149.601C251.145 149.933 250.869 150.209 250.537 150.209H237.532Z" fill="#C50018"/>
<path d="M267.28 118.344V127.944H250.529V149.6H237.524V127.944H220.773V118.344H267.28ZM267.28 117.128H220.773C220.1 117.128 219.556 117.671 219.556 118.344V127.944C219.556 128.617 220.1 129.16 220.773 129.16H236.308V149.6C236.308 150.273 236.851 150.817 237.524 150.817H250.529C251.202 150.817 251.745 150.273 251.745 149.6V129.16H267.28C267.953 129.16 268.496 128.617 268.496 127.944V118.344C268.496 117.671 267.953 117.128 267.28 117.128Z" fill="white"/>
<path d="M293.882 150.606C284.598 150.606 277.934 149.106 274.058 146.147C270.134 143.147 268.147 139.036 268.147 133.928C268.147 128.82 270.134 124.709 274.058 121.709C277.934 118.75 284.598 117.25 293.882 117.25C303.166 117.25 309.871 118.75 313.747 121.709C317.671 124.709 319.657 128.82 319.657 133.928C319.657 139.036 317.671 143.147 313.747 146.147C309.871 149.106 303.19 150.606 293.882 150.606ZM293.89 127.571C291.206 127.571 289.098 127.831 287.639 128.349C286.252 128.844 285.288 129.533 284.769 130.401C284.234 131.301 283.966 132.485 283.966 133.92C283.966 135.355 284.234 136.506 284.769 137.422C285.279 138.306 286.244 138.995 287.631 139.49C289.09 140.009 291.19 140.268 293.882 140.268C296.574 140.268 298.714 140.009 300.166 139.49C301.552 139.003 302.517 138.306 303.028 137.422C303.563 136.506 303.831 135.33 303.831 133.92C303.831 132.509 303.563 131.293 303.044 130.393C302.541 129.525 301.577 128.844 300.182 128.349C298.706 127.831 296.59 127.571 293.874 127.571H293.89Z" fill="#C50018"/>
<path d="M293.882 117.85C303.093 117.85 309.595 119.293 313.374 122.187C317.16 125.082 319.049 128.99 319.049 133.92C319.049 138.849 317.16 142.766 313.374 145.66C309.587 148.555 303.093 149.998 293.882 149.998C284.671 149.998 278.209 148.555 274.431 145.66C270.645 142.766 268.755 138.857 268.755 133.92C268.755 128.982 270.645 125.074 274.431 122.187C278.217 119.293 284.696 117.85 293.882 117.85ZM293.89 140.884C296.679 140.884 298.844 140.617 300.377 140.074C301.909 139.53 302.971 138.752 303.563 137.739C304.155 136.725 304.447 135.452 304.447 133.928C304.447 132.403 304.155 131.098 303.579 130.101C303.004 129.104 301.941 128.333 300.393 127.79C298.844 127.247 296.679 126.971 293.882 126.971C291.085 126.971 288.961 127.247 287.428 127.79C285.896 128.333 284.834 129.104 284.242 130.101C283.65 131.098 283.358 132.379 283.358 133.928C283.358 135.476 283.65 136.725 284.242 137.739C284.834 138.752 285.896 139.53 287.428 140.074C288.961 140.617 291.109 140.884 293.882 140.884M293.882 116.633C284.331 116.633 277.731 118.133 273.693 121.223C269.615 124.344 267.539 128.617 267.539 133.928C267.539 139.239 269.607 143.511 273.693 146.633C277.731 149.722 284.339 151.222 293.882 151.222C303.425 151.222 310.074 149.722 314.112 146.633C318.19 143.511 320.265 139.239 320.265 133.928C320.265 128.617 318.198 124.344 314.112 121.223C310.074 118.133 303.458 116.633 293.882 116.633ZM293.89 139.668C291.271 139.668 289.236 139.417 287.842 138.922C286.593 138.484 285.742 137.876 285.296 137.122C284.817 136.303 284.574 135.225 284.574 133.928C284.574 132.631 284.817 131.52 285.288 130.717C285.725 129.979 286.585 129.379 287.833 128.933C289.228 128.439 291.263 128.187 293.882 128.187C296.501 128.187 298.577 128.439 299.987 128.933C301.244 129.379 302.095 129.971 302.525 130.709C302.995 131.512 303.231 132.598 303.231 133.928C303.231 135.257 302.987 136.303 302.509 137.122C302.071 137.876 301.212 138.484 299.971 138.922C298.577 139.417 296.533 139.668 293.89 139.668Z" fill="white"/>
<path d="M178.133 150.209C177.8 150.209 177.525 149.933 177.525 149.6V118.352C177.525 118.02 177.8 117.744 178.133 117.744H218.34C218.673 117.744 218.948 118.02 218.948 118.352V127.425C218.948 127.758 218.673 128.033 218.34 128.033H191.478V129.939H217.043C217.375 129.939 217.651 130.214 217.651 130.547V137.471C217.651 137.803 217.375 138.079 217.043 138.079H191.478V140.122H218.583C218.916 140.122 219.192 140.398 219.192 140.73V149.6C219.192 149.933 218.916 150.209 218.583 150.209H178.133Z" fill="#C50018"/>
<path d="M218.332 118.344V127.417H190.862V130.539H217.034V137.463H190.862V140.722H218.575V149.592H178.124V118.344H218.332ZM218.332 117.128H178.124C177.451 117.128 176.908 117.671 176.908 118.344V149.592C176.908 150.265 177.451 150.809 178.124 150.809H218.575C219.248 150.809 219.791 150.265 219.791 149.592V140.722C219.791 140.049 219.248 139.506 218.575 139.506H192.078V138.679H217.034C217.707 138.679 218.251 138.136 218.251 137.463V130.539C218.251 129.866 217.707 129.322 217.034 129.322H192.078V128.633H218.332C219.005 128.633 219.548 128.09 219.548 127.417V118.344C219.548 117.671 219.005 117.128 218.332 117.128Z" fill="white"/>
<path d="M134.495 150.703C132.436 150.703 130.684 150.484 129.298 150.054C129.046 149.973 128.868 149.738 128.868 149.471V139.117C128.868 138.93 128.957 138.752 129.103 138.638C129.209 138.557 129.346 138.509 129.476 138.509C129.525 138.509 129.573 138.509 129.622 138.525C130.303 138.695 131.033 138.776 131.795 138.776C132.703 138.776 135.703 138.476 135.963 134.649C136.238 130.612 136.587 122.204 136.733 118.328C136.741 118.004 137.017 117.744 137.341 117.744H175.692C176.024 117.744 176.3 118.02 176.3 118.352V149.609C176.3 149.941 176.024 150.217 175.692 150.217H162.905C162.573 150.217 162.297 149.941 162.297 149.609V129.136H149.203C149.114 130.19 149.057 131.203 149 132.176C148.814 135.533 148.635 138.703 147.16 143.057C144.906 149.706 138.257 150.703 134.495 150.703Z" fill="#C50018"/>
<path d="M175.692 118.344V149.601H162.906V128.52H148.652C148.181 133.457 148.546 137.098 146.592 142.855C144.371 149.414 137.528 150.087 134.495 150.087C132.484 150.087 130.814 149.876 129.476 149.463V139.109C130.206 139.287 130.976 139.376 131.787 139.376C132.557 139.376 136.255 139.157 136.563 134.69C136.863 130.36 137.228 121.279 137.333 118.344H175.684M175.692 117.128H137.341C136.684 117.128 136.149 117.647 136.125 118.296C135.979 122.171 135.63 130.571 135.355 134.601C135.136 137.811 132.792 138.16 131.795 138.16C131.082 138.16 130.401 138.079 129.768 137.925C129.671 137.901 129.574 137.893 129.476 137.893C129.209 137.893 128.941 137.982 128.722 138.152C128.43 138.379 128.26 138.736 128.26 139.109V149.463C128.26 149.998 128.609 150.468 129.111 150.622C130.555 151.076 132.371 151.303 134.487 151.303C141.168 151.303 145.992 148.368 147.735 143.244C149.235 138.817 149.414 135.606 149.6 132.201C149.641 131.398 149.689 130.579 149.754 129.728H161.681V149.592C161.681 150.265 162.224 150.809 162.897 150.809H175.684C176.357 150.809 176.9 150.265 176.9 149.592V118.336C176.9 117.663 176.357 117.12 175.684 117.12L175.692 117.128Z" fill="white"/>
<path d="M199.294 33.0889C198.962 33.0889 198.686 32.8132 198.686 32.4808V11.4324H182.543C182.211 11.4324 181.935 11.1567 181.935 10.8243V1.22443C181.935 0.892005 182.211 0.616333 182.543 0.616333H229.051C229.383 0.616333 229.659 0.892005 229.659 1.22443V10.8243C229.659 11.1567 229.383 11.4324 229.051 11.4324H212.908V32.4808C212.908 32.8132 212.632 33.0889 212.299 33.0889H199.294Z" fill="#C50018"/>
<path d="M229.051 1.22438V10.8242H212.3V32.4807H199.294V10.8242H182.543V1.22438H229.051ZM229.051 0.00817871H182.543C181.87 0.00817871 181.327 0.551414 181.327 1.22438V10.8242C181.327 11.4972 181.87 12.0404 182.543 12.0404H198.078V32.4807C198.078 33.1537 198.621 33.6969 199.294 33.6969H212.3C212.972 33.6969 213.516 33.1537 213.516 32.4807V12.0404H229.051C229.724 12.0404 230.267 11.4972 230.267 10.8242V1.22438C230.267 0.551414 229.724 0.00817871 229.051 0.00817871Z" fill="white"/>
<path d="M258.093 33.0887C257.866 33.0887 257.656 32.959 257.55 32.7563L255.191 28.1753H239.542L237.183 32.7563C237.078 32.959 236.867 33.0887 236.64 33.0887H221.689C221.47 33.0887 221.275 32.9752 221.162 32.7887C221.056 32.6023 221.056 32.3671 221.162 32.1806L239.104 0.924315C239.21 0.737831 239.413 0.616211 239.632 0.616211H255.304C255.523 0.616211 255.726 0.729723 255.831 0.924315L273.774 32.1806C273.88 32.3671 273.88 32.6023 273.774 32.7887C273.669 32.9752 273.466 33.0887 273.247 33.0887H258.093ZM250.65 19.37L247.367 12.9971L244.083 19.37H250.642H250.65Z" fill="#C50018"/>
<path d="M255.304 1.22426L273.247 32.4806H258.093L255.564 27.5671H239.169L236.648 32.4806H221.697L239.632 1.22426H255.304ZM243.086 19.978H251.648L247.367 11.6755L243.086 19.978ZM255.304 0.00805664H239.632C239.194 0.00805664 238.796 0.243189 238.578 0.616156L220.635 31.8725C220.416 32.2454 220.416 32.7157 220.635 33.0887C220.853 33.4616 221.251 33.6968 221.689 33.6968H236.64C237.094 33.6968 237.515 33.4454 237.718 33.04L239.907 28.7914H254.818L257.007 33.04C257.218 33.4454 257.631 33.6968 258.085 33.6968H273.239C273.677 33.6968 274.074 33.4616 274.293 33.0887C274.512 32.7157 274.512 32.2536 274.293 31.8725L256.366 0.616156C256.148 0.235081 255.75 0.00805664 255.312 0.00805664H255.304ZM245.08 18.7618L247.367 14.3268L249.653 18.7618H245.08Z" fill="white"/>
<path d="M302.201 33.0887C302.047 33.0887 301.893 33.0238 301.779 32.9184L289.828 21.405V32.4806C289.828 32.813 289.552 33.0887 289.22 33.0887H274.893C274.561 33.0887 274.285 32.813 274.285 32.4806V1.22424C274.285 0.891812 274.561 0.61614 274.893 0.61614H289.22C289.552 0.61614 289.828 0.891812 289.828 1.22424V12.1863L300.498 0.802624C300.612 0.681004 300.774 0.608032 300.944 0.608032H318.839C319.09 0.608032 319.309 0.762084 319.406 0.989108C319.503 1.21613 319.439 1.4837 319.26 1.65396L303.077 16.7997L319.479 32.0184C319.666 32.1887 319.722 32.4562 319.633 32.6833C319.544 32.9184 319.317 33.0725 319.066 33.0725H302.209L302.201 33.0887Z" fill="#C50018"/>
<path d="M318.83 1.22431L302.176 16.816L319.057 32.4806H302.201L289.22 19.9781V32.4806H274.893V1.22431H289.22V13.7268L300.944 1.22431H318.838M318.83 0.008108H300.936C300.603 0.008108 300.279 0.145944 300.052 0.389184L290.436 10.6458V1.22431C290.436 0.551344 289.893 0.008108 289.22 0.008108H274.893C274.22 0.008108 273.677 0.551344 273.677 1.22431V32.4806C273.677 33.1536 274.22 33.6968 274.893 33.6968H289.22C289.893 33.6968 290.436 33.1536 290.436 32.4806V22.8402L301.358 33.3563C301.585 33.5752 301.885 33.6968 302.201 33.6968H319.057C319.56 33.6968 320.006 33.3887 320.192 32.9266C320.379 32.4644 320.257 31.9293 319.884 31.5888L303.96 16.8079L319.665 2.10808C320.03 1.76754 320.152 1.24052 319.965 0.77026C319.779 0.299996 319.333 0 318.83 0V0.008108Z" fill="white"/>
<path d="M147.03 111.185C146.698 111.185 146.422 110.909 146.422 110.577V89.5204H130.279C129.947 89.5204 129.671 89.2447 129.671 88.9123V79.3124C129.671 78.98 129.947 78.7043 130.279 78.7043H176.787C177.119 78.7043 177.395 78.98 177.395 79.3124V88.9123C177.395 89.2447 177.119 89.5204 176.787 89.5204H160.644V110.577C160.644 110.909 160.368 111.185 160.035 111.185H147.03Z" fill="#C50018"/>
<path d="M176.778 79.3124V88.9123H160.027V110.577H147.022V88.9123H130.271V79.3124H176.778ZM176.778 78.0962H130.271C129.598 78.0962 129.055 78.6394 129.055 79.3124V88.9123C129.055 89.5852 129.598 90.1285 130.271 90.1285H145.806V110.577C145.806 111.25 146.349 111.793 147.022 111.793H160.027C160.7 111.793 161.243 111.25 161.243 110.577V90.1285H176.778C177.451 90.1285 177.995 89.5852 177.995 88.9123V79.3124C177.995 78.6394 177.451 78.0962 176.778 78.0962Z" fill="white"/>
<path d="M179.219 111.185C178.887 111.185 178.611 110.909 178.611 110.577V79.3124C178.611 78.98 178.887 78.7043 179.219 78.7043H211.294C219.702 78.7043 224.721 82.053 224.721 87.6637C224.721 90.6636 223.221 93.096 220.456 94.6285C223.943 96.023 225.775 98.5608 225.775 102.047C225.775 107.772 220.651 111.185 212.073 111.185H179.219ZM207.321 101.439C208.959 101.439 209.794 100.864 209.794 99.7203C209.794 98.2689 208.448 97.9608 207.321 97.9608H194.397V101.439H207.321ZM206.77 91.7825C209.194 91.7825 209.194 90.4609 209.194 90.0231C209.194 88.9123 208.375 88.3529 206.77 88.3529H194.397V91.7825H206.77Z" fill="#C50018"/>
<path d="M211.294 79.3124C219.524 79.3124 224.113 82.5313 224.113 87.6636C224.113 90.923 222.232 93.3798 218.827 94.7176C223.01 95.877 225.167 98.3824 225.167 102.039C225.167 107.35 220.432 110.569 212.073 110.569H179.219V79.3043H211.294M193.797 92.3906H206.778C208.708 92.3906 209.81 91.5879 209.81 90.0231C209.81 88.5474 208.708 87.7447 206.778 87.7447H193.797V92.3906ZM193.797 102.047H207.329C209.259 102.047 210.41 101.245 210.41 99.7202C210.41 98.1959 209.259 97.3527 207.329 97.3527H193.797V102.039M211.294 78.0962H179.219C178.546 78.0962 178.003 78.6394 178.003 79.3124V110.577C178.003 111.25 178.546 111.793 179.219 111.793H212.073C221.032 111.793 226.383 108.153 226.383 102.047C226.383 99.5743 225.508 96.4608 221.745 94.5392C224.081 92.8933 225.329 90.5176 225.329 87.6636C225.329 81.6718 220.083 78.0962 211.294 78.0962ZM195.013 88.9609H206.778C208.594 88.9609 208.594 89.7312 208.594 90.0231C208.594 90.396 208.594 91.1744 206.778 91.1744H195.013V88.9609ZM195.013 98.577H207.329C209.194 98.577 209.194 99.4445 209.194 99.7283C209.194 100.028 209.194 100.839 207.329 100.839H195.013V98.5851V98.577Z" fill="white"/>
<path d="M250.999 111.59C241.715 111.59 235.051 110.09 231.175 107.131C227.251 104.131 225.264 100.02 225.264 94.9122C225.264 89.8041 227.251 85.6934 231.175 82.6934C235.051 79.734 241.715 78.234 250.999 78.234C260.283 78.234 266.988 79.734 270.864 82.6934C274.788 85.6934 276.774 89.8041 276.774 94.9122C276.774 100.02 274.788 104.131 270.864 107.131C266.988 110.09 260.307 111.59 250.999 111.59ZM251.007 88.5555C248.323 88.5555 246.215 88.8149 244.756 89.3339C243.369 89.8284 242.405 90.5176 241.894 91.3852C241.359 92.2852 241.091 93.4689 241.091 94.904C241.091 96.3392 241.359 97.4905 241.894 98.4067C242.405 99.2905 243.369 99.9878 244.756 100.474C246.215 100.993 248.315 101.253 251.007 101.253C253.699 101.253 255.84 100.993 257.291 100.474C258.677 99.9878 259.642 99.2905 260.153 98.4067C260.688 97.4905 260.956 96.3148 260.956 94.904C260.956 93.4933 260.688 92.2771 260.169 91.3771C259.667 90.5095 258.702 89.8284 257.307 89.3339C255.831 88.8149 253.707 88.5555 250.999 88.5555H251.007Z" fill="#C50018"/>
<path d="M250.999 78.834C260.21 78.834 266.712 80.2772 270.491 83.1718C274.277 86.0663 276.166 89.9744 276.166 94.904C276.166 99.8337 274.277 103.75 270.491 106.644C266.704 109.539 260.21 110.982 250.999 110.982C241.789 110.982 235.326 109.539 231.548 106.644C227.762 103.75 225.873 99.8418 225.873 94.904C225.873 89.9663 227.762 86.0582 231.548 83.1718C235.335 80.2772 241.813 78.834 250.999 78.834ZM251.007 101.869C253.796 101.869 255.961 101.601 257.494 101.058C259.026 100.515 260.088 99.7364 260.68 98.7229C261.272 97.7094 261.564 96.4365 261.564 94.9122C261.564 93.3879 261.272 92.0825 260.696 91.0852C260.121 90.0879 259.059 89.3176 257.51 88.7744C255.961 88.2312 253.796 87.9555 250.999 87.9555C248.202 87.9555 246.078 88.2312 244.545 88.7744C243.013 89.3176 241.951 90.0879 241.359 91.0852C240.767 92.0825 240.475 93.3635 240.475 94.9122C240.475 96.4608 240.767 97.7094 241.359 98.7229C241.951 99.7364 243.013 100.515 244.545 101.058C246.078 101.601 248.226 101.869 250.999 101.869M250.999 77.6178C241.448 77.6178 234.848 79.1178 230.81 82.2069C226.732 85.3285 224.656 89.6014 224.656 94.9122C224.656 100.223 226.724 104.496 230.81 107.617C234.848 110.707 241.456 112.207 250.999 112.207C260.542 112.207 267.191 110.707 271.229 107.617C275.307 104.496 277.383 100.223 277.383 94.9122C277.383 89.6014 275.315 85.3285 271.229 82.2069C267.191 79.1178 260.575 77.6178 250.999 77.6178ZM251.007 100.653C248.388 100.653 246.353 100.401 244.959 99.9067C243.71 99.4688 242.859 98.8607 242.413 98.1067C241.934 97.2878 241.691 96.2094 241.691 94.9122C241.691 93.6149 241.934 92.5041 242.405 91.7014C242.843 90.9636 243.702 90.3636 244.951 89.9176C246.345 89.423 248.38 89.1717 250.999 89.1717C253.618 89.1717 255.694 89.423 257.105 89.9176C258.361 90.3636 259.213 90.9555 259.642 91.6933C260.113 92.496 260.348 93.5824 260.348 94.9122C260.348 96.2419 260.104 97.2878 259.626 98.1067C259.188 98.8607 258.329 99.4688 257.088 99.9067C255.694 100.401 253.65 100.653 251.007 100.653Z" fill="white"/>
<path d="M278.607 111.185C278.275 111.185 277.999 110.909 277.999 110.577V79.3124C277.999 78.98 278.275 78.7043 278.607 78.7043H318.815C319.147 78.7043 319.423 78.98 319.423 79.3124V88.3853C319.423 88.7177 319.147 88.9934 318.815 88.9934H291.953V90.9069H317.517C317.85 90.9069 318.125 91.1826 318.125 91.515V98.4473C318.125 98.7797 317.85 99.0554 317.517 99.0554H291.953V101.099H319.058C319.39 101.099 319.666 101.374 319.666 101.707V110.585C319.666 110.917 319.39 111.193 319.058 111.193H278.607V111.185Z" fill="#C50018"/>
<path d="M318.806 79.3124V88.3853H291.336V91.515H317.509V98.4473H291.336V101.707H319.049V110.585H278.599V79.3205H318.806M318.806 78.0962H278.599C277.926 78.0962 277.382 78.6395 277.382 79.3124V110.577C277.382 111.25 277.926 111.793 278.599 111.793H319.049C319.722 111.793 320.266 111.25 320.266 110.577V101.699C320.266 101.026 319.722 100.482 319.049 100.482H292.553V99.6554H317.509C318.182 99.6554 318.725 99.1122 318.725 98.4392V91.5069C318.725 90.8339 318.182 90.2907 317.509 90.2907H292.553V89.5934H318.806C319.479 89.5934 320.022 89.0501 320.022 88.3772V79.3043C320.022 78.6314 319.479 78.0881 318.806 78.0881V78.0962Z" fill="white"/>
<path d="M306.376 78.6313C304.763 78.6313 303.441 78.2502 302.444 77.4881C301.39 76.6935 300.855 75.6314 300.855 74.326C300.855 73.0206 301.39 71.9666 302.444 71.1639C303.449 70.4017 304.771 70.0206 306.376 70.0206C307.982 70.0206 309.311 70.4017 310.325 71.1639C311.395 71.9584 311.93 73.0287 311.93 74.326C311.93 75.6233 311.387 76.6854 310.325 77.4881C309.311 78.2421 307.982 78.6313 306.376 78.6313Z" fill="#C50018"/>
<path d="M306.377 70.6368C307.86 70.6368 309.052 70.9774 309.96 71.6584C310.869 72.3395 311.323 73.2314 311.323 74.3341C311.323 75.4368 310.869 76.3287 309.96 77.0097C309.052 77.6908 307.852 78.0313 306.377 78.0313C304.901 78.0313 303.709 77.6908 302.809 77.0097C301.909 76.3287 301.463 75.4368 301.463 74.3341C301.463 73.2314 301.909 72.3395 302.809 71.6584C303.709 70.9774 304.893 70.6368 306.377 70.6368ZM306.377 69.4206C304.633 69.4206 303.182 69.8504 302.071 70.6855C300.879 71.5936 300.247 72.8503 300.247 74.326C300.247 75.8016 300.879 77.0665 302.071 77.9665C303.182 78.8097 304.625 79.2313 306.377 79.2313C308.128 79.2313 309.571 78.8097 310.69 77.9665C311.898 77.0584 312.539 75.8016 312.539 74.3179C312.539 72.8341 311.898 71.5774 310.69 70.6693C309.571 69.8341 308.12 69.4044 306.377 69.4044V69.4206Z" fill="white"/>
<path d="M291.369 78.5665C289.755 78.5665 288.434 78.1854 287.436 77.4233C286.382 76.6287 285.847 75.5665 285.847 74.2612C285.847 72.9558 286.382 71.9017 287.428 71.099C288.434 70.3369 289.755 69.9558 291.361 69.9558C292.966 69.9558 294.296 70.3369 295.309 71.099C296.379 71.9017 296.915 72.9639 296.915 74.2612C296.915 75.5584 296.371 76.6206 295.309 77.4233C294.296 78.1773 292.966 78.5665 291.361 78.5665H291.369Z" fill="#C50018"/>
<path d="M291.368 70.572C292.852 70.572 294.044 70.9125 294.952 71.5936C295.86 72.2747 296.314 73.1666 296.314 74.2693C296.314 75.3719 295.86 76.2638 294.952 76.9449C294.044 77.626 292.844 77.9665 291.368 77.9665C289.893 77.9665 288.701 77.626 287.801 76.9449C286.901 76.2638 286.455 75.3719 286.455 74.2693C286.455 73.1666 286.901 72.2747 287.801 71.5936C288.701 70.9125 289.885 70.572 291.368 70.572ZM291.368 69.3558C289.625 69.3558 288.174 69.7855 287.063 70.6207C285.871 71.5288 285.239 72.7855 285.239 74.2612C285.239 75.7368 285.871 77.0017 287.063 77.9016C288.174 78.7449 289.617 79.1665 291.368 79.1665C293.12 79.1665 294.563 78.7449 295.682 77.9016C296.89 76.9935 297.531 75.7368 297.531 74.253C297.531 72.7693 296.89 71.5125 295.682 70.6044C294.563 69.7693 293.112 69.3396 291.368 69.3396V69.3558Z" fill="white"/>
<path d="M118.863 55.6695C122.261 54.3316 124.15 51.8668 124.15 48.6074C124.15 43.4669 119.553 40.248 111.331 40.248H79.2558H74.3586V41.7075H79.2558V51.8749H93.834V48.6804H106.815C108.745 48.6804 109.847 49.4831 109.847 50.9587C109.847 52.5236 108.745 53.3262 106.815 53.3262H97.2393H79.2639V63.2504H50.9508H50.8535C50.813 63.2504 50.7724 63.2504 50.7319 63.2423C43.2158 62.618 43.2887 58.8316 43.2887 58.8316L29.7727 60.1207C29.643 62.391 32.3592 66.4612 36.478 68.6423C40.5969 70.8314 46.4427 71.926 54.0318 71.926C60.8425 71.926 65.8695 71.1801 70.1019 69.4287C72.9316 68.2612 74.7883 66.6477 75.7126 64.7018H79.2396V71.5125H112.093C120.453 71.5125 125.188 68.2936 125.188 62.9748C125.188 59.3099 123.031 56.8046 118.847 55.6451L118.863 55.6695ZM107.35 63.0072H93.8178V58.3127H107.35C109.28 58.3127 110.431 59.164 110.431 60.6802C110.431 62.1964 109.28 63.0072 107.35 63.0072Z" fill="#C50018"/>
<path d="M129.331 60.4288V70.6206C132.987 71.4152 136.677 71.8125 140.39 71.8125C144.104 71.8125 147.144 71.48 149.512 70.8233C151.879 70.1584 153.955 69.072 155.738 67.5558C156.265 67.1098 156.809 66.5909 157.352 66.0234H167.252V64.5639H148.393V63.1207H159.857C160.376 62.4558 160.895 61.7505 161.43 60.9964L174.322 40.248H158.674L149.698 54.7127L139.32 40.248H123.161L140.252 61.2153C136.198 62.0829 131.609 61.645 129.315 60.4207L129.331 60.4288Z" fill="#C50018"/>
<path d="M183.508 62.0424C186.151 62.8938 189.695 63.3154 194.114 63.3154C196.83 63.3154 199.278 63.1694 201.443 62.8694C203.616 62.5694 205.667 62.1073 207.281 61.483V71.5369H220.659V40.2562H207.281H203.446V41.7157H207.281V50.7966H197.073V52.2561H207.281H217.489V53.7317H204.573C203.948 53.8939 203.324 54.0398 202.716 54.1452C201.2 54.4128 199.384 54.5506 197.268 54.5506C195.151 54.5506 193.449 54.3479 192.232 53.9506C191.016 53.5452 190.149 52.9209 189.63 52.0777C189.111 51.2263 188.851 50.0912 188.851 48.6561V40.2562H175.838V50.221C175.838 53.4723 176.454 56.0344 177.679 57.9317C178.911 59.8208 180.849 61.1911 183.492 62.0424H183.508Z" fill="#C50018"/>
<path d="M240.435 69.0558H247.578V67.5883H242H242.008H226.586V66.1288H243.581L257.259 53.4155L257.226 67.264V67.5883L257.21 71.5369H270.102V40.2562H255.451L235.951 58.4181L236 40.2562H223.108V71.5369H237.759L240.435 69.0558Z" fill="#C50018"/>
<path d="M29.7726 51.6074L43.2886 52.8966C43.2886 52.8966 43.1913 48.3967 52.9371 48.3967C59.756 48.3967 61.4748 49.6939 61.5154 50.8858C61.5478 51.9398 60.5424 52.9047 56.7803 52.9047H47.3832V58.8479H56.7803C60.5424 58.8479 61.5559 59.8127 61.5154 60.8667C61.5073 61.183 61.3694 61.5073 61.0532 61.8154H76.4098C76.4098 61.7424 76.4179 61.6694 76.4179 61.5884C76.4422 57.3479 71.3423 55.9533 71.018 55.8722C71.3342 55.7911 76.4422 54.4047 76.4179 50.1561C76.4017 46.7751 74.3341 44.0427 70.1017 42.2913C65.8694 40.54 60.8343 39.7941 54.0317 39.7941C46.4426 39.7941 40.5886 40.8886 36.4779 43.0778C36.2265 43.2156 35.9752 43.3535 35.732 43.4994H44.5616V44.9589H33.7374H26.7564V46.4183H32.2698C30.6401 48.2669 29.6996 50.2534 29.7807 51.5993L29.7726 51.6074Z" fill="#C50018"/>
<path d="M319.05 42.0481V40.2562H272.55V44.9832H301.966V46.4426H272.55V49.8642H289.301V71.5369H302.298V52.7912H311.501V51.3317H302.298H293.307V49.8723H302.298V49.8642H319.05V43.5075H322.828V42.0481H319.05Z" fill="#C50018"/>
<defs>
<linearGradient id="paint0_linear_2_9126" x1="18.8268" y1="41.1157" x2="330.936" y2="41.1157" gradientUnits="userSpaceOnUse">
<stop stop-color="white" stop-opacity="0"/>
<stop offset="0.05" stop-color="white"/>
<stop offset="0.95" stop-color="white"/>
<stop offset="1" stop-color="white" stop-opacity="0"/>
</linearGradient>
<linearGradient id="paint1_linear_2_9126" x1="6.49448" y1="46.9615" x2="338.33" y2="46.9615" gradientUnits="userSpaceOnUse">
<stop stop-color="white" stop-opacity="0"/>
<stop offset="0.05" stop-color="white"/>
<stop offset="0.95" stop-color="white"/>
<stop offset="1" stop-color="white" stop-opacity="0"/>
</linearGradient>
<linearGradient id="paint2_linear_2_9126" x1="13.2322" y1="51.3317" x2="333.53" y2="51.3317" gradientUnits="userSpaceOnUse">
<stop stop-color="white" stop-opacity="0"/>
<stop offset="0.05" stop-color="white"/>
<stop offset="0.95" stop-color="white"/>
<stop offset="1" stop-color="white" stop-opacity="0"/>
</linearGradient>
<linearGradient id="paint3_linear_2_9126" x1="10.4754" y1="56.2857" x2="336.546" y2="56.2857" gradientUnits="userSpaceOnUse">
<stop stop-color="white" stop-opacity="0"/>
<stop offset="0.05" stop-color="white"/>
<stop offset="0.95" stop-color="white"/>
<stop offset="1" stop-color="white" stop-opacity="0"/>
</linearGradient>
<linearGradient id="paint4_linear_2_9126" x1="0" y1="62.1802" x2="340.52" y2="62.1802" gradientUnits="userSpaceOnUse">
<stop stop-color="white" stop-opacity="0"/>
<stop offset="0.05" stop-color="white"/>
<stop offset="0.95" stop-color="white"/>
<stop offset="1" stop-color="white" stop-opacity="0"/>
</linearGradient>
<linearGradient id="paint5_linear_2_9126" x1="14.1483" y1="68.026" x2="333.06" y2="68.026" gradientUnits="userSpaceOnUse">
<stop stop-color="white" stop-opacity="0"/>
<stop offset="0.05" stop-color="white"/>
<stop offset="0.95" stop-color="white"/>
<stop offset="1" stop-color="white" stop-opacity="0"/>
</linearGradient>
<linearGradient id="paint6_linear_2_9126" x1="23.5537" y1="70.4909" x2="326.42" y2="70.4909" gradientUnits="userSpaceOnUse">
<stop stop-color="white" stop-opacity="0"/>
<stop offset="0.05" stop-color="white"/>
<stop offset="0.95" stop-color="white"/>
<stop offset="1" stop-color="white" stop-opacity="0"/>
</linearGradient>
</defs>
</svg>
