<svg width="336" height="376" viewBox="0 0 336 376" fill="none" xmlns="http://www.w3.org/2000/svg">
<g clip-path="url(#clip0_375_5001)">
<g opacity="0.1">
<path fill-rule="evenodd" clip-rule="evenodd" d="M290.59 168.081C291.594 167.797 292.599 168.287 292.834 169.176L295.428 178.979L298.669 173.963C299.174 173.178 300.226 172.853 301.014 173.238C301.803 173.622 302.032 174.569 301.526 175.353L296.52 183.104L299.245 193.398L307.84 180.099C308.345 179.318 309.395 178.994 310.182 179.378C310.97 179.761 311.199 180.706 310.693 181.488L300.334 197.515L303.796 210.598C305.618 210.367 307.369 210.664 308.848 211.39L316.454 204.167L317.494 184.251C317.541 183.352 318.357 182.57 319.318 182.509C320.278 182.445 321.019 183.121 320.972 184.019L320.102 200.703L327.475 193.701C327.462 193.608 327.457 193.513 327.462 193.416L327.981 183.47C328.028 182.573 328.841 181.791 329.802 181.73C330.76 181.667 331.5 182.342 331.453 183.238L331.085 190.273L340.016 181.793C340.71 181.133 341.785 181.066 342.416 181.641C343.048 182.215 342.996 183.215 342.302 183.874L334.445 191.333L340.217 190.949C341.175 190.885 341.915 191.56 341.868 192.457C341.828 193.207 341.25 193.875 340.5 194.11C340.355 194.155 340.203 194.185 340.047 194.195L330.781 194.812L322.931 202.266L339.307 201.177C340.268 201.113 341.008 201.79 340.961 202.688C340.922 203.44 340.343 204.109 339.591 204.345C339.446 204.39 339.293 204.42 339.137 204.43L319.26 205.752L311.311 213.301C312.014 214.134 312.535 215.132 312.808 216.265C313.216 217.96 313.014 219.713 312.338 221.316L324.297 223.564L342.562 212.789C343.416 212.283 344.465 212.48 344.905 213.226C345.344 213.971 345.007 214.984 344.153 215.488L328.974 224.443L339.804 226.479L347.709 221.816C348.562 221.311 349.611 221.507 350.051 222.252C350.49 222.997 350.154 224.011 349.299 224.515L344.481 227.358L353.817 229.114C354.711 229.282 355.204 230.113 354.919 230.971C354.728 231.546 354.235 231.987 353.661 232.165C353.379 232.252 353.078 232.276 352.784 232.22L341.946 230.182L345.582 236.352C346.021 237.098 345.684 238.111 344.829 238.615C344.69 238.697 344.546 238.759 344.401 238.805C343.65 239.04 342.855 238.802 342.487 238.178L337.475 229.672C337.408 229.558 337.361 229.438 337.329 229.314L327.586 227.482L335.437 240.808C335.877 241.554 335.54 242.566 334.685 243.07C334.546 243.152 334.402 243.216 334.256 243.261C333.506 243.496 332.711 243.257 332.343 242.633L322.896 226.601L310.402 224.253C309.662 225.03 308.787 225.706 307.804 226.237L311.153 238.887L328.312 247.237C329.1 247.621 329.329 248.566 328.823 249.347C328.571 249.738 328.182 250.014 327.759 250.144C327.335 250.275 326.877 250.26 326.483 250.068L312.283 243.158L314.922 253.131L323.353 257.235C324.142 257.618 324.371 258.566 323.865 259.35C323.359 260.134 322.307 260.459 321.519 260.075L316.056 257.416L318.804 267.796C319.039 268.684 318.416 269.635 317.412 269.919C316.408 270.203 315.403 269.713 315.167 268.824L312.572 259.021L309.333 264.037C309.08 264.429 308.691 264.706 308.267 264.837C307.842 264.969 307.382 264.954 306.987 264.762C306.198 264.378 305.969 263.431 306.476 262.647L311.48 254.895L308.756 244.601L300.161 257.901C299.657 258.682 298.607 259.006 297.82 258.622C297.032 258.239 296.803 257.294 297.308 256.512L307.666 240.483L304.204 227.401C302.383 227.633 300.631 227.337 299.152 226.611L291.546 233.835L290.507 253.749C290.468 254.502 289.889 255.171 289.137 255.407C288.992 255.452 288.839 255.482 288.683 255.492C287.722 255.556 286.982 254.88 287.029 253.981L287.899 237.297L280.524 244.299C280.537 244.391 280.543 244.487 280.538 244.585L280.019 254.531C279.979 255.282 279.401 255.951 278.651 256.186C278.506 256.231 278.354 256.26 278.198 256.27C277.24 256.334 276.501 255.66 276.547 254.763L276.914 247.727L267.985 256.207C267.757 256.424 267.487 256.576 267.206 256.663C266.632 256.841 266.009 256.745 265.586 256.36C264.955 255.786 265.005 254.785 265.699 254.126L273.553 246.668L267.783 247.052C266.824 247.116 266.085 246.441 266.132 245.544C266.179 244.648 266.994 243.867 267.953 243.806L277.218 243.188L285.069 235.733L268.694 236.823C267.733 236.887 266.993 236.211 267.04 235.312C267.086 234.414 267.902 233.632 268.863 233.57L288.74 232.247L296.688 224.699C295.985 223.866 295.465 222.868 295.192 221.734C294.784 220.04 294.985 218.286 295.661 216.683L283.702 214.435L265.438 225.211C265.299 225.294 265.155 225.358 265.009 225.403C264.259 225.638 263.464 225.399 263.096 224.775C262.657 224.029 262.993 223.017 263.848 222.513L279.027 213.556L268.195 211.52L260.293 216.183C260.154 216.266 260.01 216.33 259.864 216.375C259.113 216.61 258.318 216.372 257.95 215.747C257.511 215.002 257.847 213.988 258.702 213.484L263.519 210.641L254.183 208.887C253.289 208.719 252.796 207.887 253.081 207.03C253.365 206.172 254.322 205.612 255.216 205.781L266.055 207.817L262.42 201.648C261.98 200.902 262.317 199.889 263.171 199.385C264.025 198.879 265.075 199.076 265.514 199.822L270.526 208.327C270.592 208.44 270.639 208.56 270.671 208.685L280.414 210.517L272.564 197.192C272.124 196.447 272.461 195.434 273.315 194.93C274.168 194.425 275.217 194.621 275.657 195.367L285.104 211.398L297.598 213.746C298.338 212.969 299.213 212.293 300.196 211.762L296.848 199.112L279.69 190.763C278.902 190.38 278.673 189.435 279.178 188.653C279.682 187.871 280.731 187.548 281.52 187.932L295.718 194.841L293.078 184.868L284.648 180.765C283.858 180.381 283.629 179.434 284.136 178.65C284.642 177.866 285.693 177.541 286.482 177.925L291.944 180.584L289.198 170.205C288.962 169.316 289.586 168.364 290.59 168.081ZM306.453 214.071C305.36 213.684 304.085 213.644 302.805 214.041C299.805 214.973 297.9 217.955 298.558 220.69C298.709 221.316 298.983 221.875 299.349 222.355C299.968 222.098 300.677 222.172 301.143 222.597C301.523 222.942 301.654 223.442 301.548 223.929C302.64 224.316 303.915 224.356 305.194 223.959C308.194 223.027 310.1 220.045 309.442 217.311C309.291 216.684 309.016 216.124 308.649 215.644C308.592 215.667 308.536 215.69 308.478 215.708C307.904 215.886 307.282 215.789 306.859 215.404C306.478 215.058 306.347 214.558 306.453 214.071Z" fill="white"/>
<path d="M299.253 232.606C299.718 232.155 300.378 231.947 300.979 232.062C301.581 232.175 302.03 232.593 302.156 233.154L303.108 237.395C303.203 237.817 303.104 238.277 302.836 238.67L297.694 246.214C297.435 246.594 297.047 246.871 296.62 247.004C296.321 247.098 296.003 247.121 295.698 247.061C294.957 246.914 294.469 246.312 294.5 245.584L294.85 237.515C294.869 237.082 295.073 236.651 295.414 236.321L299.253 232.606Z" fill="white"/>
<path d="M313.529 229.053C314 228.606 314.663 228.405 315.263 228.525L319.804 229.431C320.255 229.521 320.626 229.785 320.831 230.16L324.769 237.363C325.107 237.982 324.937 238.785 324.351 239.333C324.12 239.55 323.846 239.706 323.558 239.796C323.118 239.934 322.646 239.916 322.247 239.726L314.917 236.232C314.524 236.045 314.245 235.709 314.143 235.298L312.993 230.681C312.855 230.122 313.059 229.5 313.529 229.053Z" fill="white"/>
<path d="M283.895 220.456C284.29 220.222 284.756 220.132 285.184 220.211L290.001 221.082C290.584 221.187 291.025 221.585 291.154 222.122C291.284 222.659 291.081 223.252 290.625 223.675L287.179 226.863C286.961 227.064 286.698 227.215 286.417 227.301C286.259 227.349 286.094 227.378 285.929 227.384L277.17 227.694C276.418 227.721 275.795 227.281 275.641 226.616C275.488 225.951 275.841 225.221 276.508 224.827L283.895 220.456Z" fill="white"/>
<path d="M330.829 210.306C331.581 210.279 332.205 210.719 332.359 211.385C332.512 212.05 332.159 212.779 331.492 213.174L324.104 217.545C323.969 217.625 323.825 217.688 323.677 217.733C323.394 217.82 323.097 217.841 322.815 217.79L317.998 216.918C317.415 216.813 316.974 216.415 316.845 215.878C316.716 215.342 316.918 214.748 317.374 214.326L320.82 211.138C321.163 210.821 321.614 210.633 322.07 210.617L330.829 210.306Z" fill="white"/>
<path d="M283.649 198.667C284.234 198.119 285.093 197.96 285.754 198.275L293.084 201.768C293.478 201.956 293.756 202.292 293.858 202.703L295.007 207.319C295.145 207.878 294.942 208.5 294.471 208.947C294.239 209.167 293.961 209.328 293.666 209.42C293.362 209.515 293.042 209.537 292.737 209.476L288.197 208.569C287.746 208.478 287.376 208.216 287.171 207.84L283.231 200.637C282.894 200.019 283.063 199.215 283.649 198.667Z" fill="white"/>
<path d="M310.307 191.787C310.748 191.14 311.563 190.794 312.304 190.94C313.045 191.087 313.533 191.689 313.501 192.417L313.149 200.487C313.13 200.919 312.928 201.349 312.587 201.68L308.748 205.395C308.514 205.622 308.231 205.787 307.931 205.88C307.635 205.973 307.321 205.996 307.022 205.939C306.42 205.825 305.97 205.408 305.844 204.846L304.893 200.606C304.799 200.185 304.897 199.725 305.165 199.331L310.307 191.787Z" fill="white"/>
</g>
<g opacity="0.1">
<path fill-rule="evenodd" clip-rule="evenodd" d="M-12.3583 30.0742C-11.4331 29.8126 -10.5067 30.2649 -10.2899 31.0841L-7.89939 40.1181L-4.9132 35.4949C-4.44717 34.7723 -3.47802 34.4727 -2.75158 34.8271C-2.02457 35.1806 -1.81348 36.0538 -2.27995 36.7766L-6.89294 43.9198L-4.38223 53.4062L3.53908 41.1503C4.00382 40.4299 4.97147 40.1317 5.69685 40.4856C6.42311 40.8388 6.63432 41.7093 6.16848 42.4297L-3.37887 57.2002L-0.187687 69.2569C1.49074 69.0439 3.10482 69.3176 4.46769 69.9865L11.4774 63.3304L12.436 44.976C12.4788 44.1478 13.2313 43.4275 14.1168 43.3708C15.0017 43.3118 15.6844 43.9347 15.6411 44.7629L14.8388 60.1379L21.6343 53.6849C21.6222 53.5994 21.6172 53.5117 21.6219 53.4224L22.1005 44.2564C22.143 43.4298 22.8924 42.7095 23.7782 42.6536C24.6612 42.5946 25.3427 43.2168 25.2994 44.0433L24.9603 50.5264L33.1914 42.7115C33.8307 42.1032 34.8218 42.0414 35.4031 42.571C35.9851 43.1003 35.9378 44.0215 35.2983 44.6285L28.0575 51.5031L33.3764 51.1487C34.2595 51.0897 34.9409 51.7119 34.8976 52.5384C34.8611 53.2299 34.3288 53.8453 33.6376 54.0617C33.5035 54.1037 33.3634 54.131 33.2199 54.1405L24.6806 54.7095L17.4467 61.5786L32.5379 60.5749C33.4231 60.516 34.1056 61.1397 34.0622 61.9677C34.0262 62.6606 33.4922 63.2773 32.7999 63.4941C32.6656 63.5362 32.5252 63.5634 32.3815 63.5729L14.0636 64.7912L6.73797 71.7476C7.38576 72.5158 7.86583 73.4352 8.1174 74.4799C8.49347 76.0417 8.30674 77.657 7.68431 79.1347L18.7051 81.2062L35.538 71.2758C36.3241 70.8101 37.2915 70.9916 37.6965 71.6788C38.1013 72.3658 37.7909 73.2991 37.0037 73.7634L23.0152 82.0161L32.9957 83.8922L40.2804 79.5949C41.0674 79.1293 42.0341 79.31 42.439 79.9971C42.844 80.6839 42.534 81.6179 41.7462 82.0825L37.3058 84.7022L45.9099 86.3204C46.7334 86.4751 47.1882 87.2417 46.9256 88.0321C46.7497 88.5624 46.2948 88.9687 45.7658 89.1323C45.5062 89.2125 45.2291 89.2344 44.9582 89.1833L34.97 87.3048L38.3207 92.9911C38.7255 93.6782 38.4149 94.612 37.6272 95.0765C37.499 95.1517 37.366 95.2097 37.2318 95.2517C36.5402 95.4682 35.8075 95.2486 35.4686 94.6735L30.8495 86.8354C30.7876 86.7304 30.7447 86.6189 30.7154 86.5049L21.736 84.8172L28.9714 97.0978C29.3764 97.7847 29.0662 98.7179 28.2786 99.1824C28.1504 99.2577 28.0176 99.3164 27.8833 99.3584C27.1918 99.5749 26.4588 99.3545 26.1201 98.7793L17.4143 84.005L5.89952 81.8409C5.21801 82.5573 4.41191 83.1797 3.50594 83.6691L6.59155 95.3274L22.4049 103.023C23.1312 103.376 23.3424 104.247 22.8765 104.967C22.644 105.327 22.2857 105.582 21.8955 105.702C21.5051 105.822 21.0823 105.808 20.7195 105.631L7.63345 99.2634L10.0656 108.454L17.8351 112.236C18.5625 112.59 18.7736 113.462 18.3067 114.185C17.8404 114.908 16.8716 115.208 16.1451 114.853L11.1105 112.403L13.6428 121.969C13.8595 122.788 13.2849 123.664 12.3597 123.926C11.4346 124.187 10.5083 123.736 10.2914 122.917L7.90008 113.882L4.91466 118.505C4.68161 118.866 4.32312 119.121 3.9321 119.242C3.54084 119.363 3.11684 119.35 2.75304 119.173C2.0256 118.819 1.81451 117.946 2.28141 117.223L6.89364 110.079L4.38292 100.593L-3.53762 112.85C-4.00235 113.57 -4.97001 113.868 -5.69539 113.514C-6.42166 113.161 -6.63285 112.29 -6.16701 111.57L3.3788 96.7982L0.188381 84.7423C-1.4903 84.9555 -3.10466 84.6831 -4.46777 84.0142L-11.4774 90.671L-12.4346 109.024C-12.4708 109.718 -13.0047 110.334 -13.6968 110.551C-13.8313 110.593 -13.9723 110.62 -14.1161 110.63C-15.0012 110.689 -15.6836 110.066 -15.6404 109.238L-14.8382 93.862L-21.6343 100.315C-21.6224 100.4 -21.6173 100.488 -21.622 100.578L-22.1006 109.744C-22.1368 110.437 -22.6697 111.053 -23.3606 111.269C-23.4947 111.311 -23.6348 111.338 -23.7782 111.347C-24.6615 111.406 -25.3426 110.784 -25.2995 109.958L-24.9612 103.474L-33.19 111.288C-33.4006 111.488 -33.6489 111.629 -33.9082 111.709C-34.437 111.873 -35.011 111.784 -35.4009 111.43C-35.9829 110.9 -35.9368 109.979 -35.2969 109.371L-28.0591 102.498L-33.3764 102.852C-34.2598 102.911 -34.941 102.289 -34.8977 101.462C-34.855 100.636 -34.1037 99.9163 -33.22 99.8602L-24.6814 99.2905L-17.446 92.4206L-32.5372 93.425C-33.4222 93.484 -34.1048 92.861 -34.0615 92.033C-34.019 91.2047 -33.2666 90.4843 -32.3808 90.4271L-14.0629 89.208L-6.73882 82.2524C-7.38642 81.4842 -7.86595 80.5645 -8.11748 79.52C-8.49353 77.9581 -8.3078 76.3423 -7.68515 74.8644L-18.7059 72.7929L-35.5373 82.7241C-35.6653 82.8007 -35.7987 82.859 -35.9326 82.9009C-36.6241 83.1174 -37.357 82.8973 -37.6958 82.3219C-38.1008 81.6349 -37.7906 80.7017 -37.003 80.2373L-23.0145 71.983L-32.9965 70.1069L-40.279 74.4043C-40.407 74.4809 -40.54 74.539 -40.6743 74.5811C-41.3661 74.7977 -42.0994 74.5777 -42.4383 74.002C-42.8432 73.3153 -42.5331 72.3812 -41.7455 71.9166L-37.3059 69.297L-45.91 67.6803C-46.7336 67.5253 -47.1881 66.759 -46.9257 65.9686C-46.6635 65.1779 -45.782 64.6622 -44.9583 64.8174L-34.9693 66.6943L-38.3193 61.0088C-38.7242 60.3217 -38.4139 59.3879 -37.6265 58.9234C-36.8399 58.4573 -35.8719 58.639 -35.4672 59.3265L-30.8488 67.1645C-30.7878 67.2678 -30.7443 67.3789 -30.7147 67.4942L-21.7361 69.182L-28.9708 56.9022C-29.3755 56.2156 -29.0655 55.282 -28.278 54.8176C-27.4923 54.3522 -26.5252 54.5334 -26.1202 55.2206L-17.4144 69.9942L-5.8996 72.1583C-5.21791 71.4418 -4.41143 70.8194 -3.50525 70.33L-6.59086 58.6717L-22.4034 50.9773C-23.1297 50.6244 -23.3409 49.7536 -22.8751 49.0332C-22.4103 48.3128 -21.4437 48.0149 -20.7173 48.3684L-7.63275 54.7357L-10.0656 45.545L-17.8344 41.7641C-18.5619 41.4103 -18.7731 40.5375 -18.306 39.8147C-17.8399 39.0922 -16.8708 38.7928 -16.1444 39.1468L-11.1106 41.5966L-13.6414 32.0322C-13.8582 31.213 -13.2835 30.3359 -12.3583 30.0742ZM2.26061 72.4579C1.25336 72.101 0.0783079 72.064 -1.10088 72.4301C-3.8661 73.2887 -5.6217 76.0374 -5.01492 78.5572C-4.87586 79.1346 -4.62387 79.6499 -4.2859 80.0921C-3.71603 79.8553 -3.06265 79.923 -2.6329 80.3145C-2.28252 80.6331 -2.16238 81.0933 -2.25991 81.5421C-1.2529 81.8987 -0.0787775 81.9358 1.10004 81.5699C3.86525 80.7114 5.62143 77.9633 5.01484 75.4435C4.87565 74.8654 4.62279 74.3495 4.28428 73.907C4.23227 73.9285 4.18026 73.95 4.12707 73.9665C3.59819 74.1299 3.02424 74.0412 2.63436 73.6862C2.28388 73.3675 2.16287 72.9068 2.26061 72.4579Z" fill="white"/>
<path d="M-4.37452 89.5384C-3.94614 89.1236 -3.33835 88.9318 -2.78394 89.0373C-2.22958 89.1419 -1.81571 89.5266 -1.69967 90.0441L-0.821915 93.9523C-0.734894 94.3408 -0.825894 94.7653 -1.07314 95.1274L-5.81098 102.079C-6.04968 102.43 -6.40807 102.685 -6.80124 102.808C-7.07669 102.894 -7.36965 102.915 -7.65125 102.86C-8.33415 102.725 -8.78358 102.17 -8.75479 101.499L-8.4319 94.0628C-8.41453 93.6635 -8.2271 93.267 -7.91249 92.9626L-4.37452 89.5384Z" fill="white"/>
<path d="M8.78168 86.2648C9.21561 85.853 9.82673 85.667 10.38 85.7776L14.5645 86.613C14.9803 86.6958 15.3218 86.9388 15.5108 87.2847L19.1397 93.923C19.4513 94.4929 19.2945 95.2332 18.7552 95.7382C18.5417 95.9383 18.2893 96.0822 18.0239 96.1651C17.6184 96.2917 17.1838 96.2757 16.8155 96.1002L10.0609 92.8807C9.69816 92.7081 9.44167 92.3984 9.34733 92.0199L8.28771 87.765C8.16004 87.25 8.34818 86.6766 8.78168 86.2648Z" fill="white"/>
<path d="M-18.5279 78.3418C-18.1639 78.1264 -17.7349 78.0433 -17.3404 78.1156L-12.9008 78.9186C-12.3635 79.0156 -11.9575 79.3825 -11.8381 79.8775C-11.719 80.3721 -11.9055 80.9189 -12.3259 81.3081L-15.5017 84.2459C-15.7029 84.4318 -15.9453 84.5703 -16.2037 84.6497C-16.3499 84.6945 -16.5017 84.7208 -16.6538 84.7261L-24.7253 85.0125C-25.4184 85.0373 -25.993 84.6317 -26.1348 84.0189C-26.2761 83.406 -25.9502 82.7334 -25.3357 82.3697L-18.5279 78.3418Z" fill="white"/>
<path d="M24.7245 68.9882C25.4177 68.9634 25.9929 69.3685 26.1348 69.9818C26.2761 70.5949 25.95 71.2673 25.3356 71.631L18.5271 75.6589C18.4023 75.7327 18.27 75.7909 18.1341 75.8326C17.8731 75.9127 17.5991 75.9323 17.3395 75.8851L12.8999 75.0814C12.3626 74.9843 11.9562 74.618 11.8372 74.1232C11.7183 73.6285 11.9049 73.0814 12.325 72.6926L15.5008 69.7548C15.8165 69.4629 16.2321 69.2894 16.6529 69.2746L24.7245 68.9882Z" fill="white"/>
<path d="M-18.7553 58.2618C-18.2156 57.7567 -17.4241 57.6098 -16.8148 57.9004L-10.0602 61.12C-9.69697 61.2929 -9.44072 61.6028 -9.34663 61.9808L-8.28779 66.235C-8.16012 66.7499 -8.34794 67.3233 -8.78176 67.7351C-8.99513 67.9381 -9.25205 68.0865 -9.52388 68.1713C-9.80333 68.2585 -10.0988 68.2791 -10.3801 68.223L-14.5638 67.3869C-14.9792 67.3036 -15.3203 67.0614 -15.5094 66.7152L-19.1398 60.0769C-19.451 59.5074 -19.2945 58.7667 -18.7553 58.2618Z" fill="white"/>
<path d="M5.81244 51.9215C6.21884 51.3248 6.96944 51.006 7.65271 51.141C8.33554 51.276 8.78488 51.8308 8.75625 52.5021L8.43182 59.9387C8.41431 60.3375 8.22766 60.7334 7.91318 61.0381L4.37522 64.4623C4.15999 64.6709 3.89956 64.8229 3.62308 64.9093C3.34945 64.9948 3.06041 65.0157 2.78464 64.9634C2.23046 64.8584 1.81552 64.4738 1.69959 63.9566L0.823383 60.0483C0.736389 59.6602 0.827061 59.2364 1.07384 58.874L5.81244 51.9215Z" fill="white"/>
</g>
</g>
<defs>
<clipPath id="clip0_375_5001">
<rect width="336" height="376" fill="white"/>
</clipPath>
</defs>
</svg>
