<svg width="288" height="462" viewBox="0 0 288 462" fill="none" xmlns="http://www.w3.org/2000/svg">
<g clip-path="url(#clip0_194_32123)">
<g opacity="0.1">
<path fill-rule="evenodd" clip-rule="evenodd" d="M-10.7296 225.074C-9.73469 224.799 -8.73163 225.312 -8.48959 226.219L-5.80392 236.286L-2.52874 231.07C-2.02417 230.266 -0.958511 229.948 -0.15173 230.361C0.655754 230.774 0.900406 231.763 0.395039 232.567L-4.65205 240.605L-1.86597 251.048L6.75002 237.332C7.25356 236.529 8.31786 236.213 9.12365 236.626C9.93042 237.039 10.1751 238.024 9.67041 238.827L-0.714775 255.361L2.74492 268.33C4.64099 268.129 6.4661 268.505 7.99619 269.336L15.9162 261.717L16.7065 241.314C16.7417 240.39 17.5582 239.601 18.5293 239.556C19.4998 239.508 20.2584 240.218 20.2225 241.142L19.5611 258.211L27.0435 251.012C27.0405 250.961 27.0401 250.91 27.0422 250.858L27.439 240.629C27.4741 239.707 28.2865 238.918 29.2584 238.873C30.2273 238.826 30.9841 239.534 30.9482 240.457L30.6741 247.52L39.4801 239.05C40.1773 238.378 41.27 238.328 41.9188 238.936C42.5685 239.544 42.5295 240.58 41.832 241.251L33.9276 248.854L39.919 248.56C40.8879 248.513 41.6447 249.221 41.6088 250.144C41.5786 250.915 41.0027 251.592 40.2467 251.82C40.1 251.864 39.9467 251.891 39.7894 251.899L30.2773 252.365L22.3878 259.955L38.991 259.142C39.9619 259.094 40.7201 259.804 40.6842 260.728C40.6544 261.501 40.0768 262.178 39.32 262.406C39.173 262.451 39.0191 262.478 38.8614 262.486L18.7321 263.472L10.4743 271.415C11.1319 272.253 11.6239 273.236 11.8968 274.337C12.2794 275.882 12.182 277.465 11.6994 278.941L23.6245 281.439L42.0681 270.636C42.9246 270.132 43.9894 270.354 44.4437 271.13C44.8979 271.905 44.5701 272.941 43.7125 273.444L28.3663 282.432L39.1511 284.692L47.4388 279.836C48.2962 279.333 49.3603 279.554 49.8144 280.33C50.2687 281.106 49.9415 282.142 49.0831 282.645L43.8929 285.685L53.7795 287.756C54.6906 287.947 55.203 288.819 54.9239 289.704C54.737 290.298 54.2409 290.746 53.6594 290.92C53.3739 291.005 53.0678 291.024 52.768 290.961L41.9243 288.689L45.4755 294.755C45.9299 295.53 45.6026 296.566 44.7443 297.069C44.6045 297.15 44.4596 297.213 44.3128 297.257C43.5565 297.485 42.7488 297.224 42.3686 296.575L37.1872 287.728C37.1807 287.717 37.1757 287.705 37.1696 287.694L27.1792 285.601L35.222 299.337C35.6762 300.112 35.3488 301.149 34.4907 301.651C34.351 301.732 34.206 301.795 34.0592 301.839C33.3031 302.067 32.4956 301.806 32.1157 301.157L22.4231 284.605L10.0123 282.005C9.16161 283.047 8.08506 283.936 6.83482 284.586L10.1724 297.097L27.7667 306.103C28.5736 306.515 28.8189 307.501 28.3141 308.304C28.0622 308.706 27.6694 308.985 27.2402 309.113C26.8108 309.241 26.3435 309.217 25.9405 309.01L11.3602 301.548L14.0703 311.706L22.7074 316.126C23.5152 316.539 23.7603 317.526 23.2548 318.331C22.75 319.136 21.6846 319.454 20.8778 319.04L15.2602 316.166L18.0938 326.786C18.3356 327.693 17.7244 328.651 16.7295 328.926C15.7347 329.201 14.7315 328.688 14.4896 327.781L11.8039 317.715L8.53007 322.93C8.27763 323.332 7.88503 323.612 7.45485 323.741C7.02458 323.869 6.55707 323.845 6.15306 323.638C5.34514 323.225 5.09989 322.238 5.60561 321.433L10.6513 313.395L7.86526 302.951L-0.750053 316.667C-1.25358 317.47 -2.31789 317.787 -3.12367 317.374C-3.9306 316.961 -4.17523 315.975 -3.67044 315.172L6.71407 298.637L3.25438 285.669C1.35843 285.87 -0.46624 285.494 -1.99622 284.663L-9.91553 292.281L-10.7058 312.686C-10.7359 313.459 -11.3132 314.137 -12.07 314.365C-12.217 314.409 -12.3709 314.437 -12.5286 314.444C-13.4994 314.492 -14.2571 313.782 -14.2212 312.858L-13.5604 295.787L-21.0435 302.986C-21.0405 303.037 -21.0394 303.089 -21.0415 303.142L-21.4377 313.372C-21.4678 314.144 -22.0443 314.821 -22.7998 315.049C-22.9466 315.093 -23.1003 315.12 -23.2577 315.127C-24.2269 315.175 -24.9834 314.466 -24.9476 313.544L-24.6742 306.478L-33.4794 314.949C-33.7092 315.171 -33.9813 315.324 -34.2664 315.409C-34.8479 315.583 -35.4829 315.472 -35.9182 315.064C-36.5678 314.457 -36.5292 313.42 -35.8314 312.749L-27.929 305.146L-33.9177 305.44C-34.887 305.487 -35.6441 304.779 -35.6082 303.856C-35.573 302.934 -34.7579 302.145 -33.7881 302.101L-24.2787 301.634L-16.3879 294.044L-32.991 294.857C-33.9615 294.905 -34.7195 294.195 -34.6836 293.271C-34.6483 292.348 -33.8327 291.559 -32.8614 291.514L-12.7321 290.527L-4.47499 282.583C-5.13222 281.746 -5.62403 280.763 -5.89686 279.662C-6.27949 278.117 -6.18295 276.534 -5.70013 275.057L-17.6245 272.56L-36.0674 283.364C-36.2068 283.447 -36.3519 283.509 -36.4982 283.553C-37.2544 283.781 -38.0623 283.52 -38.4424 282.871C-38.8967 282.095 -38.5693 281.059 -37.7111 280.556L-22.3664 271.566L-33.1511 269.307L-41.4381 274.162C-41.5775 274.245 -41.7227 274.308 -41.8695 274.352C-42.626 274.579 -43.4343 274.319 -43.8144 273.669C-44.2687 272.894 -43.9408 271.857 -43.0825 271.354L-37.8936 268.314L-47.7795 266.244C-48.6907 266.053 -49.2029 265.181 -48.9239 264.296C-48.6453 263.411 -47.6795 262.847 -46.7681 263.039L-35.9243 265.31L-39.4756 259.245C-39.93 258.47 -39.6022 257.433 -38.7443 256.93C-37.8873 256.426 -36.822 256.649 -36.3679 257.425L-31.1872 266.272C-31.1808 266.283 -31.1764 266.295 -31.1703 266.306L-21.1792 268.398L-29.2213 254.663C-29.6755 253.888 -29.3487 252.852 -28.4907 252.349C-27.6346 251.845 -26.5694 252.067 -26.115 252.843L-16.4225 269.395L-4.01302 271.994C-3.16238 270.952 -2.08564 270.063 -0.835526 269.414L-4.17311 256.902L-21.7667 247.897C-22.5735 247.485 -22.8187 246.499 -22.3141 245.696C-21.8107 244.893 -20.7475 244.577 -19.9405 244.99L-5.36094 252.452L-8.07104 242.293L-16.7067 237.874C-17.5146 237.461 -17.7597 236.474 -17.2542 235.669C-16.7496 234.864 -15.6839 234.546 -14.8771 234.96L-9.2609 237.833L-12.0931 227.214C-12.3349 226.308 -11.7244 225.349 -10.7296 225.074ZM5.72229 272.084C4.54651 271.559 3.13707 271.447 1.72872 271.869C-1.30206 272.775 -3.19764 275.815 -2.49686 278.644C-2.34354 279.263 -2.07847 279.822 -1.72623 280.307C-1.17321 280.174 -0.585762 280.296 -0.175472 280.68C0.175465 281.008 0.323902 281.461 0.277679 281.915C1.45354 282.44 2.86275 282.553 4.27126 282.132C7.30213 281.225 9.19778 278.185 8.49683 275.355C8.34348 274.736 8.07851 274.177 7.7262 273.692C7.1731 273.825 6.58567 273.705 6.17544 273.321C5.82413 272.992 5.67555 272.538 5.72229 272.084Z" fill="white"/>
<path d="M-1.94059 290.828C-1.47686 290.375 -0.813904 290.173 -0.204639 290.302C0.404739 290.43 0.864304 290.867 0.998791 291.446L2.01499 295.821C2.1159 296.256 2.02319 296.727 1.75721 297.126L-3.3394 304.78C-3.59614 305.166 -3.98535 305.442 -4.41462 305.571C-4.71534 305.661 -5.03589 305.679 -5.34534 305.612C-6.09577 305.447 -6.59659 304.82 -6.57455 304.072L-6.32423 295.788C-6.31075 295.343 -6.11122 294.906 -5.77068 294.573L-1.94059 290.828Z" fill="white"/>
<path d="M12.7082 287.107C13.1778 286.657 13.8446 286.461 14.4523 286.596L19.0475 287.613C19.5042 287.714 19.8817 287.991 20.0936 288.38L24.1625 295.85C24.5117 296.491 24.35 297.313 23.7663 297.864C23.5351 298.083 23.2603 298.238 22.9706 298.325C22.5281 298.458 22.0516 298.432 21.6457 298.228L14.2019 294.503C13.802 294.303 13.5161 293.953 13.4076 293.53L12.1879 288.768C12.0408 288.191 12.2391 287.557 12.7082 287.107Z" fill="white"/>
<path d="M-17.554 278.411C-17.1547 278.175 -16.6816 278.089 -16.2447 278.178L-11.3293 279.173C-10.7342 279.293 -10.2807 279.714 -10.1421 280.275C-10.0037 280.836 -10.2024 281.45 -10.6617 281.881L-14.1309 285.134C-14.3508 285.34 -14.6164 285.491 -14.9009 285.576C-15.0618 285.624 -15.2288 285.65 -15.3968 285.653L-24.3113 285.818C-25.0766 285.832 -25.7168 285.363 -25.8817 284.668C-26.046 283.974 -25.6954 283.221 -25.0215 282.822L-17.554 278.411Z" fill="white"/>
<path d="M30.3112 268.183C31.0768 268.169 31.7174 268.637 31.8823 269.332C32.0467 270.027 31.6955 270.779 31.0215 271.178L23.554 275.59C23.417 275.671 23.2716 275.734 23.1218 275.779C22.8346 275.864 22.5321 275.88 22.2447 275.822L17.3292 274.828C16.7342 274.708 16.2802 274.286 16.1421 273.725C16.004 273.164 16.2026 272.55 16.6617 272.119L20.1309 268.866C20.4757 268.542 20.9327 268.356 21.3974 268.347L30.3112 268.183Z" fill="white"/>
<path d="M-17.767 256.136C-17.183 255.584 -16.3179 255.436 -15.6464 255.772L-8.20196 259.497C-7.80161 259.697 -7.51663 260.047 -7.40827 260.47L-6.18856 265.232C-6.04148 265.808 -6.23924 266.443 -6.70887 266.893C-6.93976 267.115 -7.21886 267.275 -7.51545 267.364C-7.82038 267.455 -8.14403 267.472 -8.45296 267.404L-13.0476 266.387C-13.5038 266.286 -13.8816 266.009 -14.0936 265.62L-18.1625 258.15C-18.5117 257.509 -18.3506 256.687 -17.767 256.136Z" fill="white"/>
<path d="M9.34005 249.221C9.77713 248.564 10.5951 248.225 11.346 248.389C12.0965 248.554 12.5973 249.181 12.5752 249.929L12.3242 258.212C12.3107 258.656 12.1112 259.094 11.7707 259.427L7.94057 263.172C7.70758 263.401 7.42429 263.565 7.12245 263.655C6.82378 263.745 6.50756 263.763 6.20461 263.699C5.59563 263.571 5.13565 263.133 5.00118 262.554L3.98498 258.179C3.88418 257.744 3.97739 257.274 4.24276 256.875L9.34005 249.221Z" fill="white"/>
</g>
<g opacity="0.1">
<path fill-rule="evenodd" clip-rule="evenodd" d="M262.27 354.074C263.265 353.799 264.268 354.312 264.51 355.219L267.196 365.286L270.471 360.07C270.976 359.266 272.041 358.948 272.848 359.361C273.656 359.774 273.9 360.763 273.395 361.567L268.348 369.605L271.134 380.048L279.75 366.332C280.254 365.529 281.318 365.213 282.124 365.626C282.93 366.039 283.175 367.024 282.67 367.827L272.285 384.361L275.745 397.33C277.641 397.129 279.466 397.505 280.996 398.336L288.916 390.717L289.706 370.314C289.742 369.39 290.558 368.601 291.529 368.556C292.5 368.508 293.258 369.218 293.222 370.142L292.561 387.211L300.044 380.012C300.041 379.961 300.04 379.91 300.042 379.858L300.439 369.629C300.474 368.707 301.286 367.918 302.258 367.873C303.227 367.826 303.984 368.534 303.948 369.457L303.674 376.52L312.48 368.05C313.177 367.378 314.27 367.328 314.919 367.936C315.568 368.544 315.53 369.58 314.832 370.251L306.928 377.854L312.919 377.56C313.888 377.513 314.645 378.221 314.609 379.144C314.579 379.915 314.003 380.592 313.247 380.82C313.1 380.864 312.947 380.891 312.789 380.899L303.277 381.365L295.388 388.955L311.991 388.142C312.962 388.094 313.72 388.804 313.684 389.728C313.654 390.501 313.077 391.178 312.32 391.406C312.173 391.451 312.019 391.478 311.861 391.486L291.732 392.472L283.474 400.415C284.132 401.253 284.624 402.236 284.897 403.337C285.279 404.882 285.182 406.465 284.699 407.941L296.625 410.439L315.068 399.636C315.925 399.132 316.989 399.354 317.444 400.13C317.898 400.905 317.57 401.941 316.712 402.444L301.366 411.432L312.151 413.692L320.439 408.836C321.296 408.333 322.36 408.554 322.814 409.33C323.269 410.106 322.941 411.142 322.083 411.645L316.893 414.685L326.779 416.756C327.691 416.947 328.203 417.819 327.924 418.704C327.737 419.298 327.241 419.746 326.659 419.92C326.374 420.005 326.068 420.024 325.768 419.961L314.924 417.689L318.476 423.755C318.93 424.53 318.603 425.566 317.744 426.069C317.604 426.15 317.46 426.213 317.313 426.257C316.557 426.485 315.749 426.224 315.369 425.575L310.187 416.728C310.181 416.717 310.176 416.705 310.17 416.694L300.179 414.601L308.222 428.337C308.676 429.112 308.349 430.149 307.491 430.651C307.351 430.732 307.206 430.795 307.059 430.839C306.303 431.067 305.496 430.806 305.116 430.157L295.423 413.605L283.012 411.005C282.162 412.047 281.085 412.936 279.835 413.586L283.172 426.097L300.767 435.103C301.574 435.515 301.819 436.501 301.314 437.304C301.062 437.706 300.669 437.985 300.24 438.113C299.811 438.241 299.343 438.217 298.94 438.01L284.36 430.548L287.07 440.706L295.707 445.126C296.515 445.539 296.76 446.526 296.255 447.331C295.75 448.136 294.685 448.454 293.878 448.04L288.26 445.166L291.094 455.786C291.336 456.693 290.724 457.651 289.73 457.926C288.735 458.201 287.732 457.688 287.49 456.781L284.804 446.715L281.53 451.93C281.278 452.332 280.885 452.612 280.455 452.741C280.025 452.869 279.557 452.845 279.153 452.638C278.345 452.225 278.1 451.238 278.606 450.433L283.651 442.395L280.865 431.951L272.25 445.667C271.746 446.47 270.682 446.787 269.876 446.374C269.069 445.961 268.825 444.975 269.33 444.172L279.714 427.637L276.254 414.669C274.358 414.87 272.534 414.494 271.004 413.663L263.084 421.281L262.294 441.686C262.264 442.459 261.687 443.137 260.93 443.365C260.783 443.409 260.629 443.437 260.471 443.444C259.501 443.492 258.743 442.782 258.779 441.858L259.44 424.787L251.956 431.986C251.96 432.037 251.961 432.089 251.958 432.142L251.562 442.372C251.532 443.144 250.956 443.821 250.2 444.049C250.053 444.093 249.9 444.12 249.742 444.127C248.773 444.175 248.017 443.466 248.052 442.544L248.326 435.478L239.521 443.949C239.291 444.171 239.019 444.324 238.734 444.409C238.152 444.583 237.517 444.472 237.082 444.064C236.432 443.457 236.471 442.42 237.169 441.749L245.071 434.146L239.082 434.44C238.113 434.487 237.356 433.779 237.392 432.856C237.427 431.934 238.242 431.145 239.212 431.101L248.721 430.634L256.612 423.044L240.009 423.857C239.039 423.905 238.28 423.195 238.316 422.271C238.352 421.348 239.167 420.559 240.139 420.514L260.268 419.527L268.525 411.583C267.868 410.746 267.376 409.763 267.103 408.662C266.721 407.117 266.817 405.534 267.3 404.057L255.375 401.56L236.933 412.364C236.793 412.447 236.648 412.509 236.502 412.553C235.746 412.781 234.938 412.52 234.558 411.871C234.103 411.095 234.431 410.059 235.289 409.556L250.634 400.566L239.849 398.307L231.562 403.162C231.422 403.245 231.277 403.308 231.13 403.352C230.374 403.579 229.566 403.319 229.186 402.669C228.731 401.894 229.059 400.857 229.918 400.354L235.106 397.314L225.22 395.244C224.309 395.053 223.797 394.181 224.076 393.296C224.355 392.411 225.321 391.847 226.232 392.039L237.076 394.31L233.524 388.245C233.07 387.47 233.398 386.433 234.256 385.93C235.113 385.426 236.178 385.649 236.632 386.425L241.813 395.272C241.819 395.283 241.824 395.295 241.83 395.306L251.821 397.398L243.779 383.663C243.325 382.888 243.651 381.852 244.509 381.349C245.365 380.845 246.431 381.067 246.885 381.843L256.578 398.395L268.987 400.994C269.838 399.952 270.914 399.063 272.164 398.414L268.827 385.902L251.233 376.897C250.427 376.485 250.181 375.499 250.686 374.696C251.189 373.893 252.252 373.577 253.059 373.99L267.639 381.452L264.929 371.293L256.293 366.874C255.485 366.461 255.24 365.474 255.746 364.669C256.25 363.864 257.316 363.546 258.123 363.96L263.739 366.833L260.907 356.214C260.665 355.308 261.276 354.349 262.27 354.074ZM278.722 401.084C277.547 400.559 276.137 400.447 274.729 400.869C271.698 401.775 269.802 404.815 270.503 407.644C270.656 408.263 270.922 408.822 271.274 409.307C271.827 409.174 272.414 409.296 272.825 409.68C273.175 410.008 273.324 410.461 273.278 410.915C274.454 411.44 275.863 411.553 277.271 411.132C280.302 410.225 282.198 407.185 281.497 404.355C281.343 403.736 281.079 403.177 280.726 402.692C280.173 402.825 279.586 402.705 279.175 402.321C278.824 401.992 278.676 401.538 278.722 401.084Z" fill="white"/>
<path d="M271.059 419.828C271.523 419.375 272.186 419.173 272.795 419.302C273.405 419.43 273.864 419.867 273.999 420.446L275.015 424.821C275.116 425.256 275.023 425.727 274.757 426.126L269.661 433.78C269.404 434.166 269.015 434.442 268.585 434.571C268.285 434.661 267.964 434.679 267.655 434.612C266.904 434.447 266.403 433.82 266.425 433.072L266.676 424.788C266.689 424.343 266.889 423.906 267.229 423.573L271.059 419.828Z" fill="white"/>
<path d="M285.708 416.107C286.178 415.657 286.845 415.461 287.452 415.596L292.048 416.613C292.504 416.714 292.882 416.991 293.094 417.38L297.162 424.85C297.512 425.491 297.35 426.313 296.766 426.864C296.535 427.083 296.26 427.238 295.971 427.325C295.528 427.458 295.052 427.432 294.646 427.228L287.202 423.503C286.802 423.303 286.516 422.953 286.408 422.53L285.188 417.768C285.041 417.191 285.239 416.557 285.708 416.107Z" fill="white"/>
<path d="M255.446 407.411C255.845 407.175 256.318 407.089 256.755 407.178L261.671 408.173C262.266 408.293 262.719 408.714 262.858 409.275C262.996 409.836 262.798 410.45 262.338 410.881L258.869 414.134C258.649 414.34 258.384 414.491 258.099 414.576C257.938 414.624 257.771 414.65 257.603 414.653L248.689 414.818C247.923 414.832 247.283 414.363 247.118 413.668C246.954 412.974 247.305 412.221 247.978 411.822L255.446 407.411Z" fill="white"/>
<path d="M303.311 397.183C304.077 397.169 304.717 397.637 304.882 398.332C305.047 399.027 304.695 399.779 304.021 400.178L296.554 404.59C296.417 404.671 296.272 404.734 296.122 404.779C295.835 404.864 295.532 404.88 295.245 404.822L290.329 403.828C289.734 403.708 289.28 403.286 289.142 402.725C289.004 402.164 289.203 401.55 289.662 401.119L293.131 397.866C293.476 397.542 293.933 397.356 294.397 397.347L303.311 397.183Z" fill="white"/>
<path d="M255.233 385.136C255.817 384.584 256.682 384.436 257.354 384.772L264.798 388.497C265.198 388.697 265.483 389.047 265.592 389.47L266.811 394.232C266.959 394.808 266.761 395.443 266.291 395.893C266.06 396.115 265.781 396.275 265.485 396.364C265.18 396.455 264.856 396.472 264.547 396.404L259.952 395.387C259.496 395.286 259.118 395.009 258.906 394.62L254.838 387.15C254.488 386.509 254.649 385.687 255.233 385.136Z" fill="white"/>
<path d="M282.34 378.221C282.777 377.564 283.595 377.225 284.346 377.389C285.097 377.554 285.597 378.181 285.575 378.929L285.324 387.212C285.311 387.656 285.111 388.094 284.771 388.427L280.941 392.172C280.708 392.401 280.424 392.565 280.122 392.655C279.824 392.745 279.508 392.763 279.205 392.699C278.596 392.571 278.136 392.133 278.001 391.554L276.985 387.179C276.884 386.744 276.977 386.274 277.243 385.875L282.34 378.221Z" fill="white"/>
</g>
<g opacity="0.1">
<path fill-rule="evenodd" clip-rule="evenodd" d="M234.27 43.0742C235.265 42.7993 236.268 43.3118 236.51 44.2187L239.196 54.2861L242.471 49.0704C242.976 48.2656 244.041 47.9475 244.848 48.3613C245.656 48.7742 245.9 49.7625 245.395 50.5674L240.348 58.6046L243.134 69.0477L251.75 55.3321C252.254 54.5292 253.318 54.2131 254.124 54.6264C254.93 55.0392 255.175 56.0241 254.67 56.8271L244.285 73.3614L247.745 86.3298C249.641 86.1288 251.466 86.5049 252.996 87.3364L260.916 79.7169L261.706 59.3137C261.742 58.3901 262.558 57.6011 263.529 57.5559C264.5 57.5082 265.258 58.2182 265.222 59.1419L264.561 76.2107L272.044 69.0123C272.041 68.9614 272.04 68.9099 272.042 68.8582L272.439 58.6291C272.474 57.7066 273.286 56.9176 274.258 56.8733C275.227 56.8256 275.984 57.5342 275.948 58.4566L275.674 65.5198L284.48 57.0499C285.177 56.3778 286.27 56.3278 286.919 56.9358C287.568 57.5435 287.53 58.5804 286.832 59.2512L278.928 66.8538L284.919 66.5603C285.888 66.5127 286.645 67.2213 286.609 68.1436C286.579 68.9155 286.003 69.5923 285.247 69.8199C285.1 69.864 284.947 69.8911 284.789 69.8987L275.277 70.3653L267.388 77.955L283.991 77.1419C284.962 77.0941 285.72 77.8043 285.684 78.7279C285.654 79.5007 285.077 80.1785 284.32 80.4063C284.173 80.4505 284.019 80.4781 283.861 80.4857L263.732 81.472L255.474 89.4155C256.132 90.2529 256.624 91.2358 256.897 92.3375C257.279 93.882 257.182 95.4648 256.699 96.9412L268.625 99.4394L287.068 88.6357C287.925 88.1318 288.989 88.3537 289.444 89.1295C289.898 89.905 289.57 90.9413 288.712 91.4436L273.366 100.432L284.151 102.692L292.439 97.8365C293.296 97.3327 294.36 97.5544 294.814 98.3303C295.269 99.1055 294.941 100.142 294.083 100.645L288.893 103.685L298.779 105.756C299.691 105.947 300.203 106.819 299.924 107.704C299.737 108.298 299.241 108.746 298.659 108.92C298.374 109.005 298.068 109.024 297.768 108.961L286.924 106.689L290.476 112.755C290.93 113.53 290.603 114.566 289.744 115.069C289.604 115.15 289.46 115.213 289.313 115.257C288.557 115.485 287.749 115.224 287.369 114.575L282.187 105.728C282.181 105.717 282.176 105.705 282.17 105.694L272.179 103.601L280.222 117.337C280.676 118.112 280.349 119.149 279.491 119.651C279.351 119.732 279.206 119.795 279.059 119.839C278.303 120.067 277.496 119.806 277.116 119.157L267.423 102.605L255.012 100.005C254.162 101.047 253.085 101.936 251.835 102.586L255.172 115.097L272.767 124.103C273.574 124.515 273.819 125.501 273.314 126.304C273.062 126.706 272.669 126.985 272.24 127.113C271.811 127.241 271.343 127.217 270.94 127.01L256.36 119.548L259.07 129.706L267.707 134.126C268.515 134.539 268.76 135.526 268.255 136.331C267.75 137.136 266.685 137.454 265.878 137.04L260.26 134.166L263.094 144.786C263.336 145.693 262.724 146.651 261.73 146.926C260.735 147.201 259.732 146.688 259.49 145.781L256.804 135.715L253.53 140.93C253.278 141.332 252.885 141.612 252.455 141.741C252.025 141.869 251.557 141.845 251.153 141.638C250.345 141.225 250.1 140.238 250.606 139.433L255.651 131.395L252.865 120.951L244.25 134.667C243.746 135.47 242.682 135.787 241.876 135.374C241.069 134.961 240.825 133.975 241.33 133.172L251.714 116.637L248.254 103.669C246.358 103.87 244.534 103.494 243.004 102.663L235.084 110.281L234.294 130.686C234.264 131.459 233.687 132.137 232.93 132.365C232.783 132.409 232.629 132.437 232.471 132.444C231.501 132.492 230.743 131.782 230.779 130.858L231.44 113.787L223.956 120.986C223.96 121.037 223.961 121.089 223.958 121.142L223.562 131.372C223.532 132.144 222.956 132.821 222.2 133.049C222.053 133.093 221.9 133.12 221.742 133.127C220.773 133.175 220.017 132.466 220.052 131.544L220.326 124.478L211.521 132.949C211.291 133.171 211.019 133.324 210.734 133.409C210.152 133.583 209.517 133.472 209.082 133.064C208.432 132.457 208.471 131.42 209.169 130.749L217.071 123.146L211.082 123.44C210.113 123.487 209.356 122.779 209.392 121.856C209.427 120.934 210.242 120.145 211.212 120.101L220.721 119.634L228.612 112.044L212.009 112.857C211.039 112.905 210.28 112.195 210.316 111.271C210.352 110.348 211.167 109.559 212.139 109.514L232.268 108.527L240.525 100.583C239.868 99.7459 239.376 98.7633 239.103 97.6619C238.721 96.1172 238.817 94.5341 239.3 93.0575L227.375 90.56L208.933 101.364C208.793 101.447 208.648 101.509 208.502 101.553C207.746 101.781 206.938 101.52 206.558 100.871C206.103 100.095 206.431 99.0589 207.289 98.5564L222.634 89.5663L211.849 87.3072L203.562 92.1622C203.422 92.2452 203.277 92.3075 203.13 92.3517C202.374 92.5794 201.566 92.319 201.186 91.6691C200.731 90.8939 201.059 89.8569 201.918 89.3543L207.106 86.3141L197.22 84.2439C196.309 84.0529 195.797 83.1808 196.076 82.2959C196.355 81.4107 197.321 80.8472 198.232 81.0386L209.076 83.31L205.524 77.2452C205.07 76.4696 205.398 75.4328 206.256 74.9304C207.113 74.4259 208.178 74.6488 208.632 75.4249L213.813 84.2717C213.819 84.2826 213.824 84.2947 213.83 84.3057L223.821 86.3984L215.779 72.6632C215.325 71.8881 215.651 70.8516 216.509 70.349C217.365 69.8452 218.431 70.0671 218.885 70.8428L228.578 87.3948L240.987 89.9942C241.838 88.9525 242.914 88.063 244.164 87.4138L240.827 74.9019L223.233 65.8974C222.427 65.4851 222.181 64.4991 222.686 63.6961C223.189 62.8931 224.252 62.5768 225.059 62.9897L239.639 70.4516L236.929 60.2932L228.293 55.8742C227.485 55.461 227.24 54.4737 227.746 53.6687C228.25 52.8641 229.316 52.5461 230.123 52.9596L235.739 55.8334L232.907 45.2145C232.665 44.3075 233.276 43.3492 234.27 43.0742ZM250.722 90.0838C249.547 89.5591 248.137 89.4471 246.729 89.8685C243.698 90.7754 241.802 93.8149 242.503 96.6444C242.656 97.2633 242.922 97.822 243.274 98.3072C243.827 98.1745 244.414 98.2957 244.825 98.6801C245.175 99.0084 245.324 99.4615 245.278 99.9149C246.454 100.44 247.863 100.553 249.271 100.132C252.302 99.2246 254.198 96.1846 253.497 93.355C253.343 92.736 253.079 92.1775 252.726 91.6922C252.173 91.8249 251.586 91.7048 251.175 91.3207C250.824 90.992 250.676 90.5377 250.722 90.0838Z" fill="white"/>
<path d="M243.059 108.828C243.523 108.375 244.186 108.173 244.795 108.302C245.405 108.43 245.864 108.867 245.999 109.446L247.015 113.821C247.116 114.256 247.023 114.727 246.757 115.126L241.661 122.78C241.404 123.166 241.015 123.442 240.585 123.571C240.285 123.661 239.964 123.679 239.655 123.612C238.904 123.447 238.403 122.82 238.425 122.072L238.676 113.788C238.689 113.343 238.889 112.906 239.229 112.573L243.059 108.828Z" fill="white"/>
<path d="M257.708 105.107C258.178 104.657 258.845 104.461 259.452 104.596L264.048 105.613C264.504 105.714 264.882 105.991 265.094 106.38L269.162 113.85C269.512 114.491 269.35 115.313 268.766 115.864C268.535 116.083 268.26 116.238 267.971 116.325C267.528 116.458 267.052 116.432 266.646 116.228L259.202 112.503C258.802 112.303 258.516 111.953 258.408 111.53L257.188 106.768C257.041 106.191 257.239 105.557 257.708 105.107Z" fill="white"/>
<path d="M227.446 96.4108C227.845 96.1747 228.318 96.0891 228.755 96.1785L233.671 97.1729C234.266 97.293 234.719 97.7142 234.858 98.2752C234.996 98.836 234.798 99.4498 234.338 99.8809L230.869 103.134C230.649 103.34 230.384 103.491 230.099 103.576C229.938 103.624 229.771 103.65 229.603 103.653L220.689 103.818C219.923 103.832 219.283 103.363 219.118 102.668C218.954 101.974 219.305 101.221 219.978 100.822L227.446 96.4108Z" fill="white"/>
<path d="M275.311 86.1831C276.077 86.1687 276.717 86.6372 276.882 87.3323C277.047 88.0272 276.695 88.7794 276.021 89.1777L268.554 93.59C268.417 93.671 268.272 93.7343 268.122 93.7788C267.835 93.8641 267.532 93.88 267.245 93.8216L262.329 92.8279C261.734 92.7078 261.28 92.2857 261.142 91.7248C261.004 91.164 261.203 90.5498 261.662 90.1191L265.131 86.8657C265.476 86.5424 265.933 86.3559 266.397 86.3474L275.311 86.1831Z" fill="white"/>
<path d="M227.233 74.1357C227.817 73.5841 228.682 73.4356 229.354 73.7716L236.798 77.4972C237.198 77.6972 237.483 78.0474 237.592 78.4705L238.811 83.2318C238.959 83.8082 238.761 84.4432 238.291 84.8932C238.06 85.115 237.781 85.2749 237.485 85.3639C237.18 85.4554 236.856 85.4722 236.547 85.404L231.952 84.3872C231.496 84.286 231.118 84.0093 230.906 83.6197L226.838 76.1503C226.488 75.5094 226.649 74.6873 227.233 74.1357Z" fill="white"/>
<path d="M254.34 67.2212C254.777 66.5644 255.595 66.2248 256.346 66.3892C257.097 66.5537 257.597 67.1811 257.575 67.929L257.324 76.2121C257.311 76.6564 257.111 77.0939 256.771 77.4272L252.941 81.1724C252.708 81.4006 252.424 81.5646 252.122 81.6554C251.824 81.7451 251.508 81.7628 251.205 81.6988C250.596 81.5705 250.136 81.1333 250.001 80.5543L248.985 76.1788C248.884 75.7444 248.977 75.2736 249.243 74.8747L254.34 67.2212Z" fill="white"/>
</g>
</g>
<defs>
<clipPath id="clip0_194_32123">
<rect width="288" height="462" fill="white"/>
</clipPath>
</defs>
</svg>
