<svg width="20" height="20" viewBox="0 0 20 20" fill="none" xmlns="http://www.w3.org/2000/svg">
<path d="M9.9268 19.4998C10.7552 19.4998 11.4268 18.8283 11.4268 17.9998V12.5985L16.1065 15.2996C16.8238 15.7138 17.741 15.468 18.1553 14.7508C18.5695 14.0334 18.3239 13.1162 17.6065 12.702L12.9268 10.0018L17.6065 7.29963C18.3239 6.88542 18.5695 5.96824 18.1553 5.2508C17.7411 4.5335 16.8239 4.2878 16.1065 4.70197L11.4268 7.40412V1.99982C11.4267 1.17148 10.7552 0.499825 9.9268 0.499825C9.09845 0.49985 8.42689 1.17149 8.4268 1.99982V7.40217L3.75004 4.70197C3.03264 4.28783 2.11543 4.53346 1.70121 5.2508C1.28711 5.96818 1.53275 6.8854 2.25004 7.29963L6.92777 10.0018L2.25004 12.702C1.53276 13.1162 1.28704 14.0334 1.70121 14.7508C2.11542 15.4681 3.03265 15.7137 3.75004 15.2996L8.4268 12.6004V17.9998C8.4268 18.8282 9.09839 19.4998 9.9268 19.4998Z" fill="#FB0A00"/>
</svg>
