<svg width="630" height="750" viewBox="0 0 630 750" fill="none" xmlns="http://www.w3.org/2000/svg">
<g clip-path="url(#clip0_78_9354)">
<g opacity="0.1">
<path d="M24.5184 542.063C26.0357 541.666 27.8143 542.658 28.3064 544.174L34.407 562.985C34.9196 564.564 34.0536 566.18 32.4734 566.592C31.6833 566.8 30.8641 566.666 30.1785 566.283C29.4931 565.901 28.941 565.27 28.6853 564.481L24.8494 552.655L19.3162 562.74L21.7977 570.389C22.311 571.971 21.4443 573.589 19.8621 574.001C18.2803 574.416 16.5796 573.468 16.0682 571.886L15.4109 569.86L9.45195 580.723C9.531 580.833 9.60792 580.945 9.68144 581.061C11.6904 584.216 10.8096 588.228 7.71269 590.023C4.61496 591.817 0.474801 590.715 -1.53536 587.56C-3.54541 584.405 -2.66267 580.393 0.434368 578.598C1.49708 577.982 2.68222 577.706 3.8621 577.739L10.0769 566.408L7.2039 567.16C6.41305 567.368 5.59265 567.234 4.90605 566.851C4.21945 566.468 3.66601 565.836 3.40995 565.045C2.89666 563.463 3.76302 561.846 5.3455 561.433L14.0555 559.156L19.2781 549.637L7.92265 552.607C6.3437 553.021 4.64697 552.074 4.13456 550.494C3.62217 548.915 4.48791 547.301 6.06816 546.888L24.5184 542.063Z" fill="white"/>
<path d="M65.0779 543.063C65.4275 541.471 67.0427 540.537 68.6844 540.974L88.243 546.181C89.885 546.613 90.9331 548.261 90.5838 549.853C90.2346 551.444 88.6196 552.38 86.9773 551.943L74.3182 548.572L80.4744 558.311L88.4432 560.433C90.0833 560.865 91.1332 562.513 90.783 564.105C90.4335 565.696 88.8187 566.631 87.1766 566.194L85.1092 565.643L91.5428 575.822C91.5551 575.822 91.5675 575.821 91.5799 575.822C95.2674 575.845 98.4126 578.805 98.6043 582.435C98.7964 586.065 95.9627 588.988 92.2752 588.965C88.5879 588.942 85.4429 585.981 85.2508 582.351C85.1746 580.905 85.5794 579.572 86.326 578.491L79.658 567.943L78.9432 571.197C78.5937 572.788 76.9782 573.723 75.3367 573.285C75.0703 573.214 74.8188 573.111 74.5867 572.982C73.3916 572.315 72.7049 570.945 72.9978 569.614L74.9881 560.555L69.4529 551.798L66.9412 563.224C66.5917 564.815 64.9765 565.75 63.3348 565.313C63.0664 565.242 62.8157 565.139 62.5838 565.01C61.3884 564.343 60.7007 562.973 60.9939 561.641L65.0779 543.063Z" fill="white"/>
<path fill-rule="evenodd" clip-rule="evenodd" d="M45.9324 521.46C46.7752 521.465 47.595 521.813 48.2039 522.419L57.2615 531.469C58.0066 532.214 58.3383 533.259 58.1424 534.242L51.3553 568.31C51.0898 569.644 49.9197 570.577 48.5193 570.568C47.9708 570.563 47.4413 570.416 46.9764 570.156C46.2563 569.755 45.6904 569.087 45.4432 568.274L35.0623 534.101C34.7617 533.113 34.9837 532.073 35.6512 531.337L43.7615 522.392C44.305 521.792 45.0909 521.455 45.9324 521.46ZM41.3797 534.281L47.7049 555.101L51.8387 534.345L46.3211 528.83L41.3797 534.281Z" fill="white"/>
<path fill-rule="evenodd" clip-rule="evenodd" d="M17.0262 511.602C17.733 510.902 18.7747 510.623 19.7918 510.861L32.1551 513.746C32.9821 513.94 33.7141 514.456 34.1736 515.177C34.6319 515.896 34.7781 516.753 34.576 517.543L31.5672 529.33C31.3196 530.301 30.5806 531.054 29.6033 531.329L-4.22091 540.87C-5.0273 541.098 -5.88459 540.974 -6.60469 540.573C-7.06967 540.313 -7.47745 539.939 -7.77657 539.469C-8.54007 538.272 -8.40227 536.765 -7.44356 535.817L17.0262 511.602ZM5.43534 531.819L26.0418 526.006L27.8758 518.824L20.3436 517.067L5.43534 531.819Z" fill="white"/>
<path fill-rule="evenodd" clip-rule="evenodd" d="M72.1043 509.618C73.0822 509.395 74.1362 509.681 74.9031 510.379L101.478 534.481C102.519 535.425 102.81 536.909 102.182 538.078C101.555 539.248 100.171 539.8 98.8289 539.417L64.5623 529.649C64.323 529.579 64.0948 529.485 63.8807 529.365C63.2102 528.992 62.6839 528.387 62.4227 527.66L58.2469 516.028C57.9669 515.248 58.0223 514.406 58.3992 513.703C58.7764 513 59.4417 512.5 60.2371 512.319L72.1043 509.618ZM64.9725 517.363L67.5164 524.449L88.3934 530.402L72.202 515.718L64.9725 517.363Z" fill="white"/>
<path d="M-13.2024 492.555C-12.0778 491.394 -10.155 491.404 -8.90743 492.582L5.66386 506.298C6.26344 506.862 6.62265 507.624 6.66484 508.416C6.70698 509.209 6.42713 509.967 5.88652 510.524L-7.50606 524.335C-8.44689 525.306 -9.94889 525.455 -11.1447 524.788C-11.3768 524.659 -11.5976 524.499 -11.8 524.308C-13.0483 523.133 -13.1486 521.241 -12.0236 520.081L-3.76094 511.559L-14.6018 511.455L-20.3049 517.338C-21.2458 518.308 -22.7459 518.457 -23.9406 517.791C-24.1725 517.662 -24.393 517.502 -24.5959 517.311C-25.8429 516.137 -25.9431 514.247 -24.8195 513.088L-23.1584 511.373L-34.9563 511.261C-35.7952 514.158 -38.7332 516.049 -42.0412 515.617C-45.7815 515.13 -48.5748 511.859 -48.2805 508.312C-47.9859 504.765 -44.7158 502.285 -40.9758 502.773C-39.0802 503.02 -37.4286 503.983 -36.2981 505.333L-23.2639 505.457L-25.5354 503.319C-26.7821 502.145 -26.8817 500.255 -25.758 499.096C-24.6351 497.936 -22.7107 497.942 -21.467 499.123L-14.6516 505.539L-3.5627 505.645L-12.9787 496.781C-14.2264 495.607 -14.3273 493.715 -13.2024 492.555Z" fill="white"/>
<path d="M100.187 490.198C101.312 489.038 103.237 489.048 104.482 490.226C105.73 491.4 105.831 493.293 104.706 494.452L96.4422 502.974L107.285 503.077L112.987 497.196C114.11 496.037 116.032 496.043 117.278 497.223C118.525 498.396 118.626 500.287 117.502 501.446L115.84 503.158L127.739 503.273C127.858 502.847 128.024 502.43 128.24 502.028C129.917 498.896 133.944 497.845 137.233 499.68C140.522 501.515 141.829 505.54 140.152 508.672C138.475 511.804 134.448 512.855 131.159 511.021C130.305 510.544 129.586 509.918 129.016 509.2L115.945 509.076L118.217 511.215C119.464 512.389 119.564 514.279 118.44 515.438C117.499 516.408 115.999 516.557 114.804 515.891C114.573 515.761 114.352 515.601 114.149 515.41L107.334 508.994L96.2449 508.889L105.661 517.752C106.909 518.927 107.008 520.819 105.884 521.979C104.942 522.949 103.44 523.099 102.244 522.432C102.012 522.302 101.791 522.142 101.589 521.951L87.0184 508.238C86.4191 507.673 86.0586 506.911 86.0164 506.118C85.9743 505.326 86.2548 504.568 86.7947 504.011L100.187 490.198Z" fill="white"/>
<path fill-rule="evenodd" clip-rule="evenodd" d="M45.7137 495.366C52.3786 495.411 58.0852 500.781 58.4305 507.342C58.7756 513.905 53.6343 519.209 46.9695 519.167C44.8181 519.154 42.7233 518.592 40.8553 517.55C39.9185 517.027 39.0389 516.384 38.2371 515.629C35.8357 513.367 34.4208 510.371 34.2537 507.193C33.9073 500.631 39.0473 495.326 45.7137 495.366ZM46.0281 501.325C42.7015 501.305 40.135 503.953 40.3074 507.229C40.391 508.815 41.0977 510.311 42.2967 511.441C43.4953 512.569 45.0443 513.196 46.6551 513.206C49.9821 513.227 52.5474 510.579 52.3758 507.304C52.2592 505.107 50.9384 503.175 49.0779 502.137C48.1648 501.628 47.1229 501.333 46.0281 501.325Z" fill="white"/>
<path fill-rule="evenodd" clip-rule="evenodd" d="M-9.50118 476.454C-8.87415 475.286 -7.49001 474.734 -6.14766 475.115L28.1189 484.885C29.1115 485.168 29.9147 485.915 30.2586 486.873L34.4344 498.505C34.7143 499.285 34.6599 500.126 34.283 500.828C33.9062 501.531 33.2406 502.031 32.4451 502.213L20.577 504.915C19.8368 505.084 19.0518 504.96 18.3807 504.586C18.1666 504.467 17.964 504.323 17.7781 504.155L-8.7961 480.053C-9.83721 479.109 -10.1286 477.624 -9.50118 476.454ZM20.4793 498.816L27.7098 497.17L25.1658 490.083L4.28886 484.132L20.4793 498.816Z" fill="white"/>
<path fill-rule="evenodd" clip-rule="evenodd" d="M96.9041 473.662C98.23 473.288 99.6962 473.865 100.46 475.065C101.223 476.261 101.085 477.769 100.126 478.717L75.6561 502.933C74.9492 503.632 73.9081 503.911 72.8904 503.673L60.5271 500.787C60.2301 500.717 59.9455 500.606 59.6814 500.459C59.209 500.196 58.8034 499.817 58.5096 499.356C58.0509 498.636 57.9054 497.78 58.1072 496.989L61.115 485.202C61.3627 484.231 62.1025 483.479 63.0809 483.203L96.9041 473.662ZM66.6404 488.527L64.8074 495.708L72.3396 497.467L87.2478 482.714L66.6404 488.527Z" fill="white"/>
<path fill-rule="evenodd" clip-rule="evenodd" d="M44.1619 443.967C45.5611 443.976 46.8322 444.921 47.2391 446.261L57.6199 480.433C57.9194 481.42 57.6982 482.461 57.0301 483.198L48.9197 492.143C48.3762 492.742 47.5905 493.079 46.7488 493.074C46.2092 493.071 45.6773 492.928 45.2049 492.664C44.9409 492.517 44.6958 492.332 44.4773 492.115L35.4207 483.067C34.6744 482.321 34.344 481.277 34.5398 480.293L41.326 446.225C41.5914 444.89 42.7616 443.958 44.1619 443.967ZM40.8436 480.19L46.3611 485.702L51.3025 480.252L44.9783 459.433L40.8436 480.19Z" fill="white"/>
<path d="M-5.90645 430.727C-5.30214 427.222 -1.82306 425.017 1.86406 425.803C5.55122 426.589 8.05121 430.068 7.44706 433.573C7.28439 434.517 6.91084 435.365 6.38359 436.087L13.0232 446.59L13.7391 443.338C14.0885 441.747 15.703 440.812 17.3445 441.249C18.9855 441.68 20.0345 443.33 19.6844 444.921L17.6932 453.979L23.2293 462.736L25.741 451.31C26.0905 449.718 27.7058 448.784 29.3475 449.221C30.9914 449.653 32.0383 451.302 31.6883 452.893L27.6053 471.47C27.438 472.234 26.9629 472.884 26.2869 473.276C25.6103 473.667 24.7875 473.769 23.9988 473.559L4.43925 468.352C4.17258 468.281 3.9213 468.178 3.68925 468.049C2.49377 467.382 1.80623 466.012 2.09941 464.68C2.4489 463.089 4.06356 462.154 5.70585 462.591L18.3631 465.96L12.2059 456.221L4.24003 454.1C3.97112 454.03 3.72016 453.927 3.48808 453.797C2.29288 453.131 1.60505 451.761 1.89824 450.429C2.24736 448.838 3.86258 447.902 5.50468 448.339L7.57206 448.889L1.10234 438.655C0.634374 438.65 0.156546 438.6 -0.324421 438.497C-4.01142 437.711 -6.51066 434.232 -5.90645 430.727Z" fill="white"/>
<path d="M84.9695 424.511C88.0665 422.716 92.2065 423.819 94.2166 426.974C96.2268 430.129 95.344 434.142 92.2469 435.937C91.1843 436.553 89.999 436.826 88.8191 436.794L82.6023 448.124L85.4773 447.373C87.0591 446.959 88.7586 447.906 89.2713 449.489C89.785 451.07 88.9185 452.687 87.3357 453.101L78.6228 455.377L73.4012 464.897L84.7586 461.928C86.3383 461.514 88.0361 462.46 88.5467 464.039C89.0594 465.619 88.1934 467.235 86.6131 467.647L68.1629 472.47C67.373 472.677 66.553 472.544 65.868 472.162C65.1824 471.78 64.6304 471.148 64.3748 470.359L58.2742 451.548C57.7615 449.969 58.6275 448.354 60.2078 447.942C61.7869 447.527 63.4853 448.474 63.9959 450.053L67.8318 461.879L73.3641 451.793L70.8846 444.145C70.3714 442.562 71.2378 440.945 72.8201 440.532C74.4031 440.119 76.1016 441.066 76.6131 442.648L77.2703 444.674L83.2293 433.811C83.1503 433.701 83.0732 433.589 82.9998 433.474C80.9906 430.319 81.8727 426.305 84.9695 424.511Z" fill="white"/>
</g>
<g opacity="0.1">
<path d="M-16.3736 140.101C-14.1963 139.761 -11.9592 141.219 -11.3922 143.355C-10.8265 145.491 -12.14 147.508 -14.3199 147.851C-15.0367 147.962 -15.7602 147.881 -16.4273 147.644C-17.7892 147.16 -18.9202 146.03 -19.3004 144.597C-19.575 143.562 -19.4215 142.524 -18.8687 141.675C-18.3161 140.827 -17.43 140.267 -16.3736 140.101Z" fill="white"/>
<path d="M-12.6783 131.395C-11.8232 131.013 -10.7444 131.39 -10.2594 132.244L-6.36873 139.092C-5.87913 139.953 -6.17765 140.974 -7.03572 141.371C-7.46773 141.572 -7.96011 141.575 -8.40388 141.419C-8.84102 141.266 -9.23254 140.958 -9.47517 140.53L-12.4908 135.224L-17.816 137.605C-18.68 137.99 -19.7683 137.602 -20.2467 136.735C-20.7247 135.869 -20.4114 134.854 -19.5474 134.467L-12.6783 131.395Z" fill="white"/>
<path d="M27.975 132.568C28.5747 130.547 30.8293 129.531 33.0004 130.303C35.171 131.074 36.4507 133.346 35.851 135.368C35.2513 137.39 32.9961 138.406 30.8256 137.635C28.6544 136.863 27.3754 134.59 27.975 132.568Z" fill="white"/>
<path fill-rule="evenodd" clip-rule="evenodd" d="M-1.39803 60.2813C-0.541345 59.8851 0.54818 60.2609 1.03654 61.1182L7.81779 73.0382L19.7914 67.6866C20.6537 67.3022 21.7404 67.6889 22.2182 68.5528C22.6951 69.4164 22.3836 70.4296 21.5209 70.8155L8.50041 76.6339L3.76994 91.7696C4.85677 92.4896 5.75131 93.4304 6.4008 94.4971L20.936 92.0303C20.9759 91.9124 21.0304 91.7981 21.1 91.6895L29.0297 79.3136C29.536 78.524 30.6511 78.3359 31.518 78.8946C32.3865 79.4541 32.6797 80.5481 32.1742 81.338L25.1479 92.3018L37.103 100.202C37.9636 100.771 38.2437 101.867 37.726 102.65C37.2942 103.302 36.4463 103.531 35.6772 103.26C35.523 103.205 35.3728 103.131 35.2289 103.036L23.3285 95.171C23.2811 95.1832 23.2326 95.1958 23.183 95.2042L7.54729 97.8565C7.64527 98.805 7.56685 99.7729 7.28166 100.716C7.02876 101.552 6.6332 102.301 6.13029 102.952L16.3471 113.864L30.7387 115.143C31.7437 115.232 32.5544 116.085 32.5502 117.049C32.5459 118.013 31.728 118.721 30.7231 118.632L16.7758 117.395L16.5356 130.751C16.5177 131.713 15.6894 132.411 14.684 132.31C14.5256 132.293 14.3715 132.258 14.225 132.206C13.4466 131.931 12.883 131.193 12.8969 130.383L13.1655 115.425L3.4633 105.063C2.14289 105.67 0.618469 105.904 -0.940018 105.686L-5.76131 121.114L-5.76424 121.119L1.29826 133.531C1.78666 134.39 1.4882 135.409 0.632248 135.806C0.200536 136.006 -0.291833 136.009 -0.73494 135.854C-1.17132 135.701 -1.56168 135.394 -1.80428 134.969L-8.58455 123.049L-20.5592 128.4C-21.4212 128.784 -22.5082 128.397 -22.9849 127.534C-23.4621 126.671 -23.1501 125.658 -22.2877 125.272L-9.26814 119.452L-4.53767 104.316C-5.62451 103.595 -6.52007 102.656 -7.16951 101.589L-21.7037 104.056C-21.7437 104.174 -21.7971 104.289 -21.8668 104.398L-29.7965 116.774C-30.2231 117.438 -31.0793 117.676 -31.857 117.401C-32.0037 117.351 -32.1474 117.28 -32.2847 117.191C-33.1526 116.632 -33.446 115.539 -32.94 114.749L-25.9146 103.785L-37.8697 95.8839C-38.7307 95.3146 -39.0102 94.2196 -38.4928 93.4366C-37.9757 92.6545 -36.8582 92.4808 -35.9957 93.0499L-24.0963 100.915C-24.0491 100.903 -24.001 100.892 -23.9517 100.884L-8.31599 98.2296C-8.41386 97.2815 -8.33445 96.3137 -8.04939 95.3712C-7.79653 94.5352 -7.40194 93.7852 -6.899 93.1339L-17.1158 82.2218L-31.5054 80.9444C-31.6729 80.93 -31.8355 80.8931 -31.9888 80.8389C-32.7581 80.5675 -33.3207 79.8412 -33.317 79.0382C-33.3128 78.0743 -32.4945 77.3653 -31.4898 77.4542L-17.5435 78.6925L-17.3023 65.335C-17.2852 64.3728 -16.4567 63.6753 -15.4517 63.7764C-14.4508 63.8775 -13.6478 64.7402 -13.6646 65.7032L-13.9342 80.6602L-4.23201 91.0225C-2.91162 90.4146 -1.3863 90.1811 0.172287 90.3995L4.99358 74.9727C4.99425 74.9706 4.99485 74.9681 4.99553 74.9659L-2.06502 62.5557C-2.55337 61.6967 -2.25436 60.6781 -1.39803 60.2813ZM0.815842 94.0753C-0.319241 93.6797 -1.47967 93.7497 -2.44588 94.1807C-2.52966 94.4536 -2.6867 94.7047 -2.91853 94.9044C-3.20002 95.1469 -3.54775 95.2742 -3.90779 95.2979C-4.20449 95.6674 -4.43483 96.099 -4.58064 96.5811C-5.24185 98.7683 -3.89725 101.204 -1.58357 102.011C-0.448313 102.407 0.711893 102.336 1.67815 101.905C1.76195 101.633 1.91905 101.381 2.1508 101.182C2.43208 100.939 2.78054 100.809 3.14104 100.785C3.43657 100.416 3.66751 99.9876 3.81291 99.5069C4.47474 97.3185 3.12971 94.8819 0.815842 94.0753Z" fill="white"/>
<path d="M23.8715 123.439L31.852 124.148C32.8607 124.238 33.6655 125.091 33.6615 126.053C33.6572 127.016 32.8395 127.724 31.8363 127.635L25.6498 127.085L25.5434 133.012C25.5255 133.973 24.6983 134.671 23.6938 134.569C23.5346 134.553 23.3807 134.517 23.2348 134.466C22.4568 134.191 21.8937 133.452 21.9076 132.643L22.0453 124.998C22.0623 124.046 22.8773 123.351 23.8715 123.439Z" fill="white"/>
<path d="M-2.25935 113.576C-0.348362 110.402 4.06107 109.656 7.36174 111.947L7.39104 122.944C7.39712 125.255 4.19462 125.797 3.07365 123.675L-2.25935 113.576Z" fill="white"/>
<path d="M-15.0572 104.527C-11.1321 104.754 -7.9724 108.138 -8.16267 111.911L-18.0074 116.722C-20.0761 117.732 -22.3707 115.275 -21.1012 113.408L-15.0572 104.527Z" fill="white"/>
<path d="M-44.5426 100.302C-44.0254 99.5198 -42.9104 99.3454 -42.0474 99.9161L-35.2056 104.438C-34.3531 105.001 -34.0708 106.083 -34.5719 106.865L-38.5914 113.14C-39.0167 113.804 -39.8722 114.041 -40.65 113.768C-40.7968 113.716 -40.9404 113.646 -41.0777 113.558C-41.9447 112.999 -42.2376 111.906 -41.732 111.117L-38.6158 106.253L-43.9195 102.748C-44.7798 102.179 -45.0592 101.084 -44.5426 100.302Z" fill="white"/>
<path d="M-50.5103 105.006C-48.9046 103.641 -46.3126 103.899 -44.733 105.575C-43.9674 106.389 -43.5512 107.411 -43.5592 108.453C-43.5675 109.496 -44.0003 110.435 -44.7779 111.096C-45.5553 111.757 -46.5843 112.062 -47.6754 111.954C-48.0395 111.919 -48.3961 111.838 -48.7379 111.717C-49.4203 111.474 -50.0445 111.068 -50.5543 110.526C-52.1344 108.847 -52.1152 106.371 -50.5103 105.006Z" fill="white"/>
<path d="M24.8744 104.201C26.9225 105.482 26.0266 108.437 23.6664 108.187L12.435 106.99C10.447 103.64 11.6815 99.5682 15.1283 98.1065L24.8744 104.201Z" fill="white"/>
<path d="M-24.4342 87.9005L-13.2027 89.0968C-11.2148 92.4472 -12.4486 96.5187 -15.8951 97.9805L-25.6422 91.8868C-27.69 90.6061 -26.7939 87.6496 -24.4342 87.9005Z" fill="white"/>
<path d="M37.8237 82.9464C38.3295 82.1575 39.4423 81.9695 40.31 82.5284C41.1777 83.0875 41.4703 84.1805 40.9653 84.9698L37.8481 89.8331L43.1518 93.3389C44.0125 93.9081 44.2911 95.0028 43.7738 95.7852C43.3431 96.4369 42.4955 96.6658 41.727 96.3946C41.5734 96.3404 41.4234 96.2659 41.2797 96.171L34.4389 91.6485C33.5859 91.0847 33.3031 90.0027 33.8041 89.2208L37.8237 82.9464Z" fill="white"/>
<path d="M44.0092 84.9903C45.6143 83.6265 48.2072 83.8829 49.7875 85.5606C51.3686 87.2395 51.3482 89.716 49.7436 91.0811C48.6663 91.9967 47.1443 92.1833 45.7826 91.6993C45.1149 91.4619 44.4857 91.0634 43.9653 90.5108C42.3855 88.8316 42.405 86.3543 44.0092 84.9903Z" fill="white"/>
<path d="M17.2397 79.3653C19.3084 78.3546 21.6034 80.8123 20.3334 82.6788L14.2905 91.5596C10.3651 91.3331 7.20455 87.9493 7.39494 84.1759L17.2397 79.3653Z" fill="white"/>
<path d="M-8.15877 73.1427C-8.16457 70.832 -4.96245 70.2895 -3.84138 72.4112L1.4926 82.5108C-0.418802 85.6845 -4.82884 86.431 -8.12947 84.1397L-8.15877 73.1427Z" fill="white"/>
<path d="M-24.4605 61.5177C-23.46 61.6187 -22.658 62.481 -22.6744 63.4434L-22.8131 71.088C-22.8303 72.0405 -23.6438 72.7357 -24.6383 72.6475L-32.6187 71.9386C-32.7863 71.924 -32.948 71.8881 -33.1012 71.8341C-33.8699 71.5628 -34.4328 70.836 -34.4293 70.0333C-34.4246 69.0704 -33.6068 68.3624 -32.6031 68.4512L-26.4166 69.0011L-26.3092 63.0753C-26.2921 62.1139 -25.4646 61.4166 -24.4605 61.5177Z" fill="white"/>
<path d="M-36.6178 60.7198C-36.0182 58.6985 -33.7642 57.6817 -31.5933 58.4532C-29.4216 59.2251 -28.1432 61.4972 -28.7428 63.5186C-29.3421 65.5393 -31.5968 66.556 -33.7681 65.7843C-35.9388 65.0125 -37.217 62.7403 -36.6178 60.7198Z" fill="white"/>
<path d="M6.26701 54.7169C7.12364 54.3184 8.21638 54.6949 8.70647 55.5557L11.7231 60.8634L17.0473 58.4835C17.9102 58.099 18.9991 58.4864 19.478 59.3526C19.9559 60.2188 19.6438 61.2346 18.7797 61.6212L11.9115 64.6915C11.4841 64.8825 11.0001 64.883 10.5629 64.7296C10.1259 64.5762 9.73532 64.2685 9.4926 63.8428L5.60002 56.9962C5.11067 56.1346 5.40939 55.1143 6.26701 54.7169Z" fill="white"/>
<path d="M13.5522 48.2364C14.6085 48.0704 15.7109 48.3178 16.6488 48.9317C17.5899 49.546 18.2596 50.4549 18.5336 51.4903C19.0994 53.627 17.7868 55.6436 15.6069 55.9864C14.8902 56.0984 14.1672 56.0157 13.4994 55.7784C12.1375 55.2943 11.0059 54.1661 10.6254 52.7325C10.0592 50.5957 11.3723 48.5794 13.5522 48.2364Z" fill="white"/>
</g>
<g opacity="0.1">
<path fill-rule="evenodd" clip-rule="evenodd" d="M563.136 265.297C564.569 264.902 566.013 265.639 566.361 266.943L570.227 281.417L574.942 273.918C575.668 272.761 577.202 272.304 578.364 272.899C579.526 273.492 579.879 274.913 579.151 276.07L571.885 287.626L575.896 302.641L588.299 282.921C589.024 281.767 590.556 281.312 591.716 281.906C592.878 282.5 593.23 283.916 592.504 285.07L577.553 308.843L582.534 327.488C585.263 327.2 587.891 327.74 590.093 328.936L601.495 317.981L602.632 288.646C602.683 287.318 603.859 286.183 605.256 286.118C606.654 286.05 607.746 287.071 607.694 288.399L606.742 312.94L617.513 302.59C617.509 302.517 617.508 302.443 617.511 302.368L618.083 287.661C618.133 286.335 619.303 285.201 620.702 285.137C622.097 285.068 623.186 286.087 623.134 287.413L622.74 297.569L635.417 285.391C636.42 284.424 637.993 284.353 638.927 285.227C639.863 286.101 639.807 287.591 638.802 288.556L627.423 299.486L636.048 299.065C637.443 298.996 638.533 300.015 638.481 301.341C638.438 302.451 637.609 303.424 636.52 303.751C636.309 303.815 636.088 303.853 635.862 303.864L622.169 304.535L610.811 315.447L634.713 314.278C636.11 314.21 637.202 315.231 637.15 316.559C637.107 317.67 636.276 318.644 635.186 318.972C634.975 319.035 634.753 319.075 634.526 319.086L605.548 320.504L593.661 331.925C594.607 333.129 595.316 334.542 595.709 336.126C596.259 338.347 596.119 340.622 595.424 342.745L612.591 346.337L639.142 330.804C640.375 330.079 641.908 330.398 642.562 331.514C643.216 332.629 642.744 334.119 641.509 334.841L619.418 347.765L634.943 351.013L646.874 344.032C648.108 343.308 649.64 343.627 650.294 344.742C650.948 345.857 650.477 347.348 649.241 348.07L641.769 352.441L656.002 355.419C657.313 355.693 658.051 356.948 657.649 358.22C657.38 359.073 656.666 359.718 655.829 359.968C655.418 360.09 654.977 360.118 654.546 360.028L638.935 356.761L644.048 365.482C644.702 366.597 644.23 368.086 642.995 368.809C642.794 368.926 642.585 369.016 642.374 369.079C641.285 369.407 640.122 369.032 639.575 368.099L632.116 355.378C632.107 355.362 632.099 355.345 632.09 355.329L617.709 352.32L629.287 372.069C629.941 373.184 629.469 374.674 628.234 375.397C628.033 375.514 627.824 375.604 627.613 375.667C626.524 375.994 625.362 375.619 624.815 374.686L610.862 350.888L592.996 347.151C591.771 348.648 590.221 349.927 588.422 350.861L593.226 368.849L618.554 381.797C619.716 382.39 620.069 383.808 619.342 384.962C618.98 385.539 618.414 385.942 617.797 386.125C617.178 386.309 616.506 386.275 615.925 385.978L594.936 375.248L598.838 389.853L611.271 396.208C612.434 396.802 612.787 398.222 612.059 399.379C611.332 400.536 609.799 400.993 608.637 400.399L600.55 396.266L604.63 411.534C604.978 412.838 604.098 414.216 602.666 414.611C601.234 415.007 599.789 414.27 599.441 412.966L595.575 398.492L590.862 405.99C590.499 406.569 589.933 406.972 589.314 407.156C588.695 407.341 588.022 407.306 587.44 407.009C586.277 406.415 585.924 404.995 586.652 403.838L593.916 392.282L589.905 377.266L577.503 396.986C576.778 398.141 575.246 398.596 574.086 398.002C572.924 397.409 572.572 395.991 573.298 394.837L588.248 371.064L583.267 352.418C580.538 352.707 577.911 352.167 575.709 350.972L564.308 361.925L563.171 391.262C563.127 392.374 562.296 393.348 561.207 393.676C560.995 393.74 560.773 393.779 560.547 393.79C559.149 393.859 558.058 392.838 558.11 391.51L559.061 366.966L548.289 377.316C548.293 377.389 548.295 377.464 548.292 377.54L547.721 392.248C547.678 393.359 546.848 394.332 545.76 394.659C545.549 394.723 545.328 394.762 545.101 394.773C543.706 394.841 542.617 393.822 542.669 392.496L543.062 382.337L530.386 394.517C530.056 394.835 529.664 395.055 529.254 395.178C528.416 395.427 527.502 395.268 526.876 394.682C525.94 393.808 525.996 392.317 527.001 391.353L538.377 380.421L529.756 380.844C528.36 380.913 527.27 379.894 527.322 378.568C527.373 377.242 528.546 376.107 529.942 376.043L543.631 375.372L554.991 364.459L531.089 365.629C529.692 365.697 528.601 364.677 528.653 363.349C528.704 362.021 529.878 360.887 531.276 360.821L560.254 359.403L572.14 347.982C571.194 346.778 570.486 345.365 570.093 343.781C569.543 341.56 569.682 339.284 570.377 337.161L553.211 333.57L526.661 349.104C526.46 349.223 526.251 349.313 526.041 349.376C524.952 349.703 523.789 349.329 523.242 348.395C522.588 347.28 523.059 345.79 524.295 345.068L546.384 332.142L530.859 328.894L518.929 335.874C518.729 335.993 518.52 336.083 518.308 336.147C517.219 336.474 516.056 336.1 515.508 335.165C514.854 334.051 515.327 332.56 516.562 331.837L524.032 327.466L509.8 324.489C508.489 324.215 507.751 322.961 508.153 321.689C508.554 320.416 509.944 319.606 511.256 319.881L526.867 323.147L521.755 314.427C521.1 313.312 521.572 311.821 522.807 311.099C524.041 310.373 525.574 310.694 526.228 311.81L533.686 324.529C533.695 324.545 533.702 324.562 533.711 324.578L548.093 327.587L536.516 307.839C535.862 306.725 536.333 305.234 537.568 304.512C538.8 303.788 540.334 304.106 540.988 305.222L554.941 329.02L572.805 332.757C574.03 331.259 575.58 329.98 577.38 329.047L572.575 311.058L547.248 298.111C546.086 297.519 545.733 296.101 546.46 294.946C547.184 293.792 548.715 293.337 549.877 293.931L570.865 304.659L566.964 290.054L554.532 283.7C553.369 283.106 553.016 281.687 553.744 280.529C554.47 279.373 556.004 278.915 557.166 279.51L565.251 283.642L561.173 268.374C560.825 267.07 561.704 265.692 563.136 265.297ZM586.82 332.886C585.127 332.131 583.098 331.97 581.071 332.576C576.708 333.88 573.979 338.25 574.988 342.319C575.209 343.208 575.59 344.012 576.097 344.709C576.893 344.518 577.739 344.693 578.33 345.245C578.835 345.717 579.049 346.369 578.982 347.021C580.675 347.775 582.703 347.938 584.731 347.332C589.094 346.028 591.823 341.657 590.814 337.589C590.593 336.699 590.212 335.896 589.705 335.198C588.909 335.389 588.063 335.216 587.472 334.664C586.967 334.192 586.753 333.538 586.82 332.886Z" fill="white"/>
<path d="M575.789 359.836C576.456 359.184 577.411 358.894 578.288 359.079C579.165 359.263 579.827 359.892 580.02 360.725L581.483 367.015C581.628 367.64 581.495 368.317 581.112 368.891L573.775 379.895C573.405 380.45 572.845 380.847 572.227 381.032C571.794 381.162 571.333 381.188 570.887 381.091C569.807 380.855 569.086 379.952 569.118 378.877L569.478 366.967C569.498 366.328 569.785 365.699 570.275 365.22L575.789 359.836Z" fill="white"/>
<path d="M596.877 354.486C597.553 353.839 598.513 353.558 599.387 353.751L606.003 355.213C606.66 355.358 607.203 355.757 607.508 356.317L613.366 367.056C613.869 367.978 613.636 369.159 612.796 369.952C612.463 370.267 612.067 370.489 611.65 370.614C611.013 370.805 610.327 370.768 609.743 370.476L599.027 365.119C598.451 364.832 598.04 364.329 597.883 363.72L596.128 356.873C595.916 356.045 596.201 355.132 596.877 354.486Z" fill="white"/>
<path d="M553.312 341.983C553.887 341.643 554.568 341.52 555.197 341.649L562.273 343.078C563.13 343.251 563.783 343.857 563.982 344.663C564.181 345.469 563.895 346.352 563.234 346.972L558.24 351.65C557.923 351.946 557.541 352.163 557.131 352.284C556.9 352.353 556.659 352.391 556.418 352.396L543.585 352.632C542.483 352.652 541.561 351.978 541.324 350.98C541.087 349.981 541.592 348.898 542.562 348.325L553.312 341.983Z" fill="white"/>
<path d="M622.217 327.278C623.319 327.257 624.242 327.93 624.479 328.93C624.716 329.929 624.21 331.01 623.24 331.583L612.49 337.927C612.293 338.043 612.083 338.134 611.868 338.198C611.454 338.321 611.019 338.344 610.605 338.26L603.529 336.831C602.672 336.659 602.019 336.052 601.82 335.245C601.621 334.439 601.907 333.556 602.568 332.937L607.562 328.259C608.059 327.794 608.716 327.526 609.385 327.514L622.217 327.278Z" fill="white"/>
<path d="M553.006 309.956C553.846 309.163 555.092 308.95 556.058 309.433L566.775 314.789C567.351 315.077 567.762 315.58 567.918 316.189L569.673 323.034C569.885 323.863 569.601 324.776 568.924 325.423C568.592 325.742 568.19 325.972 567.763 326.1C567.324 326.231 566.858 326.255 566.414 326.157L559.799 324.695C559.143 324.55 558.599 324.152 558.294 323.592L552.436 312.853C551.934 311.931 552.165 310.749 553.006 309.956Z" fill="white"/>
<path d="M592.028 300.015C592.657 299.07 593.835 298.582 594.916 298.819C595.996 299.055 596.717 299.957 596.685 301.032L596.324 312.942C596.304 313.58 596.017 314.209 595.527 314.689L590.013 320.073C589.678 320.401 589.27 320.637 588.836 320.768C588.406 320.897 587.95 320.922 587.514 320.83C586.638 320.646 585.975 320.017 585.782 319.185L584.319 312.894C584.174 312.269 584.308 311.592 584.69 311.019L592.028 300.015Z" fill="white"/>
</g>
</g>
<defs>
<clipPath id="clip0_78_9354">
<rect width="630" height="750" fill="white" transform="translate(0 0.00146484)"/>
</clipPath>
</defs>
</svg>
