<svg width="191" height="191" viewBox="0 0 191 191" fill="none" xmlns="http://www.w3.org/2000/svg">
<circle cx="95.5" cy="95.5" r="95.5" fill="#C50018"/>
<path d="M55.5953 138.159L41.3536 151.663L36.1076 146.124L45.6446 137.073L43.2319 134.532L33.6949 143.584L28.4289 138.036L42.6705 124.532C44.4276 126.387 46.1848 128.241 55.5953 138.159Z" fill="#FFE1B4"/>
<path d="M47.55 158.442L58.5585 142.2C61.1857 143.976 62.8306 145.093 65.4424 146.871C69.465 149.635 72.3134 153.533 69.0301 158.382C65.7468 163.23 61.0367 162.031 57.0055 159.331L56.4463 158.954L53.8747 162.736L47.5345 158.444L47.55 158.442ZM60.4265 154.592C61.4897 155.273 62.372 155.034 62.8946 154.239C63.4206 153.475 63.3188 152.562 62.2692 151.864L61.5053 151.338L59.647 154.068L60.411 154.594L60.4265 154.592Z" fill="#FFE1B4"/>
<path d="M86.0216 164.555L79.4365 171.345L73.1228 170.347L76.1905 150.962L83.691 152.147L83.1291 155.692L82.0094 159.687L88.5336 152.918L94.8473 153.916L91.7796 173.3L84.2157 172.105L84.7458 168.75L86.006 164.556L86.0216 164.555Z" fill="#FFE1B4"/>
<path d="M106.871 165.053C107.214 166.753 109.402 166.307 109.128 164.782C109.003 164.122 108.464 163.614 107.772 163.754L105.838 164.102L105.003 159.496L106.639 159.196C107.441 159.045 107.608 158.445 107.536 157.974C107.299 156.684 105.402 156.91 105.634 158.324L98.7159 159.583C97.9483 155.214 100.601 152.435 105.648 151.511C111.779 150.402 114.476 153.16 114.845 155.999C115.065 157.678 114.576 159.526 113.189 160.18C115.186 160.505 116.635 161.897 116.966 163.876C117.785 168.825 113.495 170.922 109.344 171.684C104.155 172.632 100.562 170.738 99.764 166.351L106.886 165.054L106.871 165.053Z" fill="#FFE1B4"/>
<path d="M136.573 147.973C144.601 158.879 127.725 171.594 119.511 160.65C111.364 149.584 128.344 136.998 136.573 147.973ZM130.405 152.528C127.651 148.879 122.863 152.445 125.569 156.123C128.307 159.755 133.08 156.174 130.405 152.528Z" fill="#FFE1B4"/>
<path d="M140.534 128.552C142.582 126.479 145.966 126.557 147.982 128.668C149.072 129.795 149.526 131.415 148.822 132.881C151.091 131.856 153.035 132.041 154.779 133.948C157.078 136.414 156.886 139.921 154.458 142.384L145.782 151.162L131.827 137.369L140.534 128.552ZM142.403 137.05L143.404 136.03C144.324 135.095 142.929 133.586 141.948 134.597L140.946 135.617L142.403 137.05ZM147.352 141.932L148.697 140.575C149.395 139.873 149.237 139.147 148.8 138.716C148.363 138.285 147.64 138.128 146.937 138.845L145.592 140.202L147.352 141.932Z" fill="#FFE1B4"/>
<path d="M30.4044 59.6041L36.2022 68.8132L47.609 66.7567L47.8318 66.859L44.2132 74.4868L37.6463 75.4642L42.6328 77.826C41.5633 80.0666 40.5082 82.323 39.4387 84.5636L22.1645 76.3744C23.234 74.1339 24.2891 71.8774 25.3586 69.6369L30.6861 72.1678L28.1625 68.562L26.7866 66.6091L30.1513 59.5003L30.4036 59.6193L30.4044 59.6041Z" fill="#FFE1B4"/>
<path d="M56.8275 53.41L52.5369 57.6937L53.5178 59.8348L48.0391 65.2824L47.5167 64.7577L39.6294 46.3687L45.6174 40.4137L63.9683 48.3999L64.4907 48.9247L59.012 54.3723L56.8581 53.3953L56.8275 53.41ZM50.4025 52.832L52.0076 51.235L47.8018 48.6302L50.4025 52.832Z" fill="#FFE1B4"/>
<path d="M65.6161 47.1718L56.9762 30.1022C59.7354 28.7061 61.4654 27.8356 64.2246 26.4395C68.4789 24.313 73.1423 23.7264 75.7278 28.8242C78.3133 33.9219 75.056 37.3746 70.8608 39.5344L70.2689 39.8238L72.2726 43.7985L65.6161 47.1718ZM68.4298 34.3836C69.5226 33.8003 69.7182 32.9289 69.3038 32.1029C68.9039 31.2928 68.0704 30.9471 66.9791 31.5001L66.169 31.9001L67.6197 34.7836L68.4298 34.3836Z" fill="#FFE1B4"/>
<path d="M76.9074 21.6791L84.4161 21.0072L86.7025 24.7986L87.9023 28.4443L88.409 24.7018L89.7273 20.529L97.6482 19.8171L90.7893 39.6496L83.6012 40.292L85.0666 35.3062L76.9187 22.0595L76.8771 21.6776L76.9074 21.6791Z" fill="#FFE1B4"/>
<path d="M118.914 33.2504L112.126 31.0565C112.202 27.7179 107.592 26.6359 106.353 30.448C105.141 34.3071 109.609 36.096 111.454 33.241L118.212 35.4182C113.429 46.5884 95.3957 40.5035 99.3263 28.1662C103.363 15.8343 121.487 21.3161 118.93 33.236L118.914 33.2504Z" fill="#FFE1B4"/>
<path d="M128.223 27.4015L141.382 35.2475L138.495 40.0862L131.725 36.0396L131.061 37.1458L137.581 41.0431L134.845 45.6158L128.325 41.7185L127.679 42.7952L134.45 46.8418L131.563 51.6804L118.405 43.8343L128.207 27.4159L128.223 27.4015Z" fill="#FFE1B4"/>
<path d="M146.588 57.6924L149.487 53.7013L145.13 56.0143L137.971 58.6626L133.023 52.9299L133.582 52.4438L152.37 45.748L157.775 52.0089L148.412 69.6111L147.852 70.0972L142.904 64.3645L146.574 57.6616L146.588 57.6924Z" fill="#FFE1B4"/>
<path d="M163.949 74.504L164.162 75.1223C165.654 79.6031 165.754 84.2724 160.344 86.113C154.934 87.9536 152.143 84.2281 150.59 79.7443C149.597 76.823 148.975 74.9838 147.967 72.0618L166.068 65.8893C166.862 68.2385 167.671 70.5884 168.479 72.9534L163.95 74.4888L163.949 74.504ZM158.559 76.2544L155.823 77.1959L156.115 78.0462C156.512 79.2056 157.208 79.5747 158.073 79.2838C158.954 78.9786 159.233 78.2785 158.866 77.1054L158.574 76.2552L158.559 76.2544Z" fill="#FFE1B4"/>
</svg>
